%TF.GenerationSoftware,KiCad,Pcbnew,10.0.0*%
%TF.CreationDate,2026-07-18T14:48:18-04:00*%
%TF.ProjectId,nrf54l15_v2,6e726635-346c-4313-955f-76322e6b6963,rev?*%
%TF.SameCoordinates,Original*%
%TF.FileFunction,Copper,L1,Top*%
%TF.FilePolarity,Positive*%
%FSLAX46Y46*%
G04 Gerber Fmt 4.6, Leading zero omitted, Abs format (unit mm)*
G04 Created by KiCad (PCBNEW 10.0.0) date 2026-07-18 14:48:18*
%MOMM*%
%LPD*%
G01*
G04 APERTURE LIST*
G04 Aperture macros list*
%AMRoundRect*
0 Rectangle with rounded corners*
0 $1 Rounding radius*
0 $2 $3 $4 $5 $6 $7 $8 $9 X,Y pos of 4 corners*
0 Add a 4 corners polygon primitive as box body*
4,1,4,$2,$3,$4,$5,$6,$7,$8,$9,$2,$3,0*
0 Add four circle primitives for the rounded corners*
1,1,$1+$1,$2,$3*
1,1,$1+$1,$4,$5*
1,1,$1+$1,$6,$7*
1,1,$1+$1,$8,$9*
0 Add four rect primitives between the rounded corners*
20,1,$1+$1,$2,$3,$4,$5,0*
20,1,$1+$1,$4,$5,$6,$7,0*
20,1,$1+$1,$6,$7,$8,$9,0*
20,1,$1+$1,$8,$9,$2,$3,0*%
%AMFreePoly0*
4,1,17,0.335278,0.685443,0.349923,0.650088,0.349923,-0.649935,0.335278,-0.685290,0.299923,-0.699935,0.000318,-0.699935,-0.000051,-0.700088,-0.300050,-0.700088,-0.335405,-0.685443,-0.350050,-0.650088,-0.350050,0.649935,-0.335405,0.685290,-0.300050,0.699935,-0.000445,0.699935,-0.000076,0.700088,0.299923,0.700088,0.335278,0.685443,0.335278,0.685443,$1*%
%AMFreePoly1*
4,1,17,0.335431,0.685290,0.350076,0.649935,0.350076,-0.650037,0.335431,-0.685392,0.300076,-0.700037,0.000187,-0.700037,0.000127,-0.700062,-0.299898,-0.700062,-0.335253,-0.685417,-0.349898,-0.650062,-0.349898,0.649910,-0.335253,0.685265,-0.299898,0.699910,-0.000009,0.699910,0.000051,0.699935,0.300076,0.699935,0.335431,0.685290,0.335431,0.685290,$1*%
%AMFreePoly2*
4,1,13,0.335227,0.685443,0.349872,0.650088,0.349872,-0.649884,0.335227,-0.685239,0.299872,-0.699884,-0.300152,-0.699884,-0.335507,-0.685239,-0.350152,-0.649884,-0.350152,0.650088,-0.335507,0.685443,-0.300152,0.700088,0.299872,0.700088,0.335227,0.685443,0.335227,0.685443,$1*%
G04 Aperture macros list end*
%TA.AperFunction,SMDPad,CuDef*%
%ADD10R,0.500000X0.540000*%
%TD*%
%TA.AperFunction,SMDPad,CuDef*%
%ADD11R,0.566000X0.540000*%
%TD*%
%TA.AperFunction,SMDPad,CuDef*%
%ADD12R,0.800000X0.900000*%
%TD*%
%TA.AperFunction,SMDPad,CuDef*%
%ADD13R,0.806000X0.864000*%
%TD*%
%TA.AperFunction,ComponentPad*%
%ADD14O,2.000000X1.200000*%
%TD*%
%TA.AperFunction,ComponentPad*%
%ADD15O,1.800000X1.200000*%
%TD*%
%TA.AperFunction,SMDPad,CuDef*%
%ADD16FreePoly0,270.000000*%
%TD*%
%TA.AperFunction,SMDPad,CuDef*%
%ADD17FreePoly1,270.000000*%
%TD*%
%TA.AperFunction,SMDPad,CuDef*%
%ADD18R,1.300000X0.300000*%
%TD*%
%TA.AperFunction,SMDPad,CuDef*%
%ADD19FreePoly2,270.000000*%
%TD*%
%TA.AperFunction,SMDPad,CuDef*%
%ADD20R,1.750000X1.000000*%
%TD*%
%TA.AperFunction,SMDPad,CuDef*%
%ADD21RoundRect,0.062500X-0.337500X-0.062500X0.337500X-0.062500X0.337500X0.062500X-0.337500X0.062500X0*%
%TD*%
%TA.AperFunction,SMDPad,CuDef*%
%ADD22RoundRect,0.062500X-0.062500X-0.337500X0.062500X-0.337500X0.062500X0.337500X-0.062500X0.337500X0*%
%TD*%
%TA.AperFunction,HeatsinkPad*%
%ADD23C,0.500000*%
%TD*%
%TA.AperFunction,HeatsinkPad*%
%ADD24R,3.600000X3.600000*%
%TD*%
%TA.AperFunction,SMDPad,CuDef*%
%ADD25R,0.540000X0.566000*%
%TD*%
%TA.AperFunction,SMDPad,CuDef*%
%ADD26R,0.368000X0.324000*%
%TD*%
%TA.AperFunction,SMDPad,CuDef*%
%ADD27R,1.350000X1.410000*%
%TD*%
%TA.AperFunction,SMDPad,CuDef*%
%ADD28R,0.600000X1.550000*%
%TD*%
%TA.AperFunction,SMDPad,CuDef*%
%ADD29R,1.200000X1.800000*%
%TD*%
%TA.AperFunction,SMDPad,CuDef*%
%ADD30R,0.900000X0.800000*%
%TD*%
%TA.AperFunction,SMDPad,CuDef*%
%ADD31R,0.600000X1.500000*%
%TD*%
%TA.AperFunction,SMDPad,CuDef*%
%ADD32R,0.550000X0.650000*%
%TD*%
%TA.AperFunction,SMDPad,CuDef*%
%ADD33R,0.500000X0.550000*%
%TD*%
%TA.AperFunction,SMDPad,CuDef*%
%ADD34R,1.701000X1.208000*%
%TD*%
%TA.AperFunction,SMDPad,CuDef*%
%ADD35R,0.864000X0.800000*%
%TD*%
%TA.AperFunction,SMDPad,CuDef*%
%ADD36R,2.000000X2.000000*%
%TD*%
%TA.AperFunction,SMDPad,CuDef*%
%ADD37O,1.454000X0.353000*%
%TD*%
%TA.AperFunction,SMDPad,CuDef*%
%ADD38R,0.600000X0.500000*%
%TD*%
%TA.AperFunction,SMDPad,CuDef*%
%ADD39R,1.377000X1.133000*%
%TD*%
%TA.AperFunction,SMDPad,CuDef*%
%ADD40R,1.728000X1.485000*%
%TD*%
%TA.AperFunction,ComponentPad*%
%ADD41C,1.400000*%
%TD*%
%TA.AperFunction,SMDPad,CuDef*%
%ADD42R,0.540000X0.540000*%
%TD*%
%TA.AperFunction,SMDPad,CuDef*%
%ADD43RoundRect,0.050000X-0.350000X-0.050000X0.350000X-0.050000X0.350000X0.050000X-0.350000X0.050000X0*%
%TD*%
%TA.AperFunction,SMDPad,CuDef*%
%ADD44RoundRect,0.050000X-0.050000X-0.350000X0.050000X-0.350000X0.050000X0.350000X-0.050000X0.350000X0*%
%TD*%
%TA.AperFunction,HeatsinkPad*%
%ADD45R,4.600000X4.600000*%
%TD*%
%TA.AperFunction,SMDPad,CuDef*%
%ADD46R,2.790000X0.740000*%
%TD*%
%TA.AperFunction,SMDPad,CuDef*%
%ADD47R,0.540000X0.500000*%
%TD*%
%TA.AperFunction,SMDPad,CuDef*%
%ADD48R,0.324000X0.368000*%
%TD*%
%TA.AperFunction,SMDPad,CuDef*%
%ADD49R,0.420000X0.220000*%
%TD*%
%TA.AperFunction,SMDPad,CuDef*%
%ADD50R,0.800000X0.864000*%
%TD*%
%TA.AperFunction,ViaPad*%
%ADD51C,0.500000*%
%TD*%
%TA.AperFunction,ViaPad*%
%ADD52C,0.450000*%
%TD*%
%TA.AperFunction,Conductor*%
%ADD53C,0.200000*%
%TD*%
%TA.AperFunction,Conductor*%
%ADD54C,0.500000*%
%TD*%
G04 APERTURE END LIST*
D10*
%TO.P,C4,1,1_1*%
%TO.N,GND*%
X112300000Y-87140000D03*
%TO.P,C4,2,2_2*%
%TO.N,CHG_IN*%
X111460000Y-87140000D03*
%TD*%
D11*
%TO.P,R4,1,1_1*%
%TO.N,Net-(U3-MPP-SET)*%
X117260000Y-70370000D03*
%TO.P,R4,2,2_2*%
%TO.N,SOLAR_5p5V*%
X116400000Y-70370000D03*
%TD*%
D12*
%TO.P,C26,1,1_1*%
%TO.N,GND*%
X103400000Y-92830000D03*
%TO.P,C26,2,2_2*%
%TO.N,VDDIO*%
X104800000Y-92830000D03*
%TD*%
D13*
%TO.P,R9,1,1_1*%
%TO.N,GND*%
X113050000Y-91490000D03*
%TO.P,R9,2,2_2*%
%TO.N,Net-(U2-VSET1)*%
X111550000Y-91490000D03*
%TD*%
D14*
%TO.P,J1,1*%
%TO.N,GND*%
X100749912Y-79170000D03*
D15*
%TO.P,J1,2*%
%TO.N,N/C*%
X96569912Y-79170000D03*
%TO.P,J1,3*%
X96569912Y-70510000D03*
D14*
%TO.P,J1,4*%
%TO.N,GND*%
X100749912Y-70510000D03*
D16*
%TO.P,J1,A1B12*%
X101509912Y-71640000D03*
D17*
%TO.P,J1,A4B9*%
%TO.N,VBUS*%
X101509912Y-72440000D03*
D18*
%TO.P,J1,A5,CC1_A5*%
%TO.N,CC1*%
X101509912Y-73590000D03*
%TO.P,J1,A6,DP1_A6*%
%TO.N,unconnected-(J1-DP1-PadA6)*%
X101509912Y-74590000D03*
%TO.P,J1,A7,DN1_A7*%
%TO.N,unconnected-(J1-DN1-PadA7)*%
X101509912Y-75090000D03*
%TO.P,J1,A8,SBU1_A8*%
%TO.N,unconnected-(J1-SBU1-PadA8)*%
X101509912Y-76090000D03*
D19*
%TO.P,J1,B1A12*%
%TO.N,GND*%
X101509912Y-78040000D03*
%TO.P,J1,B4A9*%
%TO.N,VBUS*%
X101509912Y-77240000D03*
D18*
%TO.P,J1,B5,CC2_B5*%
%TO.N,CC2*%
X101509912Y-76590000D03*
%TO.P,J1,B6,DP2_B6*%
%TO.N,unconnected-(J1-DP2-PadB6)*%
X101509912Y-75590000D03*
%TO.P,J1,B7,DN2_B7*%
%TO.N,unconnected-(J1-DN2-PadB7)*%
X101509912Y-74090000D03*
%TO.P,J1,B8,SBU2_B8*%
%TO.N,unconnected-(J1-SBU2-PadB8)*%
X101509912Y-73090000D03*
%TD*%
D20*
%TO.P,AE1,1,ANT_1*%
%TO.N,Net-(AE1-ANT)*%
X136210000Y-92820000D03*
%TO.P,AE1,2,2_2*%
%TO.N,GND*%
X136210000Y-95980000D03*
%TD*%
D21*
%TO.P,U2,1,VOUT1_1*%
%TO.N,VOUT1*%
X104090000Y-85810000D03*
%TO.P,U2,2,PVSS1_2*%
%TO.N,GND*%
X104090000Y-86310000D03*
%TO.P,U2,3,SW1_3*%
%TO.N,Net-(U2-SW1)*%
X104090000Y-86810000D03*
%TO.P,U2,4,PVDD_4*%
%TO.N,/npm1300/VSYS*%
X104090000Y-87310000D03*
%TO.P,U2,5,SW2_5*%
%TO.N,Net-(U2-SW2)*%
X104090000Y-87810000D03*
%TO.P,U2,6,PVSS2_6*%
%TO.N,GND*%
X104090000Y-88310000D03*
%TO.P,U2,7,GPIO0_7*%
%TO.N,unconnected-(U2-GPIO0-Pad7)*%
X104090000Y-88810000D03*
%TO.P,U2,8,GPIO1_8*%
%TO.N,PMIC_INT*%
X104090000Y-89310000D03*
D22*
%TO.P,U2,9,GPIO2_9*%
%TO.N,unconnected-(U2-GPIO2-Pad9)*%
X104790000Y-90010000D03*
%TO.P,U2,10,GPIO3_10*%
%TO.N,unconnected-(U2-GPIO3-Pad10)*%
X105290000Y-90010000D03*
%TO.P,U2,11,GPIO4_11*%
%TO.N,unconnected-(U2-GPIO4-Pad11)*%
X105790000Y-90010000D03*
%TO.P,U2,12,VDDIO_12*%
%TO.N,VDDIO*%
X106290000Y-90010000D03*
%TO.P,U2,13,SDA_13*%
%TO.N,I2C_SDA*%
X106790000Y-90010000D03*
%TO.P,U2,14,SCL_14*%
%TO.N,I2C_SCL*%
X107290000Y-90010000D03*
%TO.P,U2,15,SHPHLD_15*%
%TO.N,unconnected-(U2-SHPHLD-Pad15)*%
X107790000Y-90010000D03*
%TO.P,U2,16,VSET2_16*%
%TO.N,Net-(U2-VSET2)*%
X108290000Y-90010000D03*
D21*
%TO.P,U2,17,VSET1_17*%
%TO.N,Net-(U2-VSET1)*%
X108990000Y-89310000D03*
%TO.P,U2,18,NTC_18*%
%TO.N,Net-(U2-NTC)*%
X108990000Y-88810000D03*
%TO.P,U2,19,VBAT_19*%
%TO.N,VBAT*%
X108990000Y-88310000D03*
%TO.P,U2,20,VSYS_20*%
%TO.N,/npm1300/VSYS*%
X108990000Y-87810000D03*
%TO.P,U2,21,VBUS_21*%
%TO.N,CHG_IN*%
X108990000Y-87310000D03*
%TO.P,U2,22,VBUSOUT_22*%
%TO.N,VBUSOUT*%
X108990000Y-86810000D03*
%TO.P,U2,23,CC1_23*%
%TO.N,CC1*%
X108990000Y-86310000D03*
%TO.P,U2,24,CC2_24*%
%TO.N,CC2*%
X108990000Y-85810000D03*
D22*
%TO.P,U2,25,LED0_25*%
%TO.N,Net-(LED1-C)*%
X108290000Y-85110000D03*
%TO.P,U2,26,LED1_26*%
%TO.N,unconnected-(U2-LED1-Pad26)*%
X107790000Y-85110000D03*
%TO.P,U2,27,LED2_27*%
%TO.N,unconnected-(U2-LED2-Pad27)*%
X107290000Y-85110000D03*
%TO.P,U2,28,LSIN1/VINLDO1_28*%
%TO.N,unconnected-(U2-LSIN1{slash}VINLDO1-Pad28)*%
X106790000Y-85110000D03*
%TO.P,U2,29,LSOUT1/VOUTLDO1_29*%
%TO.N,unconnected-(U2-LSOUT1{slash}VOUTLDO1-Pad29)*%
X106290000Y-85110000D03*
%TO.P,U2,30,LSIN2/VINLDO2_30*%
%TO.N,unconnected-(U2-LSIN2{slash}VINLDO2-Pad30)*%
X105790000Y-85110000D03*
%TO.P,U2,31,LSOUT2/VOUTLDO2_31*%
%TO.N,unconnected-(U2-LSOUT2{slash}VOUTLDO2-Pad31)*%
X105290000Y-85110000D03*
%TO.P,U2,32,VOUT2_32*%
%TO.N,VDDIO*%
X104790000Y-85110000D03*
D23*
%TO.P,U2,33,AVSS_33*%
%TO.N,GND*%
X105540000Y-86560000D03*
X105540000Y-87560000D03*
X105540000Y-88560000D03*
X106540000Y-86560000D03*
X106540000Y-87560000D03*
D24*
X106540000Y-87560000D03*
D23*
X106540000Y-88560000D03*
X107540000Y-86560000D03*
X107540000Y-87560000D03*
X107540000Y-88560000D03*
%TD*%
D25*
%TO.P,R1,1,1_1*%
%TO.N,GND*%
X104230000Y-75480000D03*
%TO.P,R1,2,2_2*%
%TO.N,CC2*%
X104230000Y-76340000D03*
%TD*%
D11*
%TO.P,R8,1,1_1*%
%TO.N,GND*%
X111390000Y-88890000D03*
%TO.P,R8,2,2_2*%
%TO.N,Net-(U2-NTC)*%
X110530000Y-88890000D03*
%TD*%
D26*
%TO.P,C10,1,1_1*%
%TO.N,GND*%
X119390000Y-82170000D03*
%TO.P,C10,2,2_2*%
%TO.N,Net-(U6-DECD)*%
X119930000Y-82170000D03*
%TD*%
D27*
%TO.P,C18,1,1_1*%
%TO.N,GND*%
X100630000Y-86230000D03*
%TO.P,C18,2,2_2*%
%TO.N,VOUT1*%
X100630000Y-84230000D03*
%TD*%
D28*
%TO.P,CN1,1,1_1*%
%TO.N,GND*%
X106720000Y-96460000D03*
%TO.P,CN1,2,2_2*%
%TO.N,VDDIO*%
X107720000Y-96460000D03*
%TO.P,CN1,3,3_3*%
%TO.N,I2C_SDA*%
X108720000Y-96460000D03*
%TO.P,CN1,4,4_4*%
%TO.N,I2C_SCL*%
X109720000Y-96460000D03*
D29*
%TO.P,CN1,5,5_5*%
%TO.N,GND*%
X111020000Y-100340000D03*
%TO.P,CN1,6,6_6*%
X105420000Y-100340000D03*
%TD*%
D26*
%TO.P,L6,1,1_1*%
%TO.N,Net-(C8-Pad2)*%
X126010000Y-87510000D03*
%TO.P,L6,2,2_2*%
%TO.N,Net-(C5-Pad2)*%
X126550000Y-87510000D03*
%TD*%
D30*
%TO.P,C6,1,1_1*%
%TO.N,GND*%
X114480000Y-90370000D03*
%TO.P,C6,2,2_2*%
%TO.N,VDDIO*%
X114480000Y-88970000D03*
%TD*%
%TO.P,X1,1,1_1*%
%TO.N,Net-(U6-XC1)*%
X124900000Y-85740000D03*
%TO.P,X1,2,GND_2*%
%TO.N,GND*%
X126300000Y-85740000D03*
%TO.P,X1,3,3_3*%
%TO.N,Net-(U6-XC2)*%
X126300000Y-84640000D03*
%TO.P,X1,4,GND_4*%
%TO.N,GND*%
X124900000Y-84640000D03*
%TD*%
D31*
%TO.P,RF1,1,GND_1*%
%TO.N,GND*%
X131800000Y-91290000D03*
D32*
%TO.P,RF1,2,CONT_2*%
%TO.N,Net-(R11-RF2)*%
X130800000Y-90420000D03*
D31*
%TO.P,RF1,3,GND_3*%
%TO.N,GND*%
X129800000Y-91290000D03*
D33*
%TO.P,RF1,4,GND_4*%
X130800000Y-92320000D03*
%TD*%
D34*
%TO.P,R3,1,1_1*%
%TO.N,Net-(U3-XSHUT)*%
X133760000Y-71440000D03*
%TO.P,R3,2,2_2*%
%TO.N,CHG_IN*%
X133760000Y-74400000D03*
%TD*%
D35*
%TO.P,L9,1,1_1*%
%TO.N,Net-(U2-SW1)*%
X99060000Y-85640000D03*
%TO.P,L9,2,2_2*%
%TO.N,VOUT1*%
X99060000Y-84240000D03*
%TD*%
D36*
%TO.P,D2,1,K_1*%
%TO.N,CHG_IN*%
X119910000Y-79270000D03*
%TO.P,D2,2,A_2*%
%TO.N,SOLAR_5p5V*%
X119910000Y-74870000D03*
%TD*%
D30*
%TO.P,C28,1,1_1*%
%TO.N,GND*%
X121780000Y-71680000D03*
%TO.P,C28,2,2_2*%
%TO.N,Net-(U3-MPP-SET)*%
X121780000Y-70280000D03*
%TD*%
D37*
%TO.P,U3,1,MPP-SET_1*%
%TO.N,Net-(U3-MPP-SET)*%
X124580000Y-71400000D03*
%TO.P,U3,2,GND_2*%
%TO.N,GND*%
X124580000Y-72060000D03*
%TO.P,U3,3,LX_3*%
%TO.N,Net-(U3-LX)*%
X124580000Y-72710000D03*
%TO.P,U3,4,VOUT_4*%
%TO.N,CHG_IN*%
X124580000Y-73360000D03*
%TO.P,U3,5,VCTRL_5*%
%TO.N,Net-(U3-VCTRL)*%
X130440000Y-73360000D03*
%TO.P,U3,6,ICTRL_MINUS_6*%
%TO.N,GND*%
X130440000Y-72710000D03*
%TO.P,U3,7,ICTRL_PLUS_7*%
X130440000Y-72060000D03*
%TO.P,U3,8,XSHUT_8*%
%TO.N,Net-(U3-XSHUT)*%
X130440000Y-71400000D03*
%TD*%
D38*
%TO.P,LED1,1,C_1*%
%TO.N,Net-(LED1-C)*%
X111040000Y-83207544D03*
%TO.P,LED1,2,A_2*%
%TO.N,Net-(LED1-A)*%
X111040000Y-82307544D03*
%TD*%
D35*
%TO.P,L10,1,1_1*%
%TO.N,Net-(U2-SW2)*%
X103370000Y-82070000D03*
%TO.P,L10,2,2_2*%
%TO.N,VDDIO*%
X103370000Y-83470000D03*
%TD*%
D39*
%TO.P,L1,1,1_1*%
%TO.N,SOLAR_5p5V*%
X116420000Y-79105000D03*
%TO.P,L1,2,2_2*%
%TO.N,Net-(U3-LX)*%
X116420000Y-77165000D03*
%TD*%
D27*
%TO.P,C22,1,1_1*%
%TO.N,GND*%
X99480000Y-89310000D03*
%TO.P,C22,2,2_2*%
%TO.N,/npm1300/VSYS*%
X99480000Y-91310000D03*
%TD*%
D36*
%TO.P,D1,1,K_1*%
%TO.N,CHG_IN*%
X123380000Y-75720000D03*
%TO.P,D1,2,A_2*%
%TO.N,VBUS*%
X123380000Y-80120000D03*
%TD*%
D40*
%TO.P,C2,1,1_1*%
%TO.N,GND*%
X126920000Y-79350000D03*
%TO.P,C2,2,2_2*%
%TO.N,CHG_IN*%
X126920000Y-76170000D03*
%TD*%
D41*
%TO.P,U5,1,1_1*%
%TO.N,SOLAR_5p5V*%
X111842500Y-74617500D03*
%TO.P,U5,2,2_2*%
%TO.N,GND*%
X109842500Y-74617500D03*
%TD*%
D30*
%TO.P,C14,1,1_1*%
%TO.N,VBUS*%
X104010000Y-77460000D03*
%TO.P,C14,2,2_2*%
%TO.N,GND*%
X104010000Y-78860000D03*
%TD*%
D42*
%TO.P,L4,1,1_1*%
%TO.N,Net-(U6-DECD)*%
X121080000Y-82290000D03*
%TO.P,L4,2,2_2*%
%TO.N,Net-(U6-DECA)*%
X121080000Y-83130000D03*
%TD*%
D27*
%TO.P,C7,1,1_1*%
%TO.N,GND*%
X114530000Y-85680000D03*
%TO.P,C7,2,2_2*%
%TO.N,VDDIO*%
X114530000Y-87680000D03*
%TD*%
D43*
%TO.P,U6,1,P1.00_1*%
%TO.N,unconnected-(U6-P1.00-Pad1)*%
X117340000Y-85515000D03*
%TO.P,U6,2,P1.01_2*%
%TO.N,unconnected-(U6-P1.01-Pad2)*%
X117340000Y-85915000D03*
%TO.P,U6,3,P1.02_3*%
%TO.N,unconnected-(U6-P1.02-Pad3)*%
X117340000Y-86315000D03*
%TO.P,U6,4,P1.03_4*%
%TO.N,I2C_SCL*%
X117340000Y-86715000D03*
%TO.P,U6,5,P1.04_5*%
%TO.N,I2C_SDA*%
X117340000Y-87115000D03*
%TO.P,U6,6,P1.05_6*%
%TO.N,unconnected-(U6-P1.05-Pad6)*%
X117340000Y-87515000D03*
%TO.P,U6,7,P1.06_7*%
%TO.N,unconnected-(U6-P1.06-Pad7)*%
X117340000Y-87915000D03*
%TO.P,U6,8,P1.07_8*%
%TO.N,unconnected-(U6-P1.07-Pad8)*%
X117340000Y-88315000D03*
%TO.P,U6,9,P1.08_9*%
%TO.N,unconnected-(U6-P1.08-Pad9)*%
X117340000Y-88715000D03*
%TO.P,U6,10,VDD_10*%
%TO.N,VDDIO*%
X117340000Y-89115000D03*
%TO.P,U6,11,P2.00_11*%
%TO.N,unconnected-(U6-P2.00-Pad11)*%
X117340000Y-89515000D03*
%TO.P,U6,12,P2.01_12*%
%TO.N,unconnected-(U6-P2.01-Pad12)*%
X117340000Y-89915000D03*
D44*
%TO.P,U6,13,P2.02_13*%
%TO.N,unconnected-(U6-P2.02-Pad13)*%
X118090000Y-90665000D03*
%TO.P,U6,14,P2.03_14*%
%TO.N,unconnected-(U6-P2.03-Pad14)*%
X118490000Y-90665000D03*
%TO.P,U6,15,P2.04_15*%
%TO.N,unconnected-(U6-P2.04-Pad15)*%
X118890000Y-90665000D03*
%TO.P,U6,16,P2.05_16*%
%TO.N,unconnected-(U6-P2.05-Pad16)*%
X119290000Y-90665000D03*
%TO.P,U6,17,P2.06_17*%
%TO.N,unconnected-(U6-P2.06-Pad17)*%
X119690000Y-90665000D03*
%TO.P,U6,18,P2.07_18*%
%TO.N,unconnected-(U6-P2.07-Pad18)*%
X120090000Y-90665000D03*
%TO.P,U6,19,P2.08_19*%
%TO.N,unconnected-(U6-P2.08-Pad19)*%
X120490000Y-90665000D03*
%TO.P,U6,20,P2.09_20*%
%TO.N,unconnected-(U6-P2.09-Pad20)*%
X120890000Y-90665000D03*
%TO.P,U6,21,P2.10_21*%
%TO.N,unconnected-(U6-P2.10-Pad21)*%
X121290000Y-90665000D03*
%TO.P,U6,22,VDD_22*%
%TO.N,VDDIO*%
X121690000Y-90665000D03*
%TO.P,U6,23,P0.00_23*%
%TO.N,PMIC_INT*%
X122090000Y-90665000D03*
%TO.P,U6,24,P0.01_24*%
%TO.N,ANT_SEL*%
X122490000Y-90665000D03*
D43*
%TO.P,U6,25,SWDIO_25*%
%TO.N,nRF54_SWDIO*%
X123240000Y-89915000D03*
%TO.P,U6,26,SWDCLK_26*%
%TO.N,nRF54_SWDCLK*%
X123240000Y-89515000D03*
%TO.P,U6,27,P0.02_27*%
%TO.N,unconnected-(U6-P0.02-Pad27)*%
X123240000Y-89115000D03*
%TO.P,U6,28,P0.03_28*%
%TO.N,unconnected-(U6-P0.03-Pad28)*%
X123240000Y-88715000D03*
%TO.P,U6,29,P0.04_29*%
%TO.N,unconnected-(U6-P0.04-Pad29)*%
X123240000Y-88315000D03*
%TO.P,U6,30,~{RESET}_30*%
%TO.N,nRF54_RESET*%
X123240000Y-87915000D03*
%TO.P,U6,31,ANT_31*%
%TO.N,Net-(U6-ANT)*%
X123240000Y-87515000D03*
%TO.P,U6,32,VSS_PA_32*%
%TO.N,GND*%
X123240000Y-87115000D03*
%TO.P,U6,33,DECRF_33*%
%TO.N,Net-(U6-DECA)*%
X123240000Y-86715000D03*
%TO.P,U6,34,XC1_34*%
%TO.N,Net-(U6-XC1)*%
X123240000Y-86315000D03*
%TO.P,U6,35,XC2_35*%
%TO.N,Net-(U6-XC2)*%
X123240000Y-85915000D03*
%TO.P,U6,36,VDD_36*%
%TO.N,VDDIO*%
X123240000Y-85515000D03*
D44*
%TO.P,U6,37,P1.09_37*%
%TO.N,unconnected-(U6-P1.09-Pad37)*%
X122490000Y-84765000D03*
%TO.P,U6,38,P1.10_38*%
%TO.N,unconnected-(U6-P1.10-Pad38)*%
X122090000Y-84765000D03*
%TO.P,U6,39,P1.11_39*%
%TO.N,unconnected-(U6-P1.11-Pad39)*%
X121690000Y-84765000D03*
%TO.P,U6,40,P1.12_40*%
%TO.N,unconnected-(U6-P1.12-Pad40)*%
X121290000Y-84765000D03*
%TO.P,U6,41,P1.13_41*%
%TO.N,unconnected-(U6-P1.13-Pad41)*%
X120890000Y-84765000D03*
%TO.P,U6,42,P1.14_42*%
%TO.N,unconnected-(U6-P1.14-Pad42)*%
X120490000Y-84765000D03*
%TO.P,U6,43,DECA_43*%
%TO.N,Net-(U6-DECA)*%
X120090000Y-84765000D03*
%TO.P,U6,44,VSS_44*%
%TO.N,GND*%
X119690000Y-84765000D03*
%TO.P,U6,45,DECD_45*%
%TO.N,Net-(U6-DECD)*%
X119290000Y-84765000D03*
%TO.P,U6,46,DCC_46*%
%TO.N,Net-(U6-DCC)*%
X118890000Y-84765000D03*
%TO.P,U6,47,VDD_47*%
%TO.N,VDDIO*%
X118490000Y-84765000D03*
%TO.P,U6,48,VDD_48*%
X118090000Y-84765000D03*
D23*
%TO.P,U6,49,VSS_49*%
%TO.N,GND*%
X118490000Y-85915000D03*
X118490000Y-87115000D03*
X118490000Y-88315000D03*
X118490000Y-89515000D03*
X119690000Y-85915000D03*
X119690000Y-87115000D03*
X119690000Y-88315000D03*
X119690000Y-89515000D03*
D45*
X120290000Y-87715000D03*
D23*
X120890000Y-85915000D03*
X120890000Y-87115000D03*
X120890000Y-88315000D03*
X120890000Y-89515000D03*
X122090000Y-85915000D03*
X122090000Y-87115000D03*
X122090000Y-88315000D03*
X122090000Y-89515000D03*
%TD*%
D25*
%TO.P,R14,1,1_1*%
%TO.N,Net-(LED1-A)*%
X109800000Y-81640000D03*
%TO.P,R14,2,2_2*%
%TO.N,/npm1300/VSYS*%
X109800000Y-82500000D03*
%TD*%
D41*
%TO.P,U4,1,1_1*%
%TO.N,VBAT*%
X100420000Y-96500000D03*
%TO.P,U4,2,2_2*%
%TO.N,GND*%
X100420000Y-98500000D03*
%TD*%
D46*
%TO.P,J3,01,01_01*%
%TO.N,VDDIO*%
X129220000Y-99480000D03*
%TO.P,J3,02,02_02*%
%TO.N,nRF54_SWDIO*%
X125150000Y-99480000D03*
%TO.P,J3,03,03_03*%
%TO.N,GND*%
X129220000Y-98210000D03*
%TO.P,J3,04,04_04*%
%TO.N,nRF54_SWDCLK*%
X125150000Y-98210000D03*
%TO.P,J3,05,05_05*%
%TO.N,GND*%
X129220000Y-96940000D03*
%TO.P,J3,06,06_06*%
%TO.N,unconnected-(J3-Pad06)*%
X125150000Y-96940000D03*
%TO.P,J3,07,07_07*%
%TO.N,unconnected-(J3-Pad07)*%
X129220000Y-95670000D03*
%TO.P,J3,08,08_08*%
%TO.N,unconnected-(J3-Pad08)*%
X125150000Y-95670000D03*
%TO.P,J3,09,09_09*%
%TO.N,GND*%
X129220000Y-94400000D03*
%TO.P,J3,10,10_10*%
%TO.N,nRF54_RESET*%
X125150000Y-94400000D03*
%TD*%
D47*
%TO.P,C19,1,1_1*%
%TO.N,GND*%
X111370000Y-84520000D03*
%TO.P,C19,2,2_2*%
%TO.N,VBUSOUT*%
X111370000Y-85360000D03*
%TD*%
D48*
%TO.P,L3,1,1_1*%
%TO.N,Net-(AE1-ANT)*%
X131960000Y-87670000D03*
%TO.P,L3,2,2_2*%
%TO.N,Net-(C12-Pad2)*%
X131960000Y-87130000D03*
%TD*%
D25*
%TO.P,R13,1,1_1*%
%TO.N,I2C_SDA*%
X106030000Y-92640000D03*
%TO.P,R13,2,2_2*%
%TO.N,VDDIO*%
X106030000Y-91780000D03*
%TD*%
D11*
%TO.P,R5,1,1_1*%
%TO.N,GND*%
X119740000Y-70390000D03*
%TO.P,R5,2,2_2*%
%TO.N,Net-(U3-MPP-SET)*%
X118880000Y-70390000D03*
%TD*%
D25*
%TO.P,R6,1,1_1*%
%TO.N,Net-(U3-VCTRL)*%
X129850000Y-75750000D03*
%TO.P,R6,2,2_2*%
%TO.N,CHG_IN*%
X129850000Y-76610000D03*
%TD*%
D49*
%TO.P,R11,1,RF2_1*%
%TO.N,Net-(R11-RF2)*%
X129920000Y-87920000D03*
%TO.P,R11,2,GND_2*%
%TO.N,GND*%
X129920000Y-87520000D03*
%TO.P,R11,3,RF1_3*%
%TO.N,Net-(R11-RF1)*%
X129920000Y-87120000D03*
%TO.P,R11,4,VDD_4*%
%TO.N,VOUT1*%
X129260000Y-87120000D03*
%TO.P,R11,5,ANT_5*%
%TO.N,ANT*%
X129260000Y-87520000D03*
%TO.P,R11,6,VCTL_6*%
%TO.N,ANT_SEL*%
X129260000Y-87920000D03*
%TD*%
D48*
%TO.P,C5,1,1_1*%
%TO.N,GND*%
X126940000Y-88620000D03*
%TO.P,C5,2,2_2*%
%TO.N,Net-(C5-Pad2)*%
X126940000Y-88080000D03*
%TD*%
D30*
%TO.P,C3,1,1_1*%
%TO.N,GND*%
X113190000Y-90260000D03*
%TO.P,C3,2,2_2*%
%TO.N,VBAT*%
X113190000Y-88860000D03*
%TD*%
%TO.P,C15,1,1_1*%
%TO.N,GND*%
X129270000Y-84520000D03*
%TO.P,C15,2,2_2*%
%TO.N,VOUT1*%
X129270000Y-85920000D03*
%TD*%
D26*
%TO.P,L5,1,1_1*%
%TO.N,Net-(U6-ANT)*%
X124680000Y-87510000D03*
%TO.P,L5,2,2_2*%
%TO.N,Net-(C8-Pad2)*%
X125220000Y-87510000D03*
%TD*%
D27*
%TO.P,C20,1,1_1*%
%TO.N,GND*%
X101620000Y-89350000D03*
%TO.P,C20,2,2_2*%
%TO.N,/npm1300/VSYS*%
X101620000Y-91350000D03*
%TD*%
D25*
%TO.P,R2,1,1_1*%
%TO.N,GND*%
X104190000Y-74420000D03*
%TO.P,R2,2,2_2*%
%TO.N,CC1*%
X104190000Y-73560000D03*
%TD*%
D50*
%TO.P,L7,1,1_1*%
%TO.N,Net-(U6-DCC)*%
X118450000Y-83300000D03*
%TO.P,L7,2,2_2*%
%TO.N,Net-(U6-DECD)*%
X119850000Y-83300000D03*
%TD*%
D48*
%TO.P,C13,1,1_1*%
%TO.N,ANT*%
X128570000Y-88040000D03*
%TO.P,C13,2,2_2*%
%TO.N,GND*%
X128570000Y-88580000D03*
%TD*%
D25*
%TO.P,R12,1,1_1*%
%TO.N,I2C_SCL*%
X107560000Y-91890000D03*
%TO.P,R12,2,2_2*%
%TO.N,VDDIO*%
X107560000Y-92750000D03*
%TD*%
%TO.P,R7,1,1_1*%
%TO.N,GND*%
X131170000Y-76600000D03*
%TO.P,R7,2,2_2*%
%TO.N,Net-(U3-VCTRL)*%
X131170000Y-75740000D03*
%TD*%
D48*
%TO.P,C11,1,1_1*%
%TO.N,Net-(U6-DECA)*%
X123460000Y-83140000D03*
%TO.P,C11,2,2_2*%
%TO.N,GND*%
X123460000Y-82600000D03*
%TD*%
%TO.P,L2,1,1_1*%
%TO.N,GND*%
X132620000Y-87680000D03*
%TO.P,L2,2,2_2*%
%TO.N,Net-(C12-Pad2)*%
X132620000Y-87140000D03*
%TD*%
%TO.P,C1,1,1_1*%
%TO.N,Net-(U6-DECA)*%
X122710000Y-83100000D03*
%TO.P,C1,2,2_2*%
%TO.N,GND*%
X122710000Y-82560000D03*
%TD*%
D30*
%TO.P,C16,1,1_1*%
%TO.N,GND*%
X97750000Y-89850000D03*
%TO.P,C16,2,2_2*%
%TO.N,/npm1300/VSYS*%
X97750000Y-91250000D03*
%TD*%
D13*
%TO.P,R10,1,1_1*%
%TO.N,GND*%
X112700000Y-92900000D03*
%TO.P,R10,2,2_2*%
%TO.N,Net-(U2-VSET2)*%
X111200000Y-92900000D03*
%TD*%
D27*
%TO.P,C17,1,1_1*%
%TO.N,GND*%
X104750000Y-81470000D03*
%TO.P,C17,2,2_2*%
%TO.N,VDDIO*%
X104750000Y-83470000D03*
%TD*%
D26*
%TO.P,L8,1,1_1*%
%TO.N,Net-(C5-Pad2)*%
X127410000Y-87530000D03*
%TO.P,L8,2,2_2*%
%TO.N,ANT*%
X127950000Y-87530000D03*
%TD*%
%TO.P,C12,1,1_1*%
%TO.N,Net-(R11-RF1)*%
X130750000Y-87130000D03*
%TO.P,C12,2,2_2*%
%TO.N,Net-(C12-Pad2)*%
X131290000Y-87130000D03*
%TD*%
D27*
%TO.P,C27,1,1_1*%
%TO.N,GND*%
X116330000Y-74960000D03*
%TO.P,C27,2,2_2*%
%TO.N,SOLAR_5p5V*%
X116330000Y-72960000D03*
%TD*%
D47*
%TO.P,C9,1,1_1*%
%TO.N,Net-(U6-DECA)*%
X122010000Y-83180000D03*
%TO.P,C9,2,2_2*%
%TO.N,GND*%
X122010000Y-82340000D03*
%TD*%
D48*
%TO.P,C8,1,1_1*%
%TO.N,GND*%
X125600000Y-88630000D03*
%TO.P,C8,2,2_2*%
%TO.N,Net-(C8-Pad2)*%
X125600000Y-88090000D03*
%TD*%
D51*
%TO.N,GND*%
X132650000Y-88375000D03*
X136150000Y-82375000D03*
X122575000Y-96650000D03*
X95550000Y-88550000D03*
X136150000Y-78650000D03*
X129860000Y-88650000D03*
X136500000Y-88260000D03*
X131520000Y-72710000D03*
X131930000Y-76660000D03*
X124920000Y-86760000D03*
X102360000Y-98440000D03*
X113000000Y-92125000D03*
X95775000Y-93175000D03*
X135300000Y-90875000D03*
X134170000Y-88190000D03*
X136200000Y-74075000D03*
X124930000Y-83900000D03*
X118175000Y-71675000D03*
X126940000Y-89220000D03*
X133180000Y-86490000D03*
X127730000Y-89530000D03*
X116975000Y-100325000D03*
X137050000Y-91525000D03*
X114150000Y-91170000D03*
X127730000Y-88170000D03*
X130070000Y-84510000D03*
X112150000Y-100320000D03*
X133250000Y-69425000D03*
X136225000Y-71475000D03*
X136180000Y-97420000D03*
X109850000Y-76810000D03*
X112715000Y-93580000D03*
X135275000Y-91450000D03*
X131530000Y-72030000D03*
X100500000Y-93425000D03*
X125710000Y-86750000D03*
X112950000Y-87130000D03*
X105860000Y-81470000D03*
X128140000Y-86750000D03*
X136250000Y-84400000D03*
X117175000Y-93350000D03*
X104320000Y-100430000D03*
X127750000Y-88840000D03*
X129110000Y-91300000D03*
X119820000Y-71140000D03*
X95575000Y-86475000D03*
X108490000Y-91020000D03*
X122125000Y-73825000D03*
X99710000Y-86740000D03*
X126550000Y-86760000D03*
X135150000Y-90300000D03*
X106000000Y-70850000D03*
X127070000Y-85820000D03*
X133550000Y-91030000D03*
X128590000Y-89170000D03*
X134940000Y-88190000D03*
X95625000Y-81500000D03*
X103100000Y-69700000D03*
X126960000Y-80460000D03*
X136400000Y-100850000D03*
X112050000Y-84520000D03*
X131325000Y-94425000D03*
X131590000Y-86490000D03*
X122020000Y-81770000D03*
X102570000Y-92830000D03*
X133490000Y-90220000D03*
X136125000Y-80375000D03*
X131400000Y-101025000D03*
X126900000Y-90375000D03*
X105970000Y-96423000D03*
X104725000Y-70100000D03*
X123860000Y-82600000D03*
X114560000Y-84450000D03*
X133420000Y-88190000D03*
X107800000Y-81350000D03*
X136250000Y-69475000D03*
X131930000Y-92450000D03*
X125475000Y-69550000D03*
X106925000Y-73475000D03*
X132880000Y-91060000D03*
X128100000Y-92325000D03*
X134150000Y-91010000D03*
X134030000Y-90250000D03*
X132330000Y-86480000D03*
X133775000Y-81275000D03*
X118550000Y-96625000D03*
X96780000Y-89920000D03*
X101300000Y-88230000D03*
X98300000Y-88970000D03*
X131275000Y-81200000D03*
X130180000Y-86520000D03*
X136175000Y-76725000D03*
X126100000Y-88630000D03*
X103560000Y-75480000D03*
X132790000Y-90200000D03*
X130630000Y-87740000D03*
X118960000Y-82170000D03*
X135700000Y-88190000D03*
X98025000Y-81375000D03*
X127310000Y-86750000D03*
X103540000Y-74460000D03*
X111990762Y-88890000D03*
X137025000Y-90175000D03*
X131340000Y-87700000D03*
X104050000Y-79670000D03*
X137050000Y-90850000D03*
X122710000Y-82120000D03*
X133900000Y-100925000D03*
X123550000Y-72060000D03*
X131225000Y-96950000D03*
X122570000Y-71700000D03*
X95700000Y-84050000D03*
X137260000Y-89200000D03*
X130800000Y-92890000D03*
X130175000Y-69475000D03*
X131250000Y-98200000D03*
X112525000Y-78950000D03*
X106850000Y-71825000D03*
X136850000Y-88700000D03*
X116350000Y-76010000D03*
X130880000Y-86510000D03*
%TO.N,CHG_IN*%
X113490000Y-82090000D03*
X118020000Y-79880000D03*
%TO.N,VDDIO*%
X108630000Y-93870000D03*
X104890000Y-91800000D03*
X123210000Y-84850000D03*
X116710000Y-84860000D03*
X106045000Y-83185000D03*
X115570000Y-95810000D03*
X107315000Y-94590000D03*
X115215000Y-89405000D03*
%TO.N,VBUS*%
X105160000Y-72510000D03*
X105160000Y-77460000D03*
%TO.N,CC1*%
X110530000Y-78030000D03*
X110540000Y-85630000D03*
%TO.N,CC2*%
X106020000Y-76570000D03*
X108990000Y-85500000D03*
%TO.N,VOUT1*%
X128030000Y-85852000D03*
X106660000Y-79600000D03*
D52*
%TO.N,/npm1300/VSYS*%
X108990000Y-87810000D03*
D51*
X109760000Y-83230000D03*
X102695000Y-88560000D03*
%TO.N,Net-(U2-SW2)*%
X103200000Y-87810000D03*
X102400000Y-83040000D03*
%TO.N,PMIC_INT*%
X121390000Y-92360000D03*
X103650000Y-91180000D03*
%TO.N,I2C_SDA*%
X115650000Y-85490000D03*
X108720000Y-94970000D03*
%TO.N,I2C_SCL*%
X116280000Y-86750000D03*
X114600000Y-91720000D03*
X109705000Y-94065000D03*
%TO.N,VBAT*%
X113190000Y-88720000D03*
X103632000Y-95123000D03*
%TO.N,Net-(U6-DECA)*%
X124265000Y-86825000D03*
X123460000Y-83580000D03*
%TO.N,nRF54_SWDIO*%
X123200000Y-91780000D03*
X121650000Y-99575000D03*
%TO.N,nRF54_SWDCLK*%
X124587000Y-89620000D03*
X121725000Y-98200000D03*
%TO.N,nRF54_RESET*%
X124587000Y-88265000D03*
X125075000Y-93050000D03*
%TD*%
%TO.N,GND*%
D53*
X132650000Y-87710000D02*
X132650000Y-88375000D01*
X132620000Y-87680000D02*
X132650000Y-87710000D01*
X122020000Y-82330000D02*
X122010000Y-82340000D01*
X104320000Y-100430000D02*
X105330000Y-100430000D01*
X122020000Y-81770000D02*
X122020000Y-82330000D01*
X129110000Y-91300000D02*
X129790000Y-91300000D01*
X109842500Y-74617500D02*
X109842500Y-76802500D01*
X122570000Y-71700000D02*
X121800000Y-71700000D01*
X136180000Y-97420000D02*
X136190000Y-97410000D01*
X99480000Y-89310000D02*
X98640000Y-89310000D01*
X116350000Y-76010000D02*
X116350000Y-74980000D01*
X105290000Y-86310000D02*
X105540000Y-86560000D01*
X104090000Y-88310000D02*
X105290000Y-88310000D01*
X130800000Y-92890000D02*
X130800000Y-92320000D01*
X114150000Y-90700000D02*
X114480000Y-90370000D01*
X111020000Y-100340000D02*
X112130000Y-100340000D01*
X100960000Y-78589912D02*
X100960000Y-79170000D01*
X123550000Y-72060000D02*
X124580000Y-72060000D01*
X105860000Y-81470000D02*
X104750000Y-81470000D01*
X128590000Y-88600000D02*
X128570000Y-88580000D01*
X131930000Y-76660000D02*
X131190000Y-76660000D01*
X126100000Y-88630000D02*
X125600000Y-88630000D01*
X106683000Y-96423000D02*
X106720000Y-96460000D01*
X131300000Y-94400000D02*
X131325000Y-94425000D01*
X123880000Y-82600000D02*
X123860000Y-82600000D01*
X121860000Y-87190833D02*
X121943333Y-87107500D01*
X130470000Y-72030000D02*
X130440000Y-72060000D01*
X126380000Y-85820000D02*
X126300000Y-85740000D01*
X100610000Y-79120000D02*
X100610000Y-78965000D01*
X136180000Y-97420000D02*
X136180000Y-96010000D01*
X121800000Y-71700000D02*
X121780000Y-71680000D01*
X114150000Y-91170000D02*
X114150000Y-90700000D01*
X111470000Y-88890000D02*
X111990762Y-88890000D01*
X105290000Y-88310000D02*
X105540000Y-88560000D01*
X103560000Y-75480000D02*
X104220000Y-75480000D01*
X109850000Y-75035000D02*
X109805000Y-74990000D01*
X112715000Y-92915000D02*
X112710000Y-92910000D01*
X131240000Y-98210000D02*
X131250000Y-98200000D01*
X112310000Y-87130000D02*
X112300000Y-87140000D01*
X103540000Y-74460000D02*
X104240000Y-74460000D01*
X101175000Y-70935088D02*
X101175000Y-71640000D01*
X105330000Y-100430000D02*
X105420000Y-100340000D01*
X126960000Y-79390000D02*
X126920000Y-79350000D01*
X131930000Y-92450000D02*
X131930000Y-91420000D01*
X97750000Y-89850000D02*
X96850000Y-89850000D01*
X113050000Y-91490000D02*
X113050000Y-92075000D01*
X130070000Y-84510000D02*
X129280000Y-84510000D01*
X100480000Y-98440000D02*
X100420000Y-98500000D01*
X122710000Y-82120000D02*
X122710000Y-82560000D01*
X99710000Y-86740000D02*
X100120000Y-86740000D01*
X104050000Y-78900000D02*
X104010000Y-78860000D01*
X98640000Y-89310000D02*
X98300000Y-88970000D01*
X104240000Y-74460000D02*
X104250000Y-74470000D01*
X124930000Y-83900000D02*
X124930000Y-84610000D01*
X131215000Y-96940000D02*
X131225000Y-96950000D01*
X104050000Y-79670000D02*
X104050000Y-78900000D01*
X124930000Y-84610000D02*
X124900000Y-84640000D01*
X131225000Y-96950000D02*
X131350000Y-96950000D01*
X129790000Y-91300000D02*
X129800000Y-91290000D01*
X112130000Y-100340000D02*
X112150000Y-100320000D01*
X120890000Y-87115000D02*
X120290000Y-87715000D01*
X136180000Y-96010000D02*
X136210000Y-95980000D01*
X100120000Y-86740000D02*
X100630000Y-86230000D01*
X119793333Y-86157500D02*
X119710000Y-86074167D01*
X130630000Y-87740000D02*
X130410000Y-87520000D01*
X112715000Y-93580000D02*
X112715000Y-92915000D01*
X102570000Y-92830000D02*
X103400000Y-92830000D01*
X109750000Y-74835000D02*
X109780000Y-74805000D01*
X126960000Y-80460000D02*
X126960000Y-79390000D01*
X101509912Y-78040000D02*
X100960000Y-78589912D01*
X104090000Y-86310000D02*
X105290000Y-86310000D01*
X100749912Y-70510000D02*
X101175000Y-70935088D01*
X118960000Y-82170000D02*
X119390000Y-82170000D01*
X126940000Y-89220000D02*
X126940000Y-88620000D01*
X101525000Y-71550000D02*
X101525000Y-71395000D01*
X119690000Y-84765000D02*
X119690000Y-85915000D01*
X114530000Y-85680000D02*
X114530000Y-84480000D01*
X123860000Y-82600000D02*
X123460000Y-82600000D01*
X130410000Y-87520000D02*
X129920000Y-87520000D01*
X105970000Y-96423000D02*
X106683000Y-96423000D01*
X129280000Y-84510000D02*
X129270000Y-84520000D01*
X131520000Y-72710000D02*
X130440000Y-72710000D01*
X114880000Y-85660000D02*
X114890000Y-85670000D01*
X129220000Y-98210000D02*
X131240000Y-98210000D01*
X112050000Y-84520000D02*
X111370000Y-84520000D01*
X101620000Y-88550000D02*
X101300000Y-88230000D01*
X127070000Y-85820000D02*
X126380000Y-85820000D01*
X128590000Y-89170000D02*
X128590000Y-88600000D01*
X113050000Y-92075000D02*
X113000000Y-92125000D01*
X112950000Y-87130000D02*
X112310000Y-87130000D01*
X116350000Y-74980000D02*
X116330000Y-74960000D01*
X96850000Y-89850000D02*
X96780000Y-89920000D01*
X129220000Y-94400000D02*
X131300000Y-94400000D01*
X131930000Y-91420000D02*
X131800000Y-91290000D01*
X123240000Y-87115000D02*
X120890000Y-87115000D01*
X119820000Y-71140000D02*
X119820000Y-70390000D01*
X129220000Y-96940000D02*
X131215000Y-96940000D01*
X114530000Y-84480000D02*
X114560000Y-84450000D01*
X131530000Y-72030000D02*
X130470000Y-72030000D01*
X102360000Y-98440000D02*
X100480000Y-98440000D01*
X104220000Y-75480000D02*
X104260000Y-75520000D01*
X131190000Y-76660000D02*
X131170000Y-76680000D01*
X109842500Y-76802500D02*
X109850000Y-76810000D01*
X101620000Y-89350000D02*
X101620000Y-88550000D01*
%TO.N,CHG_IN*%
D54*
X111460000Y-87140000D02*
X111290000Y-87310000D01*
X133760000Y-74400000D02*
X133760000Y-76810000D01*
X123380000Y-75720000D02*
X126470000Y-75720000D01*
X129880000Y-77980000D02*
X129850000Y-77950000D01*
X118020000Y-79880000D02*
X119300000Y-79880000D01*
X132590000Y-77980000D02*
X129880000Y-77980000D01*
X129020000Y-76690000D02*
X128490000Y-76160000D01*
D53*
X123910000Y-73980000D02*
X124530000Y-73360000D01*
D54*
X113490000Y-84630000D02*
X111460000Y-86660000D01*
X111460000Y-86660000D02*
X111460000Y-87140000D01*
X113490000Y-82090000D02*
X113490000Y-84630000D01*
X126470000Y-75720000D02*
X126920000Y-76170000D01*
X128490000Y-76160000D02*
X128480000Y-76170000D01*
X133760000Y-76810000D02*
X132590000Y-77980000D01*
X128480000Y-76170000D02*
X126920000Y-76170000D01*
X129850000Y-77950000D02*
X129850000Y-76690000D01*
X111290000Y-87310000D02*
X109920000Y-87310000D01*
X123380000Y-74510000D02*
X123910000Y-73980000D01*
X119910000Y-79270000D02*
X119910000Y-79190000D01*
D53*
X108990000Y-87310000D02*
X109920000Y-87310000D01*
D54*
X123380000Y-75720000D02*
X123380000Y-74510000D01*
X119910000Y-79190000D02*
X123380000Y-75720000D01*
X129850000Y-76690000D02*
X129020000Y-76690000D01*
X119300000Y-79880000D02*
X119910000Y-79270000D01*
D53*
X124530000Y-73360000D02*
X124580000Y-73360000D01*
%TO.N,Net-(U3-MPP-SET)*%
X121500000Y-70280000D02*
X121780000Y-70280000D01*
X120720000Y-69500000D02*
X121500000Y-70280000D01*
X121780000Y-70280000D02*
X123460000Y-70280000D01*
X117340000Y-70370000D02*
X118780000Y-70370000D01*
X118800000Y-69780000D02*
X119080000Y-69500000D01*
X118780000Y-70370000D02*
X118800000Y-70390000D01*
X118800000Y-70390000D02*
X118800000Y-69780000D01*
X119080000Y-69500000D02*
X120720000Y-69500000D01*
X123460000Y-70280000D02*
X124580000Y-71400000D01*
%TO.N,SOLAR_5p5V*%
X116330000Y-70380000D02*
X116320000Y-70370000D01*
X114650000Y-78900000D02*
X114650000Y-77310000D01*
X114650000Y-77310000D02*
X114630000Y-77290000D01*
X112270000Y-77290000D02*
X111805000Y-76825000D01*
X116420000Y-79105000D02*
X114855000Y-79105000D01*
X116330000Y-72960000D02*
X114630000Y-74660000D01*
X116420000Y-79105000D02*
X119910000Y-75615000D01*
X114630000Y-77290000D02*
X112270000Y-77290000D01*
X116330000Y-72960000D02*
X116330000Y-70380000D01*
X111842500Y-76787500D02*
X111805000Y-76825000D01*
X111842500Y-74617500D02*
X111842500Y-76787500D01*
X114855000Y-79105000D02*
X114650000Y-78900000D01*
X116585000Y-79270000D02*
X116420000Y-79105000D01*
X114630000Y-74660000D02*
X114630000Y-77290000D01*
X119910000Y-75615000D02*
X119910000Y-74870000D01*
%TO.N,VDDIO*%
X121690000Y-90665000D02*
X121690000Y-91310000D01*
D54*
X108630000Y-93820000D02*
X107560000Y-92750000D01*
X116710000Y-84860000D02*
X117880000Y-84860000D01*
X127400000Y-101300000D02*
X129220000Y-99480000D01*
X114720000Y-87840000D02*
X114890000Y-87670000D01*
X123210000Y-84850000D02*
X123210000Y-85407500D01*
X104750000Y-83470000D02*
X103490000Y-83470000D01*
X123210000Y-85407500D02*
X123240000Y-85407500D01*
X105035000Y-83185000D02*
X106045000Y-83185000D01*
X103490000Y-83470000D02*
X103370000Y-83350000D01*
X121290000Y-91710000D02*
X115570000Y-91710000D01*
D53*
X121310000Y-91690000D02*
X121300000Y-91700000D01*
D54*
X116600000Y-89210000D02*
X116120000Y-89210000D01*
X104790000Y-84510000D02*
X104790000Y-83510000D01*
X118390000Y-84780000D02*
X118390000Y-84790000D01*
X107720000Y-96460000D02*
X107720000Y-95020000D01*
X104890000Y-91800000D02*
X106060000Y-91800000D01*
X115215000Y-89405000D02*
X114780000Y-88970000D01*
X115570000Y-95810000D02*
X121060000Y-101300000D01*
X121060000Y-101300000D02*
X127400000Y-101300000D01*
X108630000Y-93870000D02*
X108630000Y-93820000D01*
X116120000Y-89210000D02*
X115570000Y-89760000D01*
X115570000Y-89760000D02*
X115215000Y-89405000D01*
X106060000Y-91060000D02*
X106060000Y-91800000D01*
X117880000Y-84860000D02*
X117960000Y-84780000D01*
X107720000Y-95020000D02*
X107315000Y-94615000D01*
D53*
X121690000Y-91310000D02*
X121310000Y-91690000D01*
X117340000Y-89115000D02*
X116695000Y-89115000D01*
X104790000Y-85110000D02*
X104790000Y-84510000D01*
D54*
X106170000Y-90950000D02*
X106060000Y-91060000D01*
X115570000Y-95810000D02*
X115570000Y-91710000D01*
X104790000Y-83510000D02*
X104750000Y-83470000D01*
D53*
X106290000Y-90830000D02*
X106170000Y-90950000D01*
D54*
X114780000Y-88970000D02*
X114480000Y-88970000D01*
X104750000Y-83470000D02*
X105035000Y-83185000D01*
X114480000Y-87730000D02*
X114530000Y-87680000D01*
D53*
X106290000Y-90010000D02*
X106290000Y-90830000D01*
D54*
X121300000Y-91700000D02*
X121290000Y-91710000D01*
X104890000Y-92740000D02*
X104800000Y-92830000D01*
X104890000Y-91800000D02*
X104890000Y-92740000D01*
X114480000Y-88970000D02*
X114480000Y-87730000D01*
X117960000Y-84780000D02*
X118390000Y-84780000D01*
D53*
X116600000Y-89210000D02*
X116695000Y-89115000D01*
D54*
X115570000Y-91710000D02*
X115570000Y-89760000D01*
%TO.N,Net-(U2-VSET1)*%
D53*
X109370000Y-89310000D02*
X111550000Y-91490000D01*
X108990000Y-89310000D02*
X109370000Y-89310000D01*
%TO.N,VBUS*%
D54*
X105160000Y-77460000D02*
X105450000Y-77460000D01*
X108850000Y-80860000D02*
X122640000Y-80860000D01*
X105450000Y-77460000D02*
X108850000Y-80860000D01*
X105160000Y-72510000D02*
X101579912Y-72510000D01*
X105160000Y-77460000D02*
X104010000Y-77460000D01*
X104010000Y-77460000D02*
X103790000Y-77240000D01*
X103790000Y-77240000D02*
X101509912Y-77240000D01*
X101579912Y-72510000D02*
X101509912Y-72440000D01*
X122640000Y-80860000D02*
X123380000Y-80120000D01*
X104010000Y-77460000D02*
X103960000Y-77460000D01*
%TO.N,CC1*%
D53*
X101539912Y-73560000D02*
X101509912Y-73590000D01*
X104190000Y-73550000D02*
X104250000Y-73610000D01*
X108990000Y-86310000D02*
X109860000Y-86310000D01*
X104250000Y-73610000D02*
X104480000Y-73610000D01*
X104190000Y-73560000D02*
X101539912Y-73560000D01*
X109860000Y-86310000D02*
X110540000Y-85630000D01*
X108900000Y-78030000D02*
X110530000Y-78030000D01*
X104480000Y-73610000D02*
X108900000Y-78030000D01*
%TO.N,CC2*%
X103220000Y-76590000D02*
X101509912Y-76590000D01*
X105830000Y-76380000D02*
X103430000Y-76380000D01*
X103430000Y-76380000D02*
X103220000Y-76590000D01*
X108990000Y-85810000D02*
X108990000Y-85500000D01*
X106020000Y-76570000D02*
X105830000Y-76380000D01*
%TO.N,Net-(AE1-ANT)*%
X131960000Y-89040000D02*
X131960000Y-87670000D01*
X136190000Y-90040000D02*
X135410000Y-89260000D01*
X132180000Y-89260000D02*
X131960000Y-89040000D01*
X135410000Y-89260000D02*
X132180000Y-89260000D01*
X136190000Y-91200000D02*
X136210000Y-91220000D01*
X136190000Y-91200000D02*
X136190000Y-90040000D01*
X136210000Y-91220000D02*
X136210000Y-92820000D01*
%TO.N,VOUT1*%
D54*
X129270000Y-85920000D02*
X129270000Y-86570000D01*
X129202000Y-85852000D02*
X129270000Y-85920000D01*
X106660000Y-79600000D02*
X105895000Y-80365000D01*
X101480000Y-84230000D02*
X100630000Y-84230000D01*
D53*
X129312000Y-85852000D02*
X129320000Y-85860000D01*
D54*
X100630000Y-84230000D02*
X99070000Y-84230000D01*
D53*
X103360000Y-85810000D02*
X104090000Y-85810000D01*
D54*
X103060000Y-85810000D02*
X101480000Y-84230000D01*
X128030000Y-85852000D02*
X129202000Y-85852000D01*
D53*
X128016000Y-85852000D02*
X128030000Y-85852000D01*
D54*
X102935000Y-80365000D02*
X99060000Y-84240000D01*
D53*
X129270000Y-87110000D02*
X129260000Y-87120000D01*
D54*
X103110000Y-85810000D02*
X103060000Y-85810000D01*
X103360000Y-85810000D02*
X103110000Y-85810000D01*
X105895000Y-80365000D02*
X102935000Y-80365000D01*
X99070000Y-84230000D02*
X99060000Y-84240000D01*
D53*
X129270000Y-86570000D02*
X129270000Y-87110000D01*
%TO.N,Net-(U2-SW1)*%
D54*
X99060000Y-87340000D02*
X99060000Y-85640000D01*
X102290000Y-86810000D02*
X101530000Y-87570000D01*
X101530000Y-87570000D02*
X99290000Y-87570000D01*
X99290000Y-87570000D02*
X99060000Y-87340000D01*
D53*
X104090000Y-86810000D02*
X103170000Y-86810000D01*
D54*
X103170000Y-86810000D02*
X102290000Y-86810000D01*
%TO.N,/npm1300/VSYS*%
X99520000Y-91350000D02*
X99480000Y-91310000D01*
X109760000Y-83230000D02*
X109760000Y-82540000D01*
X102695000Y-88224239D02*
X102550000Y-88079239D01*
D53*
X109333674Y-87810000D02*
X108990000Y-87810000D01*
D54*
X101620000Y-91350000D02*
X99520000Y-91350000D01*
X99420000Y-91250000D02*
X99480000Y-91310000D01*
D53*
X102690000Y-87500000D02*
X102880000Y-87310000D01*
D54*
X102550000Y-87540761D02*
X102630761Y-87460000D01*
X101620000Y-91350000D02*
X102695000Y-90275000D01*
X102695000Y-90275000D02*
X102695000Y-88560000D01*
X102550000Y-88079239D02*
X102550000Y-87540761D01*
X97750000Y-91250000D02*
X99420000Y-91250000D01*
D53*
X104090000Y-87310000D02*
X102880000Y-87310000D01*
D54*
X109760000Y-82540000D02*
X109800000Y-82500000D01*
X102695000Y-88560000D02*
X102695000Y-88224239D01*
%TO.N,Net-(U2-SW2)*%
D53*
X104090000Y-87810000D02*
X103200000Y-87810000D01*
X102400000Y-83040000D02*
X103370000Y-82070000D01*
%TO.N,PMIC_INT*%
X104090000Y-89310000D02*
X103650000Y-89750000D01*
X103650000Y-89750000D02*
X103650000Y-91180000D01*
X122090000Y-91660000D02*
X122090000Y-90665000D01*
X121390000Y-92360000D02*
X122090000Y-91660000D01*
%TO.N,I2C_SDA*%
X116072893Y-87250000D02*
X116779350Y-87250000D01*
X107730000Y-93980000D02*
X108720000Y-94970000D01*
X106790000Y-90010000D02*
X106790000Y-92770000D01*
X106160000Y-92770000D02*
X106030000Y-92640000D01*
X106790000Y-92770000D02*
X106160000Y-92770000D01*
X106790000Y-92770000D02*
X106790000Y-93550000D01*
X116779350Y-87250000D02*
X116914350Y-87115000D01*
X108720000Y-94970000D02*
X108720000Y-96460000D01*
X107220000Y-93980000D02*
X107730000Y-93980000D01*
X115650000Y-86827107D02*
X116072893Y-87250000D01*
X115650000Y-85490000D02*
X115650000Y-86827107D01*
X116914350Y-87115000D02*
X117340000Y-87115000D01*
X106790000Y-93550000D02*
X107220000Y-93980000D01*
%TO.N,I2C_SCL*%
X109720000Y-94080000D02*
X109720000Y-96460000D01*
X113625000Y-94080000D02*
X114600000Y-93105000D01*
X108900000Y-93260000D02*
X108900000Y-92760000D01*
X117340000Y-86715000D02*
X116315000Y-86715000D01*
X109720000Y-94080000D02*
X113625000Y-94080000D01*
X107290000Y-91010000D02*
X107570000Y-91290000D01*
X107290000Y-90010000D02*
X107290000Y-91010000D01*
X109720000Y-94080000D02*
X109705000Y-94065000D01*
X108900000Y-92760000D02*
X108030000Y-91890000D01*
X108030000Y-91890000D02*
X107560000Y-91890000D01*
X107560000Y-91390000D02*
X107560000Y-91890000D01*
X116315000Y-86715000D02*
X116280000Y-86750000D01*
X109705000Y-94065000D02*
X108900000Y-93260000D01*
X114600000Y-93105000D02*
X114600000Y-91720000D01*
X107570000Y-91290000D02*
X107570000Y-91380000D01*
X107570000Y-91380000D02*
X107560000Y-91390000D01*
%TO.N,unconnected-(U2-SHPHLD-Pad15)*%
X107800000Y-90020000D02*
X107790000Y-90010000D01*
%TO.N,Net-(U2-VSET2)*%
X109820000Y-90460000D02*
X110650000Y-91290000D01*
X108290000Y-90010000D02*
X108740000Y-90460000D01*
X108740000Y-90460000D02*
X109820000Y-90460000D01*
X110650000Y-91290000D02*
X110650000Y-92350000D01*
X110650000Y-92350000D02*
X111210000Y-92910000D01*
%TO.N,Net-(U2-NTC)*%
X108990000Y-88810000D02*
X110370000Y-88810000D01*
X110370000Y-88810000D02*
X110450000Y-88890000D01*
%TO.N,VBAT*%
D54*
X109910000Y-88050000D02*
X109650000Y-88310000D01*
X112740000Y-88720000D02*
X112070000Y-88050000D01*
X112070000Y-88050000D02*
X109910000Y-88050000D01*
X102255000Y-96500000D02*
X103632000Y-95123000D01*
X113190000Y-88720000D02*
X112740000Y-88720000D01*
D53*
X109000000Y-88300000D02*
X108990000Y-88310000D01*
X108990000Y-88310000D02*
X109650000Y-88310000D01*
D54*
X100420000Y-96500000D02*
X102255000Y-96500000D01*
%TO.N,VBUSOUT*%
D53*
X110370000Y-86810000D02*
X108990000Y-86810000D01*
X111370000Y-85810000D02*
X110370000Y-86810000D01*
X111370000Y-85360000D02*
X111370000Y-85810000D01*
%TO.N,Net-(LED1-C)*%
X108290000Y-84440000D02*
X108290000Y-85110000D01*
X110047544Y-84200000D02*
X108530000Y-84200000D01*
X108530000Y-84200000D02*
X108290000Y-84440000D01*
X111040000Y-83207544D02*
X110047544Y-84200000D01*
%TO.N,Net-(U6-DECD)*%
X119850000Y-82250000D02*
X119930000Y-82170000D01*
X119609350Y-84020000D02*
X119290000Y-84339350D01*
X119850000Y-84020000D02*
X119609350Y-84020000D01*
X119930000Y-82170000D02*
X120960000Y-82170000D01*
X120960000Y-82170000D02*
X121080000Y-82290000D01*
X119850000Y-84020000D02*
X119850000Y-83300000D01*
X119850000Y-83300000D02*
X119850000Y-82250000D01*
X119290000Y-84339350D02*
X119290000Y-84765000D01*
%TO.N,Net-(C8-Pad2)*%
X125610000Y-87510000D02*
X126010000Y-87510000D01*
X125220000Y-87510000D02*
X125610000Y-87510000D01*
X125600000Y-88090000D02*
X125600000Y-87520000D01*
X125950000Y-87540000D02*
X125970000Y-87560000D01*
X125600000Y-87520000D02*
X125610000Y-87510000D01*
%TO.N,Net-(C5-Pad2)*%
X127390000Y-87510000D02*
X127410000Y-87530000D01*
X127440000Y-87560000D02*
X127460000Y-87580000D01*
X126940000Y-88080000D02*
X126940000Y-87530000D01*
X126550000Y-87510000D02*
X126920000Y-87510000D01*
X126940000Y-87530000D02*
X126920000Y-87510000D01*
X126920000Y-87510000D02*
X127390000Y-87510000D01*
%TO.N,Net-(U6-XC1)*%
X124250000Y-85960000D02*
X124680000Y-85960000D01*
X123895000Y-86315000D02*
X123240000Y-86315000D01*
X124680000Y-85960000D02*
X124900000Y-85740000D01*
X124250000Y-85960000D02*
X123895000Y-86315000D01*
%TO.N,Net-(U6-XC2)*%
X123930000Y-85650650D02*
X123673150Y-85907500D01*
X123930000Y-83817107D02*
X123930000Y-85650650D01*
X123960000Y-83787107D02*
X123930000Y-83817107D01*
X125560000Y-83400000D02*
X123960000Y-83400000D01*
X126300000Y-84640000D02*
X126300000Y-84140000D01*
X126300000Y-84140000D02*
X125560000Y-83400000D01*
X123960000Y-83400000D02*
X123960000Y-83787107D01*
%TO.N,Net-(R11-RF2)*%
X130800000Y-90420000D02*
X130800000Y-88800000D01*
X130800000Y-88800000D02*
X130000000Y-88000000D01*
%TO.N,Net-(U3-XSHUT)*%
X133760000Y-71440000D02*
X130480000Y-71440000D01*
X130480000Y-71440000D02*
X130440000Y-71400000D01*
%TO.N,Net-(U3-LX)*%
D54*
X119150000Y-72710000D02*
X117870000Y-73990000D01*
X117225000Y-77165000D02*
X116420000Y-77165000D01*
X124580000Y-72710000D02*
X119150000Y-72710000D01*
X117870000Y-76520000D02*
X117225000Y-77165000D01*
X117870000Y-73990000D02*
X117870000Y-76520000D01*
%TO.N,Net-(U3-VCTRL)*%
D53*
X131160000Y-75670000D02*
X131170000Y-75660000D01*
X130440000Y-73360000D02*
X130440000Y-74930000D01*
X130440000Y-74930000D02*
X131170000Y-75660000D01*
X129850000Y-75670000D02*
X131160000Y-75670000D01*
%TO.N,Net-(LED1-A)*%
X110372456Y-81640000D02*
X111040000Y-82307544D01*
X109800000Y-81640000D02*
X110372456Y-81640000D01*
%TO.N,Net-(U6-DECA)*%
X123420000Y-83100000D02*
X123460000Y-83140000D01*
X124265000Y-86825000D02*
X124290000Y-86850000D01*
X121080000Y-83130000D02*
X121960000Y-83130000D01*
X121080000Y-83130000D02*
X121080000Y-83600000D01*
X123240000Y-86715000D02*
X124155000Y-86715000D01*
X124155000Y-86715000D02*
X124265000Y-86825000D01*
X123460000Y-83580000D02*
X123460000Y-83140000D01*
X122630000Y-83180000D02*
X122710000Y-83100000D01*
X120829350Y-83600000D02*
X120090000Y-84339350D01*
X122710000Y-83100000D02*
X123420000Y-83100000D01*
X120090000Y-84339350D02*
X120090000Y-84765000D01*
X121960000Y-83130000D02*
X122010000Y-83180000D01*
X122010000Y-83180000D02*
X122630000Y-83180000D01*
X121080000Y-83600000D02*
X120829350Y-83600000D01*
%TO.N,ANT_SEL*%
X126400000Y-92280000D02*
X122992893Y-92280000D01*
X129340000Y-89340000D02*
X126400000Y-92280000D01*
X122992893Y-92280000D02*
X122490000Y-91777107D01*
X129340000Y-88000000D02*
X129340000Y-89340000D01*
X122490000Y-91777107D02*
X122490000Y-90665000D01*
%TO.N,nRF54_SWDIO*%
X121650000Y-99575000D02*
X121745000Y-99480000D01*
X123200000Y-91780000D02*
X123200000Y-89955000D01*
X123200000Y-89955000D02*
X123240000Y-89915000D01*
X121745000Y-99480000D02*
X125150000Y-99480000D01*
%TO.N,nRF54_SWDCLK*%
X124482000Y-89515000D02*
X123240000Y-89515000D01*
X121735000Y-98210000D02*
X125150000Y-98210000D01*
X124587000Y-89620000D02*
X124482000Y-89515000D01*
X121725000Y-98200000D02*
X121735000Y-98210000D01*
%TO.N,nRF54_RESET*%
X124587000Y-88265000D02*
X124237000Y-87915000D01*
X125075000Y-93050000D02*
X125075000Y-94325000D01*
X124237000Y-87915000D02*
X123240000Y-87915000D01*
X125075000Y-94325000D02*
X125150000Y-94400000D01*
%TO.N,Net-(U6-ANT)*%
X124680000Y-87510000D02*
X123245000Y-87510000D01*
X124677500Y-87507500D02*
X124680000Y-87510000D01*
X123245000Y-87510000D02*
X123240000Y-87515000D01*
%TO.N,Net-(U6-DCC)*%
X118890000Y-84765000D02*
X118890000Y-83780000D01*
X118450000Y-83300000D02*
X118910000Y-83760000D01*
X118890000Y-83780000D02*
X118910000Y-83760000D01*
%TO.N,Net-(C12-Pad2)*%
X131960000Y-87130000D02*
X132610000Y-87130000D01*
X131290000Y-87130000D02*
X131960000Y-87130000D01*
X132610000Y-87130000D02*
X132620000Y-87140000D01*
%TO.N,Net-(R11-RF1)*%
X129920000Y-87120000D02*
X130740000Y-87120000D01*
X130740000Y-87120000D02*
X130750000Y-87130000D01*
%TO.N,ANT*%
X128570000Y-88040000D02*
X128570000Y-87530000D01*
X127950000Y-87530000D02*
X128020000Y-87600000D01*
X128570000Y-87530000D02*
X129250000Y-87530000D01*
X129250000Y-87530000D02*
X129260000Y-87540000D01*
X127950000Y-87530000D02*
X128570000Y-87530000D01*
%TD*%
%TA.AperFunction,Conductor*%
%TO.N,GND*%
G36*
X137562539Y-68580185D02*
G01*
X137608294Y-68632989D01*
X137619500Y-68684500D01*
X137619500Y-91847199D01*
X137599815Y-91914238D01*
X137547011Y-91959993D01*
X137477853Y-91969937D01*
X137421189Y-91946466D01*
X137399861Y-91930500D01*
X137327331Y-91876204D01*
X137327329Y-91876203D01*
X137327328Y-91876202D01*
X137192482Y-91825908D01*
X137192483Y-91825908D01*
X137132883Y-91819501D01*
X137132881Y-91819500D01*
X137132873Y-91819500D01*
X137132865Y-91819500D01*
X136934500Y-91819500D01*
X136867461Y-91799815D01*
X136821706Y-91747011D01*
X136810500Y-91695500D01*
X136810500Y-91140940D01*
X136808619Y-91133920D01*
X136808619Y-91133921D01*
X136808618Y-91133917D01*
X136801160Y-91106082D01*
X136794725Y-91082067D01*
X136790500Y-91049974D01*
X136790500Y-90129060D01*
X136790501Y-90129047D01*
X136790501Y-89960944D01*
X136790382Y-89960500D01*
X136749577Y-89808216D01*
X136727890Y-89770653D01*
X136670524Y-89671290D01*
X136670518Y-89671282D01*
X135897590Y-88898355D01*
X135897588Y-88898352D01*
X135778717Y-88779481D01*
X135778716Y-88779480D01*
X135677326Y-88720943D01*
X135677325Y-88720942D01*
X135641783Y-88700422D01*
X135585881Y-88685443D01*
X135489057Y-88659499D01*
X135330943Y-88659499D01*
X135323347Y-88659499D01*
X135323331Y-88659500D01*
X132684500Y-88659500D01*
X132617461Y-88639815D01*
X132571706Y-88587011D01*
X132560500Y-88535500D01*
X132560500Y-88132901D01*
X132566158Y-88095870D01*
X132567148Y-88092705D01*
X132616091Y-87961483D01*
X132620216Y-87923111D01*
X132623860Y-87911468D01*
X132636763Y-87892149D01*
X132645652Y-87870691D01*
X132655802Y-87863644D01*
X132662667Y-87853366D01*
X132683967Y-87844089D01*
X132703046Y-87830844D01*
X132721100Y-87827918D01*
X132726725Y-87825469D01*
X132731473Y-87826237D01*
X132742202Y-87824499D01*
X132829871Y-87824499D01*
X132829872Y-87824499D01*
X132889483Y-87818091D01*
X133024331Y-87767796D01*
X133139546Y-87681546D01*
X133225796Y-87566331D01*
X133276091Y-87431483D01*
X133282500Y-87371873D01*
X133282499Y-86908128D01*
X133276091Y-86848517D01*
X133270698Y-86834058D01*
X133225797Y-86713671D01*
X133225793Y-86713664D01*
X133139547Y-86598455D01*
X133139544Y-86598452D01*
X133024335Y-86512206D01*
X133024328Y-86512202D01*
X132889486Y-86461910D01*
X132889485Y-86461909D01*
X132889483Y-86461909D01*
X132829873Y-86455500D01*
X132829863Y-86455500D01*
X132410129Y-86455500D01*
X132410123Y-86455501D01*
X132350518Y-86461908D01*
X132347659Y-86462974D01*
X132346736Y-86463319D01*
X132343600Y-86463543D01*
X132342971Y-86463692D01*
X132342946Y-86463589D01*
X132277045Y-86468302D01*
X132260073Y-86463318D01*
X132229486Y-86451910D01*
X132229485Y-86451909D01*
X132229483Y-86451909D01*
X132169873Y-86445500D01*
X132169863Y-86445500D01*
X131750129Y-86445500D01*
X131750123Y-86445501D01*
X131690518Y-86451908D01*
X131647360Y-86468005D01*
X131589473Y-86472143D01*
X131589195Y-86474738D01*
X131521882Y-86467501D01*
X131521873Y-86467500D01*
X131521863Y-86467500D01*
X131058130Y-86467500D01*
X131058119Y-86467501D01*
X131033254Y-86470174D01*
X131006749Y-86470174D01*
X130981874Y-86467500D01*
X130518129Y-86467500D01*
X130518123Y-86467501D01*
X130458516Y-86473908D01*
X130386760Y-86500672D01*
X130317068Y-86505656D01*
X130255745Y-86472170D01*
X130222261Y-86410847D01*
X130220139Y-86371228D01*
X130220500Y-86367873D01*
X130220499Y-85472128D01*
X130214091Y-85412517D01*
X130209864Y-85401185D01*
X130163797Y-85277671D01*
X130163793Y-85277664D01*
X130077547Y-85162455D01*
X130077544Y-85162452D01*
X129962335Y-85076206D01*
X129962328Y-85076202D01*
X129827482Y-85025908D01*
X129827483Y-85025908D01*
X129767883Y-85019501D01*
X129767881Y-85019500D01*
X129767873Y-85019500D01*
X129767864Y-85019500D01*
X128772129Y-85019500D01*
X128772123Y-85019501D01*
X128712516Y-85025908D01*
X128577671Y-85076202D01*
X128577669Y-85076204D01*
X128576917Y-85076767D01*
X128576036Y-85077095D01*
X128569886Y-85080454D01*
X128569403Y-85079569D01*
X128511453Y-85101184D01*
X128502606Y-85101500D01*
X127956080Y-85101500D01*
X127811092Y-85130340D01*
X127811082Y-85130343D01*
X127674511Y-85186912D01*
X127674498Y-85186919D01*
X127551584Y-85269048D01*
X127551580Y-85269051D01*
X127447051Y-85373580D01*
X127447048Y-85373584D01*
X127364919Y-85496498D01*
X127364912Y-85496511D01*
X127308343Y-85633082D01*
X127308340Y-85633092D01*
X127279500Y-85778079D01*
X127279500Y-85778082D01*
X127279500Y-85925918D01*
X127279500Y-85925920D01*
X127279499Y-85925920D01*
X127308340Y-86070907D01*
X127308343Y-86070917D01*
X127364912Y-86207488D01*
X127364919Y-86207501D01*
X127447048Y-86330415D01*
X127447051Y-86330419D01*
X127551580Y-86434948D01*
X127551584Y-86434951D01*
X127674498Y-86517080D01*
X127674511Y-86517087D01*
X127811082Y-86573656D01*
X127811087Y-86573658D01*
X127811091Y-86573658D01*
X127811092Y-86573659D01*
X127956079Y-86602500D01*
X127956082Y-86602500D01*
X128103918Y-86602500D01*
X128344205Y-86602500D01*
X128411244Y-86622185D01*
X128443471Y-86652188D01*
X128446018Y-86655591D01*
X128462454Y-86677546D01*
X128499303Y-86705131D01*
X128541174Y-86761065D01*
X128546592Y-86780122D01*
X128546812Y-86781224D01*
X128540633Y-86850820D01*
X128497809Y-86906027D01*
X128431935Y-86929318D01*
X128425212Y-86929500D01*
X128412902Y-86929500D01*
X128369569Y-86921682D01*
X128241486Y-86873910D01*
X128241485Y-86873909D01*
X128241483Y-86873909D01*
X128181873Y-86867500D01*
X128181863Y-86867500D01*
X127718130Y-86867500D01*
X127718119Y-86867501D01*
X127693254Y-86870174D01*
X127666749Y-86870174D01*
X127641874Y-86867500D01*
X127178129Y-86867500D01*
X127178123Y-86867501D01*
X127118515Y-86873909D01*
X127050142Y-86899410D01*
X126980450Y-86904394D01*
X126963479Y-86899410D01*
X126841483Y-86853909D01*
X126781873Y-86847500D01*
X126781863Y-86847500D01*
X126318130Y-86847500D01*
X126318119Y-86847501D01*
X126293254Y-86850174D01*
X126266749Y-86850174D01*
X126241874Y-86847500D01*
X125778129Y-86847500D01*
X125778123Y-86847501D01*
X125718514Y-86853909D01*
X125658332Y-86876355D01*
X125588640Y-86881339D01*
X125572371Y-86876615D01*
X125571854Y-86876425D01*
X125511483Y-86853909D01*
X125509878Y-86853736D01*
X125501352Y-86850615D01*
X125478953Y-86834058D01*
X125454747Y-86820273D01*
X125451243Y-86813575D01*
X125445166Y-86809083D01*
X125435273Y-86783044D01*
X125422363Y-86758361D01*
X125423036Y-86750832D01*
X125420353Y-86743768D01*
X125426108Y-86716516D01*
X125428592Y-86688770D01*
X125433229Y-86682800D01*
X125434791Y-86675406D01*
X125454367Y-86655591D01*
X125471457Y-86633593D01*
X125481296Y-86628334D01*
X125483896Y-86625703D01*
X125487894Y-86624807D01*
X125500649Y-86617991D01*
X125502095Y-86617452D01*
X125568520Y-86592677D01*
X125592326Y-86583798D01*
X125592326Y-86583797D01*
X125592331Y-86583796D01*
X125707546Y-86497546D01*
X125793796Y-86382331D01*
X125844091Y-86247483D01*
X125850500Y-86187873D01*
X125850499Y-85664498D01*
X125870183Y-85597460D01*
X125922987Y-85551705D01*
X125974499Y-85540499D01*
X126797871Y-85540499D01*
X126797872Y-85540499D01*
X126857483Y-85534091D01*
X126992331Y-85483796D01*
X127107546Y-85397546D01*
X127193796Y-85282331D01*
X127244091Y-85147483D01*
X127250500Y-85087873D01*
X127250499Y-84192128D01*
X127244091Y-84132517D01*
X127235506Y-84109500D01*
X127193797Y-83997671D01*
X127193793Y-83997664D01*
X127107547Y-83882455D01*
X127107544Y-83882452D01*
X126992335Y-83796206D01*
X126992328Y-83796202D01*
X126857482Y-83745908D01*
X126857483Y-83745908D01*
X126797883Y-83739501D01*
X126797881Y-83739500D01*
X126797873Y-83739500D01*
X126797864Y-83739500D01*
X126794548Y-83739322D01*
X126794624Y-83737892D01*
X126733059Y-83719815D01*
X126712418Y-83703182D01*
X126709108Y-83699872D01*
X126668716Y-83659480D01*
X126668713Y-83659478D01*
X126047590Y-83038355D01*
X126047588Y-83038352D01*
X125928717Y-82919481D01*
X125928709Y-82919475D01*
X125809241Y-82850501D01*
X125809238Y-82850500D01*
X125808472Y-82850058D01*
X125791785Y-82840423D01*
X125639057Y-82799499D01*
X125480943Y-82799499D01*
X125473347Y-82799499D01*
X125473331Y-82799500D01*
X124183904Y-82799500D01*
X124116865Y-82779815D01*
X124071110Y-82727011D01*
X124067721Y-82718829D01*
X124065798Y-82713672D01*
X124065793Y-82713664D01*
X123979547Y-82598455D01*
X123979544Y-82598452D01*
X123864335Y-82512206D01*
X123864328Y-82512202D01*
X123729486Y-82461910D01*
X123729485Y-82461909D01*
X123729483Y-82461909D01*
X123669873Y-82455500D01*
X123669863Y-82455500D01*
X123250129Y-82455500D01*
X123250123Y-82455501D01*
X123190515Y-82461909D01*
X123190514Y-82461909D01*
X123181951Y-82465103D01*
X123112259Y-82470085D01*
X123095291Y-82465102D01*
X122993036Y-82426964D01*
X122979486Y-82421910D01*
X122979485Y-82421909D01*
X122979483Y-82421909D01*
X122919873Y-82415500D01*
X122919863Y-82415500D01*
X122500129Y-82415500D01*
X122500123Y-82415501D01*
X122440515Y-82421908D01*
X122426961Y-82426964D01*
X122370380Y-82434070D01*
X122358742Y-82432818D01*
X122327873Y-82429500D01*
X122327869Y-82429500D01*
X121974499Y-82429500D01*
X121907460Y-82409815D01*
X121861705Y-82357011D01*
X121850499Y-82305500D01*
X121850499Y-81972129D01*
X121850498Y-81972123D01*
X121850363Y-81970869D01*
X121844091Y-81912517D01*
X121844091Y-81912516D01*
X121793858Y-81777833D01*
X121788874Y-81708141D01*
X121822359Y-81646818D01*
X121883683Y-81613334D01*
X121910040Y-81610500D01*
X122242868Y-81610500D01*
X122271380Y-81613822D01*
X122272510Y-81614088D01*
X122272517Y-81614091D01*
X122332127Y-81620500D01*
X124427872Y-81620499D01*
X124487483Y-81614091D01*
X124622331Y-81563796D01*
X124737546Y-81477546D01*
X124823796Y-81362331D01*
X124874091Y-81227483D01*
X124880500Y-81167873D01*
X124880499Y-79072128D01*
X124874091Y-79012517D01*
X124861611Y-78979057D01*
X124823797Y-78877671D01*
X124823793Y-78877664D01*
X124737547Y-78762455D01*
X124737544Y-78762452D01*
X124622335Y-78676206D01*
X124622328Y-78676202D01*
X124487482Y-78625908D01*
X124487483Y-78625908D01*
X124427883Y-78619501D01*
X124427881Y-78619500D01*
X124427873Y-78619500D01*
X124427864Y-78619500D01*
X122332129Y-78619500D01*
X122332123Y-78619501D01*
X122272516Y-78625908D01*
X122137671Y-78676202D01*
X122137664Y-78676206D01*
X122022455Y-78762452D01*
X122022452Y-78762455D01*
X121936206Y-78877664D01*
X121936202Y-78877671D01*
X121885908Y-79012517D01*
X121879501Y-79072116D01*
X121879501Y-79072123D01*
X121879500Y-79072135D01*
X121879500Y-79985500D01*
X121859815Y-80052539D01*
X121807011Y-80098294D01*
X121755500Y-80109500D01*
X121534500Y-80109500D01*
X121467461Y-80089815D01*
X121421706Y-80037011D01*
X121410500Y-79985500D01*
X121410499Y-78802229D01*
X121430184Y-78735190D01*
X121446813Y-78714553D01*
X122904549Y-77256818D01*
X122965872Y-77223333D01*
X122992230Y-77220499D01*
X124427871Y-77220499D01*
X124427872Y-77220499D01*
X124487483Y-77214091D01*
X124622331Y-77163796D01*
X124737546Y-77077546D01*
X124823796Y-76962331D01*
X124874091Y-76827483D01*
X124880500Y-76767873D01*
X124880500Y-76594500D01*
X124900185Y-76527461D01*
X124952989Y-76481706D01*
X125004500Y-76470500D01*
X125431501Y-76470500D01*
X125498540Y-76490185D01*
X125544295Y-76542989D01*
X125555501Y-76594500D01*
X125555501Y-76960376D01*
X125561908Y-77019983D01*
X125612202Y-77154828D01*
X125612206Y-77154835D01*
X125698452Y-77270044D01*
X125698455Y-77270047D01*
X125813664Y-77356293D01*
X125813671Y-77356297D01*
X125948517Y-77406591D01*
X125948516Y-77406591D01*
X125955444Y-77407335D01*
X126008127Y-77413000D01*
X127831872Y-77412999D01*
X127891483Y-77406591D01*
X128026331Y-77356296D01*
X128141546Y-77270046D01*
X128225807Y-77157487D01*
X128281738Y-77115619D01*
X128351429Y-77110635D01*
X128412750Y-77144118D01*
X128424933Y-77156300D01*
X128437049Y-77168416D01*
X128491966Y-77223333D01*
X128541585Y-77272952D01*
X128664498Y-77355080D01*
X128664511Y-77355087D01*
X128801082Y-77411656D01*
X128801087Y-77411658D01*
X128801091Y-77411658D01*
X128801092Y-77411659D01*
X128946079Y-77440500D01*
X128946082Y-77440500D01*
X128975500Y-77440500D01*
X129042539Y-77460185D01*
X129088294Y-77512989D01*
X129099500Y-77564500D01*
X129099500Y-78023918D01*
X129099500Y-78023920D01*
X129099499Y-78023920D01*
X129128340Y-78168907D01*
X129128343Y-78168917D01*
X129184912Y-78305488D01*
X129184916Y-78305495D01*
X129206720Y-78338127D01*
X129267048Y-78428416D01*
X129343132Y-78504499D01*
X129399272Y-78560639D01*
X129401585Y-78562952D01*
X129524498Y-78645080D01*
X129524511Y-78645087D01*
X129599635Y-78676204D01*
X129661087Y-78701658D01*
X129661091Y-78701658D01*
X129661092Y-78701659D01*
X129806079Y-78730500D01*
X129806082Y-78730500D01*
X132663920Y-78730500D01*
X132761462Y-78711096D01*
X132808913Y-78701658D01*
X132945495Y-78645084D01*
X133019007Y-78595965D01*
X133068416Y-78562952D01*
X134342952Y-77288416D01*
X134355226Y-77270046D01*
X134394716Y-77210944D01*
X134394717Y-77210942D01*
X134395470Y-77209815D01*
X134425084Y-77165495D01*
X134481658Y-77028913D01*
X134499171Y-76940873D01*
X134510500Y-76883920D01*
X134510500Y-75628499D01*
X134530185Y-75561460D01*
X134582989Y-75515705D01*
X134634500Y-75504499D01*
X134658371Y-75504499D01*
X134658372Y-75504499D01*
X134717983Y-75498091D01*
X134852831Y-75447796D01*
X134968046Y-75361546D01*
X135054296Y-75246331D01*
X135104591Y-75111483D01*
X135111000Y-75051873D01*
X135110999Y-73748128D01*
X135104591Y-73688517D01*
X135101667Y-73680678D01*
X135054297Y-73553671D01*
X135054293Y-73553664D01*
X134968047Y-73438455D01*
X134968044Y-73438452D01*
X134852835Y-73352206D01*
X134852828Y-73352202D01*
X134717982Y-73301908D01*
X134717983Y-73301908D01*
X134658383Y-73295501D01*
X134658381Y-73295500D01*
X134658373Y-73295500D01*
X134658364Y-73295500D01*
X132861629Y-73295500D01*
X132861623Y-73295501D01*
X132802016Y-73301908D01*
X132667171Y-73352202D01*
X132667164Y-73352206D01*
X132551955Y-73438452D01*
X132551952Y-73438455D01*
X132465706Y-73553664D01*
X132465702Y-73553671D01*
X132415408Y-73688517D01*
X132409001Y-73748116D01*
X132409001Y-73748123D01*
X132409000Y-73748135D01*
X132409000Y-75051870D01*
X132409001Y-75051876D01*
X132415408Y-75111483D01*
X132465702Y-75246328D01*
X132465706Y-75246335D01*
X132551952Y-75361544D01*
X132551955Y-75361547D01*
X132667164Y-75447793D01*
X132667171Y-75447797D01*
X132712118Y-75464561D01*
X132802017Y-75498091D01*
X132861627Y-75504500D01*
X132885497Y-75504499D01*
X132952536Y-75524181D01*
X132998292Y-75576983D01*
X133009500Y-75628499D01*
X133009500Y-76447770D01*
X132989815Y-76514809D01*
X132973181Y-76535451D01*
X132315451Y-77193181D01*
X132254128Y-77226666D01*
X132227770Y-77229500D01*
X130724500Y-77229500D01*
X130657461Y-77209815D01*
X130611706Y-77157011D01*
X130600500Y-77105500D01*
X130600500Y-77059294D01*
X130608319Y-77015958D01*
X130610362Y-77010480D01*
X130614091Y-77000483D01*
X130620500Y-76940873D01*
X130620499Y-76631523D01*
X130640183Y-76564486D01*
X130692987Y-76518731D01*
X130762146Y-76508787D01*
X130787837Y-76515345D01*
X130792517Y-76517091D01*
X130852127Y-76523500D01*
X131487872Y-76523499D01*
X131547483Y-76517091D01*
X131682331Y-76466796D01*
X131797546Y-76380546D01*
X131883796Y-76265331D01*
X131934091Y-76130483D01*
X131940500Y-76070873D01*
X131940499Y-75409128D01*
X131934091Y-75349517D01*
X131930541Y-75340000D01*
X131883797Y-75214671D01*
X131883793Y-75214664D01*
X131797547Y-75099455D01*
X131797544Y-75099452D01*
X131682335Y-75013206D01*
X131682328Y-75013202D01*
X131547482Y-74962908D01*
X131547483Y-74962908D01*
X131487883Y-74956501D01*
X131487881Y-74956500D01*
X131487873Y-74956500D01*
X131487865Y-74956500D01*
X131367097Y-74956500D01*
X131300058Y-74936815D01*
X131279416Y-74920181D01*
X131076819Y-74717584D01*
X131043334Y-74656261D01*
X131040500Y-74629903D01*
X131040500Y-74142082D01*
X131060185Y-74075043D01*
X131112989Y-74029288D01*
X131140304Y-74020465D01*
X131187974Y-74010984D01*
X131311180Y-73959950D01*
X131422063Y-73885860D01*
X131516360Y-73791563D01*
X131590450Y-73680680D01*
X131593971Y-73672181D01*
X131612408Y-73627669D01*
X131641484Y-73557474D01*
X131667500Y-73426679D01*
X131667500Y-73293321D01*
X131641484Y-73162526D01*
X131612664Y-73092948D01*
X131590451Y-73039321D01*
X131516360Y-72928436D01*
X131422063Y-72834139D01*
X131311178Y-72760048D01*
X131187976Y-72709017D01*
X131187977Y-72709017D01*
X131187974Y-72709016D01*
X131187970Y-72709015D01*
X131187966Y-72709014D01*
X131057183Y-72683000D01*
X131057179Y-72683000D01*
X129822821Y-72683000D01*
X129822816Y-72683000D01*
X129692033Y-72709014D01*
X129692023Y-72709017D01*
X129568821Y-72760048D01*
X129457936Y-72834139D01*
X129363639Y-72928436D01*
X129289548Y-73039321D01*
X129238517Y-73162523D01*
X129238514Y-73162533D01*
X129212500Y-73293316D01*
X129212500Y-73426683D01*
X129238514Y-73557466D01*
X129238517Y-73557476D01*
X129289548Y-73680678D01*
X129363639Y-73791563D01*
X129457936Y-73885860D01*
X129568821Y-73959951D01*
X129622553Y-73982207D01*
X129692026Y-74010984D01*
X129739692Y-74020465D01*
X129801602Y-74052849D01*
X129836176Y-74113564D01*
X129839500Y-74142082D01*
X129839500Y-74842500D01*
X129819815Y-74909539D01*
X129767011Y-74955294D01*
X129715501Y-74966500D01*
X129532130Y-74966500D01*
X129532123Y-74966501D01*
X129472516Y-74972908D01*
X129337671Y-75023202D01*
X129337664Y-75023206D01*
X129222455Y-75109452D01*
X129222452Y-75109455D01*
X129136206Y-75224664D01*
X129136202Y-75224671D01*
X129085908Y-75359517D01*
X129079501Y-75419116D01*
X129079500Y-75419135D01*
X129079500Y-75419285D01*
X129079490Y-75419318D01*
X129079322Y-75422452D01*
X129078581Y-75422412D01*
X129059815Y-75486324D01*
X129007011Y-75532079D01*
X128937853Y-75542023D01*
X128886611Y-75522388D01*
X128845502Y-75494921D01*
X128845497Y-75494918D01*
X128845494Y-75494916D01*
X128845492Y-75494915D01*
X128845490Y-75494914D01*
X128708912Y-75438342D01*
X128708906Y-75438340D01*
X128563919Y-75409500D01*
X128563917Y-75409500D01*
X128416082Y-75409500D01*
X128416079Y-75409500D01*
X128410017Y-75410097D01*
X128409742Y-75407309D01*
X128352064Y-75402058D01*
X128296953Y-75359110D01*
X128282211Y-75326759D01*
X128280802Y-75327285D01*
X128227797Y-75185171D01*
X128227793Y-75185164D01*
X128141547Y-75069955D01*
X128141544Y-75069952D01*
X128026335Y-74983706D01*
X128026328Y-74983702D01*
X127891482Y-74933408D01*
X127891483Y-74933408D01*
X127831883Y-74927001D01*
X127831881Y-74927000D01*
X127831873Y-74927000D01*
X127831864Y-74927000D01*
X126008129Y-74927000D01*
X126008123Y-74927001D01*
X125948516Y-74933408D01*
X125872713Y-74961682D01*
X125829380Y-74969500D01*
X125004499Y-74969500D01*
X124937460Y-74949815D01*
X124891705Y-74897011D01*
X124880499Y-74845500D01*
X124880499Y-74672129D01*
X124880498Y-74672123D01*
X124880497Y-74672116D01*
X124874091Y-74612517D01*
X124862315Y-74580945D01*
X124823797Y-74477671D01*
X124823793Y-74477664D01*
X124759747Y-74392111D01*
X124737546Y-74362454D01*
X124679615Y-74319087D01*
X124637746Y-74263155D01*
X124632310Y-74195634D01*
X124644011Y-74136807D01*
X124676395Y-74074898D01*
X124737111Y-74040324D01*
X124765628Y-74037000D01*
X125197180Y-74037000D01*
X125197181Y-74036999D01*
X125327974Y-74010984D01*
X125451180Y-73959950D01*
X125562063Y-73885860D01*
X125656360Y-73791563D01*
X125730450Y-73680680D01*
X125733971Y-73672181D01*
X125752408Y-73627669D01*
X125781484Y-73557474D01*
X125807500Y-73426679D01*
X125807500Y-73293321D01*
X125781484Y-73162526D01*
X125748315Y-73082451D01*
X125740847Y-73012984D01*
X125748316Y-72987547D01*
X125750451Y-72982393D01*
X125781484Y-72907474D01*
X125807500Y-72776679D01*
X125807500Y-72643321D01*
X125781484Y-72512526D01*
X125745585Y-72425858D01*
X125730451Y-72389321D01*
X125656360Y-72278436D01*
X125562065Y-72184141D01*
X125549507Y-72175750D01*
X125523093Y-72158101D01*
X125478290Y-72104491D01*
X125469581Y-72035166D01*
X125499736Y-71972138D01*
X125523091Y-71951900D01*
X125562063Y-71925860D01*
X125656360Y-71831563D01*
X125730450Y-71720680D01*
X125735866Y-71707606D01*
X125746467Y-71682011D01*
X125781484Y-71597474D01*
X125807500Y-71466679D01*
X125807500Y-71333321D01*
X125807499Y-71333316D01*
X129212500Y-71333316D01*
X129212500Y-71466683D01*
X129238514Y-71597466D01*
X129238517Y-71597476D01*
X129289548Y-71720678D01*
X129363639Y-71831563D01*
X129457936Y-71925860D01*
X129568821Y-71999951D01*
X129622553Y-72022207D01*
X129692026Y-72050984D01*
X129822816Y-72076999D01*
X129822820Y-72077000D01*
X129822821Y-72077000D01*
X131057180Y-72077000D01*
X131057181Y-72076999D01*
X131187974Y-72050984D01*
X131189265Y-72050448D01*
X131190500Y-72049938D01*
X131193174Y-72049405D01*
X131193801Y-72049216D01*
X131193819Y-72049277D01*
X131237950Y-72040500D01*
X132292094Y-72040500D01*
X132359133Y-72060185D01*
X132404888Y-72112989D01*
X132413391Y-72143986D01*
X132413624Y-72143932D01*
X132415163Y-72150444D01*
X132415383Y-72151250D01*
X132415400Y-72151406D01*
X132415409Y-72151486D01*
X132465702Y-72286328D01*
X132465706Y-72286335D01*
X132551952Y-72401544D01*
X132551955Y-72401547D01*
X132667164Y-72487793D01*
X132667171Y-72487797D01*
X132802017Y-72538091D01*
X132802016Y-72538091D01*
X132808944Y-72538835D01*
X132861627Y-72544500D01*
X134658372Y-72544499D01*
X134717983Y-72538091D01*
X134852831Y-72487796D01*
X134968046Y-72401546D01*
X135054296Y-72286331D01*
X135104591Y-72151483D01*
X135111000Y-72091873D01*
X135110999Y-70788128D01*
X135104591Y-70728517D01*
X135104350Y-70727872D01*
X135054297Y-70593671D01*
X135054293Y-70593664D01*
X134968047Y-70478455D01*
X134968044Y-70478452D01*
X134852835Y-70392206D01*
X134852828Y-70392202D01*
X134717982Y-70341908D01*
X134717983Y-70341908D01*
X134658383Y-70335501D01*
X134658381Y-70335500D01*
X134658373Y-70335500D01*
X134658364Y-70335500D01*
X132861629Y-70335500D01*
X132861623Y-70335501D01*
X132802016Y-70341908D01*
X132667171Y-70392202D01*
X132667164Y-70392206D01*
X132551955Y-70478452D01*
X132551952Y-70478455D01*
X132465706Y-70593664D01*
X132465702Y-70593671D01*
X132415408Y-70728516D01*
X132415383Y-70728758D01*
X132415310Y-70728933D01*
X132413626Y-70736062D01*
X132412470Y-70735788D01*
X132388644Y-70793308D01*
X132331251Y-70833155D01*
X132292094Y-70839500D01*
X131407836Y-70839500D01*
X131340797Y-70819815D01*
X131338944Y-70818601D01*
X131311187Y-70800054D01*
X131311177Y-70800048D01*
X131187976Y-70749017D01*
X131187977Y-70749017D01*
X131187974Y-70749016D01*
X131187970Y-70749015D01*
X131187966Y-70749014D01*
X131057183Y-70723000D01*
X131057179Y-70723000D01*
X129822821Y-70723000D01*
X129822816Y-70723000D01*
X129692033Y-70749014D01*
X129692023Y-70749017D01*
X129568821Y-70800048D01*
X129457936Y-70874139D01*
X129363639Y-70968436D01*
X129289548Y-71079321D01*
X129238517Y-71202523D01*
X129238514Y-71202533D01*
X129212500Y-71333316D01*
X125807499Y-71333316D01*
X125781484Y-71202526D01*
X125748873Y-71123796D01*
X125730451Y-71079321D01*
X125656360Y-70968436D01*
X125562063Y-70874139D01*
X125451178Y-70800048D01*
X125327976Y-70749017D01*
X125327977Y-70749017D01*
X125327974Y-70749016D01*
X125327970Y-70749015D01*
X125327966Y-70749014D01*
X125197183Y-70723000D01*
X125197179Y-70723000D01*
X124803597Y-70723000D01*
X124736558Y-70703315D01*
X124715916Y-70686681D01*
X123947590Y-69918355D01*
X123947588Y-69918352D01*
X123828717Y-69799481D01*
X123828709Y-69799475D01*
X123711465Y-69731785D01*
X123711465Y-69731784D01*
X123711460Y-69731783D01*
X123704594Y-69727818D01*
X123691786Y-69720423D01*
X123653603Y-69710192D01*
X123539057Y-69679499D01*
X123380943Y-69679499D01*
X123373347Y-69679499D01*
X123373331Y-69679500D01*
X122767180Y-69679500D01*
X122700141Y-69659815D01*
X122667913Y-69629811D01*
X122652679Y-69609461D01*
X122587546Y-69522454D01*
X122544363Y-69490127D01*
X122472335Y-69436206D01*
X122472328Y-69436202D01*
X122337482Y-69385908D01*
X122337483Y-69385908D01*
X122277883Y-69379501D01*
X122277881Y-69379500D01*
X122277873Y-69379500D01*
X122277865Y-69379500D01*
X121500098Y-69379500D01*
X121433059Y-69359815D01*
X121412417Y-69343181D01*
X121207590Y-69138355D01*
X121207588Y-69138352D01*
X121088717Y-69019481D01*
X121088716Y-69019480D01*
X121001904Y-68969360D01*
X121001904Y-68969359D01*
X121001900Y-68969358D01*
X120951785Y-68940423D01*
X120799057Y-68899499D01*
X120640943Y-68899499D01*
X120633347Y-68899499D01*
X120633331Y-68899500D01*
X119166670Y-68899500D01*
X119166654Y-68899499D01*
X119159058Y-68899499D01*
X119000943Y-68899499D01*
X118848215Y-68940423D01*
X118848213Y-68940423D01*
X118848213Y-68940424D01*
X118711281Y-69019482D01*
X118319482Y-69411281D01*
X118319478Y-69411287D01*
X118273960Y-69490127D01*
X118240424Y-69548212D01*
X118240423Y-69548213D01*
X118226681Y-69599500D01*
X118205755Y-69677595D01*
X118169391Y-69737254D01*
X118106543Y-69767783D01*
X118085981Y-69769500D01*
X117977946Y-69769500D01*
X117910907Y-69749815D01*
X117903635Y-69744766D01*
X117785335Y-69656206D01*
X117785328Y-69656202D01*
X117650486Y-69605910D01*
X117650485Y-69605909D01*
X117650483Y-69605909D01*
X117590873Y-69599500D01*
X117590863Y-69599500D01*
X116929129Y-69599500D01*
X116929123Y-69599501D01*
X116869520Y-69605908D01*
X116861974Y-69607692D01*
X116861419Y-69605344D01*
X116803603Y-69609461D01*
X116795724Y-69607147D01*
X116790482Y-69605908D01*
X116730882Y-69599501D01*
X116730873Y-69599500D01*
X116730863Y-69599500D01*
X116069129Y-69599500D01*
X116069123Y-69599501D01*
X116009516Y-69605908D01*
X115874671Y-69656202D01*
X115874664Y-69656206D01*
X115759455Y-69742452D01*
X115759452Y-69742455D01*
X115673206Y-69857664D01*
X115673202Y-69857671D01*
X115622910Y-69992513D01*
X115622909Y-69992517D01*
X115616500Y-70052127D01*
X115616500Y-70052134D01*
X115616500Y-70052135D01*
X115616500Y-70687870D01*
X115616501Y-70687876D01*
X115622908Y-70747483D01*
X115673202Y-70882327D01*
X115673203Y-70882328D01*
X115673204Y-70882331D01*
X115704767Y-70924493D01*
X115729184Y-70989954D01*
X115729500Y-70998802D01*
X115729500Y-71630500D01*
X115709815Y-71697539D01*
X115657011Y-71743294D01*
X115610389Y-71753450D01*
X115610423Y-71754099D01*
X115610429Y-71754146D01*
X115610426Y-71754146D01*
X115610436Y-71754324D01*
X115607123Y-71754501D01*
X115547516Y-71760908D01*
X115412671Y-71811202D01*
X115412664Y-71811206D01*
X115297455Y-71897452D01*
X115297452Y-71897455D01*
X115211206Y-72012664D01*
X115211202Y-72012671D01*
X115160908Y-72147517D01*
X115156971Y-72184140D01*
X115154501Y-72207123D01*
X115154500Y-72207135D01*
X115154500Y-73234902D01*
X115134815Y-73301941D01*
X115118181Y-73322583D01*
X114149481Y-74291282D01*
X114149480Y-74291284D01*
X114107970Y-74363183D01*
X114099361Y-74378094D01*
X114099359Y-74378096D01*
X114070425Y-74428209D01*
X114070424Y-74428210D01*
X114070423Y-74428215D01*
X114029499Y-74580943D01*
X114029499Y-74580945D01*
X114029499Y-74749046D01*
X114029500Y-74749059D01*
X114029500Y-76565500D01*
X114009815Y-76632539D01*
X113957011Y-76678294D01*
X113905500Y-76689500D01*
X112570097Y-76689500D01*
X112503058Y-76669815D01*
X112482416Y-76653181D01*
X112479319Y-76650084D01*
X112445834Y-76588761D01*
X112443000Y-76562403D01*
X112443000Y-75728291D01*
X112462685Y-75661252D01*
X112494112Y-75627975D01*
X112624573Y-75533190D01*
X112758190Y-75399573D01*
X112869260Y-75246699D01*
X112955047Y-75078332D01*
X113013440Y-74898618D01*
X113020625Y-74853253D01*
X113043000Y-74711986D01*
X113043000Y-74523013D01*
X113013440Y-74336381D01*
X112977545Y-74225909D01*
X112955047Y-74156668D01*
X112955045Y-74156665D01*
X112955045Y-74156663D01*
X112891315Y-74031586D01*
X112869260Y-73988301D01*
X112758190Y-73835427D01*
X112624573Y-73701810D01*
X112471699Y-73590740D01*
X112406411Y-73557474D01*
X112303336Y-73504954D01*
X112123618Y-73446559D01*
X111936986Y-73417000D01*
X111936981Y-73417000D01*
X111748019Y-73417000D01*
X111748014Y-73417000D01*
X111561381Y-73446559D01*
X111381663Y-73504954D01*
X111213300Y-73590740D01*
X111162247Y-73627833D01*
X111060427Y-73701810D01*
X111060425Y-73701812D01*
X111060424Y-73701812D01*
X110926812Y-73835424D01*
X110926812Y-73835425D01*
X110926810Y-73835427D01*
X110885615Y-73892127D01*
X110815740Y-73988300D01*
X110729954Y-74156663D01*
X110671559Y-74336381D01*
X110642000Y-74523013D01*
X110642000Y-74711986D01*
X110671559Y-74898618D01*
X110729954Y-75078336D01*
X110784386Y-75185164D01*
X110815740Y-75246699D01*
X110926810Y-75399573D01*
X111060427Y-75533190D01*
X111190886Y-75627974D01*
X111233551Y-75683303D01*
X111242000Y-75728291D01*
X111242000Y-76589663D01*
X111237775Y-76621756D01*
X111204499Y-76745943D01*
X111204499Y-76904054D01*
X111204498Y-76904054D01*
X111214364Y-76940873D01*
X111245423Y-77056785D01*
X111324481Y-77193716D01*
X111324483Y-77193718D01*
X111785139Y-77654374D01*
X111785149Y-77654385D01*
X111789479Y-77658715D01*
X111789480Y-77658716D01*
X111901284Y-77770520D01*
X111971549Y-77811087D01*
X112038215Y-77849577D01*
X112190942Y-77890500D01*
X112190943Y-77890500D01*
X113925500Y-77890500D01*
X113992539Y-77910185D01*
X114038294Y-77962989D01*
X114049500Y-78014500D01*
X114049500Y-78813330D01*
X114049499Y-78813348D01*
X114049499Y-78979054D01*
X114049498Y-78979054D01*
X114049499Y-78979057D01*
X114090423Y-79131785D01*
X114090424Y-79131786D01*
X114105755Y-79158342D01*
X114105756Y-79158343D01*
X114169475Y-79268709D01*
X114169481Y-79268717D01*
X114298720Y-79397956D01*
X114298725Y-79397960D01*
X114486284Y-79585520D01*
X114486286Y-79585521D01*
X114486290Y-79585524D01*
X114546414Y-79620236D01*
X114623216Y-79664577D01*
X114775943Y-79705501D01*
X114775945Y-79705501D01*
X114941654Y-79705501D01*
X114941670Y-79705500D01*
X115123906Y-79705500D01*
X115190945Y-79725185D01*
X115236700Y-79777989D01*
X115240088Y-79786167D01*
X115287702Y-79913828D01*
X115291954Y-79921614D01*
X115290010Y-79922675D01*
X115310143Y-79976658D01*
X115295289Y-80044930D01*
X115245882Y-80094334D01*
X115186459Y-80109500D01*
X109212229Y-80109500D01*
X109145190Y-80089815D01*
X109124548Y-80073181D01*
X106428957Y-77377590D01*
X106395472Y-77316267D01*
X106400456Y-77246575D01*
X106442328Y-77190642D01*
X106447748Y-77186807D01*
X106491623Y-77157490D01*
X106498416Y-77152951D01*
X106602951Y-77048416D01*
X106685084Y-76925495D01*
X106690560Y-76912272D01*
X106734396Y-76857868D01*
X106800689Y-76835799D01*
X106868390Y-76853074D01*
X106892804Y-76872039D01*
X108415139Y-78394374D01*
X108415149Y-78394385D01*
X108419479Y-78398715D01*
X108419480Y-78398716D01*
X108531284Y-78510520D01*
X108618095Y-78560639D01*
X108618097Y-78560641D01*
X108656151Y-78582611D01*
X108668215Y-78589577D01*
X108820943Y-78630501D01*
X108820946Y-78630501D01*
X108986653Y-78630501D01*
X108986669Y-78630500D01*
X110040233Y-78630500D01*
X110107272Y-78650185D01*
X110109124Y-78651398D01*
X110174498Y-78695080D01*
X110174511Y-78695087D01*
X110301174Y-78747552D01*
X110311087Y-78751658D01*
X110311091Y-78751658D01*
X110311092Y-78751659D01*
X110456079Y-78780500D01*
X110456082Y-78780500D01*
X110603920Y-78780500D01*
X110701462Y-78761096D01*
X110748913Y-78751658D01*
X110885495Y-78695084D01*
X111008416Y-78612951D01*
X111112951Y-78508416D01*
X111195084Y-78385495D01*
X111251658Y-78248913D01*
X111267571Y-78168917D01*
X111280500Y-78103920D01*
X111280500Y-77956079D01*
X111251658Y-77811087D01*
X111251656Y-77811082D01*
X111195087Y-77674511D01*
X111195080Y-77674498D01*
X111112951Y-77551584D01*
X111112948Y-77551580D01*
X111008419Y-77447051D01*
X111008415Y-77447048D01*
X110885501Y-77364919D01*
X110885488Y-77364912D01*
X110748917Y-77308343D01*
X110748907Y-77308340D01*
X110603920Y-77279500D01*
X110603918Y-77279500D01*
X110456082Y-77279500D01*
X110456080Y-77279500D01*
X110311092Y-77308340D01*
X110311082Y-77308343D01*
X110174511Y-77364912D01*
X110174498Y-77364919D01*
X110109124Y-77408602D01*
X110042447Y-77429480D01*
X110040233Y-77429500D01*
X109200097Y-77429500D01*
X109133058Y-77409815D01*
X109112416Y-77393181D01*
X105185946Y-73466711D01*
X105152461Y-73405388D01*
X105157445Y-73335696D01*
X105199317Y-73279763D01*
X105249435Y-73257413D01*
X105378913Y-73231658D01*
X105515495Y-73175084D01*
X105638416Y-73092951D01*
X105742951Y-72988416D01*
X105825084Y-72865495D01*
X105881658Y-72728913D01*
X105910500Y-72583918D01*
X105910500Y-72436082D01*
X105910500Y-72436079D01*
X105881659Y-72291092D01*
X105881658Y-72291091D01*
X105881658Y-72291087D01*
X105858959Y-72236286D01*
X105825087Y-72154511D01*
X105825080Y-72154498D01*
X105742951Y-72031584D01*
X105742948Y-72031580D01*
X105638419Y-71927051D01*
X105638415Y-71927048D01*
X105515501Y-71844919D01*
X105515488Y-71844912D01*
X105378917Y-71788343D01*
X105378907Y-71788340D01*
X105233920Y-71759500D01*
X105233918Y-71759500D01*
X102618188Y-71759500D01*
X102551149Y-71739815D01*
X102527433Y-71719996D01*
X102515897Y-71707605D01*
X102392163Y-71634192D01*
X102392154Y-71634187D01*
X102353293Y-71618090D01*
X102353280Y-71618085D01*
X102353267Y-71618080D01*
X102302238Y-71600078D01*
X102302236Y-71600077D01*
X102302234Y-71600077D01*
X102217299Y-71587865D01*
X102159822Y-71579602D01*
X100859850Y-71579602D01*
X100859845Y-71579602D01*
X100833683Y-71581004D01*
X100765687Y-71564935D01*
X100739367Y-71544863D01*
X100648648Y-71454144D01*
X100648644Y-71454141D01*
X100546204Y-71385692D01*
X100546195Y-71385687D01*
X100432366Y-71338538D01*
X100432367Y-71338538D01*
X100432364Y-71338537D01*
X100432360Y-71338536D01*
X100432356Y-71338535D01*
X100311522Y-71314500D01*
X100311518Y-71314500D01*
X100188306Y-71314500D01*
X100188301Y-71314500D01*
X100067467Y-71338535D01*
X100067457Y-71338538D01*
X99953628Y-71385687D01*
X99953619Y-71385692D01*
X99851179Y-71454141D01*
X99851175Y-71454144D01*
X99764056Y-71541263D01*
X99764053Y-71541267D01*
X99695604Y-71643707D01*
X99695599Y-71643716D01*
X99648450Y-71757545D01*
X99648447Y-71757555D01*
X99624412Y-71878389D01*
X99624412Y-72001610D01*
X99648447Y-72122444D01*
X99648450Y-72122454D01*
X99695599Y-72236283D01*
X99695604Y-72236292D01*
X99764053Y-72338732D01*
X99764056Y-72338736D01*
X99851175Y-72425855D01*
X99851179Y-72425858D01*
X99953619Y-72494307D01*
X99953625Y-72494310D01*
X99953626Y-72494311D01*
X100067460Y-72541463D01*
X100121040Y-72552120D01*
X100194281Y-72566689D01*
X100194011Y-72568043D01*
X100252307Y-72591576D01*
X100292671Y-72648607D01*
X100299375Y-72688826D01*
X100299375Y-72740078D01*
X100302271Y-72794111D01*
X100302271Y-72794112D01*
X100337851Y-72933516D01*
X100337856Y-72933529D01*
X100349972Y-72962779D01*
X100359412Y-73010233D01*
X100359412Y-73287868D01*
X100359413Y-73287878D01*
X100363591Y-73326745D01*
X100363591Y-73353250D01*
X100359412Y-73392122D01*
X100359412Y-73787869D01*
X100359413Y-73787878D01*
X100363591Y-73826745D01*
X100363591Y-73853250D01*
X100359412Y-73892122D01*
X100359412Y-74287869D01*
X100359413Y-74287878D01*
X100363591Y-74326745D01*
X100363591Y-74353250D01*
X100359412Y-74392122D01*
X100359412Y-74787869D01*
X100359413Y-74787878D01*
X100363591Y-74826745D01*
X100363591Y-74853250D01*
X100359412Y-74892122D01*
X100359412Y-75287869D01*
X100359413Y-75287878D01*
X100363591Y-75326745D01*
X100363591Y-75353250D01*
X100359412Y-75392122D01*
X100359412Y-75787869D01*
X100359413Y-75787878D01*
X100363591Y-75826745D01*
X100363591Y-75853250D01*
X100359412Y-75892122D01*
X100359412Y-76287869D01*
X100359413Y-76287878D01*
X100363591Y-76326745D01*
X100363591Y-76353251D01*
X100359412Y-76392123D01*
X100359412Y-76670057D01*
X100349973Y-76717509D01*
X100338018Y-76746370D01*
X100338017Y-76746373D01*
X100338008Y-76746396D01*
X100338006Y-76746403D01*
X100323009Y-76788913D01*
X100320003Y-76797435D01*
X100299528Y-76939849D01*
X100299528Y-76991158D01*
X100279843Y-77058197D01*
X100227039Y-77103952D01*
X100194181Y-77112810D01*
X100194281Y-77113311D01*
X100067467Y-77138535D01*
X100067457Y-77138538D01*
X99953628Y-77185687D01*
X99953619Y-77185692D01*
X99851179Y-77254141D01*
X99851175Y-77254144D01*
X99764056Y-77341263D01*
X99764053Y-77341267D01*
X99695604Y-77443707D01*
X99695599Y-77443716D01*
X99648450Y-77557545D01*
X99648447Y-77557555D01*
X99624412Y-77678389D01*
X99624412Y-77801610D01*
X99648447Y-77922444D01*
X99648450Y-77922454D01*
X99695599Y-78036283D01*
X99695604Y-78036292D01*
X99764053Y-78138732D01*
X99764056Y-78138736D01*
X99851175Y-78225855D01*
X99851179Y-78225858D01*
X99953619Y-78294307D01*
X99953628Y-78294312D01*
X99974651Y-78303020D01*
X100067460Y-78341463D01*
X100163169Y-78360500D01*
X100188301Y-78365499D01*
X100188305Y-78365500D01*
X100188306Y-78365500D01*
X100311519Y-78365500D01*
X100311520Y-78365499D01*
X100432364Y-78341463D01*
X100546198Y-78294311D01*
X100648645Y-78225858D01*
X100735770Y-78138733D01*
X100735772Y-78138729D01*
X100740077Y-78134425D01*
X100741878Y-78136226D01*
X100790405Y-78103141D01*
X100846215Y-78098386D01*
X100851780Y-78099186D01*
X100860028Y-78100372D01*
X100860029Y-78100372D01*
X102160002Y-78100372D01*
X102165499Y-78100077D01*
X102214034Y-78097476D01*
X102353445Y-78061894D01*
X102392336Y-78045785D01*
X102449630Y-78014500D01*
X102465805Y-78005668D01*
X102525232Y-77990500D01*
X102988398Y-77990500D01*
X103055437Y-78010185D01*
X103101192Y-78062989D01*
X103104580Y-78071167D01*
X103116202Y-78102328D01*
X103116206Y-78102335D01*
X103202452Y-78217544D01*
X103202455Y-78217547D01*
X103317664Y-78303793D01*
X103317671Y-78303797D01*
X103452517Y-78354091D01*
X103452516Y-78354091D01*
X103459444Y-78354835D01*
X103512127Y-78360500D01*
X104507872Y-78360499D01*
X104567483Y-78354091D01*
X104702331Y-78303796D01*
X104775653Y-78248907D01*
X104793920Y-78235233D01*
X104859385Y-78210816D01*
X104868231Y-78210500D01*
X105086082Y-78210500D01*
X105087770Y-78210500D01*
X105154809Y-78230185D01*
X105175451Y-78246819D01*
X105975951Y-79047319D01*
X106009436Y-79108642D01*
X106004452Y-79178334D01*
X105975951Y-79222681D01*
X105620451Y-79578181D01*
X105559128Y-79611666D01*
X105532770Y-79614500D01*
X102861076Y-79614500D01*
X102832242Y-79620234D01*
X102832243Y-79620235D01*
X102716092Y-79643339D01*
X102716086Y-79643341D01*
X102673243Y-79661088D01*
X102579508Y-79699914D01*
X102579498Y-79699919D01*
X102503773Y-79750518D01*
X102456582Y-79782049D01*
X102456579Y-79782052D01*
X98935449Y-83303181D01*
X98874126Y-83336666D01*
X98847768Y-83339500D01*
X98580130Y-83339500D01*
X98580123Y-83339501D01*
X98520516Y-83345908D01*
X98385671Y-83396202D01*
X98385664Y-83396206D01*
X98270455Y-83482452D01*
X98270452Y-83482455D01*
X98184206Y-83597664D01*
X98184202Y-83597671D01*
X98133908Y-83732517D01*
X98127501Y-83792116D01*
X98127500Y-83792135D01*
X98127500Y-84687870D01*
X98127501Y-84687876D01*
X98133908Y-84747483D01*
X98187303Y-84890641D01*
X98185575Y-84891285D01*
X98198095Y-84948853D01*
X98186310Y-84988988D01*
X98187303Y-84989359D01*
X98133908Y-85132517D01*
X98127501Y-85192116D01*
X98127500Y-85192135D01*
X98127500Y-86087870D01*
X98127501Y-86087876D01*
X98133908Y-86147483D01*
X98184202Y-86282328D01*
X98184203Y-86282329D01*
X98184204Y-86282331D01*
X98248240Y-86367872D01*
X98270454Y-86397546D01*
X98273176Y-86400268D01*
X98275021Y-86403648D01*
X98275769Y-86404646D01*
X98275625Y-86404753D01*
X98306665Y-86461589D01*
X98309500Y-86487954D01*
X98309500Y-87413918D01*
X98309500Y-87413920D01*
X98309499Y-87413920D01*
X98338340Y-87558907D01*
X98338343Y-87558917D01*
X98394913Y-87695490D01*
X98394914Y-87695492D01*
X98424568Y-87739872D01*
X98424569Y-87739874D01*
X98477045Y-87818413D01*
X98477047Y-87818415D01*
X98477048Y-87818416D01*
X98707049Y-88048416D01*
X98762038Y-88103405D01*
X98811585Y-88152952D01*
X98934498Y-88235080D01*
X98934511Y-88235087D01*
X99071082Y-88291656D01*
X99071087Y-88291658D01*
X99071091Y-88291658D01*
X99071092Y-88291659D01*
X99216079Y-88320500D01*
X99216082Y-88320500D01*
X101603919Y-88320500D01*
X101720001Y-88297409D01*
X101789592Y-88303636D01*
X101844770Y-88346498D01*
X101853506Y-88360489D01*
X101856405Y-88365904D01*
X101884916Y-88434734D01*
X101911016Y-88473796D01*
X101926958Y-88497655D01*
X101929813Y-88502986D01*
X101935773Y-88531504D01*
X101944480Y-88559309D01*
X101944500Y-88561523D01*
X101944500Y-89912770D01*
X101924815Y-89979809D01*
X101908185Y-90000446D01*
X101837765Y-90070867D01*
X101800450Y-90108182D01*
X101739127Y-90141666D01*
X101712769Y-90144500D01*
X100897129Y-90144500D01*
X100897123Y-90144501D01*
X100837516Y-90150908D01*
X100702671Y-90201202D01*
X100702668Y-90201204D01*
X100651027Y-90239863D01*
X100585562Y-90264280D01*
X100517289Y-90249428D01*
X100502405Y-90239862D01*
X100397335Y-90161206D01*
X100397328Y-90161202D01*
X100262482Y-90110908D01*
X100262483Y-90110908D01*
X100202883Y-90104501D01*
X100202881Y-90104500D01*
X100202873Y-90104500D01*
X100202864Y-90104500D01*
X98757129Y-90104500D01*
X98757123Y-90104501D01*
X98697516Y-90110908D01*
X98562671Y-90161202D01*
X98562664Y-90161206D01*
X98447455Y-90247452D01*
X98404201Y-90305232D01*
X98348267Y-90347102D01*
X98291682Y-90354210D01*
X98283536Y-90353334D01*
X98247873Y-90349500D01*
X98247867Y-90349500D01*
X97252129Y-90349500D01*
X97252123Y-90349501D01*
X97192516Y-90355908D01*
X97057671Y-90406202D01*
X97057664Y-90406206D01*
X96942455Y-90492452D01*
X96942452Y-90492455D01*
X96856206Y-90607664D01*
X96856202Y-90607671D01*
X96805908Y-90742517D01*
X96799501Y-90802116D01*
X96799500Y-90802135D01*
X96799500Y-91697870D01*
X96799501Y-91697876D01*
X96805908Y-91757483D01*
X96856202Y-91892328D01*
X96856206Y-91892335D01*
X96942452Y-92007544D01*
X96942455Y-92007547D01*
X97057664Y-92093793D01*
X97057671Y-92093797D01*
X97192517Y-92144091D01*
X97192516Y-92144091D01*
X97199444Y-92144835D01*
X97252127Y-92150500D01*
X98235263Y-92150499D01*
X98302302Y-92170183D01*
X98348057Y-92222987D01*
X98351444Y-92231164D01*
X98361204Y-92257332D01*
X98361205Y-92257334D01*
X98447452Y-92372544D01*
X98447455Y-92372547D01*
X98562664Y-92458793D01*
X98562671Y-92458797D01*
X98697517Y-92509091D01*
X98697516Y-92509091D01*
X98704444Y-92509835D01*
X98757127Y-92515500D01*
X100202872Y-92515499D01*
X100262483Y-92509091D01*
X100397331Y-92458796D01*
X100448972Y-92420136D01*
X100514434Y-92395719D01*
X100582707Y-92410569D01*
X100597594Y-92420137D01*
X100702664Y-92498793D01*
X100702671Y-92498797D01*
X100837517Y-92549091D01*
X100837516Y-92549091D01*
X100844444Y-92549835D01*
X100897127Y-92555500D01*
X102342872Y-92555499D01*
X102402483Y-92549091D01*
X102537331Y-92498796D01*
X102652546Y-92412546D01*
X102738796Y-92297331D01*
X102789091Y-92162483D01*
X102795500Y-92102873D01*
X102795499Y-91660785D01*
X102815183Y-91593748D01*
X102867987Y-91547993D01*
X102937146Y-91538049D01*
X103000702Y-91567074D01*
X103022601Y-91591896D01*
X103067048Y-91658415D01*
X103067051Y-91658419D01*
X103171580Y-91762948D01*
X103171584Y-91762951D01*
X103294498Y-91845080D01*
X103294511Y-91845087D01*
X103408579Y-91892335D01*
X103431087Y-91901658D01*
X103431091Y-91901658D01*
X103431092Y-91901659D01*
X103576079Y-91930500D01*
X103576082Y-91930500D01*
X103723919Y-91930500D01*
X103830369Y-91909325D01*
X103861673Y-91903098D01*
X103931264Y-91909325D01*
X103986442Y-91952187D01*
X104009687Y-92018077D01*
X103993620Y-92086074D01*
X103985132Y-92099026D01*
X103956204Y-92137668D01*
X103956202Y-92137671D01*
X103905908Y-92272517D01*
X103899501Y-92332116D01*
X103899500Y-92332135D01*
X103899500Y-93327870D01*
X103899501Y-93327876D01*
X103905908Y-93387483D01*
X103956202Y-93522328D01*
X103956206Y-93522335D01*
X104042452Y-93637544D01*
X104042455Y-93637547D01*
X104157664Y-93723793D01*
X104157671Y-93723797D01*
X104292517Y-93774091D01*
X104292516Y-93774091D01*
X104299444Y-93774835D01*
X104352127Y-93780500D01*
X105247872Y-93780499D01*
X105307483Y-93774091D01*
X105442331Y-93723796D01*
X105557546Y-93637546D01*
X105643796Y-93522331D01*
X105650570Y-93504166D01*
X105692437Y-93448235D01*
X105757901Y-93423815D01*
X105766727Y-93423499D01*
X106065499Y-93423499D01*
X106132538Y-93443184D01*
X106178293Y-93495988D01*
X106189499Y-93547499D01*
X106189499Y-93629054D01*
X106189498Y-93629054D01*
X106230078Y-93780500D01*
X106230423Y-93781785D01*
X106252775Y-93820499D01*
X106309017Y-93917914D01*
X106309479Y-93918714D01*
X106309481Y-93918717D01*
X106428349Y-94037585D01*
X106428355Y-94037590D01*
X106584110Y-94193345D01*
X106617595Y-94254668D01*
X106612611Y-94324360D01*
X106610991Y-94328476D01*
X106593342Y-94371085D01*
X106593340Y-94371093D01*
X106564500Y-94516079D01*
X106564500Y-94516082D01*
X106564500Y-94541083D01*
X106564500Y-94688917D01*
X106564500Y-94688919D01*
X106564499Y-94688919D01*
X106593340Y-94833906D01*
X106593342Y-94833912D01*
X106638300Y-94942452D01*
X106649916Y-94970494D01*
X106732048Y-95093416D01*
X106933182Y-95294549D01*
X106966666Y-95355870D01*
X106969500Y-95382229D01*
X106969500Y-95438271D01*
X106961682Y-95481604D01*
X106925908Y-95577517D01*
X106919501Y-95637116D01*
X106919501Y-95637123D01*
X106919500Y-95637135D01*
X106919500Y-97282870D01*
X106919501Y-97282876D01*
X106925908Y-97342483D01*
X106976202Y-97477328D01*
X106976206Y-97477335D01*
X107062452Y-97592544D01*
X107062455Y-97592547D01*
X107177664Y-97678793D01*
X107177671Y-97678797D01*
X107219999Y-97694584D01*
X107312517Y-97729091D01*
X107372127Y-97735500D01*
X108067872Y-97735499D01*
X108127483Y-97729091D01*
X108176665Y-97710746D01*
X108246355Y-97705761D01*
X108263333Y-97710747D01*
X108312508Y-97729088D01*
X108312511Y-97729089D01*
X108312517Y-97729091D01*
X108372127Y-97735500D01*
X109067872Y-97735499D01*
X109127483Y-97729091D01*
X109176665Y-97710746D01*
X109246355Y-97705761D01*
X109263333Y-97710747D01*
X109312508Y-97729088D01*
X109312511Y-97729089D01*
X109312517Y-97729091D01*
X109372127Y-97735500D01*
X110067872Y-97735499D01*
X110127483Y-97729091D01*
X110262331Y-97678796D01*
X110377546Y-97592546D01*
X110463796Y-97477331D01*
X110514091Y-97342483D01*
X110520500Y-97282873D01*
X110520499Y-95637128D01*
X110514091Y-95577517D01*
X110498401Y-95535451D01*
X110463797Y-95442671D01*
X110463793Y-95442664D01*
X110388370Y-95341913D01*
X110377546Y-95327454D01*
X110377542Y-95327451D01*
X110377540Y-95327449D01*
X110370187Y-95321944D01*
X110328317Y-95266009D01*
X110320500Y-95222679D01*
X110320500Y-94804500D01*
X110340185Y-94737461D01*
X110392989Y-94691706D01*
X110444500Y-94680500D01*
X113538331Y-94680500D01*
X113538347Y-94680501D01*
X113545943Y-94680501D01*
X113704054Y-94680501D01*
X113704057Y-94680501D01*
X113856785Y-94639577D01*
X113923110Y-94601284D01*
X113993716Y-94560520D01*
X114105520Y-94448716D01*
X114105520Y-94448714D01*
X114115724Y-94438511D01*
X114115727Y-94438506D01*
X114607820Y-93946414D01*
X114669142Y-93912930D01*
X114738834Y-93917914D01*
X114794767Y-93959786D01*
X114819184Y-94025250D01*
X114819500Y-94034096D01*
X114819500Y-95736082D01*
X114819500Y-95883918D01*
X114819500Y-95883920D01*
X114819499Y-95883920D01*
X114848340Y-96028907D01*
X114848343Y-96028917D01*
X114904912Y-96165488D01*
X114904920Y-96165503D01*
X114936291Y-96212451D01*
X114936292Y-96212454D01*
X114936293Y-96212454D01*
X114982982Y-96282331D01*
X114987051Y-96288420D01*
X114987052Y-96288421D01*
X120041587Y-101342954D01*
X120075072Y-101404277D01*
X120070088Y-101473969D01*
X120028216Y-101529902D01*
X119962752Y-101554319D01*
X119953906Y-101554635D01*
X94364500Y-101554635D01*
X94297461Y-101534950D01*
X94251706Y-101482146D01*
X94240500Y-101430635D01*
X94240500Y-96405513D01*
X99219500Y-96405513D01*
X99219500Y-96594486D01*
X99249059Y-96781118D01*
X99307454Y-96960836D01*
X99393239Y-97129198D01*
X99393240Y-97129199D01*
X99504310Y-97282073D01*
X99637927Y-97415690D01*
X99790801Y-97526760D01*
X99833747Y-97548642D01*
X99959163Y-97612545D01*
X99959165Y-97612545D01*
X99959168Y-97612547D01*
X100055497Y-97643846D01*
X100138881Y-97670940D01*
X100325514Y-97700500D01*
X100325519Y-97700500D01*
X100514486Y-97700500D01*
X100701118Y-97670940D01*
X100880832Y-97612547D01*
X101049199Y-97526760D01*
X101202073Y-97415690D01*
X101330944Y-97286819D01*
X101392267Y-97253334D01*
X101418625Y-97250500D01*
X102328920Y-97250500D01*
X102426462Y-97231096D01*
X102473913Y-97221658D01*
X102610495Y-97165084D01*
X102664201Y-97129199D01*
X102664201Y-97129198D01*
X102664203Y-97129198D01*
X102698808Y-97106075D01*
X102733416Y-97082952D01*
X104214952Y-95601416D01*
X104259028Y-95535451D01*
X104283775Y-95498415D01*
X104297084Y-95478495D01*
X104297085Y-95478493D01*
X104334795Y-95387453D01*
X104353658Y-95341913D01*
X104368757Y-95266009D01*
X104382500Y-95196920D01*
X104382500Y-95049079D01*
X104353659Y-94904092D01*
X104353658Y-94904091D01*
X104353658Y-94904087D01*
X104333824Y-94856204D01*
X104297085Y-94767507D01*
X104277009Y-94737461D01*
X104245632Y-94690501D01*
X104214952Y-94644584D01*
X104110416Y-94540048D01*
X104110415Y-94540047D01*
X104110414Y-94540046D01*
X104028254Y-94485149D01*
X104028155Y-94485084D01*
X103987495Y-94457916D01*
X103987494Y-94457915D01*
X103987492Y-94457914D01*
X103850917Y-94401343D01*
X103850907Y-94401340D01*
X103705920Y-94372500D01*
X103705918Y-94372500D01*
X103558082Y-94372500D01*
X103558080Y-94372500D01*
X103413092Y-94401340D01*
X103413082Y-94401343D01*
X103276508Y-94457914D01*
X103276505Y-94457915D01*
X103276505Y-94457916D01*
X103235845Y-94485084D01*
X103235844Y-94485083D01*
X103153585Y-94540046D01*
X103153578Y-94540052D01*
X101980451Y-95713181D01*
X101919128Y-95746666D01*
X101892770Y-95749500D01*
X101418625Y-95749500D01*
X101351586Y-95729815D01*
X101330944Y-95713181D01*
X101202075Y-95584312D01*
X101202073Y-95584310D01*
X101049199Y-95473240D01*
X101024476Y-95460643D01*
X100880836Y-95387454D01*
X100701118Y-95329059D01*
X100514486Y-95299500D01*
X100514481Y-95299500D01*
X100325519Y-95299500D01*
X100325514Y-95299500D01*
X100138881Y-95329059D01*
X99959163Y-95387454D01*
X99790800Y-95473240D01*
X99705175Y-95535451D01*
X99637927Y-95584310D01*
X99637925Y-95584312D01*
X99637924Y-95584312D01*
X99504312Y-95717924D01*
X99504312Y-95717925D01*
X99504310Y-95717927D01*
X99495673Y-95729815D01*
X99393240Y-95870800D01*
X99307454Y-96039163D01*
X99249059Y-96218881D01*
X99219500Y-96405513D01*
X94240500Y-96405513D01*
X94240500Y-79083389D01*
X95169412Y-79083389D01*
X95169412Y-79256611D01*
X95177589Y-79308239D01*
X95191799Y-79397961D01*
X95196510Y-79427701D01*
X95247790Y-79585524D01*
X95250040Y-79592447D01*
X95261276Y-79614500D01*
X95328680Y-79746788D01*
X95430498Y-79886928D01*
X95552984Y-80009414D01*
X95693124Y-80111232D01*
X95847467Y-80189873D01*
X96012211Y-80243402D01*
X96183301Y-80270500D01*
X96183302Y-80270500D01*
X96956522Y-80270500D01*
X96956523Y-80270500D01*
X97127613Y-80243402D01*
X97292357Y-80189873D01*
X97446700Y-80111232D01*
X97586840Y-80009414D01*
X97709326Y-79886928D01*
X97811144Y-79746788D01*
X97889785Y-79592445D01*
X97943314Y-79427701D01*
X97970412Y-79256611D01*
X97970412Y-79083389D01*
X97943314Y-78912299D01*
X97889785Y-78747555D01*
X97811144Y-78593212D01*
X97709326Y-78453072D01*
X97586840Y-78330586D01*
X97446700Y-78228768D01*
X97292357Y-78150127D01*
X97127613Y-78096598D01*
X97127611Y-78096597D01*
X97127610Y-78096597D01*
X96996183Y-78075781D01*
X96956523Y-78069500D01*
X96183301Y-78069500D01*
X96143640Y-78075781D01*
X96012214Y-78096597D01*
X95847464Y-78150128D01*
X95693123Y-78228768D01*
X95644499Y-78264096D01*
X95552984Y-78330586D01*
X95552982Y-78330588D01*
X95552981Y-78330588D01*
X95430500Y-78453069D01*
X95430500Y-78453070D01*
X95430498Y-78453072D01*
X95393134Y-78504499D01*
X95328680Y-78593211D01*
X95250040Y-78747552D01*
X95250039Y-78747554D01*
X95250039Y-78747555D01*
X95248706Y-78751658D01*
X95196509Y-78912302D01*
X95171197Y-79072116D01*
X95169412Y-79083389D01*
X94240500Y-79083389D01*
X94240500Y-70423389D01*
X95169412Y-70423389D01*
X95169412Y-70596610D01*
X95193550Y-70749017D01*
X95196510Y-70767701D01*
X95250039Y-70932445D01*
X95328680Y-71086788D01*
X95430498Y-71226928D01*
X95552984Y-71349414D01*
X95693124Y-71451232D01*
X95847467Y-71529873D01*
X96012211Y-71583402D01*
X96183301Y-71610500D01*
X96183302Y-71610500D01*
X96956522Y-71610500D01*
X96956523Y-71610500D01*
X97127613Y-71583402D01*
X97292357Y-71529873D01*
X97446700Y-71451232D01*
X97586840Y-71349414D01*
X97709326Y-71226928D01*
X97811144Y-71086788D01*
X97889785Y-70932445D01*
X97943314Y-70767701D01*
X97970412Y-70596611D01*
X97970412Y-70423389D01*
X97943314Y-70252299D01*
X97889785Y-70087555D01*
X97811144Y-69933212D01*
X97709326Y-69793072D01*
X97586840Y-69670586D01*
X97446700Y-69568768D01*
X97292357Y-69490127D01*
X97127613Y-69436598D01*
X97127611Y-69436597D01*
X97127610Y-69436597D01*
X96996183Y-69415781D01*
X96956523Y-69409500D01*
X96183301Y-69409500D01*
X96143640Y-69415781D01*
X96012214Y-69436597D01*
X95847464Y-69490128D01*
X95693123Y-69568768D01*
X95640300Y-69607147D01*
X95552984Y-69670586D01*
X95552982Y-69670588D01*
X95552981Y-69670588D01*
X95430500Y-69793069D01*
X95430500Y-69793070D01*
X95430498Y-69793072D01*
X95425842Y-69799481D01*
X95328680Y-69933211D01*
X95250040Y-70087552D01*
X95196509Y-70252302D01*
X95169412Y-70423389D01*
X94240500Y-70423389D01*
X94240500Y-68684500D01*
X94260185Y-68617461D01*
X94312989Y-68571706D01*
X94364500Y-68560500D01*
X137495500Y-68560500D01*
X137562539Y-68580185D01*
G37*
%TD.AperFunction*%
%TA.AperFunction,Conductor*%
G36*
X130123927Y-88980265D02*
G01*
X130152181Y-89001416D01*
X130163181Y-89012416D01*
X130196666Y-89073739D01*
X130199500Y-89100097D01*
X130199500Y-89654045D01*
X130179815Y-89721084D01*
X130172504Y-89730157D01*
X130172768Y-89730355D01*
X130081206Y-89852664D01*
X130081202Y-89852671D01*
X130030910Y-89987513D01*
X130030909Y-89987517D01*
X130024500Y-90047127D01*
X130024500Y-90047134D01*
X130024500Y-90047135D01*
X130024500Y-90792870D01*
X130024501Y-90792876D01*
X130030908Y-90852483D01*
X130081202Y-90987328D01*
X130081206Y-90987335D01*
X130167452Y-91102544D01*
X130167455Y-91102547D01*
X130282664Y-91188793D01*
X130282671Y-91188797D01*
X130327618Y-91205561D01*
X130417517Y-91239091D01*
X130477127Y-91245500D01*
X131122872Y-91245499D01*
X131182483Y-91239091D01*
X131317331Y-91188796D01*
X131432546Y-91102546D01*
X131518796Y-90987331D01*
X131569091Y-90852483D01*
X131575500Y-90792873D01*
X131575499Y-90047128D01*
X131569091Y-89987517D01*
X131564609Y-89975501D01*
X131518797Y-89852671D01*
X131518793Y-89852664D01*
X131427232Y-89730355D01*
X131429625Y-89728563D01*
X131403327Y-89680373D01*
X131400500Y-89654045D01*
X131400500Y-89629097D01*
X131420185Y-89562058D01*
X131472989Y-89516303D01*
X131542147Y-89506359D01*
X131605703Y-89535384D01*
X131612181Y-89541416D01*
X131695139Y-89624374D01*
X131695149Y-89624385D01*
X131699479Y-89628715D01*
X131699480Y-89628716D01*
X131811284Y-89740520D01*
X131876576Y-89778216D01*
X131948215Y-89819577D01*
X132100943Y-89860501D01*
X132100946Y-89860501D01*
X132266653Y-89860501D01*
X132266669Y-89860500D01*
X135109903Y-89860500D01*
X135176942Y-89880185D01*
X135197584Y-89896819D01*
X135553181Y-90252416D01*
X135586666Y-90313739D01*
X135589500Y-90340097D01*
X135589500Y-91113330D01*
X135589499Y-91113348D01*
X135589499Y-91120943D01*
X135589499Y-91279057D01*
X135602039Y-91325855D01*
X135605275Y-91337932D01*
X135609500Y-91370026D01*
X135609500Y-91695500D01*
X135589815Y-91762539D01*
X135537011Y-91808294D01*
X135485501Y-91819500D01*
X135287130Y-91819500D01*
X135287123Y-91819501D01*
X135227516Y-91825908D01*
X135092671Y-91876202D01*
X135092664Y-91876206D01*
X134977455Y-91962452D01*
X134977452Y-91962455D01*
X134891206Y-92077664D01*
X134891202Y-92077671D01*
X134840908Y-92212517D01*
X134834501Y-92272116D01*
X134834500Y-92272135D01*
X134834500Y-93367870D01*
X134834501Y-93367876D01*
X134840908Y-93427483D01*
X134891202Y-93562328D01*
X134891206Y-93562335D01*
X134977452Y-93677544D01*
X134977455Y-93677547D01*
X135092664Y-93763793D01*
X135092671Y-93763797D01*
X135227517Y-93814091D01*
X135227516Y-93814091D01*
X135234444Y-93814835D01*
X135287127Y-93820500D01*
X137132872Y-93820499D01*
X137192483Y-93814091D01*
X137327331Y-93763796D01*
X137421189Y-93693533D01*
X137486653Y-93669116D01*
X137554926Y-93683967D01*
X137604332Y-93733372D01*
X137619500Y-93792800D01*
X137619500Y-101430635D01*
X137599815Y-101497674D01*
X137547011Y-101543429D01*
X137495500Y-101554635D01*
X128506095Y-101554635D01*
X128439056Y-101534950D01*
X128393301Y-101482146D01*
X128383357Y-101412988D01*
X128412382Y-101349432D01*
X128418414Y-101342954D01*
X129374548Y-100386818D01*
X129435871Y-100353333D01*
X129462229Y-100350499D01*
X130662871Y-100350499D01*
X130662872Y-100350499D01*
X130722483Y-100344091D01*
X130857331Y-100293796D01*
X130972546Y-100207546D01*
X131058796Y-100092331D01*
X131109091Y-99957483D01*
X131115500Y-99897873D01*
X131115499Y-99062128D01*
X131109091Y-99002517D01*
X131105187Y-98992051D01*
X131058797Y-98867671D01*
X131058793Y-98867664D01*
X130972547Y-98752455D01*
X130972544Y-98752452D01*
X130857335Y-98666206D01*
X130857328Y-98666202D01*
X130722482Y-98615908D01*
X130722483Y-98615908D01*
X130662883Y-98609501D01*
X130662881Y-98609500D01*
X130662873Y-98609500D01*
X130662864Y-98609500D01*
X127777129Y-98609500D01*
X127777123Y-98609501D01*
X127717516Y-98615908D01*
X127582671Y-98666202D01*
X127582664Y-98666206D01*
X127467455Y-98752452D01*
X127467452Y-98752455D01*
X127381206Y-98867664D01*
X127381202Y-98867671D01*
X127330908Y-99002517D01*
X127324501Y-99062116D01*
X127324501Y-99062123D01*
X127324500Y-99062135D01*
X127324500Y-99897870D01*
X127324501Y-99897876D01*
X127330908Y-99957483D01*
X127381202Y-100092328D01*
X127381204Y-100092331D01*
X127387493Y-100100732D01*
X127411910Y-100166196D01*
X127397058Y-100234469D01*
X127375907Y-100262724D01*
X127125451Y-100513181D01*
X127064128Y-100546666D01*
X127037770Y-100549500D01*
X126789048Y-100549500D01*
X126722009Y-100529815D01*
X126676254Y-100477011D01*
X126666310Y-100407853D01*
X126695335Y-100344297D01*
X126745715Y-100309318D01*
X126779655Y-100296659D01*
X126787331Y-100293796D01*
X126902546Y-100207546D01*
X126988796Y-100092331D01*
X127039091Y-99957483D01*
X127045500Y-99897873D01*
X127045499Y-99062128D01*
X127039091Y-99002517D01*
X127035187Y-98992051D01*
X126996503Y-98888333D01*
X126991519Y-98818642D01*
X126996503Y-98801667D01*
X127039091Y-98687482D01*
X127045500Y-98627873D01*
X127045499Y-97792128D01*
X127039412Y-97735499D01*
X127039091Y-97732516D01*
X126996503Y-97618333D01*
X126991519Y-97548642D01*
X126996503Y-97531667D01*
X126998334Y-97526759D01*
X127039091Y-97417483D01*
X127045500Y-97357873D01*
X127045499Y-96522128D01*
X127039091Y-96462517D01*
X126996502Y-96348332D01*
X126991519Y-96278642D01*
X126996503Y-96261667D01*
X127014858Y-96212454D01*
X127039091Y-96147483D01*
X127045500Y-96087873D01*
X127045499Y-95252135D01*
X127324500Y-95252135D01*
X127324500Y-96087870D01*
X127324501Y-96087876D01*
X127330908Y-96147483D01*
X127381202Y-96282328D01*
X127381206Y-96282335D01*
X127467452Y-96397544D01*
X127467455Y-96397547D01*
X127582664Y-96483793D01*
X127582671Y-96483797D01*
X127717517Y-96534091D01*
X127717516Y-96534091D01*
X127724444Y-96534835D01*
X127777127Y-96540500D01*
X130662872Y-96540499D01*
X130722483Y-96534091D01*
X130857331Y-96483796D01*
X130972546Y-96397546D01*
X131058796Y-96282331D01*
X131109091Y-96147483D01*
X131115500Y-96087873D01*
X131115499Y-95252128D01*
X131109091Y-95192517D01*
X131060172Y-95061359D01*
X131058797Y-95057671D01*
X131058793Y-95057664D01*
X130972547Y-94942455D01*
X130972544Y-94942452D01*
X130857335Y-94856206D01*
X130857328Y-94856202D01*
X130722482Y-94805908D01*
X130722483Y-94805908D01*
X130662883Y-94799501D01*
X130662881Y-94799500D01*
X130662873Y-94799500D01*
X130662864Y-94799500D01*
X127777129Y-94799500D01*
X127777123Y-94799501D01*
X127717516Y-94805908D01*
X127582671Y-94856202D01*
X127582664Y-94856206D01*
X127467455Y-94942452D01*
X127467452Y-94942455D01*
X127381206Y-95057664D01*
X127381202Y-95057671D01*
X127330908Y-95192517D01*
X127327666Y-95222679D01*
X127324501Y-95252123D01*
X127324500Y-95252135D01*
X127045499Y-95252135D01*
X127045499Y-95252128D01*
X127039091Y-95192517D01*
X126996502Y-95078332D01*
X126991519Y-95008642D01*
X126996503Y-94991667D01*
X127004400Y-94970494D01*
X127039091Y-94877483D01*
X127045500Y-94817873D01*
X127045499Y-93982128D01*
X127039091Y-93922517D01*
X127037673Y-93918716D01*
X126988797Y-93787671D01*
X126988793Y-93787664D01*
X126902547Y-93672455D01*
X126902544Y-93672452D01*
X126787335Y-93586206D01*
X126787328Y-93586202D01*
X126652482Y-93535908D01*
X126652483Y-93535908D01*
X126592883Y-93529501D01*
X126592881Y-93529500D01*
X126592873Y-93529500D01*
X126592865Y-93529500D01*
X125874299Y-93529500D01*
X125807260Y-93509815D01*
X125761505Y-93457011D01*
X125751561Y-93387853D01*
X125759738Y-93358048D01*
X125796656Y-93268917D01*
X125796658Y-93268913D01*
X125825500Y-93123918D01*
X125825500Y-93004500D01*
X125845185Y-92937461D01*
X125897989Y-92891706D01*
X125949500Y-92880500D01*
X126313331Y-92880500D01*
X126313347Y-92880501D01*
X126320943Y-92880501D01*
X126479054Y-92880501D01*
X126479057Y-92880501D01*
X126631785Y-92839577D01*
X126681904Y-92810639D01*
X126768716Y-92760520D01*
X126880520Y-92648716D01*
X126880520Y-92648714D01*
X126890728Y-92638507D01*
X126890730Y-92638504D01*
X129698506Y-89830728D01*
X129698511Y-89830724D01*
X129708714Y-89820520D01*
X129708716Y-89820520D01*
X129820520Y-89708716D01*
X129873157Y-89617546D01*
X129899577Y-89571785D01*
X129940501Y-89419057D01*
X129940501Y-89260943D01*
X129940501Y-89253339D01*
X129940991Y-89253339D01*
X129940818Y-89244451D01*
X129949294Y-89126370D01*
X129943334Y-89115455D01*
X129948318Y-89045763D01*
X129990190Y-88989830D01*
X130055654Y-88965413D01*
X130123927Y-88980265D01*
G37*
%TD.AperFunction*%
%TA.AperFunction,Conductor*%
G36*
X122284169Y-92437684D02*
G01*
X122330599Y-92466941D01*
X122508032Y-92644374D01*
X122508042Y-92644385D01*
X122512372Y-92648715D01*
X122512373Y-92648716D01*
X122624177Y-92760520D01*
X122701053Y-92804903D01*
X122710988Y-92810639D01*
X122710990Y-92810641D01*
X122745421Y-92830520D01*
X122761108Y-92839577D01*
X122913836Y-92880500D01*
X123071950Y-92880500D01*
X124200500Y-92880500D01*
X124267539Y-92900185D01*
X124313294Y-92952989D01*
X124324500Y-93004500D01*
X124324500Y-93123918D01*
X124324500Y-93123920D01*
X124324499Y-93123920D01*
X124353340Y-93268907D01*
X124353343Y-93268917D01*
X124390262Y-93358048D01*
X124397731Y-93427517D01*
X124366455Y-93489996D01*
X124306366Y-93525648D01*
X124275701Y-93529500D01*
X123707129Y-93529500D01*
X123707123Y-93529501D01*
X123647516Y-93535908D01*
X123512671Y-93586202D01*
X123512664Y-93586206D01*
X123397455Y-93672452D01*
X123397452Y-93672455D01*
X123311206Y-93787664D01*
X123311202Y-93787671D01*
X123260908Y-93922517D01*
X123256902Y-93959786D01*
X123254501Y-93982123D01*
X123254500Y-93982135D01*
X123254500Y-94817870D01*
X123254501Y-94817876D01*
X123260908Y-94877483D01*
X123303496Y-94991667D01*
X123308480Y-95061359D01*
X123303496Y-95078333D01*
X123260908Y-95192516D01*
X123254501Y-95252116D01*
X123254501Y-95252123D01*
X123254500Y-95252135D01*
X123254500Y-96087870D01*
X123254501Y-96087876D01*
X123260908Y-96147483D01*
X123303496Y-96261667D01*
X123308480Y-96331359D01*
X123303496Y-96348333D01*
X123260908Y-96462516D01*
X123254501Y-96522116D01*
X123254501Y-96522123D01*
X123254500Y-96522135D01*
X123254500Y-97357870D01*
X123254501Y-97357876D01*
X123260909Y-97417485D01*
X123270115Y-97442168D01*
X123275099Y-97511860D01*
X123241613Y-97573182D01*
X123180289Y-97606667D01*
X123153933Y-97609500D01*
X122229733Y-97609500D01*
X122162694Y-97589815D01*
X122160842Y-97588602D01*
X122080501Y-97534919D01*
X122080488Y-97534912D01*
X121943917Y-97478343D01*
X121943907Y-97478340D01*
X121798920Y-97449500D01*
X121798918Y-97449500D01*
X121651082Y-97449500D01*
X121651080Y-97449500D01*
X121506092Y-97478340D01*
X121506082Y-97478343D01*
X121369511Y-97534912D01*
X121369498Y-97534919D01*
X121246584Y-97617048D01*
X121246580Y-97617051D01*
X121142051Y-97721580D01*
X121142048Y-97721584D01*
X121059919Y-97844498D01*
X121059912Y-97844511D01*
X121003343Y-97981082D01*
X121003340Y-97981092D01*
X120974500Y-98126079D01*
X120974500Y-98126082D01*
X120974500Y-98273918D01*
X120974500Y-98273920D01*
X120974499Y-98273920D01*
X121003340Y-98418907D01*
X121003343Y-98418917D01*
X121059912Y-98555488D01*
X121059919Y-98555501D01*
X121142048Y-98678415D01*
X121142051Y-98678419D01*
X121235047Y-98771415D01*
X121268532Y-98832738D01*
X121263548Y-98902430D01*
X121221676Y-98958363D01*
X121216258Y-98962197D01*
X121171586Y-98992046D01*
X121171580Y-98992051D01*
X121067051Y-99096580D01*
X121067048Y-99096584D01*
X120984919Y-99219498D01*
X120984912Y-99219511D01*
X120928343Y-99356082D01*
X120928340Y-99356092D01*
X120899500Y-99501079D01*
X120899500Y-99648922D01*
X120926327Y-99783790D01*
X120920100Y-99853381D01*
X120877237Y-99908559D01*
X120811347Y-99931803D01*
X120743350Y-99915735D01*
X120717029Y-99895662D01*
X118802459Y-97981092D01*
X116356819Y-95535451D01*
X116323334Y-95474128D01*
X116320500Y-95447770D01*
X116320500Y-92584500D01*
X116340185Y-92517461D01*
X116392989Y-92471706D01*
X116444500Y-92460500D01*
X120543024Y-92460500D01*
X120610063Y-92480185D01*
X120655818Y-92532989D01*
X120664641Y-92560309D01*
X120668340Y-92578905D01*
X120668343Y-92578917D01*
X120724912Y-92715488D01*
X120724919Y-92715501D01*
X120807048Y-92838415D01*
X120807051Y-92838419D01*
X120911580Y-92942948D01*
X120911584Y-92942951D01*
X121034498Y-93025080D01*
X121034511Y-93025087D01*
X121171082Y-93081656D01*
X121171087Y-93081658D01*
X121171091Y-93081658D01*
X121171092Y-93081659D01*
X121316079Y-93110500D01*
X121316082Y-93110500D01*
X121463920Y-93110500D01*
X121561462Y-93091096D01*
X121608913Y-93081658D01*
X121745495Y-93025084D01*
X121868416Y-92942951D01*
X121972951Y-92838416D01*
X122055084Y-92715495D01*
X122111658Y-92578913D01*
X122121301Y-92530429D01*
X122153684Y-92468522D01*
X122214399Y-92433946D01*
X122284169Y-92437684D01*
G37*
%TD.AperFunction*%
%TA.AperFunction,Conductor*%
G36*
X111774809Y-88820185D02*
G01*
X111795451Y-88836819D01*
X112157049Y-89198416D01*
X112205315Y-89246682D01*
X112238800Y-89308005D01*
X112236532Y-89339706D01*
X112244124Y-89359932D01*
X112245907Y-89367479D01*
X112296202Y-89502328D01*
X112296206Y-89502335D01*
X112382452Y-89617544D01*
X112382454Y-89617546D01*
X112497664Y-89703793D01*
X112497671Y-89703797D01*
X112632517Y-89754091D01*
X112632516Y-89754091D01*
X112639444Y-89754835D01*
X112692127Y-89760500D01*
X113675202Y-89760499D01*
X113742241Y-89780183D01*
X113749515Y-89785233D01*
X113780212Y-89808214D01*
X113787668Y-89813795D01*
X113787671Y-89813797D01*
X113832618Y-89830561D01*
X113922517Y-89864091D01*
X113982127Y-89870500D01*
X114567769Y-89870499D01*
X114634808Y-89890183D01*
X114655450Y-89906818D01*
X114783181Y-90034549D01*
X114816666Y-90095872D01*
X114819500Y-90122230D01*
X114819500Y-90847363D01*
X114799815Y-90914402D01*
X114747011Y-90960157D01*
X114680013Y-90969790D01*
X114679983Y-90970097D01*
X114678735Y-90969974D01*
X114677853Y-90970101D01*
X114674912Y-90969597D01*
X114673921Y-90969500D01*
X114673918Y-90969500D01*
X114526082Y-90969500D01*
X114526080Y-90969500D01*
X114381092Y-90998340D01*
X114381082Y-90998343D01*
X114244511Y-91054912D01*
X114244498Y-91054919D01*
X114121584Y-91137048D01*
X114121580Y-91137051D01*
X114017051Y-91241580D01*
X114017048Y-91241584D01*
X113934919Y-91364498D01*
X113934912Y-91364511D01*
X113878343Y-91501082D01*
X113878340Y-91501092D01*
X113849500Y-91646079D01*
X113849500Y-91646082D01*
X113849500Y-91793918D01*
X113849500Y-91793920D01*
X113849499Y-91793920D01*
X113878340Y-91938907D01*
X113878343Y-91938917D01*
X113934912Y-92075488D01*
X113934919Y-92075501D01*
X113978602Y-92140876D01*
X113999480Y-92207553D01*
X113999500Y-92209767D01*
X113999500Y-92804903D01*
X113979815Y-92871942D01*
X113963181Y-92892584D01*
X113412584Y-93443181D01*
X113351261Y-93476666D01*
X113324903Y-93479500D01*
X112227500Y-93479500D01*
X112160461Y-93459815D01*
X112114706Y-93407011D01*
X112103500Y-93355500D01*
X112103500Y-92937461D01*
X112103499Y-92486141D01*
X112123183Y-92419103D01*
X112175987Y-92373348D01*
X112184170Y-92369959D01*
X112195327Y-92365798D01*
X112195329Y-92365796D01*
X112195331Y-92365796D01*
X112310546Y-92279546D01*
X112396796Y-92164331D01*
X112447091Y-92029483D01*
X112453500Y-91969873D01*
X112453499Y-91010128D01*
X112447091Y-90950517D01*
X112443362Y-90940520D01*
X112396797Y-90815671D01*
X112396793Y-90815664D01*
X112310547Y-90700455D01*
X112310544Y-90700452D01*
X112195335Y-90614206D01*
X112195328Y-90614202D01*
X112060482Y-90563908D01*
X112060483Y-90563908D01*
X112000883Y-90557501D01*
X112000881Y-90557500D01*
X112000873Y-90557500D01*
X112000865Y-90557500D01*
X111518098Y-90557500D01*
X111451059Y-90537815D01*
X111430417Y-90521181D01*
X110781166Y-89871930D01*
X110747681Y-89810607D01*
X110752665Y-89740915D01*
X110794537Y-89684982D01*
X110857634Y-89661447D01*
X110857571Y-89660854D01*
X110859896Y-89660604D01*
X110860001Y-89660565D01*
X110860613Y-89660526D01*
X110860864Y-89660499D01*
X110860872Y-89660499D01*
X110920483Y-89654091D01*
X111055331Y-89603796D01*
X111170546Y-89517546D01*
X111256796Y-89402331D01*
X111307091Y-89267483D01*
X111313500Y-89207873D01*
X111313499Y-88924498D01*
X111333183Y-88857461D01*
X111385987Y-88811706D01*
X111437499Y-88800500D01*
X111707770Y-88800500D01*
X111774809Y-88820185D01*
G37*
%TD.AperFunction*%
%TA.AperFunction,Conductor*%
G36*
X108305415Y-90915005D02*
G01*
X108321406Y-90914524D01*
X108353200Y-90927773D01*
X108366265Y-90935501D01*
X108371284Y-90940520D01*
X108450202Y-90986083D01*
X108508215Y-91019577D01*
X108660943Y-91060500D01*
X109519903Y-91060500D01*
X109586942Y-91080185D01*
X109607584Y-91096819D01*
X110013181Y-91502416D01*
X110046666Y-91563739D01*
X110049500Y-91590097D01*
X110049500Y-92263330D01*
X110049499Y-92263348D01*
X110049499Y-92429054D01*
X110049498Y-92429054D01*
X110089654Y-92578917D01*
X110090423Y-92581785D01*
X110110637Y-92616796D01*
X110167624Y-92715501D01*
X110169479Y-92718714D01*
X110169481Y-92718717D01*
X110260181Y-92809417D01*
X110293666Y-92870740D01*
X110296500Y-92897098D01*
X110296500Y-93325622D01*
X110276815Y-93392661D01*
X110224011Y-93438416D01*
X110154853Y-93448360D01*
X110103608Y-93428723D01*
X110060503Y-93399920D01*
X110060488Y-93399912D01*
X109923917Y-93343343D01*
X109923907Y-93343340D01*
X109846788Y-93328000D01*
X109784877Y-93295615D01*
X109783299Y-93294064D01*
X109536819Y-93047584D01*
X109503334Y-92986261D01*
X109500500Y-92959903D01*
X109500500Y-92849060D01*
X109500501Y-92849047D01*
X109500501Y-92680945D01*
X109500501Y-92680943D01*
X109459577Y-92528215D01*
X109380520Y-92391284D01*
X108517589Y-91528354D01*
X108517588Y-91528352D01*
X108398717Y-91409481D01*
X108398716Y-91409480D01*
X108311904Y-91359360D01*
X108311904Y-91359359D01*
X108311901Y-91359358D01*
X108261785Y-91330423D01*
X108259809Y-91329282D01*
X108222545Y-91296207D01*
X108218072Y-91290232D01*
X108191391Y-91254590D01*
X108170884Y-91212375D01*
X108170501Y-91210945D01*
X108170501Y-91210943D01*
X108131821Y-91066589D01*
X108133484Y-90996743D01*
X108172646Y-90938881D01*
X108236874Y-90911376D01*
X108251586Y-90910499D01*
X108290069Y-90910499D01*
X108305415Y-90915005D01*
G37*
%TD.AperFunction*%
%TA.AperFunction,Conductor*%
G36*
X127854622Y-88212184D02*
G01*
X127900377Y-88264988D01*
X127910873Y-88303244D01*
X127913909Y-88331483D01*
X127964202Y-88466328D01*
X127964206Y-88466335D01*
X128050452Y-88581544D01*
X128050455Y-88581547D01*
X128165664Y-88667793D01*
X128165671Y-88667797D01*
X128210618Y-88684561D01*
X128300517Y-88718091D01*
X128360127Y-88724500D01*
X128615501Y-88724499D01*
X128682539Y-88744183D01*
X128728294Y-88796987D01*
X128739500Y-88848499D01*
X128739500Y-89039903D01*
X128719815Y-89106942D01*
X128703181Y-89127584D01*
X126187584Y-91643181D01*
X126126261Y-91676666D01*
X126099903Y-91679500D01*
X124046976Y-91679500D01*
X123979937Y-91659815D01*
X123934182Y-91607011D01*
X123925359Y-91579691D01*
X123922849Y-91567074D01*
X123921658Y-91561087D01*
X123865084Y-91424505D01*
X123821396Y-91359121D01*
X123800520Y-91292444D01*
X123800500Y-91290232D01*
X123800500Y-90556668D01*
X123820185Y-90489629D01*
X123856369Y-90455521D01*
X123855584Y-90454486D01*
X123982922Y-90357922D01*
X124022878Y-90305232D01*
X124032602Y-90292408D01*
X124088794Y-90250886D01*
X124158515Y-90246334D01*
X124200297Y-90264232D01*
X124231498Y-90285080D01*
X124231511Y-90285087D01*
X124364318Y-90340097D01*
X124368087Y-90341658D01*
X124368091Y-90341658D01*
X124368092Y-90341659D01*
X124513079Y-90370500D01*
X124513082Y-90370500D01*
X124660920Y-90370500D01*
X124758462Y-90351096D01*
X124805913Y-90341658D01*
X124942495Y-90285084D01*
X125065416Y-90202951D01*
X125169951Y-90098416D01*
X125252084Y-89975495D01*
X125308658Y-89838913D01*
X125325531Y-89754091D01*
X125337500Y-89693920D01*
X125337500Y-89546079D01*
X125308659Y-89401092D01*
X125308658Y-89401091D01*
X125308658Y-89401087D01*
X125273000Y-89315000D01*
X125252087Y-89264511D01*
X125252080Y-89264498D01*
X125169951Y-89141584D01*
X125169948Y-89141580D01*
X125061109Y-89032741D01*
X125062344Y-89031505D01*
X125051697Y-89015879D01*
X125049523Y-89014251D01*
X125048233Y-89010793D01*
X125027675Y-88980619D01*
X125026952Y-88953736D01*
X125025106Y-88948787D01*
X125026630Y-88941778D01*
X125025797Y-88910775D01*
X125037952Y-88889731D01*
X125039957Y-88880514D01*
X125054488Y-88861101D01*
X125058292Y-88854517D01*
X125063849Y-88848997D01*
X125065416Y-88847951D01*
X125139406Y-88773960D01*
X125139552Y-88773816D01*
X125169959Y-88757348D01*
X125200571Y-88740633D01*
X125200794Y-88740648D01*
X125200990Y-88740543D01*
X125235630Y-88743140D01*
X125270260Y-88745616D01*
X125303700Y-88758089D01*
X125330511Y-88768089D01*
X125330517Y-88768091D01*
X125390127Y-88774500D01*
X125809872Y-88774499D01*
X125869483Y-88768091D01*
X126004331Y-88717796D01*
X126119546Y-88631546D01*
X126174477Y-88558166D01*
X126230410Y-88516297D01*
X126300102Y-88511313D01*
X126361425Y-88544798D01*
X126373004Y-88558161D01*
X126420454Y-88621546D01*
X126466643Y-88656123D01*
X126535664Y-88707793D01*
X126535671Y-88707797D01*
X126580452Y-88724499D01*
X126670517Y-88758091D01*
X126730127Y-88764500D01*
X127149872Y-88764499D01*
X127209483Y-88758091D01*
X127344331Y-88707796D01*
X127459546Y-88621546D01*
X127545796Y-88506331D01*
X127596091Y-88371483D01*
X127601425Y-88321873D01*
X127602499Y-88311885D01*
X127602607Y-88309874D01*
X127602763Y-88309430D01*
X127602856Y-88308569D01*
X127603059Y-88308590D01*
X127625845Y-88243982D01*
X127681018Y-88201114D01*
X127726424Y-88192499D01*
X127787585Y-88192499D01*
X127854622Y-88212184D01*
G37*
%TD.AperFunction*%
%TA.AperFunction,Conductor*%
G36*
X119748746Y-85586891D02*
G01*
X119764924Y-85597288D01*
X119767658Y-85599361D01*
X119908436Y-85654877D01*
X119996898Y-85665500D01*
X119996903Y-85665500D01*
X120183103Y-85665500D01*
X120199178Y-85663569D01*
X120271564Y-85654877D01*
X120271565Y-85654876D01*
X120275215Y-85654438D01*
X120304785Y-85654438D01*
X120308434Y-85654876D01*
X120308436Y-85654877D01*
X120380821Y-85663569D01*
X120396897Y-85665500D01*
X120396898Y-85665500D01*
X120583103Y-85665500D01*
X120599178Y-85663569D01*
X120671564Y-85654877D01*
X120671565Y-85654876D01*
X120675215Y-85654438D01*
X120704785Y-85654438D01*
X120708434Y-85654876D01*
X120708436Y-85654877D01*
X120780821Y-85663569D01*
X120796897Y-85665500D01*
X120796898Y-85665500D01*
X120983103Y-85665500D01*
X120999178Y-85663569D01*
X121071564Y-85654877D01*
X121071565Y-85654876D01*
X121075215Y-85654438D01*
X121104785Y-85654438D01*
X121108434Y-85654876D01*
X121108436Y-85654877D01*
X121180821Y-85663569D01*
X121196897Y-85665500D01*
X121196898Y-85665500D01*
X121383103Y-85665500D01*
X121399178Y-85663569D01*
X121471564Y-85654877D01*
X121471565Y-85654876D01*
X121475215Y-85654438D01*
X121504785Y-85654438D01*
X121508434Y-85654876D01*
X121508436Y-85654877D01*
X121580821Y-85663569D01*
X121596897Y-85665500D01*
X121596898Y-85665500D01*
X121783103Y-85665500D01*
X121799178Y-85663569D01*
X121871564Y-85654877D01*
X121871565Y-85654876D01*
X121875215Y-85654438D01*
X121904785Y-85654438D01*
X121908434Y-85654876D01*
X121908436Y-85654877D01*
X121980821Y-85663569D01*
X121996897Y-85665500D01*
X121996898Y-85665500D01*
X122183099Y-85665500D01*
X122183102Y-85665500D01*
X122204124Y-85662975D01*
X122273030Y-85674524D01*
X122324755Y-85721495D01*
X122342875Y-85788974D01*
X122342025Y-85800870D01*
X122339500Y-85821898D01*
X122339500Y-86008102D01*
X122345222Y-86055754D01*
X122350561Y-86100217D01*
X122350561Y-86129783D01*
X122347362Y-86156429D01*
X122339500Y-86221898D01*
X122339500Y-86408102D01*
X122344761Y-86451909D01*
X122350561Y-86500217D01*
X122350561Y-86529783D01*
X122346933Y-86560000D01*
X122339500Y-86621898D01*
X122339500Y-86808102D01*
X122340869Y-86819500D01*
X122350122Y-86896561D01*
X122405639Y-87037343D01*
X122407712Y-87040076D01*
X122408830Y-87043018D01*
X122409795Y-87044734D01*
X122409537Y-87044878D01*
X122432534Y-87105388D01*
X122418105Y-87173752D01*
X122407712Y-87189924D01*
X122405639Y-87192656D01*
X122350122Y-87333438D01*
X122345508Y-87371864D01*
X122339500Y-87421898D01*
X122339500Y-87608102D01*
X122345222Y-87655754D01*
X122350561Y-87700217D01*
X122350561Y-87729783D01*
X122345997Y-87767793D01*
X122339500Y-87821898D01*
X122339500Y-88008102D01*
X122344341Y-88048415D01*
X122350561Y-88100217D01*
X122350561Y-88129783D01*
X122347779Y-88152952D01*
X122339500Y-88221898D01*
X122339500Y-88408102D01*
X122345222Y-88455754D01*
X122350561Y-88500217D01*
X122350561Y-88529783D01*
X122344718Y-88578440D01*
X122339500Y-88621898D01*
X122339500Y-88808102D01*
X122344285Y-88847951D01*
X122350561Y-88900217D01*
X122350561Y-88929783D01*
X122346283Y-88965413D01*
X122339500Y-89021898D01*
X122339500Y-89208102D01*
X122343865Y-89244451D01*
X122350561Y-89300217D01*
X122350561Y-89329783D01*
X122349370Y-89339706D01*
X122339500Y-89421898D01*
X122339500Y-89608102D01*
X122342024Y-89629121D01*
X122342025Y-89629126D01*
X122330473Y-89698034D01*
X122283500Y-89749758D01*
X122216020Y-89767875D01*
X122204132Y-89767025D01*
X122183102Y-89764500D01*
X121996898Y-89764500D01*
X121953440Y-89769718D01*
X121904783Y-89775561D01*
X121875217Y-89775561D01*
X121826559Y-89769718D01*
X121783102Y-89764500D01*
X121596898Y-89764500D01*
X121553440Y-89769718D01*
X121504783Y-89775561D01*
X121475217Y-89775561D01*
X121426559Y-89769718D01*
X121383102Y-89764500D01*
X121196898Y-89764500D01*
X121153440Y-89769718D01*
X121104783Y-89775561D01*
X121075217Y-89775561D01*
X121026559Y-89769718D01*
X120983102Y-89764500D01*
X120796898Y-89764500D01*
X120753440Y-89769718D01*
X120704783Y-89775561D01*
X120675217Y-89775561D01*
X120626559Y-89769718D01*
X120583102Y-89764500D01*
X120396898Y-89764500D01*
X120353440Y-89769718D01*
X120304783Y-89775561D01*
X120275217Y-89775561D01*
X120226559Y-89769718D01*
X120183102Y-89764500D01*
X119996898Y-89764500D01*
X119953440Y-89769718D01*
X119904783Y-89775561D01*
X119875217Y-89775561D01*
X119826559Y-89769718D01*
X119783102Y-89764500D01*
X119596898Y-89764500D01*
X119553440Y-89769718D01*
X119504783Y-89775561D01*
X119475217Y-89775561D01*
X119426559Y-89769718D01*
X119383102Y-89764500D01*
X119196898Y-89764500D01*
X119153440Y-89769718D01*
X119104783Y-89775561D01*
X119075217Y-89775561D01*
X119026559Y-89769718D01*
X118983102Y-89764500D01*
X118796898Y-89764500D01*
X118753440Y-89769718D01*
X118704783Y-89775561D01*
X118675217Y-89775561D01*
X118626559Y-89769718D01*
X118583102Y-89764500D01*
X118396898Y-89764500D01*
X118375871Y-89767024D01*
X118306964Y-89755472D01*
X118255241Y-89708499D01*
X118237124Y-89641019D01*
X118237975Y-89629126D01*
X118240500Y-89608102D01*
X118240500Y-89421898D01*
X118240158Y-89419054D01*
X118238150Y-89402328D01*
X118229877Y-89333436D01*
X118229876Y-89333434D01*
X118229438Y-89329785D01*
X118229438Y-89300215D01*
X118229876Y-89296565D01*
X118229877Y-89296564D01*
X118240500Y-89208102D01*
X118240500Y-89021898D01*
X118229877Y-88933436D01*
X118229876Y-88933434D01*
X118229438Y-88929785D01*
X118229438Y-88900215D01*
X118229876Y-88896565D01*
X118229877Y-88896564D01*
X118240500Y-88808102D01*
X118240500Y-88621898D01*
X118240457Y-88621544D01*
X118236972Y-88592522D01*
X118229877Y-88533436D01*
X118229876Y-88533434D01*
X118229438Y-88529785D01*
X118229438Y-88500215D01*
X118229876Y-88496565D01*
X118229877Y-88496564D01*
X118240500Y-88408102D01*
X118240500Y-88221898D01*
X118239333Y-88212184D01*
X118236477Y-88188400D01*
X118229877Y-88133436D01*
X118229876Y-88133434D01*
X118229438Y-88129785D01*
X118229438Y-88100215D01*
X118229876Y-88096565D01*
X118229877Y-88096564D01*
X118240500Y-88008102D01*
X118240500Y-87821898D01*
X118239679Y-87815065D01*
X118238569Y-87805821D01*
X118229877Y-87733436D01*
X118229876Y-87733434D01*
X118229438Y-87729785D01*
X118229438Y-87700215D01*
X118229876Y-87696565D01*
X118229877Y-87696564D01*
X118240500Y-87608102D01*
X118240500Y-87421898D01*
X118229877Y-87333436D01*
X118229876Y-87333434D01*
X118229438Y-87329785D01*
X118229438Y-87300215D01*
X118229876Y-87296565D01*
X118229877Y-87296564D01*
X118240500Y-87208102D01*
X118240500Y-87021898D01*
X118229877Y-86933436D01*
X118229876Y-86933434D01*
X118229438Y-86929785D01*
X118229438Y-86900215D01*
X118229876Y-86896565D01*
X118229877Y-86896564D01*
X118240500Y-86808102D01*
X118240500Y-86621898D01*
X118239966Y-86617455D01*
X118235925Y-86583798D01*
X118229877Y-86533436D01*
X118229876Y-86533434D01*
X118229438Y-86529785D01*
X118229438Y-86500215D01*
X118229876Y-86496565D01*
X118229877Y-86496564D01*
X118240500Y-86408102D01*
X118240500Y-86221898D01*
X118229877Y-86133436D01*
X118229876Y-86133434D01*
X118229438Y-86129785D01*
X118229438Y-86100215D01*
X118229876Y-86096565D01*
X118229877Y-86096564D01*
X118240500Y-86008102D01*
X118240500Y-85821898D01*
X118237975Y-85800874D01*
X118249524Y-85731969D01*
X118296495Y-85680243D01*
X118363975Y-85662124D01*
X118375862Y-85662973D01*
X118396898Y-85665500D01*
X118396900Y-85665500D01*
X118583103Y-85665500D01*
X118599178Y-85663569D01*
X118671564Y-85654877D01*
X118671565Y-85654876D01*
X118675215Y-85654438D01*
X118704785Y-85654438D01*
X118708434Y-85654876D01*
X118708436Y-85654877D01*
X118780821Y-85663569D01*
X118796897Y-85665500D01*
X118796898Y-85665500D01*
X118983103Y-85665500D01*
X118999178Y-85663569D01*
X119071564Y-85654877D01*
X119071565Y-85654876D01*
X119075215Y-85654438D01*
X119104785Y-85654438D01*
X119108434Y-85654876D01*
X119108436Y-85654877D01*
X119180821Y-85663569D01*
X119196897Y-85665500D01*
X119196898Y-85665500D01*
X119383097Y-85665500D01*
X119383102Y-85665500D01*
X119471564Y-85654877D01*
X119612342Y-85599361D01*
X119615072Y-85597290D01*
X119618010Y-85596173D01*
X119619733Y-85595205D01*
X119619878Y-85595463D01*
X119680382Y-85572466D01*
X119748746Y-85586891D01*
G37*
%TD.AperFunction*%
%TA.AperFunction,Conductor*%
G36*
X107572514Y-85994501D02*
G01*
X107572674Y-85993905D01*
X107580524Y-85996008D01*
X107580526Y-85996008D01*
X107580528Y-85996009D01*
X107690599Y-86010500D01*
X107889400Y-86010499D01*
X107959623Y-86001254D01*
X108028654Y-86012019D01*
X108080910Y-86058399D01*
X108099796Y-86125668D01*
X108098744Y-86140377D01*
X108089500Y-86210596D01*
X108089500Y-86409403D01*
X108103989Y-86519468D01*
X108106094Y-86527322D01*
X108102814Y-86528200D01*
X108108581Y-86582073D01*
X108105517Y-86592522D01*
X108106095Y-86592677D01*
X108103990Y-86600529D01*
X108089500Y-86710598D01*
X108089500Y-86909403D01*
X108103989Y-87019468D01*
X108106094Y-87027322D01*
X108102814Y-87028200D01*
X108108581Y-87082073D01*
X108105517Y-87092522D01*
X108106095Y-87092677D01*
X108103990Y-87100529D01*
X108089500Y-87210598D01*
X108089500Y-87409403D01*
X108103989Y-87519468D01*
X108106094Y-87527322D01*
X108102814Y-87528200D01*
X108108581Y-87582073D01*
X108105517Y-87592522D01*
X108106095Y-87592677D01*
X108103990Y-87600529D01*
X108089500Y-87710598D01*
X108089500Y-87909403D01*
X108103989Y-88019468D01*
X108106094Y-88027322D01*
X108102814Y-88028200D01*
X108108581Y-88082073D01*
X108105517Y-88092522D01*
X108106095Y-88092677D01*
X108103990Y-88100529D01*
X108089500Y-88210598D01*
X108089500Y-88409403D01*
X108103989Y-88519468D01*
X108106094Y-88527322D01*
X108102814Y-88528200D01*
X108108581Y-88582073D01*
X108105517Y-88592522D01*
X108106095Y-88592677D01*
X108103990Y-88600529D01*
X108089500Y-88710598D01*
X108089500Y-88909403D01*
X108098744Y-88979622D01*
X108087977Y-89048657D01*
X108041596Y-89100912D01*
X107974327Y-89119796D01*
X107959620Y-89118744D01*
X107889402Y-89109500D01*
X107690596Y-89109500D01*
X107580531Y-89123989D01*
X107572678Y-89126094D01*
X107571802Y-89122824D01*
X107517853Y-89128567D01*
X107507477Y-89125518D01*
X107507323Y-89126095D01*
X107499470Y-89123990D01*
X107389401Y-89109500D01*
X107190596Y-89109500D01*
X107080531Y-89123989D01*
X107072678Y-89126094D01*
X107071802Y-89122824D01*
X107017853Y-89128567D01*
X107007477Y-89125518D01*
X107007323Y-89126095D01*
X106999470Y-89123990D01*
X106889401Y-89109500D01*
X106690596Y-89109500D01*
X106580531Y-89123989D01*
X106572678Y-89126094D01*
X106571802Y-89122824D01*
X106517853Y-89128567D01*
X106507477Y-89125518D01*
X106507323Y-89126095D01*
X106499470Y-89123990D01*
X106389401Y-89109500D01*
X106190596Y-89109500D01*
X106080531Y-89123989D01*
X106072678Y-89126094D01*
X106071802Y-89122824D01*
X106017853Y-89128567D01*
X106007477Y-89125518D01*
X106007323Y-89126095D01*
X105999470Y-89123990D01*
X105889401Y-89109500D01*
X105690596Y-89109500D01*
X105580531Y-89123989D01*
X105572678Y-89126094D01*
X105571802Y-89122824D01*
X105517853Y-89128567D01*
X105507477Y-89125518D01*
X105507323Y-89126095D01*
X105499470Y-89123990D01*
X105389401Y-89109500D01*
X105190604Y-89109500D01*
X105120377Y-89118745D01*
X105051341Y-89107977D01*
X104999087Y-89061596D01*
X104980203Y-88994327D01*
X104981255Y-88979622D01*
X104990500Y-88909401D01*
X104990499Y-88710600D01*
X104990499Y-88710598D01*
X104990499Y-88710596D01*
X104976011Y-88600536D01*
X104976009Y-88600529D01*
X104976009Y-88600528D01*
X104919279Y-88463571D01*
X104859360Y-88385484D01*
X104834168Y-88320318D01*
X104848206Y-88251873D01*
X104859356Y-88234521D01*
X104919279Y-88156429D01*
X104976009Y-88019472D01*
X104990500Y-87909401D01*
X104990499Y-87710600D01*
X104976009Y-87600528D01*
X104976008Y-87600525D01*
X104973905Y-87592674D01*
X104977207Y-87591789D01*
X104971392Y-87538075D01*
X104974501Y-87527485D01*
X104973905Y-87527326D01*
X104976008Y-87519475D01*
X104976008Y-87519474D01*
X104976009Y-87519472D01*
X104990500Y-87409401D01*
X104990499Y-87210600D01*
X104976009Y-87100528D01*
X104976008Y-87100525D01*
X104973905Y-87092674D01*
X104977207Y-87091789D01*
X104971392Y-87038075D01*
X104974501Y-87027485D01*
X104973905Y-87027326D01*
X104976008Y-87019475D01*
X104976008Y-87019474D01*
X104976009Y-87019472D01*
X104990500Y-86909401D01*
X104990499Y-86710600D01*
X104990499Y-86710598D01*
X104990499Y-86710596D01*
X104976011Y-86600536D01*
X104976009Y-86600529D01*
X104976009Y-86600528D01*
X104919279Y-86463571D01*
X104859360Y-86385484D01*
X104834168Y-86320318D01*
X104848206Y-86251873D01*
X104850613Y-86247548D01*
X104854572Y-86240755D01*
X104919279Y-86156429D01*
X104957431Y-86064322D01*
X104961654Y-86057079D01*
X104981188Y-86038609D01*
X104998058Y-86017675D01*
X105006194Y-86014966D01*
X105012424Y-86009077D01*
X105038842Y-86004100D01*
X105064352Y-85995610D01*
X105079966Y-85996353D01*
X105081086Y-85996143D01*
X105081824Y-85996442D01*
X105084951Y-85996591D01*
X105190599Y-86010500D01*
X105389400Y-86010499D01*
X105389401Y-86010499D01*
X105407654Y-86008096D01*
X105499472Y-85996009D01*
X105499475Y-85996007D01*
X105507326Y-85993905D01*
X105508210Y-85997207D01*
X105561925Y-85991392D01*
X105572514Y-85994501D01*
X105572674Y-85993905D01*
X105580524Y-85996008D01*
X105580526Y-85996008D01*
X105580528Y-85996009D01*
X105690599Y-86010500D01*
X105889400Y-86010499D01*
X105889401Y-86010499D01*
X105907654Y-86008096D01*
X105999472Y-85996009D01*
X105999475Y-85996007D01*
X106007326Y-85993905D01*
X106008210Y-85997207D01*
X106061925Y-85991392D01*
X106072514Y-85994501D01*
X106072674Y-85993905D01*
X106080524Y-85996008D01*
X106080526Y-85996008D01*
X106080528Y-85996009D01*
X106190599Y-86010500D01*
X106389400Y-86010499D01*
X106389401Y-86010499D01*
X106407654Y-86008096D01*
X106499472Y-85996009D01*
X106499475Y-85996007D01*
X106507326Y-85993905D01*
X106508210Y-85997207D01*
X106561925Y-85991392D01*
X106572514Y-85994501D01*
X106572674Y-85993905D01*
X106580524Y-85996008D01*
X106580526Y-85996008D01*
X106580528Y-85996009D01*
X106690599Y-86010500D01*
X106889400Y-86010499D01*
X106889401Y-86010499D01*
X106907654Y-86008096D01*
X106999472Y-85996009D01*
X106999475Y-85996007D01*
X107007326Y-85993905D01*
X107008210Y-85997207D01*
X107061925Y-85991392D01*
X107072514Y-85994501D01*
X107072674Y-85993905D01*
X107080524Y-85996008D01*
X107080526Y-85996008D01*
X107080528Y-85996009D01*
X107190599Y-86010500D01*
X107389400Y-86010499D01*
X107389401Y-86010499D01*
X107407654Y-86008096D01*
X107499472Y-85996009D01*
X107499475Y-85996007D01*
X107507326Y-85993905D01*
X107508210Y-85997207D01*
X107561925Y-85991392D01*
X107572514Y-85994501D01*
G37*
%TD.AperFunction*%
%TA.AperFunction,Conductor*%
G36*
X131058127Y-87792500D02*
G01*
X131174358Y-87792499D01*
X131241397Y-87812183D01*
X131287152Y-87864987D01*
X131297096Y-87934145D01*
X131295237Y-87938215D01*
X131302124Y-87953932D01*
X131303906Y-87961476D01*
X131303909Y-87961483D01*
X131351682Y-88089571D01*
X131359500Y-88132901D01*
X131359500Y-88210903D01*
X131339815Y-88277942D01*
X131287011Y-88323697D01*
X131217853Y-88333641D01*
X131154297Y-88304616D01*
X131147819Y-88298584D01*
X130853415Y-88004180D01*
X130819930Y-87942857D01*
X130824914Y-87873165D01*
X130866786Y-87817232D01*
X130932250Y-87792815D01*
X130941096Y-87792499D01*
X130981862Y-87792499D01*
X130981872Y-87792499D01*
X131006752Y-87789824D01*
X131033250Y-87789824D01*
X131058127Y-87792500D01*
G37*
%TD.AperFunction*%
%TA.AperFunction,Conductor*%
G36*
X119248524Y-81630185D02*
G01*
X119294279Y-81682989D01*
X119304223Y-81752147D01*
X119297667Y-81777833D01*
X119260885Y-81876452D01*
X119251909Y-81900517D01*
X119245500Y-81960127D01*
X119245500Y-81960134D01*
X119245500Y-81960135D01*
X119245500Y-82302739D01*
X119225815Y-82369778D01*
X119173011Y-82415533D01*
X119103853Y-82425477D01*
X119078167Y-82418921D01*
X118957482Y-82373908D01*
X118957483Y-82373908D01*
X118897883Y-82367501D01*
X118897881Y-82367500D01*
X118897873Y-82367500D01*
X118897864Y-82367500D01*
X118002129Y-82367500D01*
X118002123Y-82367501D01*
X117942516Y-82373908D01*
X117807671Y-82424202D01*
X117807664Y-82424206D01*
X117692455Y-82510452D01*
X117692452Y-82510455D01*
X117606206Y-82625664D01*
X117606202Y-82625671D01*
X117555908Y-82760517D01*
X117549501Y-82820116D01*
X117549500Y-82820135D01*
X117549500Y-83779870D01*
X117549501Y-83779876D01*
X117555908Y-83839483D01*
X117594207Y-83942167D01*
X117599191Y-84011859D01*
X117565706Y-84073182D01*
X117504382Y-84106666D01*
X117478025Y-84109500D01*
X116636080Y-84109500D01*
X116491092Y-84138340D01*
X116491082Y-84138343D01*
X116354511Y-84194912D01*
X116354498Y-84194919D01*
X116231584Y-84277048D01*
X116231580Y-84277051D01*
X116127051Y-84381580D01*
X116127048Y-84381584D01*
X116044919Y-84504498D01*
X116044912Y-84504511D01*
X115988343Y-84641082D01*
X115988339Y-84641096D01*
X115983636Y-84664737D01*
X115951249Y-84726647D01*
X115890532Y-84761219D01*
X115837828Y-84762158D01*
X115723920Y-84739500D01*
X115723918Y-84739500D01*
X115576082Y-84739500D01*
X115576080Y-84739500D01*
X115431092Y-84768340D01*
X115431082Y-84768343D01*
X115294511Y-84824912D01*
X115294498Y-84824919D01*
X115171584Y-84907048D01*
X115171580Y-84907051D01*
X115067051Y-85011580D01*
X115067048Y-85011584D01*
X114984919Y-85134498D01*
X114984912Y-85134511D01*
X114928343Y-85271082D01*
X114928340Y-85271092D01*
X114899500Y-85416079D01*
X114899500Y-85416082D01*
X114899500Y-85563918D01*
X114899500Y-85563920D01*
X114899499Y-85563920D01*
X114928340Y-85708907D01*
X114928343Y-85708917D01*
X114984912Y-85845488D01*
X114984919Y-85845501D01*
X115028602Y-85910876D01*
X115049480Y-85977553D01*
X115049500Y-85979767D01*
X115049500Y-86350500D01*
X115029815Y-86417539D01*
X114977011Y-86463294D01*
X114925500Y-86474500D01*
X113807129Y-86474500D01*
X113807123Y-86474501D01*
X113747516Y-86480908D01*
X113612671Y-86531202D01*
X113612664Y-86531206D01*
X113497455Y-86617452D01*
X113497452Y-86617455D01*
X113411206Y-86732664D01*
X113411202Y-86732671D01*
X113360908Y-86867517D01*
X113354501Y-86927116D01*
X113354500Y-86927135D01*
X113354500Y-87835500D01*
X113334815Y-87902539D01*
X113282011Y-87948294D01*
X113230500Y-87959500D01*
X113092230Y-87959500D01*
X113025191Y-87939815D01*
X113004549Y-87923181D01*
X112548417Y-87467049D01*
X112459969Y-87407951D01*
X112425495Y-87384916D01*
X112425493Y-87384915D01*
X112425490Y-87384913D01*
X112287047Y-87327569D01*
X112232643Y-87283728D01*
X112210578Y-87217434D01*
X112210499Y-87213039D01*
X112210500Y-87141284D01*
X112210500Y-87066083D01*
X112210500Y-87022228D01*
X112230185Y-86955189D01*
X112230187Y-86955186D01*
X112246819Y-86934548D01*
X114072950Y-85108417D01*
X114072952Y-85108415D01*
X114103880Y-85062127D01*
X114155084Y-84985495D01*
X114190942Y-84898927D01*
X114211659Y-84848912D01*
X114229519Y-84759118D01*
X114235528Y-84728914D01*
X114235528Y-84728911D01*
X114235979Y-84726647D01*
X114240500Y-84703918D01*
X114240500Y-82016082D01*
X114240500Y-82016079D01*
X114211659Y-81871092D01*
X114211658Y-81871091D01*
X114211658Y-81871087D01*
X114211656Y-81871082D01*
X114174738Y-81781952D01*
X114167269Y-81712483D01*
X114198545Y-81650004D01*
X114258634Y-81614352D01*
X114289299Y-81610500D01*
X119181485Y-81610500D01*
X119248524Y-81630185D01*
G37*
%TD.AperFunction*%
%TA.AperFunction,Conductor*%
G36*
X101618314Y-85429682D02*
G01*
X101897549Y-85708917D01*
X102085447Y-85896814D01*
X102118932Y-85958137D01*
X102113948Y-86027828D01*
X102072077Y-86083762D01*
X102045219Y-86099056D01*
X101934508Y-86144914D01*
X101934498Y-86144919D01*
X101811584Y-86227048D01*
X101811580Y-86227051D01*
X101255451Y-86783181D01*
X101194128Y-86816666D01*
X101167770Y-86819500D01*
X99934500Y-86819500D01*
X99867461Y-86799815D01*
X99821706Y-86747011D01*
X99810500Y-86695500D01*
X99810500Y-86487954D01*
X99830185Y-86420915D01*
X99846824Y-86400268D01*
X99849542Y-86397548D01*
X99849546Y-86397546D01*
X99935796Y-86282331D01*
X99986091Y-86147483D01*
X99992500Y-86087873D01*
X99992499Y-85559498D01*
X100012183Y-85492460D01*
X100064987Y-85446705D01*
X100116499Y-85435499D01*
X101352871Y-85435499D01*
X101352872Y-85435499D01*
X101412483Y-85429091D01*
X101487303Y-85401184D01*
X101556993Y-85396200D01*
X101618314Y-85429682D01*
G37*
%TD.AperFunction*%
%TA.AperFunction,Conductor*%
G36*
X112722177Y-81619742D02*
G01*
X112753974Y-81627858D01*
X112755538Y-81629538D01*
X112757740Y-81630185D01*
X112779213Y-81654966D01*
X112801585Y-81678995D01*
X112801992Y-81681255D01*
X112803495Y-81682989D01*
X112808162Y-81715449D01*
X112813991Y-81747754D01*
X112813239Y-81750762D01*
X112813439Y-81752147D01*
X112807372Y-81774258D01*
X112805750Y-81780757D01*
X112805490Y-81781402D01*
X112768342Y-81871087D01*
X112767275Y-81876448D01*
X112767274Y-81876452D01*
X112739500Y-82016079D01*
X112739500Y-84267769D01*
X112719815Y-84334808D01*
X112703181Y-84355450D01*
X112230864Y-84827766D01*
X112169541Y-84861251D01*
X112099849Y-84856267D01*
X112043917Y-84814397D01*
X112020068Y-84782539D01*
X111997546Y-84752454D01*
X111997544Y-84752453D01*
X111997544Y-84752452D01*
X111882335Y-84666206D01*
X111882328Y-84666202D01*
X111747486Y-84615910D01*
X111747485Y-84615909D01*
X111747483Y-84615909D01*
X111687873Y-84609500D01*
X111687863Y-84609500D01*
X111052129Y-84609500D01*
X111052123Y-84609501D01*
X110992516Y-84615908D01*
X110857671Y-84666202D01*
X110857664Y-84666206D01*
X110742456Y-84752452D01*
X110742455Y-84752453D01*
X110742454Y-84752454D01*
X110684545Y-84829811D01*
X110628611Y-84871682D01*
X110585278Y-84879500D01*
X110516642Y-84879500D01*
X110449603Y-84859815D01*
X110403848Y-84807011D01*
X110393904Y-84737853D01*
X110422929Y-84674297D01*
X110428961Y-84667819D01*
X110480872Y-84615908D01*
X110528064Y-84568716D01*
X110528064Y-84568714D01*
X110538268Y-84558511D01*
X110538271Y-84558506D01*
X111102417Y-83994362D01*
X111163740Y-83960877D01*
X111190098Y-83958043D01*
X111387871Y-83958043D01*
X111387872Y-83958043D01*
X111447483Y-83951635D01*
X111582331Y-83901340D01*
X111697546Y-83815090D01*
X111783796Y-83699875D01*
X111834091Y-83565027D01*
X111840500Y-83505417D01*
X111840499Y-82909672D01*
X111834091Y-82850061D01*
X111826424Y-82829505D01*
X111815747Y-82800878D01*
X111810762Y-82731187D01*
X111815747Y-82714209D01*
X111815947Y-82713672D01*
X111834091Y-82665027D01*
X111840500Y-82605417D01*
X111840499Y-82009672D01*
X111834091Y-81950061D01*
X111815612Y-81900517D01*
X111783797Y-81815215D01*
X111783795Y-81815211D01*
X111779005Y-81808813D01*
X111754586Y-81743349D01*
X111769436Y-81675076D01*
X111818840Y-81625669D01*
X111878270Y-81610500D01*
X112690701Y-81610500D01*
X112722177Y-81619742D01*
G37*
%TD.AperFunction*%
%TA.AperFunction,Conductor*%
G36*
X125299096Y-84020185D02*
G01*
X125344851Y-84072989D01*
X125355345Y-84137754D01*
X125354965Y-84141296D01*
X125349500Y-84192119D01*
X125349500Y-84715500D01*
X125329815Y-84782539D01*
X125277011Y-84828294D01*
X125225500Y-84839500D01*
X124654500Y-84839500D01*
X124587461Y-84819815D01*
X124541706Y-84767011D01*
X124530500Y-84715500D01*
X124530500Y-84124500D01*
X124550185Y-84057461D01*
X124602989Y-84011706D01*
X124654500Y-84000500D01*
X125232057Y-84000500D01*
X125299096Y-84020185D01*
G37*
%TD.AperFunction*%
%TA.AperFunction,Conductor*%
G36*
X107168332Y-80255547D02*
G01*
X107212680Y-80284048D01*
X108267049Y-81338416D01*
X108356297Y-81427664D01*
X108371585Y-81442952D01*
X108494498Y-81525080D01*
X108494511Y-81525087D01*
X108631082Y-81581656D01*
X108631087Y-81581658D01*
X108631091Y-81581658D01*
X108631092Y-81581659D01*
X108776079Y-81610500D01*
X108776082Y-81610500D01*
X108776083Y-81610500D01*
X108905500Y-81610500D01*
X108972539Y-81630185D01*
X109018294Y-81682989D01*
X109029500Y-81734499D01*
X109029500Y-81970869D01*
X109029501Y-81970876D01*
X109035908Y-82030479D01*
X109037692Y-82038026D01*
X109035342Y-82038581D01*
X109039463Y-82096385D01*
X109037149Y-82104264D01*
X109035908Y-82109517D01*
X109029501Y-82169116D01*
X109029500Y-82169135D01*
X109029500Y-82353324D01*
X109027117Y-82377516D01*
X109009500Y-82466079D01*
X109009500Y-82466082D01*
X109009500Y-83156082D01*
X109009500Y-83303918D01*
X109009500Y-83303920D01*
X109009499Y-83303920D01*
X109038818Y-83451308D01*
X109032591Y-83520900D01*
X108989728Y-83576077D01*
X108923839Y-83599322D01*
X108917201Y-83599500D01*
X108609057Y-83599500D01*
X108450942Y-83599500D01*
X108298215Y-83640423D01*
X108298214Y-83640423D01*
X108298212Y-83640424D01*
X108298209Y-83640425D01*
X108254780Y-83665500D01*
X108254778Y-83665501D01*
X108161290Y-83719475D01*
X108161282Y-83719481D01*
X107809479Y-84071284D01*
X107769067Y-84141283D01*
X107769059Y-84141296D01*
X107763463Y-84150986D01*
X107712890Y-84199196D01*
X107672268Y-84211913D01*
X107580530Y-84223990D01*
X107572678Y-84226094D01*
X107571802Y-84222824D01*
X107517853Y-84228567D01*
X107507477Y-84225518D01*
X107507323Y-84226095D01*
X107499470Y-84223990D01*
X107389401Y-84209500D01*
X107190596Y-84209500D01*
X107080531Y-84223989D01*
X107072678Y-84226094D01*
X107071802Y-84222824D01*
X107017853Y-84228567D01*
X107007477Y-84225518D01*
X107007323Y-84226095D01*
X106999470Y-84223990D01*
X106889401Y-84209500D01*
X106690596Y-84209500D01*
X106580531Y-84223989D01*
X106572678Y-84226094D01*
X106571802Y-84222824D01*
X106517853Y-84228567D01*
X106507477Y-84225518D01*
X106507323Y-84226095D01*
X106499470Y-84223990D01*
X106389401Y-84209500D01*
X106190596Y-84209500D01*
X106072469Y-84225051D01*
X106072262Y-84223484D01*
X106011733Y-84222039D01*
X105953874Y-84182872D01*
X105926375Y-84118641D01*
X105925499Y-84103927D01*
X105925500Y-84059497D01*
X105945186Y-83992458D01*
X105997991Y-83946704D01*
X106049500Y-83935500D01*
X106118920Y-83935500D01*
X106216462Y-83916096D01*
X106263913Y-83906658D01*
X106400495Y-83850084D01*
X106523416Y-83767951D01*
X106627951Y-83663416D01*
X106710084Y-83540495D01*
X106718201Y-83520900D01*
X106766656Y-83403917D01*
X106766658Y-83403913D01*
X106780035Y-83336666D01*
X106795500Y-83258920D01*
X106795500Y-83111079D01*
X106766659Y-82966092D01*
X106766658Y-82966091D01*
X106766658Y-82966087D01*
X106718781Y-82850501D01*
X106710087Y-82829511D01*
X106710080Y-82829498D01*
X106627951Y-82706584D01*
X106627948Y-82706580D01*
X106523419Y-82602051D01*
X106523415Y-82602048D01*
X106400501Y-82519919D01*
X106400488Y-82519912D01*
X106263917Y-82463343D01*
X106263907Y-82463340D01*
X106118920Y-82434500D01*
X106118918Y-82434500D01*
X105859946Y-82434500D01*
X105792907Y-82414815D01*
X105785635Y-82409766D01*
X105667335Y-82321206D01*
X105667328Y-82321202D01*
X105532482Y-82270908D01*
X105532483Y-82270908D01*
X105472883Y-82264501D01*
X105472881Y-82264500D01*
X105472873Y-82264500D01*
X105472865Y-82264500D01*
X104426499Y-82264500D01*
X104359460Y-82244815D01*
X104313705Y-82192011D01*
X104302499Y-82140500D01*
X104302499Y-81622129D01*
X104302498Y-81622123D01*
X104302323Y-81620499D01*
X104296229Y-81563797D01*
X104296091Y-81562516D01*
X104245797Y-81427671D01*
X104245793Y-81427664D01*
X104160562Y-81313811D01*
X104136144Y-81248347D01*
X104150995Y-81180074D01*
X104200400Y-81130668D01*
X104259828Y-81115500D01*
X105968920Y-81115500D01*
X106066462Y-81096096D01*
X106113913Y-81086658D01*
X106250495Y-81030084D01*
X106299729Y-80997186D01*
X106373416Y-80947952D01*
X107037318Y-80284047D01*
X107098641Y-80250563D01*
X107168332Y-80255547D01*
G37*
%TD.AperFunction*%
%TA.AperFunction,Conductor*%
G36*
X123135809Y-73480185D02*
G01*
X123181564Y-73532989D01*
X123191508Y-73602147D01*
X123162483Y-73665703D01*
X123156451Y-73672181D01*
X122797047Y-74031584D01*
X122797045Y-74031586D01*
X122763250Y-74082167D01*
X122763185Y-74082263D01*
X122763059Y-74082454D01*
X122714916Y-74154505D01*
X122713959Y-74156813D01*
X122709328Y-74163828D01*
X122686851Y-74182820D01*
X122666228Y-74203808D01*
X122660144Y-74205389D01*
X122655961Y-74208924D01*
X122636950Y-74211417D01*
X122605852Y-74219500D01*
X122332130Y-74219500D01*
X122332123Y-74219501D01*
X122272516Y-74225908D01*
X122137671Y-74276202D01*
X122137664Y-74276206D01*
X122022455Y-74362452D01*
X122022452Y-74362455D01*
X121936206Y-74477664D01*
X121936202Y-74477671D01*
X121885908Y-74612517D01*
X121879501Y-74672116D01*
X121879501Y-74672123D01*
X121879500Y-74672135D01*
X121879500Y-76107769D01*
X121859815Y-76174808D01*
X121843181Y-76195450D01*
X120305449Y-77733181D01*
X120244126Y-77766666D01*
X120217768Y-77769500D01*
X118904095Y-77769500D01*
X118837056Y-77749815D01*
X118791301Y-77697011D01*
X118781357Y-77627853D01*
X118810382Y-77564297D01*
X118816400Y-77557833D01*
X119967416Y-76406818D01*
X120028739Y-76373333D01*
X120055097Y-76370499D01*
X120957871Y-76370499D01*
X120957872Y-76370499D01*
X121017483Y-76364091D01*
X121152331Y-76313796D01*
X121267546Y-76227546D01*
X121353796Y-76112331D01*
X121404091Y-75977483D01*
X121410500Y-75917873D01*
X121410499Y-73822128D01*
X121404091Y-73762517D01*
X121398725Y-73748129D01*
X121353858Y-73627833D01*
X121348874Y-73558141D01*
X121382359Y-73496818D01*
X121443683Y-73463334D01*
X121470040Y-73460500D01*
X123068770Y-73460500D01*
X123135809Y-73480185D01*
G37*
%TD.AperFunction*%
%TA.AperFunction,Conductor*%
G36*
X117062539Y-74185184D02*
G01*
X117108294Y-74237988D01*
X117119500Y-74289499D01*
X117119500Y-75974000D01*
X117099815Y-76041039D01*
X117047011Y-76086794D01*
X116995500Y-76098000D01*
X115683629Y-76098000D01*
X115683623Y-76098001D01*
X115624016Y-76104408D01*
X115489171Y-76154702D01*
X115489169Y-76154704D01*
X115428811Y-76199888D01*
X115363347Y-76224305D01*
X115295074Y-76209454D01*
X115245668Y-76160048D01*
X115230500Y-76100621D01*
X115230500Y-74960096D01*
X115250185Y-74893057D01*
X115266815Y-74872419D01*
X115937416Y-74201817D01*
X115998739Y-74168333D01*
X116025097Y-74165499D01*
X116995500Y-74165499D01*
X117062539Y-74185184D01*
G37*
%TD.AperFunction*%
%TA.AperFunction,Conductor*%
G36*
X103538084Y-74180185D02*
G01*
X103558726Y-74196819D01*
X103562450Y-74200543D01*
X103562453Y-74200545D01*
X103562454Y-74200546D01*
X103677669Y-74286796D01*
X103677670Y-74286796D01*
X103677671Y-74286797D01*
X103722618Y-74303561D01*
X103812517Y-74337091D01*
X103872127Y-74343500D01*
X104312902Y-74343499D01*
X104379941Y-74363183D01*
X104400583Y-74379818D01*
X105588584Y-75567819D01*
X105622069Y-75629142D01*
X105617085Y-75698834D01*
X105575213Y-75754767D01*
X105509749Y-75779184D01*
X105500903Y-75779500D01*
X104979538Y-75779500D01*
X104912499Y-75759815D01*
X104880272Y-75729812D01*
X104857546Y-75699454D01*
X104857543Y-75699452D01*
X104742331Y-75613204D01*
X104742329Y-75613203D01*
X104742328Y-75613202D01*
X104607486Y-75562910D01*
X104607485Y-75562909D01*
X104607483Y-75562909D01*
X104547873Y-75556500D01*
X104547863Y-75556500D01*
X103912129Y-75556500D01*
X103912123Y-75556501D01*
X103852516Y-75562908D01*
X103717671Y-75613202D01*
X103717669Y-75613204D01*
X103602456Y-75699452D01*
X103602451Y-75699457D01*
X103579729Y-75729810D01*
X103523795Y-75771681D01*
X103480463Y-75779499D01*
X103350943Y-75779499D01*
X103236397Y-75810192D01*
X103198214Y-75820423D01*
X103187690Y-75826500D01*
X103187688Y-75826501D01*
X103061287Y-75899477D01*
X103061282Y-75899481D01*
X103007583Y-75953181D01*
X102946260Y-75986666D01*
X102919902Y-75989500D01*
X102782263Y-75989500D01*
X102715224Y-75969815D01*
X102669469Y-75917011D01*
X102658974Y-75878756D01*
X102656232Y-75853253D01*
X102656232Y-75826745D01*
X102660412Y-75787873D01*
X102660411Y-75392128D01*
X102660411Y-75392127D01*
X102660410Y-75392111D01*
X102656232Y-75353253D01*
X102656232Y-75326745D01*
X102660412Y-75287873D01*
X102660411Y-74892128D01*
X102660411Y-74892127D01*
X102660410Y-74892111D01*
X102656232Y-74853253D01*
X102656232Y-74826745D01*
X102660412Y-74787873D01*
X102660411Y-74392128D01*
X102660411Y-74392127D01*
X102660410Y-74392111D01*
X102656232Y-74353253D01*
X102656000Y-74329111D01*
X102656100Y-74327968D01*
X102660412Y-74287873D01*
X102660412Y-74279049D01*
X102660891Y-74273614D01*
X102671729Y-74245957D01*
X102680097Y-74217461D01*
X102684336Y-74213787D01*
X102686385Y-74208561D01*
X102710458Y-74191152D01*
X102732901Y-74171706D01*
X102739264Y-74170321D01*
X102743002Y-74167619D01*
X102754623Y-74166980D01*
X102784412Y-74160500D01*
X103471045Y-74160500D01*
X103538084Y-74180185D01*
G37*
%TD.AperFunction*%
%TA.AperFunction,Conductor*%
G36*
X120486942Y-70120185D02*
G01*
X120507584Y-70136819D01*
X120793181Y-70422417D01*
X120826666Y-70483740D01*
X120829500Y-70510097D01*
X120829500Y-70727869D01*
X120829501Y-70727876D01*
X120835908Y-70787483D01*
X120886202Y-70922328D01*
X120886206Y-70922335D01*
X120972452Y-71037544D01*
X120972455Y-71037547D01*
X121087664Y-71123793D01*
X121087671Y-71123797D01*
X121222517Y-71174091D01*
X121222516Y-71174091D01*
X121229444Y-71174835D01*
X121282127Y-71180500D01*
X122277872Y-71180499D01*
X122337483Y-71174091D01*
X122472331Y-71123796D01*
X122587546Y-71037546D01*
X122667914Y-70930188D01*
X122723847Y-70888318D01*
X122767180Y-70880500D01*
X123159903Y-70880500D01*
X123226942Y-70900185D01*
X123247584Y-70916819D01*
X123365261Y-71034496D01*
X123398746Y-71095819D01*
X123393762Y-71165511D01*
X123392142Y-71169628D01*
X123378518Y-71202520D01*
X123378514Y-71202531D01*
X123352500Y-71333316D01*
X123352500Y-71466683D01*
X123374961Y-71579602D01*
X123378516Y-71597474D01*
X123387942Y-71620230D01*
X123429548Y-71720677D01*
X123460239Y-71766609D01*
X123481117Y-71833287D01*
X123462632Y-71900667D01*
X123410653Y-71947357D01*
X123357137Y-71959500D01*
X119076080Y-71959500D01*
X118931092Y-71988340D01*
X118931082Y-71988343D01*
X118794511Y-72044912D01*
X118794498Y-72044919D01*
X118671584Y-72127048D01*
X118671580Y-72127051D01*
X117717180Y-73081451D01*
X117655857Y-73114936D01*
X117586165Y-73109952D01*
X117530232Y-73068080D01*
X117505815Y-73002616D01*
X117505499Y-72993770D01*
X117505499Y-72207129D01*
X117505498Y-72207123D01*
X117505497Y-72207116D01*
X117499091Y-72147517D01*
X117489742Y-72122452D01*
X117448797Y-72012671D01*
X117448793Y-72012664D01*
X117362547Y-71897455D01*
X117362544Y-71897452D01*
X117247335Y-71811206D01*
X117247328Y-71811202D01*
X117112482Y-71760908D01*
X117112483Y-71760908D01*
X117052883Y-71754501D01*
X117052881Y-71754500D01*
X117052873Y-71754500D01*
X117052864Y-71754500D01*
X117049548Y-71754322D01*
X117049615Y-71753065D01*
X116987461Y-71734815D01*
X116941706Y-71682011D01*
X116930500Y-71630500D01*
X116930500Y-71264499D01*
X116950185Y-71197460D01*
X117002989Y-71151705D01*
X117054500Y-71140499D01*
X117590871Y-71140499D01*
X117590872Y-71140499D01*
X117650483Y-71134091D01*
X117785331Y-71083796D01*
X117847116Y-71037544D01*
X117903635Y-70995234D01*
X117969099Y-70970816D01*
X117977946Y-70970500D01*
X118142165Y-70970500D01*
X118209204Y-70990185D01*
X118232541Y-71011910D01*
X118233180Y-71011272D01*
X118239451Y-71017542D01*
X118239454Y-71017546D01*
X118239457Y-71017548D01*
X118354664Y-71103793D01*
X118354671Y-71103797D01*
X118399618Y-71120561D01*
X118489517Y-71154091D01*
X118549127Y-71160500D01*
X119210872Y-71160499D01*
X119270483Y-71154091D01*
X119405331Y-71103796D01*
X119520546Y-71017546D01*
X119606796Y-70902331D01*
X119657091Y-70767483D01*
X119663500Y-70707873D01*
X119663499Y-70224499D01*
X119683183Y-70157461D01*
X119735987Y-70111706D01*
X119787499Y-70100500D01*
X120419903Y-70100500D01*
X120486942Y-70120185D01*
G37*
%TD.AperFunction*%
%TD*%
%TA.AperFunction,Conductor*%
%TO.N,GND*%
G36*
X127965220Y-88467689D02*
G01*
X128015983Y-88535500D01*
X127965218Y-88467687D01*
X127965220Y-88467689D01*
G37*
%TD.AperFunction*%
%TA.AperFunction,Conductor*%
G36*
X127602500Y-88311873D02*
G01*
X127602499Y-88311885D01*
X127602499Y-88311866D01*
X127602500Y-88311873D01*
G37*
%TD.AperFunction*%
%TA.AperFunction,Conductor*%
G36*
X127603059Y-88308590D02*
G01*
X127602856Y-88308569D01*
X127602763Y-88309430D01*
X127602607Y-88309874D01*
X127602499Y-88311866D01*
X127602499Y-88309627D01*
X127603038Y-88304221D01*
X127615130Y-88274361D01*
X127603059Y-88308590D01*
G37*
%TD.AperFunction*%
%TA.AperFunction,Conductor*%
G36*
X127628162Y-88242181D02*
G01*
X127629264Y-88239460D01*
X127655578Y-88220878D01*
X127628162Y-88242181D01*
G37*
%TD.AperFunction*%
%TA.AperFunction,Conductor*%
G36*
X127684506Y-88200451D02*
G01*
X127686339Y-88199158D01*
X127692816Y-88198875D01*
X127684506Y-88200451D01*
G37*
%TD.AperFunction*%
%TD*%
%TA.AperFunction,Conductor*%
%TO.N,GND*%
G36*
X131898095Y-89790639D02*
G01*
X131898097Y-89790641D01*
X131876576Y-89778216D01*
X131898095Y-89790639D01*
G37*
%TD.AperFunction*%
%TA.AperFunction,Conductor*%
G36*
X131545466Y-89507874D02*
G01*
X131605703Y-89535384D01*
X131545463Y-89507873D01*
X131545466Y-89507874D01*
G37*
%TD.AperFunction*%
%TD*%
M02*
