%TF.GenerationSoftware,KiCad,Pcbnew,10.0.0*%
%TF.CreationDate,2026-07-18T14:48:19-04:00*%
%TF.ProjectId,nrf54l15_v2,6e726635-346c-4313-955f-76322e6b6963,rev?*%
%TF.SameCoordinates,Original*%
%TF.FileFunction,Soldermask,Top*%
%TF.FilePolarity,Negative*%
%FSLAX46Y46*%
G04 Gerber Fmt 4.6, Leading zero omitted, Abs format (unit mm)*
G04 Created by KiCad (PCBNEW 10.0.0) date 2026-07-18 14:48:19*
%MOMM*%
%LPD*%
G01*
G04 APERTURE LIST*
G04 Aperture macros list*
%AMRoundRect*
0 Rectangle with rounded corners*
0 $1 Rounding radius*
0 $2 $3 $4 $5 $6 $7 $8 $9 X,Y pos of 4 corners*
0 Add a 4 corners polygon primitive as box body*
4,1,4,$2,$3,$4,$5,$6,$7,$8,$9,$2,$3,0*
0 Add four circle primitives for the rounded corners*
1,1,$1+$1,$2,$3*
1,1,$1+$1,$4,$5*
1,1,$1+$1,$6,$7*
1,1,$1+$1,$8,$9*
0 Add four rect primitives between the rounded corners*
20,1,$1+$1,$2,$3,$4,$5,0*
20,1,$1+$1,$4,$5,$6,$7,0*
20,1,$1+$1,$6,$7,$8,$9,0*
20,1,$1+$1,$8,$9,$2,$3,0*%
%AMFreePoly0*
4,1,17,0.335278,0.685443,0.349923,0.650088,0.349923,-0.649935,0.335278,-0.685290,0.299923,-0.699935,0.000318,-0.699935,-0.000051,-0.700088,-0.300050,-0.700088,-0.335405,-0.685443,-0.350050,-0.650088,-0.350050,0.649935,-0.335405,0.685290,-0.300050,0.699935,-0.000445,0.699935,-0.000076,0.700088,0.299923,0.700088,0.335278,0.685443,0.335278,0.685443,$1*%
%AMFreePoly1*
4,1,17,0.335431,0.685290,0.350076,0.649935,0.350076,-0.650037,0.335431,-0.685392,0.300076,-0.700037,0.000187,-0.700037,0.000127,-0.700062,-0.299898,-0.700062,-0.335253,-0.685417,-0.349898,-0.650062,-0.349898,0.649910,-0.335253,0.685265,-0.299898,0.699910,-0.000009,0.699910,0.000051,0.699935,0.300076,0.699935,0.335431,0.685290,0.335431,0.685290,$1*%
%AMFreePoly2*
4,1,13,0.335227,0.685443,0.349872,0.650088,0.349872,-0.649884,0.335227,-0.685239,0.299872,-0.699884,-0.300152,-0.699884,-0.335507,-0.685239,-0.350152,-0.649884,-0.350152,0.650088,-0.335507,0.685443,-0.300152,0.700088,0.299872,0.700088,0.335227,0.685443,0.335227,0.685443,$1*%
G04 Aperture macros list end*
%ADD10R,0.500000X0.540000*%
%ADD11R,0.566000X0.540000*%
%ADD12R,0.800000X0.900000*%
%ADD13R,0.806000X0.864000*%
%ADD14C,0.750000*%
%ADD15O,2.000000X1.200000*%
%ADD16O,1.800000X1.200000*%
%ADD17FreePoly0,270.000000*%
%ADD18FreePoly1,270.000000*%
%ADD19R,1.300000X0.300000*%
%ADD20FreePoly2,270.000000*%
%ADD21R,1.750000X1.000000*%
%ADD22RoundRect,0.062500X-0.337500X-0.062500X0.337500X-0.062500X0.337500X0.062500X-0.337500X0.062500X0*%
%ADD23RoundRect,0.062500X-0.062500X-0.337500X0.062500X-0.337500X0.062500X0.337500X-0.062500X0.337500X0*%
%ADD24R,3.600000X3.600000*%
%ADD25R,0.540000X0.566000*%
%ADD26R,0.368000X0.324000*%
%ADD27R,1.350000X1.410000*%
%ADD28R,0.600000X1.550000*%
%ADD29R,1.200000X1.800000*%
%ADD30R,0.900000X0.800000*%
%ADD31R,0.600000X1.500000*%
%ADD32R,0.550000X0.650000*%
%ADD33R,0.500000X0.550000*%
%ADD34R,1.701000X1.208000*%
%ADD35R,0.864000X0.800000*%
%ADD36R,2.000000X2.000000*%
%ADD37O,1.454000X0.353000*%
%ADD38R,0.600000X0.500000*%
%ADD39R,1.377000X1.133000*%
%ADD40R,1.728000X1.485000*%
%ADD41C,1.400000*%
%ADD42R,0.540000X0.540000*%
%ADD43RoundRect,0.050000X-0.350000X-0.050000X0.350000X-0.050000X0.350000X0.050000X-0.350000X0.050000X0*%
%ADD44RoundRect,0.050000X-0.050000X-0.350000X0.050000X-0.350000X0.050000X0.350000X-0.050000X0.350000X0*%
%ADD45R,4.600000X4.600000*%
%ADD46RoundRect,0.102000X1.395000X-0.370000X1.395000X0.370000X-1.395000X0.370000X-1.395000X-0.370000X0*%
%ADD47R,0.540000X0.500000*%
%ADD48R,0.324000X0.368000*%
%ADD49R,0.420000X0.220000*%
%ADD50R,0.800000X0.864000*%
G04 APERTURE END LIST*
D10*
%TO.C,C4*%
X112300000Y-87140000D03*
X111460000Y-87140000D03*
%TD*%
D11*
%TO.C,R4*%
X117260000Y-70370000D03*
X116400000Y-70370000D03*
%TD*%
D12*
%TO.C,C26*%
X103400000Y-92830000D03*
X104800000Y-92830000D03*
%TD*%
D13*
%TO.C,R9*%
X113050000Y-91490000D03*
X111550000Y-91490000D03*
%TD*%
D14*
%TO.C,J1*%
X100249912Y-71940000D03*
X100249912Y-77740000D03*
D15*
X100749912Y-79170000D03*
D16*
X96569912Y-79170000D03*
X96569912Y-70510000D03*
D15*
X100749912Y-70510000D03*
D17*
X101509912Y-71640000D03*
D18*
X101509912Y-72440000D03*
D19*
X101509912Y-73590000D03*
X101509912Y-74590000D03*
X101509912Y-75090000D03*
X101509912Y-76090000D03*
D20*
X101509912Y-78040000D03*
X101509912Y-77240000D03*
D19*
X101509912Y-76590000D03*
X101509912Y-75590000D03*
X101509912Y-74090000D03*
X101509912Y-73090000D03*
%TD*%
D21*
%TO.C,AE1*%
X136210000Y-92820000D03*
X136210000Y-95980000D03*
%TD*%
D22*
%TO.C,U2*%
X104090000Y-85810000D03*
X104090000Y-86310000D03*
X104090000Y-86810000D03*
X104090000Y-87310000D03*
X104090000Y-87810000D03*
X104090000Y-88310000D03*
X104090000Y-88810000D03*
X104090000Y-89310000D03*
D23*
X104790000Y-90010000D03*
X105290000Y-90010000D03*
X105790000Y-90010000D03*
X106290000Y-90010000D03*
X106790000Y-90010000D03*
X107290000Y-90010000D03*
X107790000Y-90010000D03*
X108290000Y-90010000D03*
D22*
X108990000Y-89310000D03*
X108990000Y-88810000D03*
X108990000Y-88310000D03*
X108990000Y-87810000D03*
X108990000Y-87310000D03*
X108990000Y-86810000D03*
X108990000Y-86310000D03*
X108990000Y-85810000D03*
D23*
X108290000Y-85110000D03*
X107790000Y-85110000D03*
X107290000Y-85110000D03*
X106790000Y-85110000D03*
X106290000Y-85110000D03*
X105790000Y-85110000D03*
X105290000Y-85110000D03*
X104790000Y-85110000D03*
D24*
X106540000Y-87560000D03*
%TD*%
D25*
%TO.C,R1*%
X104230000Y-75480000D03*
X104230000Y-76340000D03*
%TD*%
D11*
%TO.C,R8*%
X111390000Y-88890000D03*
X110530000Y-88890000D03*
%TD*%
D26*
%TO.C,C10*%
X119390000Y-82170000D03*
X119930000Y-82170000D03*
%TD*%
D27*
%TO.C,C18*%
X100630000Y-86230000D03*
X100630000Y-84230000D03*
%TD*%
D28*
%TO.C,CN1*%
X106720000Y-96460000D03*
X107720000Y-96460000D03*
X108720000Y-96460000D03*
X109720000Y-96460000D03*
D29*
X111020000Y-100340000D03*
X105420000Y-100340000D03*
%TD*%
D26*
%TO.C,L6*%
X126010000Y-87510000D03*
X126550000Y-87510000D03*
%TD*%
D30*
%TO.C,C6*%
X114480000Y-90370000D03*
X114480000Y-88970000D03*
%TD*%
%TO.C,X1*%
X124900000Y-85740000D03*
X126300000Y-85740000D03*
X126300000Y-84640000D03*
X124900000Y-84640000D03*
%TD*%
D31*
%TO.C,RF1*%
X131800000Y-91290000D03*
D32*
X130800000Y-90420000D03*
D31*
X129800000Y-91290000D03*
D33*
X130800000Y-92320000D03*
%TD*%
D34*
%TO.C,R3*%
X133760000Y-71440000D03*
X133760000Y-74400000D03*
%TD*%
D35*
%TO.C,L9*%
X99060000Y-85640000D03*
X99060000Y-84240000D03*
%TD*%
D36*
%TO.C,D2*%
X119910000Y-79270000D03*
X119910000Y-74870000D03*
%TD*%
D30*
%TO.C,C28*%
X121780000Y-71680000D03*
X121780000Y-70280000D03*
%TD*%
D37*
%TO.C,U3*%
X124580000Y-71400000D03*
X124580000Y-72060000D03*
X124580000Y-72710000D03*
X124580000Y-73360000D03*
X130440000Y-73360000D03*
X130440000Y-72710000D03*
X130440000Y-72060000D03*
X130440000Y-71400000D03*
%TD*%
D38*
%TO.C,LED1*%
X111040000Y-83207544D03*
X111040000Y-82307544D03*
%TD*%
D35*
%TO.C,L10*%
X103370000Y-82070000D03*
X103370000Y-83470000D03*
%TD*%
D39*
%TO.C,L1*%
X116420000Y-79105000D03*
X116420000Y-77165000D03*
%TD*%
D27*
%TO.C,C22*%
X99480000Y-89310000D03*
X99480000Y-91310000D03*
%TD*%
D36*
%TO.C,D1*%
X123380000Y-75720000D03*
X123380000Y-80120000D03*
%TD*%
D40*
%TO.C,C2*%
X126920000Y-79350000D03*
X126920000Y-76170000D03*
%TD*%
D41*
%TO.C,U5*%
X111842500Y-74617500D03*
X109842500Y-74617500D03*
%TD*%
D30*
%TO.C,C14*%
X104010000Y-77460000D03*
X104010000Y-78860000D03*
%TD*%
D42*
%TO.C,L4*%
X121080000Y-82290000D03*
X121080000Y-83130000D03*
%TD*%
D27*
%TO.C,C7*%
X114530000Y-85680000D03*
X114530000Y-87680000D03*
%TD*%
D43*
%TO.C,U6*%
X117340000Y-85515000D03*
X117340000Y-85915000D03*
X117340000Y-86315000D03*
X117340000Y-86715000D03*
X117340000Y-87115000D03*
X117340000Y-87515000D03*
X117340000Y-87915000D03*
X117340000Y-88315000D03*
X117340000Y-88715000D03*
X117340000Y-89115000D03*
X117340000Y-89515000D03*
X117340000Y-89915000D03*
D44*
X118090000Y-90665000D03*
X118490000Y-90665000D03*
X118890000Y-90665000D03*
X119290000Y-90665000D03*
X119690000Y-90665000D03*
X120090000Y-90665000D03*
X120490000Y-90665000D03*
X120890000Y-90665000D03*
X121290000Y-90665000D03*
X121690000Y-90665000D03*
X122090000Y-90665000D03*
X122490000Y-90665000D03*
D43*
X123240000Y-89915000D03*
X123240000Y-89515000D03*
X123240000Y-89115000D03*
X123240000Y-88715000D03*
X123240000Y-88315000D03*
X123240000Y-87915000D03*
X123240000Y-87515000D03*
X123240000Y-87115000D03*
X123240000Y-86715000D03*
X123240000Y-86315000D03*
X123240000Y-85915000D03*
X123240000Y-85515000D03*
D44*
X122490000Y-84765000D03*
X122090000Y-84765000D03*
X121690000Y-84765000D03*
X121290000Y-84765000D03*
X120890000Y-84765000D03*
X120490000Y-84765000D03*
X120090000Y-84765000D03*
X119690000Y-84765000D03*
X119290000Y-84765000D03*
X118890000Y-84765000D03*
X118490000Y-84765000D03*
X118090000Y-84765000D03*
D45*
X120290000Y-87715000D03*
%TD*%
D25*
%TO.C,R14*%
X109800000Y-81640000D03*
X109800000Y-82500000D03*
%TD*%
D41*
%TO.C,U4*%
X100420000Y-96500000D03*
X100420000Y-98500000D03*
%TD*%
D46*
%TO.C,J3*%
X129220000Y-99480000D03*
X125150000Y-99480000D03*
X129220000Y-98210000D03*
X125150000Y-98210000D03*
X129220000Y-96940000D03*
X125150000Y-96940000D03*
X129220000Y-95670000D03*
X125150000Y-95670000D03*
X129220000Y-94400000D03*
X125150000Y-94400000D03*
%TD*%
D47*
%TO.C,C19*%
X111370000Y-84520000D03*
X111370000Y-85360000D03*
%TD*%
D48*
%TO.C,L3*%
X131960000Y-87670000D03*
X131960000Y-87130000D03*
%TD*%
D25*
%TO.C,R13*%
X106030000Y-92640000D03*
X106030000Y-91780000D03*
%TD*%
D11*
%TO.C,R5*%
X119740000Y-70390000D03*
X118880000Y-70390000D03*
%TD*%
D25*
%TO.C,R6*%
X129850000Y-75750000D03*
X129850000Y-76610000D03*
%TD*%
D49*
%TO.C,R11*%
X129920000Y-87920000D03*
X129920000Y-87520000D03*
X129920000Y-87120000D03*
X129260000Y-87120000D03*
X129260000Y-87520000D03*
X129260000Y-87920000D03*
%TD*%
D48*
%TO.C,C5*%
X126940000Y-88620000D03*
X126940000Y-88080000D03*
%TD*%
D30*
%TO.C,C3*%
X113190000Y-90260000D03*
X113190000Y-88860000D03*
%TD*%
%TO.C,C15*%
X129270000Y-84520000D03*
X129270000Y-85920000D03*
%TD*%
D26*
%TO.C,L5*%
X124680000Y-87510000D03*
X125220000Y-87510000D03*
%TD*%
D27*
%TO.C,C20*%
X101620000Y-89350000D03*
X101620000Y-91350000D03*
%TD*%
D25*
%TO.C,R2*%
X104190000Y-74420000D03*
X104190000Y-73560000D03*
%TD*%
D50*
%TO.C,L7*%
X118450000Y-83300000D03*
X119850000Y-83300000D03*
%TD*%
D48*
%TO.C,C13*%
X128570000Y-88040000D03*
X128570000Y-88580000D03*
%TD*%
D25*
%TO.C,R12*%
X107560000Y-91890000D03*
X107560000Y-92750000D03*
%TD*%
%TO.C,R7*%
X131170000Y-76600000D03*
X131170000Y-75740000D03*
%TD*%
D48*
%TO.C,C11*%
X123460000Y-83140000D03*
X123460000Y-82600000D03*
%TD*%
%TO.C,L2*%
X132620000Y-87680000D03*
X132620000Y-87140000D03*
%TD*%
%TO.C,C1*%
X122710000Y-83100000D03*
X122710000Y-82560000D03*
%TD*%
D30*
%TO.C,C16*%
X97750000Y-89850000D03*
X97750000Y-91250000D03*
%TD*%
D13*
%TO.C,R10*%
X112700000Y-92900000D03*
X111200000Y-92900000D03*
%TD*%
D27*
%TO.C,C17*%
X104750000Y-81470000D03*
X104750000Y-83470000D03*
%TD*%
D26*
%TO.C,L8*%
X127410000Y-87530000D03*
X127950000Y-87530000D03*
%TD*%
%TO.C,C12*%
X130750000Y-87130000D03*
X131290000Y-87130000D03*
%TD*%
D27*
%TO.C,C27*%
X116330000Y-74960000D03*
X116330000Y-72960000D03*
%TD*%
D47*
%TO.C,C9*%
X122010000Y-83180000D03*
X122010000Y-82340000D03*
%TD*%
D48*
%TO.C,C8*%
X125600000Y-88630000D03*
X125600000Y-88090000D03*
%TD*%
M02*
