%TF.GenerationSoftware,KiCad,Pcbnew,10.0.0*%
%TF.CreationDate,2026-07-18T14:48:19-04:00*%
%TF.ProjectId,nrf54l15_v2,6e726635-346c-4313-955f-76322e6b6963,rev?*%
%TF.SameCoordinates,Original*%
%TF.FileFunction,Legend,Top*%
%TF.FilePolarity,Positive*%
%FSLAX46Y46*%
G04 Gerber Fmt 4.6, Leading zero omitted, Abs format (unit mm)*
G04 Created by KiCad (PCBNEW 10.0.0) date 2026-07-18 14:48:19*
%MOMM*%
%LPD*%
G01*
G04 APERTURE LIST*
%ADD10C,0.150000*%
%ADD11C,0.060000*%
%ADD12C,0.250000*%
%ADD13C,0.120000*%
%ADD14C,0.000000*%
%ADD15C,0.080000*%
%ADD16C,0.200000*%
%ADD17C,0.100000*%
G04 APERTURE END LIST*
D10*
X110373333Y-86649580D02*
X110325714Y-86697200D01*
X110325714Y-86697200D02*
X110182857Y-86744819D01*
X110182857Y-86744819D02*
X110087619Y-86744819D01*
X110087619Y-86744819D02*
X109944762Y-86697200D01*
X109944762Y-86697200D02*
X109849524Y-86601961D01*
X109849524Y-86601961D02*
X109801905Y-86506723D01*
X109801905Y-86506723D02*
X109754286Y-86316247D01*
X109754286Y-86316247D02*
X109754286Y-86173390D01*
X109754286Y-86173390D02*
X109801905Y-85982914D01*
X109801905Y-85982914D02*
X109849524Y-85887676D01*
X109849524Y-85887676D02*
X109944762Y-85792438D01*
X109944762Y-85792438D02*
X110087619Y-85744819D01*
X110087619Y-85744819D02*
X110182857Y-85744819D01*
X110182857Y-85744819D02*
X110325714Y-85792438D01*
X110325714Y-85792438D02*
X110373333Y-85840057D01*
X111230476Y-86078152D02*
X111230476Y-86744819D01*
X110992381Y-85697200D02*
X110754286Y-86411485D01*
X110754286Y-86411485D02*
X111373333Y-86411485D01*
X116693333Y-69604819D02*
X116360000Y-69128628D01*
X116121905Y-69604819D02*
X116121905Y-68604819D01*
X116121905Y-68604819D02*
X116502857Y-68604819D01*
X116502857Y-68604819D02*
X116598095Y-68652438D01*
X116598095Y-68652438D02*
X116645714Y-68700057D01*
X116645714Y-68700057D02*
X116693333Y-68795295D01*
X116693333Y-68795295D02*
X116693333Y-68938152D01*
X116693333Y-68938152D02*
X116645714Y-69033390D01*
X116645714Y-69033390D02*
X116598095Y-69081009D01*
X116598095Y-69081009D02*
X116502857Y-69128628D01*
X116502857Y-69128628D02*
X116121905Y-69128628D01*
X117550476Y-68938152D02*
X117550476Y-69604819D01*
X117312381Y-68557200D02*
X117074286Y-69271485D01*
X117074286Y-69271485D02*
X117693333Y-69271485D01*
X102717142Y-94739580D02*
X102669523Y-94787200D01*
X102669523Y-94787200D02*
X102526666Y-94834819D01*
X102526666Y-94834819D02*
X102431428Y-94834819D01*
X102431428Y-94834819D02*
X102288571Y-94787200D01*
X102288571Y-94787200D02*
X102193333Y-94691961D01*
X102193333Y-94691961D02*
X102145714Y-94596723D01*
X102145714Y-94596723D02*
X102098095Y-94406247D01*
X102098095Y-94406247D02*
X102098095Y-94263390D01*
X102098095Y-94263390D02*
X102145714Y-94072914D01*
X102145714Y-94072914D02*
X102193333Y-93977676D01*
X102193333Y-93977676D02*
X102288571Y-93882438D01*
X102288571Y-93882438D02*
X102431428Y-93834819D01*
X102431428Y-93834819D02*
X102526666Y-93834819D01*
X102526666Y-93834819D02*
X102669523Y-93882438D01*
X102669523Y-93882438D02*
X102717142Y-93930057D01*
X103098095Y-93930057D02*
X103145714Y-93882438D01*
X103145714Y-93882438D02*
X103240952Y-93834819D01*
X103240952Y-93834819D02*
X103479047Y-93834819D01*
X103479047Y-93834819D02*
X103574285Y-93882438D01*
X103574285Y-93882438D02*
X103621904Y-93930057D01*
X103621904Y-93930057D02*
X103669523Y-94025295D01*
X103669523Y-94025295D02*
X103669523Y-94120533D01*
X103669523Y-94120533D02*
X103621904Y-94263390D01*
X103621904Y-94263390D02*
X103050476Y-94834819D01*
X103050476Y-94834819D02*
X103669523Y-94834819D01*
X104526666Y-93834819D02*
X104336190Y-93834819D01*
X104336190Y-93834819D02*
X104240952Y-93882438D01*
X104240952Y-93882438D02*
X104193333Y-93930057D01*
X104193333Y-93930057D02*
X104098095Y-94072914D01*
X104098095Y-94072914D02*
X104050476Y-94263390D01*
X104050476Y-94263390D02*
X104050476Y-94644342D01*
X104050476Y-94644342D02*
X104098095Y-94739580D01*
X104098095Y-94739580D02*
X104145714Y-94787200D01*
X104145714Y-94787200D02*
X104240952Y-94834819D01*
X104240952Y-94834819D02*
X104431428Y-94834819D01*
X104431428Y-94834819D02*
X104526666Y-94787200D01*
X104526666Y-94787200D02*
X104574285Y-94739580D01*
X104574285Y-94739580D02*
X104621904Y-94644342D01*
X104621904Y-94644342D02*
X104621904Y-94406247D01*
X104621904Y-94406247D02*
X104574285Y-94311009D01*
X104574285Y-94311009D02*
X104526666Y-94263390D01*
X104526666Y-94263390D02*
X104431428Y-94215771D01*
X104431428Y-94215771D02*
X104240952Y-94215771D01*
X104240952Y-94215771D02*
X104145714Y-94263390D01*
X104145714Y-94263390D02*
X104098095Y-94311009D01*
X104098095Y-94311009D02*
X104050476Y-94406247D01*
X113343333Y-99224819D02*
X113010000Y-98748628D01*
X112771905Y-99224819D02*
X112771905Y-98224819D01*
X112771905Y-98224819D02*
X113152857Y-98224819D01*
X113152857Y-98224819D02*
X113248095Y-98272438D01*
X113248095Y-98272438D02*
X113295714Y-98320057D01*
X113295714Y-98320057D02*
X113343333Y-98415295D01*
X113343333Y-98415295D02*
X113343333Y-98558152D01*
X113343333Y-98558152D02*
X113295714Y-98653390D01*
X113295714Y-98653390D02*
X113248095Y-98701009D01*
X113248095Y-98701009D02*
X113152857Y-98748628D01*
X113152857Y-98748628D02*
X112771905Y-98748628D01*
X113819524Y-99224819D02*
X114010000Y-99224819D01*
X114010000Y-99224819D02*
X114105238Y-99177200D01*
X114105238Y-99177200D02*
X114152857Y-99129580D01*
X114152857Y-99129580D02*
X114248095Y-98986723D01*
X114248095Y-98986723D02*
X114295714Y-98796247D01*
X114295714Y-98796247D02*
X114295714Y-98415295D01*
X114295714Y-98415295D02*
X114248095Y-98320057D01*
X114248095Y-98320057D02*
X114200476Y-98272438D01*
X114200476Y-98272438D02*
X114105238Y-98224819D01*
X114105238Y-98224819D02*
X113914762Y-98224819D01*
X113914762Y-98224819D02*
X113819524Y-98272438D01*
X113819524Y-98272438D02*
X113771905Y-98320057D01*
X113771905Y-98320057D02*
X113724286Y-98415295D01*
X113724286Y-98415295D02*
X113724286Y-98653390D01*
X113724286Y-98653390D02*
X113771905Y-98748628D01*
X113771905Y-98748628D02*
X113819524Y-98796247D01*
X113819524Y-98796247D02*
X113914762Y-98843866D01*
X113914762Y-98843866D02*
X114105238Y-98843866D01*
X114105238Y-98843866D02*
X114200476Y-98796247D01*
X114200476Y-98796247D02*
X114248095Y-98748628D01*
X114248095Y-98748628D02*
X114295714Y-98653390D01*
X98216666Y-68679819D02*
X98216666Y-69394104D01*
X98216666Y-69394104D02*
X98169047Y-69536961D01*
X98169047Y-69536961D02*
X98073809Y-69632200D01*
X98073809Y-69632200D02*
X97930952Y-69679819D01*
X97930952Y-69679819D02*
X97835714Y-69679819D01*
X99216666Y-69679819D02*
X98645238Y-69679819D01*
X98930952Y-69679819D02*
X98930952Y-68679819D01*
X98930952Y-68679819D02*
X98835714Y-68822676D01*
X98835714Y-68822676D02*
X98740476Y-68917914D01*
X98740476Y-68917914D02*
X98645238Y-68965533D01*
X134549104Y-97676666D02*
X134549104Y-97200476D01*
X134834819Y-97771904D02*
X133834819Y-97438571D01*
X133834819Y-97438571D02*
X134834819Y-97105238D01*
X134311009Y-96771904D02*
X134311009Y-96438571D01*
X134834819Y-96295714D02*
X134834819Y-96771904D01*
X134834819Y-96771904D02*
X133834819Y-96771904D01*
X133834819Y-96771904D02*
X133834819Y-96295714D01*
X134834819Y-95343333D02*
X134834819Y-95914761D01*
X134834819Y-95629047D02*
X133834819Y-95629047D01*
X133834819Y-95629047D02*
X133977676Y-95724285D01*
X133977676Y-95724285D02*
X134072914Y-95819523D01*
X134072914Y-95819523D02*
X134120533Y-95914761D01*
X106538095Y-83234819D02*
X106538095Y-84044342D01*
X106538095Y-84044342D02*
X106585714Y-84139580D01*
X106585714Y-84139580D02*
X106633333Y-84187200D01*
X106633333Y-84187200D02*
X106728571Y-84234819D01*
X106728571Y-84234819D02*
X106919047Y-84234819D01*
X106919047Y-84234819D02*
X107014285Y-84187200D01*
X107014285Y-84187200D02*
X107061904Y-84139580D01*
X107061904Y-84139580D02*
X107109523Y-84044342D01*
X107109523Y-84044342D02*
X107109523Y-83234819D01*
X107538095Y-83330057D02*
X107585714Y-83282438D01*
X107585714Y-83282438D02*
X107680952Y-83234819D01*
X107680952Y-83234819D02*
X107919047Y-83234819D01*
X107919047Y-83234819D02*
X108014285Y-83282438D01*
X108014285Y-83282438D02*
X108061904Y-83330057D01*
X108061904Y-83330057D02*
X108109523Y-83425295D01*
X108109523Y-83425295D02*
X108109523Y-83520533D01*
X108109523Y-83520533D02*
X108061904Y-83663390D01*
X108061904Y-83663390D02*
X107490476Y-84234819D01*
X107490476Y-84234819D02*
X108109523Y-84234819D01*
X106144819Y-75356666D02*
X105668628Y-75689999D01*
X106144819Y-75928094D02*
X105144819Y-75928094D01*
X105144819Y-75928094D02*
X105144819Y-75547142D01*
X105144819Y-75547142D02*
X105192438Y-75451904D01*
X105192438Y-75451904D02*
X105240057Y-75404285D01*
X105240057Y-75404285D02*
X105335295Y-75356666D01*
X105335295Y-75356666D02*
X105478152Y-75356666D01*
X105478152Y-75356666D02*
X105573390Y-75404285D01*
X105573390Y-75404285D02*
X105621009Y-75451904D01*
X105621009Y-75451904D02*
X105668628Y-75547142D01*
X105668628Y-75547142D02*
X105668628Y-75928094D01*
X106144819Y-74404285D02*
X106144819Y-74975713D01*
X106144819Y-74689999D02*
X105144819Y-74689999D01*
X105144819Y-74689999D02*
X105287676Y-74785237D01*
X105287676Y-74785237D02*
X105382914Y-74880475D01*
X105382914Y-74880475D02*
X105430533Y-74975713D01*
X110703333Y-90584819D02*
X110370000Y-90108628D01*
X110131905Y-90584819D02*
X110131905Y-89584819D01*
X110131905Y-89584819D02*
X110512857Y-89584819D01*
X110512857Y-89584819D02*
X110608095Y-89632438D01*
X110608095Y-89632438D02*
X110655714Y-89680057D01*
X110655714Y-89680057D02*
X110703333Y-89775295D01*
X110703333Y-89775295D02*
X110703333Y-89918152D01*
X110703333Y-89918152D02*
X110655714Y-90013390D01*
X110655714Y-90013390D02*
X110608095Y-90061009D01*
X110608095Y-90061009D02*
X110512857Y-90108628D01*
X110512857Y-90108628D02*
X110131905Y-90108628D01*
X111274762Y-90013390D02*
X111179524Y-89965771D01*
X111179524Y-89965771D02*
X111131905Y-89918152D01*
X111131905Y-89918152D02*
X111084286Y-89822914D01*
X111084286Y-89822914D02*
X111084286Y-89775295D01*
X111084286Y-89775295D02*
X111131905Y-89680057D01*
X111131905Y-89680057D02*
X111179524Y-89632438D01*
X111179524Y-89632438D02*
X111274762Y-89584819D01*
X111274762Y-89584819D02*
X111465238Y-89584819D01*
X111465238Y-89584819D02*
X111560476Y-89632438D01*
X111560476Y-89632438D02*
X111608095Y-89680057D01*
X111608095Y-89680057D02*
X111655714Y-89775295D01*
X111655714Y-89775295D02*
X111655714Y-89822914D01*
X111655714Y-89822914D02*
X111608095Y-89918152D01*
X111608095Y-89918152D02*
X111560476Y-89965771D01*
X111560476Y-89965771D02*
X111465238Y-90013390D01*
X111465238Y-90013390D02*
X111274762Y-90013390D01*
X111274762Y-90013390D02*
X111179524Y-90061009D01*
X111179524Y-90061009D02*
X111131905Y-90108628D01*
X111131905Y-90108628D02*
X111084286Y-90203866D01*
X111084286Y-90203866D02*
X111084286Y-90394342D01*
X111084286Y-90394342D02*
X111131905Y-90489580D01*
X111131905Y-90489580D02*
X111179524Y-90537200D01*
X111179524Y-90537200D02*
X111274762Y-90584819D01*
X111274762Y-90584819D02*
X111465238Y-90584819D01*
X111465238Y-90584819D02*
X111560476Y-90537200D01*
X111560476Y-90537200D02*
X111608095Y-90489580D01*
X111608095Y-90489580D02*
X111655714Y-90394342D01*
X111655714Y-90394342D02*
X111655714Y-90203866D01*
X111655714Y-90203866D02*
X111608095Y-90108628D01*
X111608095Y-90108628D02*
X111560476Y-90061009D01*
X111560476Y-90061009D02*
X111465238Y-90013390D01*
X118657142Y-81289580D02*
X118609523Y-81337200D01*
X118609523Y-81337200D02*
X118466666Y-81384819D01*
X118466666Y-81384819D02*
X118371428Y-81384819D01*
X118371428Y-81384819D02*
X118228571Y-81337200D01*
X118228571Y-81337200D02*
X118133333Y-81241961D01*
X118133333Y-81241961D02*
X118085714Y-81146723D01*
X118085714Y-81146723D02*
X118038095Y-80956247D01*
X118038095Y-80956247D02*
X118038095Y-80813390D01*
X118038095Y-80813390D02*
X118085714Y-80622914D01*
X118085714Y-80622914D02*
X118133333Y-80527676D01*
X118133333Y-80527676D02*
X118228571Y-80432438D01*
X118228571Y-80432438D02*
X118371428Y-80384819D01*
X118371428Y-80384819D02*
X118466666Y-80384819D01*
X118466666Y-80384819D02*
X118609523Y-80432438D01*
X118609523Y-80432438D02*
X118657142Y-80480057D01*
X119609523Y-81384819D02*
X119038095Y-81384819D01*
X119323809Y-81384819D02*
X119323809Y-80384819D01*
X119323809Y-80384819D02*
X119228571Y-80527676D01*
X119228571Y-80527676D02*
X119133333Y-80622914D01*
X119133333Y-80622914D02*
X119038095Y-80670533D01*
X120228571Y-80384819D02*
X120323809Y-80384819D01*
X120323809Y-80384819D02*
X120419047Y-80432438D01*
X120419047Y-80432438D02*
X120466666Y-80480057D01*
X120466666Y-80480057D02*
X120514285Y-80575295D01*
X120514285Y-80575295D02*
X120561904Y-80765771D01*
X120561904Y-80765771D02*
X120561904Y-81003866D01*
X120561904Y-81003866D02*
X120514285Y-81194342D01*
X120514285Y-81194342D02*
X120466666Y-81289580D01*
X120466666Y-81289580D02*
X120419047Y-81337200D01*
X120419047Y-81337200D02*
X120323809Y-81384819D01*
X120323809Y-81384819D02*
X120228571Y-81384819D01*
X120228571Y-81384819D02*
X120133333Y-81337200D01*
X120133333Y-81337200D02*
X120085714Y-81289580D01*
X120085714Y-81289580D02*
X120038095Y-81194342D01*
X120038095Y-81194342D02*
X119990476Y-81003866D01*
X119990476Y-81003866D02*
X119990476Y-80765771D01*
X119990476Y-80765771D02*
X120038095Y-80575295D01*
X120038095Y-80575295D02*
X120085714Y-80480057D01*
X120085714Y-80480057D02*
X120133333Y-80432438D01*
X120133333Y-80432438D02*
X120228571Y-80384819D01*
X100529580Y-82322857D02*
X100577200Y-82370476D01*
X100577200Y-82370476D02*
X100624819Y-82513333D01*
X100624819Y-82513333D02*
X100624819Y-82608571D01*
X100624819Y-82608571D02*
X100577200Y-82751428D01*
X100577200Y-82751428D02*
X100481961Y-82846666D01*
X100481961Y-82846666D02*
X100386723Y-82894285D01*
X100386723Y-82894285D02*
X100196247Y-82941904D01*
X100196247Y-82941904D02*
X100053390Y-82941904D01*
X100053390Y-82941904D02*
X99862914Y-82894285D01*
X99862914Y-82894285D02*
X99767676Y-82846666D01*
X99767676Y-82846666D02*
X99672438Y-82751428D01*
X99672438Y-82751428D02*
X99624819Y-82608571D01*
X99624819Y-82608571D02*
X99624819Y-82513333D01*
X99624819Y-82513333D02*
X99672438Y-82370476D01*
X99672438Y-82370476D02*
X99720057Y-82322857D01*
X100624819Y-81370476D02*
X100624819Y-81941904D01*
X100624819Y-81656190D02*
X99624819Y-81656190D01*
X99624819Y-81656190D02*
X99767676Y-81751428D01*
X99767676Y-81751428D02*
X99862914Y-81846666D01*
X99862914Y-81846666D02*
X99910533Y-81941904D01*
X100053390Y-80799047D02*
X100005771Y-80894285D01*
X100005771Y-80894285D02*
X99958152Y-80941904D01*
X99958152Y-80941904D02*
X99862914Y-80989523D01*
X99862914Y-80989523D02*
X99815295Y-80989523D01*
X99815295Y-80989523D02*
X99720057Y-80941904D01*
X99720057Y-80941904D02*
X99672438Y-80894285D01*
X99672438Y-80894285D02*
X99624819Y-80799047D01*
X99624819Y-80799047D02*
X99624819Y-80608571D01*
X99624819Y-80608571D02*
X99672438Y-80513333D01*
X99672438Y-80513333D02*
X99720057Y-80465714D01*
X99720057Y-80465714D02*
X99815295Y-80418095D01*
X99815295Y-80418095D02*
X99862914Y-80418095D01*
X99862914Y-80418095D02*
X99958152Y-80465714D01*
X99958152Y-80465714D02*
X100005771Y-80513333D01*
X100005771Y-80513333D02*
X100053390Y-80608571D01*
X100053390Y-80608571D02*
X100053390Y-80799047D01*
X100053390Y-80799047D02*
X100101009Y-80894285D01*
X100101009Y-80894285D02*
X100148628Y-80941904D01*
X100148628Y-80941904D02*
X100243866Y-80989523D01*
X100243866Y-80989523D02*
X100434342Y-80989523D01*
X100434342Y-80989523D02*
X100529580Y-80941904D01*
X100529580Y-80941904D02*
X100577200Y-80894285D01*
X100577200Y-80894285D02*
X100624819Y-80799047D01*
X100624819Y-80799047D02*
X100624819Y-80608571D01*
X100624819Y-80608571D02*
X100577200Y-80513333D01*
X100577200Y-80513333D02*
X100529580Y-80465714D01*
X100529580Y-80465714D02*
X100434342Y-80418095D01*
X100434342Y-80418095D02*
X100243866Y-80418095D01*
X100243866Y-80418095D02*
X100148628Y-80465714D01*
X100148628Y-80465714D02*
X100101009Y-80513333D01*
X100101009Y-80513333D02*
X100053390Y-80608571D01*
X107439523Y-95219580D02*
X107391904Y-95267200D01*
X107391904Y-95267200D02*
X107249047Y-95314819D01*
X107249047Y-95314819D02*
X107153809Y-95314819D01*
X107153809Y-95314819D02*
X107010952Y-95267200D01*
X107010952Y-95267200D02*
X106915714Y-95171961D01*
X106915714Y-95171961D02*
X106868095Y-95076723D01*
X106868095Y-95076723D02*
X106820476Y-94886247D01*
X106820476Y-94886247D02*
X106820476Y-94743390D01*
X106820476Y-94743390D02*
X106868095Y-94552914D01*
X106868095Y-94552914D02*
X106915714Y-94457676D01*
X106915714Y-94457676D02*
X107010952Y-94362438D01*
X107010952Y-94362438D02*
X107153809Y-94314819D01*
X107153809Y-94314819D02*
X107249047Y-94314819D01*
X107249047Y-94314819D02*
X107391904Y-94362438D01*
X107391904Y-94362438D02*
X107439523Y-94410057D01*
X107868095Y-95314819D02*
X107868095Y-94314819D01*
X107868095Y-94314819D02*
X108439523Y-95314819D01*
X108439523Y-95314819D02*
X108439523Y-94314819D01*
X109439523Y-95314819D02*
X108868095Y-95314819D01*
X109153809Y-95314819D02*
X109153809Y-94314819D01*
X109153809Y-94314819D02*
X109058571Y-94457676D01*
X109058571Y-94457676D02*
X108963333Y-94552914D01*
X108963333Y-94552914D02*
X108868095Y-94600533D01*
X126523333Y-90854819D02*
X126047143Y-90854819D01*
X126047143Y-90854819D02*
X126047143Y-89854819D01*
X127285238Y-89854819D02*
X127094762Y-89854819D01*
X127094762Y-89854819D02*
X126999524Y-89902438D01*
X126999524Y-89902438D02*
X126951905Y-89950057D01*
X126951905Y-89950057D02*
X126856667Y-90092914D01*
X126856667Y-90092914D02*
X126809048Y-90283390D01*
X126809048Y-90283390D02*
X126809048Y-90664342D01*
X126809048Y-90664342D02*
X126856667Y-90759580D01*
X126856667Y-90759580D02*
X126904286Y-90807200D01*
X126904286Y-90807200D02*
X126999524Y-90854819D01*
X126999524Y-90854819D02*
X127190000Y-90854819D01*
X127190000Y-90854819D02*
X127285238Y-90807200D01*
X127285238Y-90807200D02*
X127332857Y-90759580D01*
X127332857Y-90759580D02*
X127380476Y-90664342D01*
X127380476Y-90664342D02*
X127380476Y-90426247D01*
X127380476Y-90426247D02*
X127332857Y-90331009D01*
X127332857Y-90331009D02*
X127285238Y-90283390D01*
X127285238Y-90283390D02*
X127190000Y-90235771D01*
X127190000Y-90235771D02*
X126999524Y-90235771D01*
X126999524Y-90235771D02*
X126904286Y-90283390D01*
X126904286Y-90283390D02*
X126856667Y-90331009D01*
X126856667Y-90331009D02*
X126809048Y-90426247D01*
X114679580Y-97076666D02*
X114727200Y-97124285D01*
X114727200Y-97124285D02*
X114774819Y-97267142D01*
X114774819Y-97267142D02*
X114774819Y-97362380D01*
X114774819Y-97362380D02*
X114727200Y-97505237D01*
X114727200Y-97505237D02*
X114631961Y-97600475D01*
X114631961Y-97600475D02*
X114536723Y-97648094D01*
X114536723Y-97648094D02*
X114346247Y-97695713D01*
X114346247Y-97695713D02*
X114203390Y-97695713D01*
X114203390Y-97695713D02*
X114012914Y-97648094D01*
X114012914Y-97648094D02*
X113917676Y-97600475D01*
X113917676Y-97600475D02*
X113822438Y-97505237D01*
X113822438Y-97505237D02*
X113774819Y-97362380D01*
X113774819Y-97362380D02*
X113774819Y-97267142D01*
X113774819Y-97267142D02*
X113822438Y-97124285D01*
X113822438Y-97124285D02*
X113870057Y-97076666D01*
X113774819Y-96219523D02*
X113774819Y-96409999D01*
X113774819Y-96409999D02*
X113822438Y-96505237D01*
X113822438Y-96505237D02*
X113870057Y-96552856D01*
X113870057Y-96552856D02*
X114012914Y-96648094D01*
X114012914Y-96648094D02*
X114203390Y-96695713D01*
X114203390Y-96695713D02*
X114584342Y-96695713D01*
X114584342Y-96695713D02*
X114679580Y-96648094D01*
X114679580Y-96648094D02*
X114727200Y-96600475D01*
X114727200Y-96600475D02*
X114774819Y-96505237D01*
X114774819Y-96505237D02*
X114774819Y-96314761D01*
X114774819Y-96314761D02*
X114727200Y-96219523D01*
X114727200Y-96219523D02*
X114679580Y-96171904D01*
X114679580Y-96171904D02*
X114584342Y-96124285D01*
X114584342Y-96124285D02*
X114346247Y-96124285D01*
X114346247Y-96124285D02*
X114251009Y-96171904D01*
X114251009Y-96171904D02*
X114203390Y-96219523D01*
X114203390Y-96219523D02*
X114155771Y-96314761D01*
X114155771Y-96314761D02*
X114155771Y-96505237D01*
X114155771Y-96505237D02*
X114203390Y-96600475D01*
X114203390Y-96600475D02*
X114251009Y-96648094D01*
X114251009Y-96648094D02*
X114346247Y-96695713D01*
X127194819Y-85339523D02*
X128194819Y-84672857D01*
X127194819Y-84672857D02*
X128194819Y-85339523D01*
X128194819Y-83768095D02*
X128194819Y-84339523D01*
X128194819Y-84053809D02*
X127194819Y-84053809D01*
X127194819Y-84053809D02*
X127337676Y-84149047D01*
X127337676Y-84149047D02*
X127432914Y-84244285D01*
X127432914Y-84244285D02*
X127480533Y-84339523D01*
X133034761Y-92924819D02*
X132701428Y-92448628D01*
X132463333Y-92924819D02*
X132463333Y-91924819D01*
X132463333Y-91924819D02*
X132844285Y-91924819D01*
X132844285Y-91924819D02*
X132939523Y-91972438D01*
X132939523Y-91972438D02*
X132987142Y-92020057D01*
X132987142Y-92020057D02*
X133034761Y-92115295D01*
X133034761Y-92115295D02*
X133034761Y-92258152D01*
X133034761Y-92258152D02*
X132987142Y-92353390D01*
X132987142Y-92353390D02*
X132939523Y-92401009D01*
X132939523Y-92401009D02*
X132844285Y-92448628D01*
X132844285Y-92448628D02*
X132463333Y-92448628D01*
X133796666Y-92401009D02*
X133463333Y-92401009D01*
X133463333Y-92924819D02*
X133463333Y-91924819D01*
X133463333Y-91924819D02*
X133939523Y-91924819D01*
X134844285Y-92924819D02*
X134272857Y-92924819D01*
X134558571Y-92924819D02*
X134558571Y-91924819D01*
X134558571Y-91924819D02*
X134463333Y-92067676D01*
X134463333Y-92067676D02*
X134368095Y-92162914D01*
X134368095Y-92162914D02*
X134272857Y-92210533D01*
X136184819Y-73036666D02*
X135708628Y-73369999D01*
X136184819Y-73608094D02*
X135184819Y-73608094D01*
X135184819Y-73608094D02*
X135184819Y-73227142D01*
X135184819Y-73227142D02*
X135232438Y-73131904D01*
X135232438Y-73131904D02*
X135280057Y-73084285D01*
X135280057Y-73084285D02*
X135375295Y-73036666D01*
X135375295Y-73036666D02*
X135518152Y-73036666D01*
X135518152Y-73036666D02*
X135613390Y-73084285D01*
X135613390Y-73084285D02*
X135661009Y-73131904D01*
X135661009Y-73131904D02*
X135708628Y-73227142D01*
X135708628Y-73227142D02*
X135708628Y-73608094D01*
X135184819Y-72703332D02*
X135184819Y-72084285D01*
X135184819Y-72084285D02*
X135565771Y-72417618D01*
X135565771Y-72417618D02*
X135565771Y-72274761D01*
X135565771Y-72274761D02*
X135613390Y-72179523D01*
X135613390Y-72179523D02*
X135661009Y-72131904D01*
X135661009Y-72131904D02*
X135756247Y-72084285D01*
X135756247Y-72084285D02*
X135994342Y-72084285D01*
X135994342Y-72084285D02*
X136089580Y-72131904D01*
X136089580Y-72131904D02*
X136137200Y-72179523D01*
X136137200Y-72179523D02*
X136184819Y-72274761D01*
X136184819Y-72274761D02*
X136184819Y-72560475D01*
X136184819Y-72560475D02*
X136137200Y-72655713D01*
X136137200Y-72655713D02*
X136089580Y-72703332D01*
X97804819Y-85266666D02*
X97804819Y-85742856D01*
X97804819Y-85742856D02*
X96804819Y-85742856D01*
X97804819Y-84885713D02*
X97804819Y-84695237D01*
X97804819Y-84695237D02*
X97757200Y-84599999D01*
X97757200Y-84599999D02*
X97709580Y-84552380D01*
X97709580Y-84552380D02*
X97566723Y-84457142D01*
X97566723Y-84457142D02*
X97376247Y-84409523D01*
X97376247Y-84409523D02*
X96995295Y-84409523D01*
X96995295Y-84409523D02*
X96900057Y-84457142D01*
X96900057Y-84457142D02*
X96852438Y-84504761D01*
X96852438Y-84504761D02*
X96804819Y-84599999D01*
X96804819Y-84599999D02*
X96804819Y-84790475D01*
X96804819Y-84790475D02*
X96852438Y-84885713D01*
X96852438Y-84885713D02*
X96900057Y-84933332D01*
X96900057Y-84933332D02*
X96995295Y-84980951D01*
X96995295Y-84980951D02*
X97233390Y-84980951D01*
X97233390Y-84980951D02*
X97328628Y-84933332D01*
X97328628Y-84933332D02*
X97376247Y-84885713D01*
X97376247Y-84885713D02*
X97423866Y-84790475D01*
X97423866Y-84790475D02*
X97423866Y-84599999D01*
X97423866Y-84599999D02*
X97376247Y-84504761D01*
X97376247Y-84504761D02*
X97328628Y-84457142D01*
X97328628Y-84457142D02*
X97233390Y-84409523D01*
X119191905Y-73464819D02*
X119191905Y-72464819D01*
X119191905Y-72464819D02*
X119430000Y-72464819D01*
X119430000Y-72464819D02*
X119572857Y-72512438D01*
X119572857Y-72512438D02*
X119668095Y-72607676D01*
X119668095Y-72607676D02*
X119715714Y-72702914D01*
X119715714Y-72702914D02*
X119763333Y-72893390D01*
X119763333Y-72893390D02*
X119763333Y-73036247D01*
X119763333Y-73036247D02*
X119715714Y-73226723D01*
X119715714Y-73226723D02*
X119668095Y-73321961D01*
X119668095Y-73321961D02*
X119572857Y-73417200D01*
X119572857Y-73417200D02*
X119430000Y-73464819D01*
X119430000Y-73464819D02*
X119191905Y-73464819D01*
X120144286Y-72560057D02*
X120191905Y-72512438D01*
X120191905Y-72512438D02*
X120287143Y-72464819D01*
X120287143Y-72464819D02*
X120525238Y-72464819D01*
X120525238Y-72464819D02*
X120620476Y-72512438D01*
X120620476Y-72512438D02*
X120668095Y-72560057D01*
X120668095Y-72560057D02*
X120715714Y-72655295D01*
X120715714Y-72655295D02*
X120715714Y-72750533D01*
X120715714Y-72750533D02*
X120668095Y-72893390D01*
X120668095Y-72893390D02*
X120096667Y-73464819D01*
X120096667Y-73464819D02*
X120715714Y-73464819D01*
X121397142Y-69219580D02*
X121349523Y-69267200D01*
X121349523Y-69267200D02*
X121206666Y-69314819D01*
X121206666Y-69314819D02*
X121111428Y-69314819D01*
X121111428Y-69314819D02*
X120968571Y-69267200D01*
X120968571Y-69267200D02*
X120873333Y-69171961D01*
X120873333Y-69171961D02*
X120825714Y-69076723D01*
X120825714Y-69076723D02*
X120778095Y-68886247D01*
X120778095Y-68886247D02*
X120778095Y-68743390D01*
X120778095Y-68743390D02*
X120825714Y-68552914D01*
X120825714Y-68552914D02*
X120873333Y-68457676D01*
X120873333Y-68457676D02*
X120968571Y-68362438D01*
X120968571Y-68362438D02*
X121111428Y-68314819D01*
X121111428Y-68314819D02*
X121206666Y-68314819D01*
X121206666Y-68314819D02*
X121349523Y-68362438D01*
X121349523Y-68362438D02*
X121397142Y-68410057D01*
X121778095Y-68410057D02*
X121825714Y-68362438D01*
X121825714Y-68362438D02*
X121920952Y-68314819D01*
X121920952Y-68314819D02*
X122159047Y-68314819D01*
X122159047Y-68314819D02*
X122254285Y-68362438D01*
X122254285Y-68362438D02*
X122301904Y-68410057D01*
X122301904Y-68410057D02*
X122349523Y-68505295D01*
X122349523Y-68505295D02*
X122349523Y-68600533D01*
X122349523Y-68600533D02*
X122301904Y-68743390D01*
X122301904Y-68743390D02*
X121730476Y-69314819D01*
X121730476Y-69314819D02*
X122349523Y-69314819D01*
X122920952Y-68743390D02*
X122825714Y-68695771D01*
X122825714Y-68695771D02*
X122778095Y-68648152D01*
X122778095Y-68648152D02*
X122730476Y-68552914D01*
X122730476Y-68552914D02*
X122730476Y-68505295D01*
X122730476Y-68505295D02*
X122778095Y-68410057D01*
X122778095Y-68410057D02*
X122825714Y-68362438D01*
X122825714Y-68362438D02*
X122920952Y-68314819D01*
X122920952Y-68314819D02*
X123111428Y-68314819D01*
X123111428Y-68314819D02*
X123206666Y-68362438D01*
X123206666Y-68362438D02*
X123254285Y-68410057D01*
X123254285Y-68410057D02*
X123301904Y-68505295D01*
X123301904Y-68505295D02*
X123301904Y-68552914D01*
X123301904Y-68552914D02*
X123254285Y-68648152D01*
X123254285Y-68648152D02*
X123206666Y-68695771D01*
X123206666Y-68695771D02*
X123111428Y-68743390D01*
X123111428Y-68743390D02*
X122920952Y-68743390D01*
X122920952Y-68743390D02*
X122825714Y-68791009D01*
X122825714Y-68791009D02*
X122778095Y-68838628D01*
X122778095Y-68838628D02*
X122730476Y-68933866D01*
X122730476Y-68933866D02*
X122730476Y-69124342D01*
X122730476Y-69124342D02*
X122778095Y-69219580D01*
X122778095Y-69219580D02*
X122825714Y-69267200D01*
X122825714Y-69267200D02*
X122920952Y-69314819D01*
X122920952Y-69314819D02*
X123111428Y-69314819D01*
X123111428Y-69314819D02*
X123206666Y-69267200D01*
X123206666Y-69267200D02*
X123254285Y-69219580D01*
X123254285Y-69219580D02*
X123301904Y-69124342D01*
X123301904Y-69124342D02*
X123301904Y-68933866D01*
X123301904Y-68933866D02*
X123254285Y-68838628D01*
X123254285Y-68838628D02*
X123206666Y-68791009D01*
X123206666Y-68791009D02*
X123111428Y-68743390D01*
X126658095Y-69484819D02*
X126658095Y-70294342D01*
X126658095Y-70294342D02*
X126705714Y-70389580D01*
X126705714Y-70389580D02*
X126753333Y-70437200D01*
X126753333Y-70437200D02*
X126848571Y-70484819D01*
X126848571Y-70484819D02*
X127039047Y-70484819D01*
X127039047Y-70484819D02*
X127134285Y-70437200D01*
X127134285Y-70437200D02*
X127181904Y-70389580D01*
X127181904Y-70389580D02*
X127229523Y-70294342D01*
X127229523Y-70294342D02*
X127229523Y-69484819D01*
X127610476Y-69484819D02*
X128229523Y-69484819D01*
X128229523Y-69484819D02*
X127896190Y-69865771D01*
X127896190Y-69865771D02*
X128039047Y-69865771D01*
X128039047Y-69865771D02*
X128134285Y-69913390D01*
X128134285Y-69913390D02*
X128181904Y-69961009D01*
X128181904Y-69961009D02*
X128229523Y-70056247D01*
X128229523Y-70056247D02*
X128229523Y-70294342D01*
X128229523Y-70294342D02*
X128181904Y-70389580D01*
X128181904Y-70389580D02*
X128134285Y-70437200D01*
X128134285Y-70437200D02*
X128039047Y-70484819D01*
X128039047Y-70484819D02*
X127753333Y-70484819D01*
X127753333Y-70484819D02*
X127658095Y-70437200D01*
X127658095Y-70437200D02*
X127610476Y-70389580D01*
X112814819Y-82769047D02*
X112814819Y-83245237D01*
X112814819Y-83245237D02*
X111814819Y-83245237D01*
X112291009Y-82435713D02*
X112291009Y-82102380D01*
X112814819Y-81959523D02*
X112814819Y-82435713D01*
X112814819Y-82435713D02*
X111814819Y-82435713D01*
X111814819Y-82435713D02*
X111814819Y-81959523D01*
X112814819Y-81530951D02*
X111814819Y-81530951D01*
X111814819Y-81530951D02*
X111814819Y-81292856D01*
X111814819Y-81292856D02*
X111862438Y-81149999D01*
X111862438Y-81149999D02*
X111957676Y-81054761D01*
X111957676Y-81054761D02*
X112052914Y-81007142D01*
X112052914Y-81007142D02*
X112243390Y-80959523D01*
X112243390Y-80959523D02*
X112386247Y-80959523D01*
X112386247Y-80959523D02*
X112576723Y-81007142D01*
X112576723Y-81007142D02*
X112671961Y-81054761D01*
X112671961Y-81054761D02*
X112767200Y-81149999D01*
X112767200Y-81149999D02*
X112814819Y-81292856D01*
X112814819Y-81292856D02*
X112814819Y-81530951D01*
X112814819Y-80007142D02*
X112814819Y-80578570D01*
X112814819Y-80292856D02*
X111814819Y-80292856D01*
X111814819Y-80292856D02*
X111957676Y-80388094D01*
X111957676Y-80388094D02*
X112052914Y-80483332D01*
X112052914Y-80483332D02*
X112100533Y-80578570D01*
X102424819Y-82232857D02*
X102424819Y-82709047D01*
X102424819Y-82709047D02*
X101424819Y-82709047D01*
X102424819Y-81375714D02*
X102424819Y-81947142D01*
X102424819Y-81661428D02*
X101424819Y-81661428D01*
X101424819Y-81661428D02*
X101567676Y-81756666D01*
X101567676Y-81756666D02*
X101662914Y-81851904D01*
X101662914Y-81851904D02*
X101710533Y-81947142D01*
X101424819Y-80756666D02*
X101424819Y-80661428D01*
X101424819Y-80661428D02*
X101472438Y-80566190D01*
X101472438Y-80566190D02*
X101520057Y-80518571D01*
X101520057Y-80518571D02*
X101615295Y-80470952D01*
X101615295Y-80470952D02*
X101805771Y-80423333D01*
X101805771Y-80423333D02*
X102043866Y-80423333D01*
X102043866Y-80423333D02*
X102234342Y-80470952D01*
X102234342Y-80470952D02*
X102329580Y-80518571D01*
X102329580Y-80518571D02*
X102377200Y-80566190D01*
X102377200Y-80566190D02*
X102424819Y-80661428D01*
X102424819Y-80661428D02*
X102424819Y-80756666D01*
X102424819Y-80756666D02*
X102377200Y-80851904D01*
X102377200Y-80851904D02*
X102329580Y-80899523D01*
X102329580Y-80899523D02*
X102234342Y-80947142D01*
X102234342Y-80947142D02*
X102043866Y-80994761D01*
X102043866Y-80994761D02*
X101805771Y-80994761D01*
X101805771Y-80994761D02*
X101615295Y-80947142D01*
X101615295Y-80947142D02*
X101520057Y-80899523D01*
X101520057Y-80899523D02*
X101472438Y-80851904D01*
X101472438Y-80851904D02*
X101424819Y-80756666D01*
X115084819Y-78256666D02*
X115084819Y-78732856D01*
X115084819Y-78732856D02*
X114084819Y-78732856D01*
X115084819Y-77399523D02*
X115084819Y-77970951D01*
X115084819Y-77685237D02*
X114084819Y-77685237D01*
X114084819Y-77685237D02*
X114227676Y-77780475D01*
X114227676Y-77780475D02*
X114322914Y-77875713D01*
X114322914Y-77875713D02*
X114370533Y-77970951D01*
X98629580Y-93692857D02*
X98677200Y-93740476D01*
X98677200Y-93740476D02*
X98724819Y-93883333D01*
X98724819Y-93883333D02*
X98724819Y-93978571D01*
X98724819Y-93978571D02*
X98677200Y-94121428D01*
X98677200Y-94121428D02*
X98581961Y-94216666D01*
X98581961Y-94216666D02*
X98486723Y-94264285D01*
X98486723Y-94264285D02*
X98296247Y-94311904D01*
X98296247Y-94311904D02*
X98153390Y-94311904D01*
X98153390Y-94311904D02*
X97962914Y-94264285D01*
X97962914Y-94264285D02*
X97867676Y-94216666D01*
X97867676Y-94216666D02*
X97772438Y-94121428D01*
X97772438Y-94121428D02*
X97724819Y-93978571D01*
X97724819Y-93978571D02*
X97724819Y-93883333D01*
X97724819Y-93883333D02*
X97772438Y-93740476D01*
X97772438Y-93740476D02*
X97820057Y-93692857D01*
X97820057Y-93311904D02*
X97772438Y-93264285D01*
X97772438Y-93264285D02*
X97724819Y-93169047D01*
X97724819Y-93169047D02*
X97724819Y-92930952D01*
X97724819Y-92930952D02*
X97772438Y-92835714D01*
X97772438Y-92835714D02*
X97820057Y-92788095D01*
X97820057Y-92788095D02*
X97915295Y-92740476D01*
X97915295Y-92740476D02*
X98010533Y-92740476D01*
X98010533Y-92740476D02*
X98153390Y-92788095D01*
X98153390Y-92788095D02*
X98724819Y-93359523D01*
X98724819Y-93359523D02*
X98724819Y-92740476D01*
X97820057Y-92359523D02*
X97772438Y-92311904D01*
X97772438Y-92311904D02*
X97724819Y-92216666D01*
X97724819Y-92216666D02*
X97724819Y-91978571D01*
X97724819Y-91978571D02*
X97772438Y-91883333D01*
X97772438Y-91883333D02*
X97820057Y-91835714D01*
X97820057Y-91835714D02*
X97915295Y-91788095D01*
X97915295Y-91788095D02*
X98010533Y-91788095D01*
X98010533Y-91788095D02*
X98153390Y-91835714D01*
X98153390Y-91835714D02*
X98724819Y-92407142D01*
X98724819Y-92407142D02*
X98724819Y-91788095D01*
X125894819Y-78498094D02*
X124894819Y-78498094D01*
X124894819Y-78498094D02*
X124894819Y-78259999D01*
X124894819Y-78259999D02*
X124942438Y-78117142D01*
X124942438Y-78117142D02*
X125037676Y-78021904D01*
X125037676Y-78021904D02*
X125132914Y-77974285D01*
X125132914Y-77974285D02*
X125323390Y-77926666D01*
X125323390Y-77926666D02*
X125466247Y-77926666D01*
X125466247Y-77926666D02*
X125656723Y-77974285D01*
X125656723Y-77974285D02*
X125751961Y-78021904D01*
X125751961Y-78021904D02*
X125847200Y-78117142D01*
X125847200Y-78117142D02*
X125894819Y-78259999D01*
X125894819Y-78259999D02*
X125894819Y-78498094D01*
X125894819Y-76974285D02*
X125894819Y-77545713D01*
X125894819Y-77259999D02*
X124894819Y-77259999D01*
X124894819Y-77259999D02*
X125037676Y-77355237D01*
X125037676Y-77355237D02*
X125132914Y-77450475D01*
X125132914Y-77450475D02*
X125180533Y-77545713D01*
X129009580Y-78006666D02*
X129057200Y-78054285D01*
X129057200Y-78054285D02*
X129104819Y-78197142D01*
X129104819Y-78197142D02*
X129104819Y-78292380D01*
X129104819Y-78292380D02*
X129057200Y-78435237D01*
X129057200Y-78435237D02*
X128961961Y-78530475D01*
X128961961Y-78530475D02*
X128866723Y-78578094D01*
X128866723Y-78578094D02*
X128676247Y-78625713D01*
X128676247Y-78625713D02*
X128533390Y-78625713D01*
X128533390Y-78625713D02*
X128342914Y-78578094D01*
X128342914Y-78578094D02*
X128247676Y-78530475D01*
X128247676Y-78530475D02*
X128152438Y-78435237D01*
X128152438Y-78435237D02*
X128104819Y-78292380D01*
X128104819Y-78292380D02*
X128104819Y-78197142D01*
X128104819Y-78197142D02*
X128152438Y-78054285D01*
X128152438Y-78054285D02*
X128200057Y-78006666D01*
X128200057Y-77625713D02*
X128152438Y-77578094D01*
X128152438Y-77578094D02*
X128104819Y-77482856D01*
X128104819Y-77482856D02*
X128104819Y-77244761D01*
X128104819Y-77244761D02*
X128152438Y-77149523D01*
X128152438Y-77149523D02*
X128200057Y-77101904D01*
X128200057Y-77101904D02*
X128295295Y-77054285D01*
X128295295Y-77054285D02*
X128390533Y-77054285D01*
X128390533Y-77054285D02*
X128533390Y-77101904D01*
X128533390Y-77101904D02*
X129104819Y-77673332D01*
X129104819Y-77673332D02*
X129104819Y-77054285D01*
X105828095Y-68264819D02*
X105828095Y-69074342D01*
X105828095Y-69074342D02*
X105875714Y-69169580D01*
X105875714Y-69169580D02*
X105923333Y-69217200D01*
X105923333Y-69217200D02*
X106018571Y-69264819D01*
X106018571Y-69264819D02*
X106209047Y-69264819D01*
X106209047Y-69264819D02*
X106304285Y-69217200D01*
X106304285Y-69217200D02*
X106351904Y-69169580D01*
X106351904Y-69169580D02*
X106399523Y-69074342D01*
X106399523Y-69074342D02*
X106399523Y-68264819D01*
X107351904Y-68264819D02*
X106875714Y-68264819D01*
X106875714Y-68264819D02*
X106828095Y-68741009D01*
X106828095Y-68741009D02*
X106875714Y-68693390D01*
X106875714Y-68693390D02*
X106970952Y-68645771D01*
X106970952Y-68645771D02*
X107209047Y-68645771D01*
X107209047Y-68645771D02*
X107304285Y-68693390D01*
X107304285Y-68693390D02*
X107351904Y-68741009D01*
X107351904Y-68741009D02*
X107399523Y-68836247D01*
X107399523Y-68836247D02*
X107399523Y-69074342D01*
X107399523Y-69074342D02*
X107351904Y-69169580D01*
X107351904Y-69169580D02*
X107304285Y-69217200D01*
X107304285Y-69217200D02*
X107209047Y-69264819D01*
X107209047Y-69264819D02*
X106970952Y-69264819D01*
X106970952Y-69264819D02*
X106875714Y-69217200D01*
X106875714Y-69217200D02*
X106828095Y-69169580D01*
X106069580Y-78562857D02*
X106117200Y-78610476D01*
X106117200Y-78610476D02*
X106164819Y-78753333D01*
X106164819Y-78753333D02*
X106164819Y-78848571D01*
X106164819Y-78848571D02*
X106117200Y-78991428D01*
X106117200Y-78991428D02*
X106021961Y-79086666D01*
X106021961Y-79086666D02*
X105926723Y-79134285D01*
X105926723Y-79134285D02*
X105736247Y-79181904D01*
X105736247Y-79181904D02*
X105593390Y-79181904D01*
X105593390Y-79181904D02*
X105402914Y-79134285D01*
X105402914Y-79134285D02*
X105307676Y-79086666D01*
X105307676Y-79086666D02*
X105212438Y-78991428D01*
X105212438Y-78991428D02*
X105164819Y-78848571D01*
X105164819Y-78848571D02*
X105164819Y-78753333D01*
X105164819Y-78753333D02*
X105212438Y-78610476D01*
X105212438Y-78610476D02*
X105260057Y-78562857D01*
X106164819Y-77610476D02*
X106164819Y-78181904D01*
X106164819Y-77896190D02*
X105164819Y-77896190D01*
X105164819Y-77896190D02*
X105307676Y-77991428D01*
X105307676Y-77991428D02*
X105402914Y-78086666D01*
X105402914Y-78086666D02*
X105450533Y-78181904D01*
X105498152Y-76753333D02*
X106164819Y-76753333D01*
X105117200Y-76991428D02*
X105831485Y-77229523D01*
X105831485Y-77229523D02*
X105831485Y-76610476D01*
X125264819Y-82436666D02*
X125264819Y-82912856D01*
X125264819Y-82912856D02*
X124264819Y-82912856D01*
X124598152Y-81674761D02*
X125264819Y-81674761D01*
X124217200Y-81912856D02*
X124931485Y-82150951D01*
X124931485Y-82150951D02*
X124931485Y-81531904D01*
X114699580Y-95026666D02*
X114747200Y-95074285D01*
X114747200Y-95074285D02*
X114794819Y-95217142D01*
X114794819Y-95217142D02*
X114794819Y-95312380D01*
X114794819Y-95312380D02*
X114747200Y-95455237D01*
X114747200Y-95455237D02*
X114651961Y-95550475D01*
X114651961Y-95550475D02*
X114556723Y-95598094D01*
X114556723Y-95598094D02*
X114366247Y-95645713D01*
X114366247Y-95645713D02*
X114223390Y-95645713D01*
X114223390Y-95645713D02*
X114032914Y-95598094D01*
X114032914Y-95598094D02*
X113937676Y-95550475D01*
X113937676Y-95550475D02*
X113842438Y-95455237D01*
X113842438Y-95455237D02*
X113794819Y-95312380D01*
X113794819Y-95312380D02*
X113794819Y-95217142D01*
X113794819Y-95217142D02*
X113842438Y-95074285D01*
X113842438Y-95074285D02*
X113890057Y-95026666D01*
X113794819Y-94693332D02*
X113794819Y-94026666D01*
X113794819Y-94026666D02*
X114794819Y-94455237D01*
X116068095Y-91254819D02*
X116068095Y-92064342D01*
X116068095Y-92064342D02*
X116115714Y-92159580D01*
X116115714Y-92159580D02*
X116163333Y-92207200D01*
X116163333Y-92207200D02*
X116258571Y-92254819D01*
X116258571Y-92254819D02*
X116449047Y-92254819D01*
X116449047Y-92254819D02*
X116544285Y-92207200D01*
X116544285Y-92207200D02*
X116591904Y-92159580D01*
X116591904Y-92159580D02*
X116639523Y-92064342D01*
X116639523Y-92064342D02*
X116639523Y-91254819D01*
X117544285Y-91254819D02*
X117353809Y-91254819D01*
X117353809Y-91254819D02*
X117258571Y-91302438D01*
X117258571Y-91302438D02*
X117210952Y-91350057D01*
X117210952Y-91350057D02*
X117115714Y-91492914D01*
X117115714Y-91492914D02*
X117068095Y-91683390D01*
X117068095Y-91683390D02*
X117068095Y-92064342D01*
X117068095Y-92064342D02*
X117115714Y-92159580D01*
X117115714Y-92159580D02*
X117163333Y-92207200D01*
X117163333Y-92207200D02*
X117258571Y-92254819D01*
X117258571Y-92254819D02*
X117449047Y-92254819D01*
X117449047Y-92254819D02*
X117544285Y-92207200D01*
X117544285Y-92207200D02*
X117591904Y-92159580D01*
X117591904Y-92159580D02*
X117639523Y-92064342D01*
X117639523Y-92064342D02*
X117639523Y-91826247D01*
X117639523Y-91826247D02*
X117591904Y-91731009D01*
X117591904Y-91731009D02*
X117544285Y-91683390D01*
X117544285Y-91683390D02*
X117449047Y-91635771D01*
X117449047Y-91635771D02*
X117258571Y-91635771D01*
X117258571Y-91635771D02*
X117163333Y-91683390D01*
X117163333Y-91683390D02*
X117115714Y-91731009D01*
X117115714Y-91731009D02*
X117068095Y-91826247D01*
X109004819Y-82372857D02*
X108528628Y-82706190D01*
X109004819Y-82944285D02*
X108004819Y-82944285D01*
X108004819Y-82944285D02*
X108004819Y-82563333D01*
X108004819Y-82563333D02*
X108052438Y-82468095D01*
X108052438Y-82468095D02*
X108100057Y-82420476D01*
X108100057Y-82420476D02*
X108195295Y-82372857D01*
X108195295Y-82372857D02*
X108338152Y-82372857D01*
X108338152Y-82372857D02*
X108433390Y-82420476D01*
X108433390Y-82420476D02*
X108481009Y-82468095D01*
X108481009Y-82468095D02*
X108528628Y-82563333D01*
X108528628Y-82563333D02*
X108528628Y-82944285D01*
X109004819Y-81420476D02*
X109004819Y-81991904D01*
X109004819Y-81706190D02*
X108004819Y-81706190D01*
X108004819Y-81706190D02*
X108147676Y-81801428D01*
X108147676Y-81801428D02*
X108242914Y-81896666D01*
X108242914Y-81896666D02*
X108290533Y-81991904D01*
X108338152Y-80563333D02*
X109004819Y-80563333D01*
X107957200Y-80801428D02*
X108671485Y-81039523D01*
X108671485Y-81039523D02*
X108671485Y-80420476D01*
X95874819Y-98261904D02*
X96684342Y-98261904D01*
X96684342Y-98261904D02*
X96779580Y-98214285D01*
X96779580Y-98214285D02*
X96827200Y-98166666D01*
X96827200Y-98166666D02*
X96874819Y-98071428D01*
X96874819Y-98071428D02*
X96874819Y-97880952D01*
X96874819Y-97880952D02*
X96827200Y-97785714D01*
X96827200Y-97785714D02*
X96779580Y-97738095D01*
X96779580Y-97738095D02*
X96684342Y-97690476D01*
X96684342Y-97690476D02*
X95874819Y-97690476D01*
X96208152Y-96785714D02*
X96874819Y-96785714D01*
X95827200Y-97023809D02*
X96541485Y-97261904D01*
X96541485Y-97261904D02*
X96541485Y-96642857D01*
X122091666Y-94879819D02*
X122091666Y-95594104D01*
X122091666Y-95594104D02*
X122044047Y-95736961D01*
X122044047Y-95736961D02*
X121948809Y-95832200D01*
X121948809Y-95832200D02*
X121805952Y-95879819D01*
X121805952Y-95879819D02*
X121710714Y-95879819D01*
X122472619Y-94879819D02*
X123091666Y-94879819D01*
X123091666Y-94879819D02*
X122758333Y-95260771D01*
X122758333Y-95260771D02*
X122901190Y-95260771D01*
X122901190Y-95260771D02*
X122996428Y-95308390D01*
X122996428Y-95308390D02*
X123044047Y-95356009D01*
X123044047Y-95356009D02*
X123091666Y-95451247D01*
X123091666Y-95451247D02*
X123091666Y-95689342D01*
X123091666Y-95689342D02*
X123044047Y-95784580D01*
X123044047Y-95784580D02*
X122996428Y-95832200D01*
X122996428Y-95832200D02*
X122901190Y-95879819D01*
X122901190Y-95879819D02*
X122615476Y-95879819D01*
X122615476Y-95879819D02*
X122520238Y-95832200D01*
X122520238Y-95832200D02*
X122472619Y-95784580D01*
X113199580Y-85652857D02*
X113247200Y-85700476D01*
X113247200Y-85700476D02*
X113294819Y-85843333D01*
X113294819Y-85843333D02*
X113294819Y-85938571D01*
X113294819Y-85938571D02*
X113247200Y-86081428D01*
X113247200Y-86081428D02*
X113151961Y-86176666D01*
X113151961Y-86176666D02*
X113056723Y-86224285D01*
X113056723Y-86224285D02*
X112866247Y-86271904D01*
X112866247Y-86271904D02*
X112723390Y-86271904D01*
X112723390Y-86271904D02*
X112532914Y-86224285D01*
X112532914Y-86224285D02*
X112437676Y-86176666D01*
X112437676Y-86176666D02*
X112342438Y-86081428D01*
X112342438Y-86081428D02*
X112294819Y-85938571D01*
X112294819Y-85938571D02*
X112294819Y-85843333D01*
X112294819Y-85843333D02*
X112342438Y-85700476D01*
X112342438Y-85700476D02*
X112390057Y-85652857D01*
X113294819Y-84700476D02*
X113294819Y-85271904D01*
X113294819Y-84986190D02*
X112294819Y-84986190D01*
X112294819Y-84986190D02*
X112437676Y-85081428D01*
X112437676Y-85081428D02*
X112532914Y-85176666D01*
X112532914Y-85176666D02*
X112580533Y-85271904D01*
X113294819Y-84224285D02*
X113294819Y-84033809D01*
X113294819Y-84033809D02*
X113247200Y-83938571D01*
X113247200Y-83938571D02*
X113199580Y-83890952D01*
X113199580Y-83890952D02*
X113056723Y-83795714D01*
X113056723Y-83795714D02*
X112866247Y-83748095D01*
X112866247Y-83748095D02*
X112485295Y-83748095D01*
X112485295Y-83748095D02*
X112390057Y-83795714D01*
X112390057Y-83795714D02*
X112342438Y-83843333D01*
X112342438Y-83843333D02*
X112294819Y-83938571D01*
X112294819Y-83938571D02*
X112294819Y-84129047D01*
X112294819Y-84129047D02*
X112342438Y-84224285D01*
X112342438Y-84224285D02*
X112390057Y-84271904D01*
X112390057Y-84271904D02*
X112485295Y-84319523D01*
X112485295Y-84319523D02*
X112723390Y-84319523D01*
X112723390Y-84319523D02*
X112818628Y-84271904D01*
X112818628Y-84271904D02*
X112866247Y-84224285D01*
X112866247Y-84224285D02*
X112913866Y-84129047D01*
X112913866Y-84129047D02*
X112913866Y-83938571D01*
X112913866Y-83938571D02*
X112866247Y-83843333D01*
X112866247Y-83843333D02*
X112818628Y-83795714D01*
X112818628Y-83795714D02*
X112723390Y-83748095D01*
X132794819Y-85446666D02*
X132794819Y-85922856D01*
X132794819Y-85922856D02*
X131794819Y-85922856D01*
X131794819Y-85208570D02*
X131794819Y-84589523D01*
X131794819Y-84589523D02*
X132175771Y-84922856D01*
X132175771Y-84922856D02*
X132175771Y-84779999D01*
X132175771Y-84779999D02*
X132223390Y-84684761D01*
X132223390Y-84684761D02*
X132271009Y-84637142D01*
X132271009Y-84637142D02*
X132366247Y-84589523D01*
X132366247Y-84589523D02*
X132604342Y-84589523D01*
X132604342Y-84589523D02*
X132699580Y-84637142D01*
X132699580Y-84637142D02*
X132747200Y-84684761D01*
X132747200Y-84684761D02*
X132794819Y-84779999D01*
X132794819Y-84779999D02*
X132794819Y-85065713D01*
X132794819Y-85065713D02*
X132747200Y-85160951D01*
X132747200Y-85160951D02*
X132699580Y-85208570D01*
X106554819Y-95312857D02*
X106078628Y-95646190D01*
X106554819Y-95884285D02*
X105554819Y-95884285D01*
X105554819Y-95884285D02*
X105554819Y-95503333D01*
X105554819Y-95503333D02*
X105602438Y-95408095D01*
X105602438Y-95408095D02*
X105650057Y-95360476D01*
X105650057Y-95360476D02*
X105745295Y-95312857D01*
X105745295Y-95312857D02*
X105888152Y-95312857D01*
X105888152Y-95312857D02*
X105983390Y-95360476D01*
X105983390Y-95360476D02*
X106031009Y-95408095D01*
X106031009Y-95408095D02*
X106078628Y-95503333D01*
X106078628Y-95503333D02*
X106078628Y-95884285D01*
X106554819Y-94360476D02*
X106554819Y-94931904D01*
X106554819Y-94646190D02*
X105554819Y-94646190D01*
X105554819Y-94646190D02*
X105697676Y-94741428D01*
X105697676Y-94741428D02*
X105792914Y-94836666D01*
X105792914Y-94836666D02*
X105840533Y-94931904D01*
X105554819Y-94027142D02*
X105554819Y-93408095D01*
X105554819Y-93408095D02*
X105935771Y-93741428D01*
X105935771Y-93741428D02*
X105935771Y-93598571D01*
X105935771Y-93598571D02*
X105983390Y-93503333D01*
X105983390Y-93503333D02*
X106031009Y-93455714D01*
X106031009Y-93455714D02*
X106126247Y-93408095D01*
X106126247Y-93408095D02*
X106364342Y-93408095D01*
X106364342Y-93408095D02*
X106459580Y-93455714D01*
X106459580Y-93455714D02*
X106507200Y-93503333D01*
X106507200Y-93503333D02*
X106554819Y-93598571D01*
X106554819Y-93598571D02*
X106554819Y-93884285D01*
X106554819Y-93884285D02*
X106507200Y-93979523D01*
X106507200Y-93979523D02*
X106459580Y-94027142D01*
X119093333Y-69574819D02*
X118760000Y-69098628D01*
X118521905Y-69574819D02*
X118521905Y-68574819D01*
X118521905Y-68574819D02*
X118902857Y-68574819D01*
X118902857Y-68574819D02*
X118998095Y-68622438D01*
X118998095Y-68622438D02*
X119045714Y-68670057D01*
X119045714Y-68670057D02*
X119093333Y-68765295D01*
X119093333Y-68765295D02*
X119093333Y-68908152D01*
X119093333Y-68908152D02*
X119045714Y-69003390D01*
X119045714Y-69003390D02*
X118998095Y-69051009D01*
X118998095Y-69051009D02*
X118902857Y-69098628D01*
X118902857Y-69098628D02*
X118521905Y-69098628D01*
X119998095Y-68574819D02*
X119521905Y-68574819D01*
X119521905Y-68574819D02*
X119474286Y-69051009D01*
X119474286Y-69051009D02*
X119521905Y-69003390D01*
X119521905Y-69003390D02*
X119617143Y-68955771D01*
X119617143Y-68955771D02*
X119855238Y-68955771D01*
X119855238Y-68955771D02*
X119950476Y-69003390D01*
X119950476Y-69003390D02*
X119998095Y-69051009D01*
X119998095Y-69051009D02*
X120045714Y-69146247D01*
X120045714Y-69146247D02*
X120045714Y-69384342D01*
X120045714Y-69384342D02*
X119998095Y-69479580D01*
X119998095Y-69479580D02*
X119950476Y-69527200D01*
X119950476Y-69527200D02*
X119855238Y-69574819D01*
X119855238Y-69574819D02*
X119617143Y-69574819D01*
X119617143Y-69574819D02*
X119521905Y-69527200D01*
X119521905Y-69527200D02*
X119474286Y-69479580D01*
X130644819Y-78336666D02*
X130168628Y-78669999D01*
X130644819Y-78908094D02*
X129644819Y-78908094D01*
X129644819Y-78908094D02*
X129644819Y-78527142D01*
X129644819Y-78527142D02*
X129692438Y-78431904D01*
X129692438Y-78431904D02*
X129740057Y-78384285D01*
X129740057Y-78384285D02*
X129835295Y-78336666D01*
X129835295Y-78336666D02*
X129978152Y-78336666D01*
X129978152Y-78336666D02*
X130073390Y-78384285D01*
X130073390Y-78384285D02*
X130121009Y-78431904D01*
X130121009Y-78431904D02*
X130168628Y-78527142D01*
X130168628Y-78527142D02*
X130168628Y-78908094D01*
X129644819Y-77479523D02*
X129644819Y-77669999D01*
X129644819Y-77669999D02*
X129692438Y-77765237D01*
X129692438Y-77765237D02*
X129740057Y-77812856D01*
X129740057Y-77812856D02*
X129882914Y-77908094D01*
X129882914Y-77908094D02*
X130073390Y-77955713D01*
X130073390Y-77955713D02*
X130454342Y-77955713D01*
X130454342Y-77955713D02*
X130549580Y-77908094D01*
X130549580Y-77908094D02*
X130597200Y-77860475D01*
X130597200Y-77860475D02*
X130644819Y-77765237D01*
X130644819Y-77765237D02*
X130644819Y-77574761D01*
X130644819Y-77574761D02*
X130597200Y-77479523D01*
X130597200Y-77479523D02*
X130549580Y-77431904D01*
X130549580Y-77431904D02*
X130454342Y-77384285D01*
X130454342Y-77384285D02*
X130216247Y-77384285D01*
X130216247Y-77384285D02*
X130121009Y-77431904D01*
X130121009Y-77431904D02*
X130073390Y-77479523D01*
X130073390Y-77479523D02*
X130025771Y-77574761D01*
X130025771Y-77574761D02*
X130025771Y-77765237D01*
X130025771Y-77765237D02*
X130073390Y-77860475D01*
X130073390Y-77860475D02*
X130121009Y-77908094D01*
X130121009Y-77908094D02*
X130216247Y-77955713D01*
X133629819Y-95142857D02*
X133153628Y-95476190D01*
X133629819Y-95714285D02*
X132629819Y-95714285D01*
X132629819Y-95714285D02*
X132629819Y-95333333D01*
X132629819Y-95333333D02*
X132677438Y-95238095D01*
X132677438Y-95238095D02*
X132725057Y-95190476D01*
X132725057Y-95190476D02*
X132820295Y-95142857D01*
X132820295Y-95142857D02*
X132963152Y-95142857D01*
X132963152Y-95142857D02*
X133058390Y-95190476D01*
X133058390Y-95190476D02*
X133106009Y-95238095D01*
X133106009Y-95238095D02*
X133153628Y-95333333D01*
X133153628Y-95333333D02*
X133153628Y-95714285D01*
X133629819Y-94190476D02*
X133629819Y-94761904D01*
X133629819Y-94476190D02*
X132629819Y-94476190D01*
X132629819Y-94476190D02*
X132772676Y-94571428D01*
X132772676Y-94571428D02*
X132867914Y-94666666D01*
X132867914Y-94666666D02*
X132915533Y-94761904D01*
X133629819Y-93238095D02*
X133629819Y-93809523D01*
X133629819Y-93523809D02*
X132629819Y-93523809D01*
X132629819Y-93523809D02*
X132772676Y-93619047D01*
X132772676Y-93619047D02*
X132867914Y-93714285D01*
X132867914Y-93714285D02*
X132915533Y-93809523D01*
X128009580Y-92156666D02*
X128057200Y-92204285D01*
X128057200Y-92204285D02*
X128104819Y-92347142D01*
X128104819Y-92347142D02*
X128104819Y-92442380D01*
X128104819Y-92442380D02*
X128057200Y-92585237D01*
X128057200Y-92585237D02*
X127961961Y-92680475D01*
X127961961Y-92680475D02*
X127866723Y-92728094D01*
X127866723Y-92728094D02*
X127676247Y-92775713D01*
X127676247Y-92775713D02*
X127533390Y-92775713D01*
X127533390Y-92775713D02*
X127342914Y-92728094D01*
X127342914Y-92728094D02*
X127247676Y-92680475D01*
X127247676Y-92680475D02*
X127152438Y-92585237D01*
X127152438Y-92585237D02*
X127104819Y-92442380D01*
X127104819Y-92442380D02*
X127104819Y-92347142D01*
X127104819Y-92347142D02*
X127152438Y-92204285D01*
X127152438Y-92204285D02*
X127200057Y-92156666D01*
X127104819Y-91251904D02*
X127104819Y-91728094D01*
X127104819Y-91728094D02*
X127581009Y-91775713D01*
X127581009Y-91775713D02*
X127533390Y-91728094D01*
X127533390Y-91728094D02*
X127485771Y-91632856D01*
X127485771Y-91632856D02*
X127485771Y-91394761D01*
X127485771Y-91394761D02*
X127533390Y-91299523D01*
X127533390Y-91299523D02*
X127581009Y-91251904D01*
X127581009Y-91251904D02*
X127676247Y-91204285D01*
X127676247Y-91204285D02*
X127914342Y-91204285D01*
X127914342Y-91204285D02*
X128009580Y-91251904D01*
X128009580Y-91251904D02*
X128057200Y-91299523D01*
X128057200Y-91299523D02*
X128104819Y-91394761D01*
X128104819Y-91394761D02*
X128104819Y-91632856D01*
X128104819Y-91632856D02*
X128057200Y-91728094D01*
X128057200Y-91728094D02*
X128009580Y-91775713D01*
X113199580Y-97036666D02*
X113247200Y-97084285D01*
X113247200Y-97084285D02*
X113294819Y-97227142D01*
X113294819Y-97227142D02*
X113294819Y-97322380D01*
X113294819Y-97322380D02*
X113247200Y-97465237D01*
X113247200Y-97465237D02*
X113151961Y-97560475D01*
X113151961Y-97560475D02*
X113056723Y-97608094D01*
X113056723Y-97608094D02*
X112866247Y-97655713D01*
X112866247Y-97655713D02*
X112723390Y-97655713D01*
X112723390Y-97655713D02*
X112532914Y-97608094D01*
X112532914Y-97608094D02*
X112437676Y-97560475D01*
X112437676Y-97560475D02*
X112342438Y-97465237D01*
X112342438Y-97465237D02*
X112294819Y-97322380D01*
X112294819Y-97322380D02*
X112294819Y-97227142D01*
X112294819Y-97227142D02*
X112342438Y-97084285D01*
X112342438Y-97084285D02*
X112390057Y-97036666D01*
X112294819Y-96703332D02*
X112294819Y-96084285D01*
X112294819Y-96084285D02*
X112675771Y-96417618D01*
X112675771Y-96417618D02*
X112675771Y-96274761D01*
X112675771Y-96274761D02*
X112723390Y-96179523D01*
X112723390Y-96179523D02*
X112771009Y-96131904D01*
X112771009Y-96131904D02*
X112866247Y-96084285D01*
X112866247Y-96084285D02*
X113104342Y-96084285D01*
X113104342Y-96084285D02*
X113199580Y-96131904D01*
X113199580Y-96131904D02*
X113247200Y-96179523D01*
X113247200Y-96179523D02*
X113294819Y-96274761D01*
X113294819Y-96274761D02*
X113294819Y-96560475D01*
X113294819Y-96560475D02*
X113247200Y-96655713D01*
X113247200Y-96655713D02*
X113199580Y-96703332D01*
X131219580Y-85232857D02*
X131267200Y-85280476D01*
X131267200Y-85280476D02*
X131314819Y-85423333D01*
X131314819Y-85423333D02*
X131314819Y-85518571D01*
X131314819Y-85518571D02*
X131267200Y-85661428D01*
X131267200Y-85661428D02*
X131171961Y-85756666D01*
X131171961Y-85756666D02*
X131076723Y-85804285D01*
X131076723Y-85804285D02*
X130886247Y-85851904D01*
X130886247Y-85851904D02*
X130743390Y-85851904D01*
X130743390Y-85851904D02*
X130552914Y-85804285D01*
X130552914Y-85804285D02*
X130457676Y-85756666D01*
X130457676Y-85756666D02*
X130362438Y-85661428D01*
X130362438Y-85661428D02*
X130314819Y-85518571D01*
X130314819Y-85518571D02*
X130314819Y-85423333D01*
X130314819Y-85423333D02*
X130362438Y-85280476D01*
X130362438Y-85280476D02*
X130410057Y-85232857D01*
X131314819Y-84280476D02*
X131314819Y-84851904D01*
X131314819Y-84566190D02*
X130314819Y-84566190D01*
X130314819Y-84566190D02*
X130457676Y-84661428D01*
X130457676Y-84661428D02*
X130552914Y-84756666D01*
X130552914Y-84756666D02*
X130600533Y-84851904D01*
X130314819Y-83375714D02*
X130314819Y-83851904D01*
X130314819Y-83851904D02*
X130791009Y-83899523D01*
X130791009Y-83899523D02*
X130743390Y-83851904D01*
X130743390Y-83851904D02*
X130695771Y-83756666D01*
X130695771Y-83756666D02*
X130695771Y-83518571D01*
X130695771Y-83518571D02*
X130743390Y-83423333D01*
X130743390Y-83423333D02*
X130791009Y-83375714D01*
X130791009Y-83375714D02*
X130886247Y-83328095D01*
X130886247Y-83328095D02*
X131124342Y-83328095D01*
X131124342Y-83328095D02*
X131219580Y-83375714D01*
X131219580Y-83375714D02*
X131267200Y-83423333D01*
X131267200Y-83423333D02*
X131314819Y-83518571D01*
X131314819Y-83518571D02*
X131314819Y-83756666D01*
X131314819Y-83756666D02*
X131267200Y-83851904D01*
X131267200Y-83851904D02*
X131219580Y-83899523D01*
X124693333Y-90844819D02*
X124217143Y-90844819D01*
X124217143Y-90844819D02*
X124217143Y-89844819D01*
X125502857Y-89844819D02*
X125026667Y-89844819D01*
X125026667Y-89844819D02*
X124979048Y-90321009D01*
X124979048Y-90321009D02*
X125026667Y-90273390D01*
X125026667Y-90273390D02*
X125121905Y-90225771D01*
X125121905Y-90225771D02*
X125360000Y-90225771D01*
X125360000Y-90225771D02*
X125455238Y-90273390D01*
X125455238Y-90273390D02*
X125502857Y-90321009D01*
X125502857Y-90321009D02*
X125550476Y-90416247D01*
X125550476Y-90416247D02*
X125550476Y-90654342D01*
X125550476Y-90654342D02*
X125502857Y-90749580D01*
X125502857Y-90749580D02*
X125455238Y-90797200D01*
X125455238Y-90797200D02*
X125360000Y-90844819D01*
X125360000Y-90844819D02*
X125121905Y-90844819D01*
X125121905Y-90844819D02*
X125026667Y-90797200D01*
X125026667Y-90797200D02*
X124979048Y-90749580D01*
X103539580Y-91052857D02*
X103587200Y-91100476D01*
X103587200Y-91100476D02*
X103634819Y-91243333D01*
X103634819Y-91243333D02*
X103634819Y-91338571D01*
X103634819Y-91338571D02*
X103587200Y-91481428D01*
X103587200Y-91481428D02*
X103491961Y-91576666D01*
X103491961Y-91576666D02*
X103396723Y-91624285D01*
X103396723Y-91624285D02*
X103206247Y-91671904D01*
X103206247Y-91671904D02*
X103063390Y-91671904D01*
X103063390Y-91671904D02*
X102872914Y-91624285D01*
X102872914Y-91624285D02*
X102777676Y-91576666D01*
X102777676Y-91576666D02*
X102682438Y-91481428D01*
X102682438Y-91481428D02*
X102634819Y-91338571D01*
X102634819Y-91338571D02*
X102634819Y-91243333D01*
X102634819Y-91243333D02*
X102682438Y-91100476D01*
X102682438Y-91100476D02*
X102730057Y-91052857D01*
X102730057Y-90671904D02*
X102682438Y-90624285D01*
X102682438Y-90624285D02*
X102634819Y-90529047D01*
X102634819Y-90529047D02*
X102634819Y-90290952D01*
X102634819Y-90290952D02*
X102682438Y-90195714D01*
X102682438Y-90195714D02*
X102730057Y-90148095D01*
X102730057Y-90148095D02*
X102825295Y-90100476D01*
X102825295Y-90100476D02*
X102920533Y-90100476D01*
X102920533Y-90100476D02*
X103063390Y-90148095D01*
X103063390Y-90148095D02*
X103634819Y-90719523D01*
X103634819Y-90719523D02*
X103634819Y-90100476D01*
X102634819Y-89481428D02*
X102634819Y-89386190D01*
X102634819Y-89386190D02*
X102682438Y-89290952D01*
X102682438Y-89290952D02*
X102730057Y-89243333D01*
X102730057Y-89243333D02*
X102825295Y-89195714D01*
X102825295Y-89195714D02*
X103015771Y-89148095D01*
X103015771Y-89148095D02*
X103253866Y-89148095D01*
X103253866Y-89148095D02*
X103444342Y-89195714D01*
X103444342Y-89195714D02*
X103539580Y-89243333D01*
X103539580Y-89243333D02*
X103587200Y-89290952D01*
X103587200Y-89290952D02*
X103634819Y-89386190D01*
X103634819Y-89386190D02*
X103634819Y-89481428D01*
X103634819Y-89481428D02*
X103587200Y-89576666D01*
X103587200Y-89576666D02*
X103539580Y-89624285D01*
X103539580Y-89624285D02*
X103444342Y-89671904D01*
X103444342Y-89671904D02*
X103253866Y-89719523D01*
X103253866Y-89719523D02*
X103015771Y-89719523D01*
X103015771Y-89719523D02*
X102825295Y-89671904D01*
X102825295Y-89671904D02*
X102730057Y-89624285D01*
X102730057Y-89624285D02*
X102682438Y-89576666D01*
X102682438Y-89576666D02*
X102634819Y-89481428D01*
X106124819Y-73376666D02*
X105648628Y-73709999D01*
X106124819Y-73948094D02*
X105124819Y-73948094D01*
X105124819Y-73948094D02*
X105124819Y-73567142D01*
X105124819Y-73567142D02*
X105172438Y-73471904D01*
X105172438Y-73471904D02*
X105220057Y-73424285D01*
X105220057Y-73424285D02*
X105315295Y-73376666D01*
X105315295Y-73376666D02*
X105458152Y-73376666D01*
X105458152Y-73376666D02*
X105553390Y-73424285D01*
X105553390Y-73424285D02*
X105601009Y-73471904D01*
X105601009Y-73471904D02*
X105648628Y-73567142D01*
X105648628Y-73567142D02*
X105648628Y-73948094D01*
X105220057Y-72995713D02*
X105172438Y-72948094D01*
X105172438Y-72948094D02*
X105124819Y-72852856D01*
X105124819Y-72852856D02*
X105124819Y-72614761D01*
X105124819Y-72614761D02*
X105172438Y-72519523D01*
X105172438Y-72519523D02*
X105220057Y-72471904D01*
X105220057Y-72471904D02*
X105315295Y-72424285D01*
X105315295Y-72424285D02*
X105410533Y-72424285D01*
X105410533Y-72424285D02*
X105553390Y-72471904D01*
X105553390Y-72471904D02*
X106124819Y-73043332D01*
X106124819Y-73043332D02*
X106124819Y-72424285D01*
X116553333Y-83824819D02*
X116077143Y-83824819D01*
X116077143Y-83824819D02*
X116077143Y-82824819D01*
X116791429Y-82824819D02*
X117458095Y-82824819D01*
X117458095Y-82824819D02*
X117029524Y-83824819D01*
X132259580Y-95217857D02*
X132307200Y-95265476D01*
X132307200Y-95265476D02*
X132354819Y-95408333D01*
X132354819Y-95408333D02*
X132354819Y-95503571D01*
X132354819Y-95503571D02*
X132307200Y-95646428D01*
X132307200Y-95646428D02*
X132211961Y-95741666D01*
X132211961Y-95741666D02*
X132116723Y-95789285D01*
X132116723Y-95789285D02*
X131926247Y-95836904D01*
X131926247Y-95836904D02*
X131783390Y-95836904D01*
X131783390Y-95836904D02*
X131592914Y-95789285D01*
X131592914Y-95789285D02*
X131497676Y-95741666D01*
X131497676Y-95741666D02*
X131402438Y-95646428D01*
X131402438Y-95646428D02*
X131354819Y-95503571D01*
X131354819Y-95503571D02*
X131354819Y-95408333D01*
X131354819Y-95408333D02*
X131402438Y-95265476D01*
X131402438Y-95265476D02*
X131450057Y-95217857D01*
X132354819Y-94265476D02*
X132354819Y-94836904D01*
X132354819Y-94551190D02*
X131354819Y-94551190D01*
X131354819Y-94551190D02*
X131497676Y-94646428D01*
X131497676Y-94646428D02*
X131592914Y-94741666D01*
X131592914Y-94741666D02*
X131640533Y-94836904D01*
X131354819Y-93932142D02*
X131354819Y-93313095D01*
X131354819Y-93313095D02*
X131735771Y-93646428D01*
X131735771Y-93646428D02*
X131735771Y-93503571D01*
X131735771Y-93503571D02*
X131783390Y-93408333D01*
X131783390Y-93408333D02*
X131831009Y-93360714D01*
X131831009Y-93360714D02*
X131926247Y-93313095D01*
X131926247Y-93313095D02*
X132164342Y-93313095D01*
X132164342Y-93313095D02*
X132259580Y-93360714D01*
X132259580Y-93360714D02*
X132307200Y-93408333D01*
X132307200Y-93408333D02*
X132354819Y-93503571D01*
X132354819Y-93503571D02*
X132354819Y-93789285D01*
X132354819Y-93789285D02*
X132307200Y-93884523D01*
X132307200Y-93884523D02*
X132259580Y-93932142D01*
X112014819Y-92962857D02*
X111538628Y-93296190D01*
X112014819Y-93534285D02*
X111014819Y-93534285D01*
X111014819Y-93534285D02*
X111014819Y-93153333D01*
X111014819Y-93153333D02*
X111062438Y-93058095D01*
X111062438Y-93058095D02*
X111110057Y-93010476D01*
X111110057Y-93010476D02*
X111205295Y-92962857D01*
X111205295Y-92962857D02*
X111348152Y-92962857D01*
X111348152Y-92962857D02*
X111443390Y-93010476D01*
X111443390Y-93010476D02*
X111491009Y-93058095D01*
X111491009Y-93058095D02*
X111538628Y-93153333D01*
X111538628Y-93153333D02*
X111538628Y-93534285D01*
X112014819Y-92010476D02*
X112014819Y-92581904D01*
X112014819Y-92296190D02*
X111014819Y-92296190D01*
X111014819Y-92296190D02*
X111157676Y-92391428D01*
X111157676Y-92391428D02*
X111252914Y-92486666D01*
X111252914Y-92486666D02*
X111300533Y-92581904D01*
X111110057Y-91629523D02*
X111062438Y-91581904D01*
X111062438Y-91581904D02*
X111014819Y-91486666D01*
X111014819Y-91486666D02*
X111014819Y-91248571D01*
X111014819Y-91248571D02*
X111062438Y-91153333D01*
X111062438Y-91153333D02*
X111110057Y-91105714D01*
X111110057Y-91105714D02*
X111205295Y-91058095D01*
X111205295Y-91058095D02*
X111300533Y-91058095D01*
X111300533Y-91058095D02*
X111443390Y-91105714D01*
X111443390Y-91105714D02*
X112014819Y-91677142D01*
X112014819Y-91677142D02*
X112014819Y-91058095D01*
X132014819Y-78336666D02*
X131538628Y-78669999D01*
X132014819Y-78908094D02*
X131014819Y-78908094D01*
X131014819Y-78908094D02*
X131014819Y-78527142D01*
X131014819Y-78527142D02*
X131062438Y-78431904D01*
X131062438Y-78431904D02*
X131110057Y-78384285D01*
X131110057Y-78384285D02*
X131205295Y-78336666D01*
X131205295Y-78336666D02*
X131348152Y-78336666D01*
X131348152Y-78336666D02*
X131443390Y-78384285D01*
X131443390Y-78384285D02*
X131491009Y-78431904D01*
X131491009Y-78431904D02*
X131538628Y-78527142D01*
X131538628Y-78527142D02*
X131538628Y-78908094D01*
X131014819Y-78003332D02*
X131014819Y-77336666D01*
X131014819Y-77336666D02*
X132014819Y-77765237D01*
X128959580Y-82662857D02*
X129007200Y-82710476D01*
X129007200Y-82710476D02*
X129054819Y-82853333D01*
X129054819Y-82853333D02*
X129054819Y-82948571D01*
X129054819Y-82948571D02*
X129007200Y-83091428D01*
X129007200Y-83091428D02*
X128911961Y-83186666D01*
X128911961Y-83186666D02*
X128816723Y-83234285D01*
X128816723Y-83234285D02*
X128626247Y-83281904D01*
X128626247Y-83281904D02*
X128483390Y-83281904D01*
X128483390Y-83281904D02*
X128292914Y-83234285D01*
X128292914Y-83234285D02*
X128197676Y-83186666D01*
X128197676Y-83186666D02*
X128102438Y-83091428D01*
X128102438Y-83091428D02*
X128054819Y-82948571D01*
X128054819Y-82948571D02*
X128054819Y-82853333D01*
X128054819Y-82853333D02*
X128102438Y-82710476D01*
X128102438Y-82710476D02*
X128150057Y-82662857D01*
X129054819Y-81710476D02*
X129054819Y-82281904D01*
X129054819Y-81996190D02*
X128054819Y-81996190D01*
X128054819Y-81996190D02*
X128197676Y-82091428D01*
X128197676Y-82091428D02*
X128292914Y-82186666D01*
X128292914Y-82186666D02*
X128340533Y-82281904D01*
X129054819Y-80758095D02*
X129054819Y-81329523D01*
X129054819Y-81043809D02*
X128054819Y-81043809D01*
X128054819Y-81043809D02*
X128197676Y-81139047D01*
X128197676Y-81139047D02*
X128292914Y-81234285D01*
X128292914Y-81234285D02*
X128340533Y-81329523D01*
X134194819Y-85436666D02*
X134194819Y-85912856D01*
X134194819Y-85912856D02*
X133194819Y-85912856D01*
X133290057Y-85150951D02*
X133242438Y-85103332D01*
X133242438Y-85103332D02*
X133194819Y-85008094D01*
X133194819Y-85008094D02*
X133194819Y-84769999D01*
X133194819Y-84769999D02*
X133242438Y-84674761D01*
X133242438Y-84674761D02*
X133290057Y-84627142D01*
X133290057Y-84627142D02*
X133385295Y-84579523D01*
X133385295Y-84579523D02*
X133480533Y-84579523D01*
X133480533Y-84579523D02*
X133623390Y-84627142D01*
X133623390Y-84627142D02*
X134194819Y-85198570D01*
X134194819Y-85198570D02*
X134194819Y-84579523D01*
X127659580Y-82486666D02*
X127707200Y-82534285D01*
X127707200Y-82534285D02*
X127754819Y-82677142D01*
X127754819Y-82677142D02*
X127754819Y-82772380D01*
X127754819Y-82772380D02*
X127707200Y-82915237D01*
X127707200Y-82915237D02*
X127611961Y-83010475D01*
X127611961Y-83010475D02*
X127516723Y-83058094D01*
X127516723Y-83058094D02*
X127326247Y-83105713D01*
X127326247Y-83105713D02*
X127183390Y-83105713D01*
X127183390Y-83105713D02*
X126992914Y-83058094D01*
X126992914Y-83058094D02*
X126897676Y-83010475D01*
X126897676Y-83010475D02*
X126802438Y-82915237D01*
X126802438Y-82915237D02*
X126754819Y-82772380D01*
X126754819Y-82772380D02*
X126754819Y-82677142D01*
X126754819Y-82677142D02*
X126802438Y-82534285D01*
X126802438Y-82534285D02*
X126850057Y-82486666D01*
X127754819Y-81534285D02*
X127754819Y-82105713D01*
X127754819Y-81819999D02*
X126754819Y-81819999D01*
X126754819Y-81819999D02*
X126897676Y-81915237D01*
X126897676Y-81915237D02*
X126992914Y-82010475D01*
X126992914Y-82010475D02*
X127040533Y-82105713D01*
X96359580Y-91212857D02*
X96407200Y-91260476D01*
X96407200Y-91260476D02*
X96454819Y-91403333D01*
X96454819Y-91403333D02*
X96454819Y-91498571D01*
X96454819Y-91498571D02*
X96407200Y-91641428D01*
X96407200Y-91641428D02*
X96311961Y-91736666D01*
X96311961Y-91736666D02*
X96216723Y-91784285D01*
X96216723Y-91784285D02*
X96026247Y-91831904D01*
X96026247Y-91831904D02*
X95883390Y-91831904D01*
X95883390Y-91831904D02*
X95692914Y-91784285D01*
X95692914Y-91784285D02*
X95597676Y-91736666D01*
X95597676Y-91736666D02*
X95502438Y-91641428D01*
X95502438Y-91641428D02*
X95454819Y-91498571D01*
X95454819Y-91498571D02*
X95454819Y-91403333D01*
X95454819Y-91403333D02*
X95502438Y-91260476D01*
X95502438Y-91260476D02*
X95550057Y-91212857D01*
X96454819Y-90260476D02*
X96454819Y-90831904D01*
X96454819Y-90546190D02*
X95454819Y-90546190D01*
X95454819Y-90546190D02*
X95597676Y-90641428D01*
X95597676Y-90641428D02*
X95692914Y-90736666D01*
X95692914Y-90736666D02*
X95740533Y-90831904D01*
X95454819Y-89403333D02*
X95454819Y-89593809D01*
X95454819Y-89593809D02*
X95502438Y-89689047D01*
X95502438Y-89689047D02*
X95550057Y-89736666D01*
X95550057Y-89736666D02*
X95692914Y-89831904D01*
X95692914Y-89831904D02*
X95883390Y-89879523D01*
X95883390Y-89879523D02*
X96264342Y-89879523D01*
X96264342Y-89879523D02*
X96359580Y-89831904D01*
X96359580Y-89831904D02*
X96407200Y-89784285D01*
X96407200Y-89784285D02*
X96454819Y-89689047D01*
X96454819Y-89689047D02*
X96454819Y-89498571D01*
X96454819Y-89498571D02*
X96407200Y-89403333D01*
X96407200Y-89403333D02*
X96359580Y-89355714D01*
X96359580Y-89355714D02*
X96264342Y-89308095D01*
X96264342Y-89308095D02*
X96026247Y-89308095D01*
X96026247Y-89308095D02*
X95931009Y-89355714D01*
X95931009Y-89355714D02*
X95883390Y-89403333D01*
X95883390Y-89403333D02*
X95835771Y-89498571D01*
X95835771Y-89498571D02*
X95835771Y-89689047D01*
X95835771Y-89689047D02*
X95883390Y-89784285D01*
X95883390Y-89784285D02*
X95931009Y-89831904D01*
X95931009Y-89831904D02*
X96026247Y-89879523D01*
X112877142Y-100514819D02*
X112543809Y-100038628D01*
X112305714Y-100514819D02*
X112305714Y-99514819D01*
X112305714Y-99514819D02*
X112686666Y-99514819D01*
X112686666Y-99514819D02*
X112781904Y-99562438D01*
X112781904Y-99562438D02*
X112829523Y-99610057D01*
X112829523Y-99610057D02*
X112877142Y-99705295D01*
X112877142Y-99705295D02*
X112877142Y-99848152D01*
X112877142Y-99848152D02*
X112829523Y-99943390D01*
X112829523Y-99943390D02*
X112781904Y-99991009D01*
X112781904Y-99991009D02*
X112686666Y-100038628D01*
X112686666Y-100038628D02*
X112305714Y-100038628D01*
X113829523Y-100514819D02*
X113258095Y-100514819D01*
X113543809Y-100514819D02*
X113543809Y-99514819D01*
X113543809Y-99514819D02*
X113448571Y-99657676D01*
X113448571Y-99657676D02*
X113353333Y-99752914D01*
X113353333Y-99752914D02*
X113258095Y-99800533D01*
X114448571Y-99514819D02*
X114543809Y-99514819D01*
X114543809Y-99514819D02*
X114639047Y-99562438D01*
X114639047Y-99562438D02*
X114686666Y-99610057D01*
X114686666Y-99610057D02*
X114734285Y-99705295D01*
X114734285Y-99705295D02*
X114781904Y-99895771D01*
X114781904Y-99895771D02*
X114781904Y-100133866D01*
X114781904Y-100133866D02*
X114734285Y-100324342D01*
X114734285Y-100324342D02*
X114686666Y-100419580D01*
X114686666Y-100419580D02*
X114639047Y-100467200D01*
X114639047Y-100467200D02*
X114543809Y-100514819D01*
X114543809Y-100514819D02*
X114448571Y-100514819D01*
X114448571Y-100514819D02*
X114353333Y-100467200D01*
X114353333Y-100467200D02*
X114305714Y-100419580D01*
X114305714Y-100419580D02*
X114258095Y-100324342D01*
X114258095Y-100324342D02*
X114210476Y-100133866D01*
X114210476Y-100133866D02*
X114210476Y-99895771D01*
X114210476Y-99895771D02*
X114258095Y-99705295D01*
X114258095Y-99705295D02*
X114305714Y-99610057D01*
X114305714Y-99610057D02*
X114353333Y-99562438D01*
X114353333Y-99562438D02*
X114448571Y-99514819D01*
X106949580Y-81812857D02*
X106997200Y-81860476D01*
X106997200Y-81860476D02*
X107044819Y-82003333D01*
X107044819Y-82003333D02*
X107044819Y-82098571D01*
X107044819Y-82098571D02*
X106997200Y-82241428D01*
X106997200Y-82241428D02*
X106901961Y-82336666D01*
X106901961Y-82336666D02*
X106806723Y-82384285D01*
X106806723Y-82384285D02*
X106616247Y-82431904D01*
X106616247Y-82431904D02*
X106473390Y-82431904D01*
X106473390Y-82431904D02*
X106282914Y-82384285D01*
X106282914Y-82384285D02*
X106187676Y-82336666D01*
X106187676Y-82336666D02*
X106092438Y-82241428D01*
X106092438Y-82241428D02*
X106044819Y-82098571D01*
X106044819Y-82098571D02*
X106044819Y-82003333D01*
X106044819Y-82003333D02*
X106092438Y-81860476D01*
X106092438Y-81860476D02*
X106140057Y-81812857D01*
X107044819Y-80860476D02*
X107044819Y-81431904D01*
X107044819Y-81146190D02*
X106044819Y-81146190D01*
X106044819Y-81146190D02*
X106187676Y-81241428D01*
X106187676Y-81241428D02*
X106282914Y-81336666D01*
X106282914Y-81336666D02*
X106330533Y-81431904D01*
X106044819Y-80527142D02*
X106044819Y-79860476D01*
X106044819Y-79860476D02*
X107044819Y-80289047D01*
X128263333Y-90864819D02*
X127787143Y-90864819D01*
X127787143Y-90864819D02*
X127787143Y-89864819D01*
X128739524Y-90293390D02*
X128644286Y-90245771D01*
X128644286Y-90245771D02*
X128596667Y-90198152D01*
X128596667Y-90198152D02*
X128549048Y-90102914D01*
X128549048Y-90102914D02*
X128549048Y-90055295D01*
X128549048Y-90055295D02*
X128596667Y-89960057D01*
X128596667Y-89960057D02*
X128644286Y-89912438D01*
X128644286Y-89912438D02*
X128739524Y-89864819D01*
X128739524Y-89864819D02*
X128930000Y-89864819D01*
X128930000Y-89864819D02*
X129025238Y-89912438D01*
X129025238Y-89912438D02*
X129072857Y-89960057D01*
X129072857Y-89960057D02*
X129120476Y-90055295D01*
X129120476Y-90055295D02*
X129120476Y-90102914D01*
X129120476Y-90102914D02*
X129072857Y-90198152D01*
X129072857Y-90198152D02*
X129025238Y-90245771D01*
X129025238Y-90245771D02*
X128930000Y-90293390D01*
X128930000Y-90293390D02*
X128739524Y-90293390D01*
X128739524Y-90293390D02*
X128644286Y-90341009D01*
X128644286Y-90341009D02*
X128596667Y-90388628D01*
X128596667Y-90388628D02*
X128549048Y-90483866D01*
X128549048Y-90483866D02*
X128549048Y-90674342D01*
X128549048Y-90674342D02*
X128596667Y-90769580D01*
X128596667Y-90769580D02*
X128644286Y-90817200D01*
X128644286Y-90817200D02*
X128739524Y-90864819D01*
X128739524Y-90864819D02*
X128930000Y-90864819D01*
X128930000Y-90864819D02*
X129025238Y-90817200D01*
X129025238Y-90817200D02*
X129072857Y-90769580D01*
X129072857Y-90769580D02*
X129120476Y-90674342D01*
X129120476Y-90674342D02*
X129120476Y-90483866D01*
X129120476Y-90483866D02*
X129072857Y-90388628D01*
X129072857Y-90388628D02*
X129025238Y-90341009D01*
X129025238Y-90341009D02*
X128930000Y-90293390D01*
X130417142Y-89599580D02*
X130369523Y-89647200D01*
X130369523Y-89647200D02*
X130226666Y-89694819D01*
X130226666Y-89694819D02*
X130131428Y-89694819D01*
X130131428Y-89694819D02*
X129988571Y-89647200D01*
X129988571Y-89647200D02*
X129893333Y-89551961D01*
X129893333Y-89551961D02*
X129845714Y-89456723D01*
X129845714Y-89456723D02*
X129798095Y-89266247D01*
X129798095Y-89266247D02*
X129798095Y-89123390D01*
X129798095Y-89123390D02*
X129845714Y-88932914D01*
X129845714Y-88932914D02*
X129893333Y-88837676D01*
X129893333Y-88837676D02*
X129988571Y-88742438D01*
X129988571Y-88742438D02*
X130131428Y-88694819D01*
X130131428Y-88694819D02*
X130226666Y-88694819D01*
X130226666Y-88694819D02*
X130369523Y-88742438D01*
X130369523Y-88742438D02*
X130417142Y-88790057D01*
X131369523Y-89694819D02*
X130798095Y-89694819D01*
X131083809Y-89694819D02*
X131083809Y-88694819D01*
X131083809Y-88694819D02*
X130988571Y-88837676D01*
X130988571Y-88837676D02*
X130893333Y-88932914D01*
X130893333Y-88932914D02*
X130798095Y-88980533D01*
X131750476Y-88790057D02*
X131798095Y-88742438D01*
X131798095Y-88742438D02*
X131893333Y-88694819D01*
X131893333Y-88694819D02*
X132131428Y-88694819D01*
X132131428Y-88694819D02*
X132226666Y-88742438D01*
X132226666Y-88742438D02*
X132274285Y-88790057D01*
X132274285Y-88790057D02*
X132321904Y-88885295D01*
X132321904Y-88885295D02*
X132321904Y-88980533D01*
X132321904Y-88980533D02*
X132274285Y-89123390D01*
X132274285Y-89123390D02*
X131702857Y-89694819D01*
X131702857Y-89694819D02*
X132321904Y-89694819D01*
X115129580Y-74722857D02*
X115177200Y-74770476D01*
X115177200Y-74770476D02*
X115224819Y-74913333D01*
X115224819Y-74913333D02*
X115224819Y-75008571D01*
X115224819Y-75008571D02*
X115177200Y-75151428D01*
X115177200Y-75151428D02*
X115081961Y-75246666D01*
X115081961Y-75246666D02*
X114986723Y-75294285D01*
X114986723Y-75294285D02*
X114796247Y-75341904D01*
X114796247Y-75341904D02*
X114653390Y-75341904D01*
X114653390Y-75341904D02*
X114462914Y-75294285D01*
X114462914Y-75294285D02*
X114367676Y-75246666D01*
X114367676Y-75246666D02*
X114272438Y-75151428D01*
X114272438Y-75151428D02*
X114224819Y-75008571D01*
X114224819Y-75008571D02*
X114224819Y-74913333D01*
X114224819Y-74913333D02*
X114272438Y-74770476D01*
X114272438Y-74770476D02*
X114320057Y-74722857D01*
X114320057Y-74341904D02*
X114272438Y-74294285D01*
X114272438Y-74294285D02*
X114224819Y-74199047D01*
X114224819Y-74199047D02*
X114224819Y-73960952D01*
X114224819Y-73960952D02*
X114272438Y-73865714D01*
X114272438Y-73865714D02*
X114320057Y-73818095D01*
X114320057Y-73818095D02*
X114415295Y-73770476D01*
X114415295Y-73770476D02*
X114510533Y-73770476D01*
X114510533Y-73770476D02*
X114653390Y-73818095D01*
X114653390Y-73818095D02*
X115224819Y-74389523D01*
X115224819Y-74389523D02*
X115224819Y-73770476D01*
X114224819Y-73437142D02*
X114224819Y-72770476D01*
X114224819Y-72770476D02*
X115224819Y-73199047D01*
X126379580Y-82486666D02*
X126427200Y-82534285D01*
X126427200Y-82534285D02*
X126474819Y-82677142D01*
X126474819Y-82677142D02*
X126474819Y-82772380D01*
X126474819Y-82772380D02*
X126427200Y-82915237D01*
X126427200Y-82915237D02*
X126331961Y-83010475D01*
X126331961Y-83010475D02*
X126236723Y-83058094D01*
X126236723Y-83058094D02*
X126046247Y-83105713D01*
X126046247Y-83105713D02*
X125903390Y-83105713D01*
X125903390Y-83105713D02*
X125712914Y-83058094D01*
X125712914Y-83058094D02*
X125617676Y-83010475D01*
X125617676Y-83010475D02*
X125522438Y-82915237D01*
X125522438Y-82915237D02*
X125474819Y-82772380D01*
X125474819Y-82772380D02*
X125474819Y-82677142D01*
X125474819Y-82677142D02*
X125522438Y-82534285D01*
X125522438Y-82534285D02*
X125570057Y-82486666D01*
X126474819Y-82010475D02*
X126474819Y-81819999D01*
X126474819Y-81819999D02*
X126427200Y-81724761D01*
X126427200Y-81724761D02*
X126379580Y-81677142D01*
X126379580Y-81677142D02*
X126236723Y-81581904D01*
X126236723Y-81581904D02*
X126046247Y-81534285D01*
X126046247Y-81534285D02*
X125665295Y-81534285D01*
X125665295Y-81534285D02*
X125570057Y-81581904D01*
X125570057Y-81581904D02*
X125522438Y-81629523D01*
X125522438Y-81629523D02*
X125474819Y-81724761D01*
X125474819Y-81724761D02*
X125474819Y-81915237D01*
X125474819Y-81915237D02*
X125522438Y-82010475D01*
X125522438Y-82010475D02*
X125570057Y-82058094D01*
X125570057Y-82058094D02*
X125665295Y-82105713D01*
X125665295Y-82105713D02*
X125903390Y-82105713D01*
X125903390Y-82105713D02*
X125998628Y-82058094D01*
X125998628Y-82058094D02*
X126046247Y-82010475D01*
X126046247Y-82010475D02*
X126093866Y-81915237D01*
X126093866Y-81915237D02*
X126093866Y-81724761D01*
X126093866Y-81724761D02*
X126046247Y-81629523D01*
X126046247Y-81629523D02*
X125998628Y-81581904D01*
X125998628Y-81581904D02*
X125903390Y-81534285D01*
X126129580Y-92146666D02*
X126177200Y-92194285D01*
X126177200Y-92194285D02*
X126224819Y-92337142D01*
X126224819Y-92337142D02*
X126224819Y-92432380D01*
X126224819Y-92432380D02*
X126177200Y-92575237D01*
X126177200Y-92575237D02*
X126081961Y-92670475D01*
X126081961Y-92670475D02*
X125986723Y-92718094D01*
X125986723Y-92718094D02*
X125796247Y-92765713D01*
X125796247Y-92765713D02*
X125653390Y-92765713D01*
X125653390Y-92765713D02*
X125462914Y-92718094D01*
X125462914Y-92718094D02*
X125367676Y-92670475D01*
X125367676Y-92670475D02*
X125272438Y-92575237D01*
X125272438Y-92575237D02*
X125224819Y-92432380D01*
X125224819Y-92432380D02*
X125224819Y-92337142D01*
X125224819Y-92337142D02*
X125272438Y-92194285D01*
X125272438Y-92194285D02*
X125320057Y-92146666D01*
X125653390Y-91575237D02*
X125605771Y-91670475D01*
X125605771Y-91670475D02*
X125558152Y-91718094D01*
X125558152Y-91718094D02*
X125462914Y-91765713D01*
X125462914Y-91765713D02*
X125415295Y-91765713D01*
X125415295Y-91765713D02*
X125320057Y-91718094D01*
X125320057Y-91718094D02*
X125272438Y-91670475D01*
X125272438Y-91670475D02*
X125224819Y-91575237D01*
X125224819Y-91575237D02*
X125224819Y-91384761D01*
X125224819Y-91384761D02*
X125272438Y-91289523D01*
X125272438Y-91289523D02*
X125320057Y-91241904D01*
X125320057Y-91241904D02*
X125415295Y-91194285D01*
X125415295Y-91194285D02*
X125462914Y-91194285D01*
X125462914Y-91194285D02*
X125558152Y-91241904D01*
X125558152Y-91241904D02*
X125605771Y-91289523D01*
X125605771Y-91289523D02*
X125653390Y-91384761D01*
X125653390Y-91384761D02*
X125653390Y-91575237D01*
X125653390Y-91575237D02*
X125701009Y-91670475D01*
X125701009Y-91670475D02*
X125748628Y-91718094D01*
X125748628Y-91718094D02*
X125843866Y-91765713D01*
X125843866Y-91765713D02*
X126034342Y-91765713D01*
X126034342Y-91765713D02*
X126129580Y-91718094D01*
X126129580Y-91718094D02*
X126177200Y-91670475D01*
X126177200Y-91670475D02*
X126224819Y-91575237D01*
X126224819Y-91575237D02*
X126224819Y-91384761D01*
X126224819Y-91384761D02*
X126177200Y-91289523D01*
X126177200Y-91289523D02*
X126129580Y-91241904D01*
X126129580Y-91241904D02*
X126034342Y-91194285D01*
X126034342Y-91194285D02*
X125843866Y-91194285D01*
X125843866Y-91194285D02*
X125748628Y-91241904D01*
X125748628Y-91241904D02*
X125701009Y-91289523D01*
X125701009Y-91289523D02*
X125653390Y-91384761D01*
%TO.C,C4*%
X111010000Y-87490000D02*
X111010000Y-86790000D01*
X111160000Y-86640000D02*
X111660000Y-86640000D01*
X111660000Y-87640000D02*
X111160000Y-87640000D01*
X112100000Y-86640000D02*
X112600000Y-86640000D01*
X112600000Y-87640000D02*
X112100000Y-87640000D01*
X112750000Y-86790000D02*
X112750000Y-87490000D01*
X111010000Y-86790000D02*
G75*
G02*
X111160000Y-86640000I150000J0D01*
G01*
X111160000Y-87640000D02*
G75*
G02*
X111010000Y-87490000I0J150000D01*
G01*
X112600000Y-86640000D02*
G75*
G02*
X112750000Y-86790000I0J-150000D01*
G01*
X112750000Y-87490000D02*
G75*
G02*
X112600000Y-87640000I-150000J0D01*
G01*
D11*
X112410000Y-86890000D02*
G75*
G02*
X112350000Y-86890000I-30000J0D01*
G01*
X112350000Y-86890000D02*
G75*
G02*
X112410000Y-86890000I30000J0D01*
G01*
%TO.C,R4*%
D10*
X115890000Y-69870000D02*
X115890000Y-70870000D01*
X115890000Y-70870000D02*
X116600000Y-70870000D01*
X116600000Y-69870000D02*
X115890000Y-69870000D01*
X117060000Y-69870000D02*
X117770000Y-69870000D01*
X117770000Y-69870000D02*
X117770000Y-70870000D01*
X117770000Y-70870000D02*
X117060000Y-70870000D01*
D11*
X117360000Y-70120000D02*
G75*
G02*
X117300000Y-70120000I-30000J0D01*
G01*
X117300000Y-70120000D02*
G75*
G02*
X117360000Y-70120000I30000J0D01*
G01*
%TO.C,C26*%
D12*
X102710000Y-93230000D02*
X102710000Y-92430000D01*
X103820000Y-92120000D02*
X103020000Y-92120000D01*
X103820000Y-93540000D02*
X103020000Y-93540000D01*
X104380000Y-92120000D02*
X105180000Y-92120000D01*
X104380000Y-93540000D02*
X105180000Y-93540000D01*
X105490000Y-92430000D02*
X105490000Y-93230000D01*
X102710000Y-92430000D02*
G75*
G02*
X103020000Y-92120000I310000J0D01*
G01*
X103020000Y-93540000D02*
G75*
G02*
X102710000Y-93230000I0J310000D01*
G01*
X105180000Y-92120000D02*
G75*
G02*
X105490000Y-92430000I0J-310000D01*
G01*
X105490000Y-93230000D02*
G75*
G02*
X105180000Y-93540000I-310000J0D01*
G01*
D11*
X103330000Y-93230000D02*
G75*
G02*
X103270000Y-93230000I-30000J0D01*
G01*
X103270000Y-93230000D02*
G75*
G02*
X103330000Y-93230000I30000J0D01*
G01*
%TO.C,R9*%
D10*
X110910000Y-90830000D02*
X110910000Y-92150000D01*
X110910000Y-92150000D02*
X111870000Y-92150000D01*
X111870000Y-90830000D02*
X110910000Y-90830000D01*
X112730000Y-90830000D02*
X113690000Y-90830000D01*
X113690000Y-90830000D02*
X113690000Y-92150000D01*
X113690000Y-92150000D02*
X112730000Y-92150000D01*
D11*
X113130000Y-91090000D02*
G75*
G02*
X113070000Y-91090000I-30000J0D01*
G01*
X113070000Y-91090000D02*
G75*
G02*
X113130000Y-91090000I30000J0D01*
G01*
%TO.C,J1*%
D12*
X93949912Y-70370000D02*
X95429912Y-70370000D01*
X93949912Y-79310000D02*
X93949912Y-70370000D01*
X93949912Y-79310000D02*
X95429912Y-79310000D01*
X97659912Y-70370000D02*
X99529912Y-70370000D01*
X97659912Y-79310000D02*
X99529912Y-79310000D01*
D11*
X101829912Y-79320000D02*
G75*
G02*
X101769912Y-79320000I-30000J0D01*
G01*
X101769912Y-79320000D02*
G75*
G02*
X101829912Y-79320000I30000J0D01*
G01*
%TO.C,AE1*%
D12*
X135160000Y-95920000D02*
X135160000Y-92720000D01*
X135960000Y-93640000D02*
X135960000Y-94150000D01*
X135960000Y-94150000D02*
X136460000Y-94150000D01*
X136460000Y-93640000D02*
X135960000Y-93640000D01*
X136460000Y-94150000D02*
X136460000Y-93640000D01*
X137270000Y-92720000D02*
X137260000Y-96080000D01*
D11*
X135440000Y-92800000D02*
G75*
G02*
X135380000Y-92800000I-30000J0D01*
G01*
X135380000Y-92800000D02*
G75*
G02*
X135440000Y-92800000I30000J0D01*
G01*
%TO.C,U2*%
D13*
X103930000Y-84950000D02*
X104405000Y-84950000D01*
X103930000Y-85425000D02*
X103930000Y-84950000D01*
X103930000Y-90170000D02*
X103930000Y-89695000D01*
X104405000Y-90170000D02*
X103930000Y-90170000D01*
X108675000Y-84950000D02*
X109150000Y-84950000D01*
X109150000Y-84950000D02*
X109150000Y-85425000D01*
X109150000Y-89695000D02*
X109150000Y-90170000D01*
X109150000Y-90170000D02*
X108675000Y-90170000D01*
X103430000Y-85810000D02*
X103100000Y-86050000D01*
X103100000Y-85570000D01*
X103430000Y-85810000D01*
G36*
X103430000Y-85810000D02*
G01*
X103100000Y-86050000D01*
X103100000Y-85570000D01*
X103430000Y-85810000D01*
G37*
%TO.C,R1*%
D10*
X103730000Y-74970000D02*
X104730000Y-74970000D01*
X103730000Y-75680000D02*
X103730000Y-74970000D01*
X103730000Y-76140000D02*
X103730000Y-76850000D01*
X103730000Y-76850000D02*
X104730000Y-76850000D01*
X104730000Y-74970000D02*
X104730000Y-75680000D01*
X104730000Y-76850000D02*
X104730000Y-76140000D01*
D11*
X104010000Y-75410000D02*
G75*
G02*
X103950000Y-75410000I-30000J0D01*
G01*
X103950000Y-75410000D02*
G75*
G02*
X104010000Y-75410000I30000J0D01*
G01*
%TO.C,R8*%
D10*
X110020000Y-88390000D02*
X110020000Y-89390000D01*
X110020000Y-89390000D02*
X110730000Y-89390000D01*
X110730000Y-88390000D02*
X110020000Y-88390000D01*
X111190000Y-88390000D02*
X111900000Y-88390000D01*
X111900000Y-88390000D02*
X111900000Y-89390000D01*
X111900000Y-89390000D02*
X111190000Y-89390000D01*
D11*
X111490000Y-88640000D02*
G75*
G02*
X111430000Y-88640000I-30000J0D01*
G01*
X111430000Y-88640000D02*
G75*
G02*
X111490000Y-88640000I30000J0D01*
G01*
%TO.C,C10*%
D10*
X118970000Y-82410000D02*
X118970000Y-81930000D01*
X119130000Y-81780000D02*
X119490000Y-81780000D01*
X119490000Y-82560000D02*
X119130000Y-82560000D01*
X119830000Y-82560000D02*
X120190000Y-82560000D01*
X120190000Y-81780000D02*
X119830000Y-81780000D01*
X120350000Y-82410000D02*
X120350000Y-81930000D01*
X118980000Y-81930000D02*
G75*
G02*
X119130000Y-81780000I150000J0D01*
G01*
X119130000Y-82570000D02*
G75*
G02*
X118970000Y-82410000I0J160000D01*
G01*
X120190000Y-81780000D02*
G75*
G02*
X120340000Y-81930000I0J-150000D01*
G01*
X120350000Y-82410000D02*
G75*
G02*
X120190000Y-82570000I-160000J0D01*
G01*
D11*
X119390000Y-82320000D02*
G75*
G02*
X119330000Y-82320000I-30000J0D01*
G01*
X119330000Y-82320000D02*
G75*
G02*
X119390000Y-82320000I30000J0D01*
G01*
%TO.C,C18*%
D10*
X99730000Y-83420000D02*
X99730000Y-84830000D01*
X99730000Y-87040000D02*
X99730000Y-85630000D01*
X101380000Y-83270000D02*
X99880000Y-83270000D01*
X101380000Y-87190000D02*
X99880000Y-87190000D01*
X101530000Y-84830000D02*
X101530000Y-83420000D01*
X101530000Y-85630000D02*
X101530000Y-87040000D01*
X99730000Y-83420000D02*
G75*
G02*
X99880000Y-83270000I150000J0D01*
G01*
X99880000Y-87190000D02*
G75*
G02*
X99730000Y-87040000I0J150000D01*
G01*
X101380000Y-83270000D02*
G75*
G02*
X101530000Y-83420000I0J-150000D01*
G01*
X101530000Y-87040000D02*
G75*
G02*
X101380000Y-87190000I-150000J0D01*
G01*
D11*
X101290000Y-86230000D02*
G75*
G02*
X101230000Y-86230000I-30000J0D01*
G01*
X101230000Y-86230000D02*
G75*
G02*
X101290000Y-86230000I30000J0D01*
G01*
%TO.C,CN1*%
D12*
X105200000Y-96600000D02*
X105200000Y-99200000D01*
X106200000Y-100860000D02*
X110100000Y-100860000D01*
X106280000Y-96600000D02*
X105200000Y-96600000D01*
X110260000Y-96600000D02*
X111180000Y-96600000D01*
X111180000Y-96600000D02*
X111180000Y-99210000D01*
D11*
X105250000Y-95940000D02*
G75*
G02*
X105190000Y-95940000I-30000J0D01*
G01*
X105190000Y-95940000D02*
G75*
G02*
X105250000Y-95940000I30000J0D01*
G01*
D12*
X105850000Y-97090000D02*
G75*
G02*
X105590000Y-97090000I-130000J0D01*
G01*
X105590000Y-97090000D02*
G75*
G02*
X105850000Y-97090000I130000J0D01*
G01*
%TO.C,L6*%
D10*
X125590000Y-87270000D02*
X125750000Y-87120000D01*
X125590000Y-87750000D02*
X125590000Y-87270000D01*
X125750000Y-87120000D02*
X126110000Y-87120000D01*
X125750000Y-87900000D02*
X125590000Y-87750000D01*
X126110000Y-87900000D02*
X125750000Y-87900000D01*
X126450000Y-87900000D02*
X126810000Y-87900000D01*
X126810000Y-87120000D02*
X126450000Y-87120000D01*
X126810000Y-87900000D02*
X126970000Y-87750000D01*
X126970000Y-87270000D02*
X126810000Y-87120000D01*
X126970000Y-87750000D02*
X126970000Y-87270000D01*
D11*
X126010000Y-87660000D02*
G75*
G02*
X125950000Y-87660000I-30000J0D01*
G01*
X125950000Y-87660000D02*
G75*
G02*
X126010000Y-87660000I30000J0D01*
G01*
%TO.C,C6*%
D12*
X113770000Y-89390000D02*
X113770000Y-88590000D01*
X113770000Y-89950000D02*
X113770000Y-90750000D01*
X114080000Y-88280000D02*
X114880000Y-88280000D01*
X114880000Y-91060000D02*
X114080000Y-91060000D01*
X115190000Y-89390000D02*
X115190000Y-88590000D01*
X115190000Y-89950000D02*
X115190000Y-90750000D01*
X113770000Y-88590000D02*
G75*
G02*
X114080000Y-88280000I310000J0D01*
G01*
X114080000Y-91060000D02*
G75*
G02*
X113770000Y-90750000I0J310000D01*
G01*
X114880000Y-88280000D02*
G75*
G02*
X115190000Y-88590000I0J-310000D01*
G01*
X115190000Y-90750000D02*
G75*
G02*
X114880000Y-91060000I-310000J0D01*
G01*
D11*
X114910000Y-90470000D02*
G75*
G02*
X114850000Y-90470000I-30000J0D01*
G01*
X114850000Y-90470000D02*
G75*
G02*
X114910000Y-90470000I30000J0D01*
G01*
%TO.C,X1*%
D10*
X123950000Y-85340000D02*
X123950000Y-86640000D01*
X123950000Y-86640000D02*
X125350000Y-86640000D01*
X124250000Y-84040000D02*
X126950000Y-84040000D01*
X124250000Y-86340000D02*
X124250000Y-84040000D01*
X126950000Y-84040000D02*
X126950000Y-86340000D01*
X126950000Y-86340000D02*
X124250000Y-86340000D01*
D11*
X124630000Y-85990000D02*
G75*
G02*
X124570000Y-85990000I-30000J0D01*
G01*
X124570000Y-85990000D02*
G75*
G02*
X124630000Y-85990000I30000J0D01*
G01*
%TO.C,RF1*%
D12*
X130320000Y-92250000D02*
X130210000Y-92250000D01*
X131390000Y-92250000D02*
X131280000Y-92250000D01*
X131020000Y-91370000D02*
G75*
G02*
X130580000Y-91370000I-220000J0D01*
G01*
X130580000Y-91370000D02*
G75*
G02*
X131020000Y-91370000I220000J0D01*
G01*
D11*
X131830000Y-90370000D02*
G75*
G02*
X131770000Y-90370000I-30000J0D01*
G01*
X131770000Y-90370000D02*
G75*
G02*
X131830000Y-90370000I30000J0D01*
G01*
%TO.C,R3*%
D10*
X132680000Y-70610000D02*
X134840000Y-70610000D01*
X132680000Y-71970000D02*
X132680000Y-70610000D01*
X132680000Y-73870000D02*
X132680000Y-75230000D01*
X132680000Y-75230000D02*
X134840000Y-75230000D01*
X134840000Y-70610000D02*
X134840000Y-71970000D01*
X134840000Y-75230000D02*
X134840000Y-73870000D01*
D11*
X133000000Y-71370000D02*
G75*
G02*
X132940000Y-71370000I-30000J0D01*
G01*
X132940000Y-71370000D02*
G75*
G02*
X133000000Y-71370000I30000J0D01*
G01*
%TO.C,L9*%
D10*
X98410000Y-83670000D02*
X98410000Y-84430000D01*
X98410000Y-83670000D02*
X98560000Y-83520000D01*
X98410000Y-86210000D02*
X98410000Y-85450000D01*
X98540000Y-86360000D02*
X98410000Y-86210000D01*
X98560000Y-83520000D02*
X99580000Y-83520000D01*
X99560000Y-86360000D02*
X98540000Y-86360000D01*
X99580000Y-83520000D02*
X99710000Y-83670000D01*
X99710000Y-83670000D02*
X99710000Y-84430000D01*
X99710000Y-86210000D02*
X99560000Y-86360000D01*
X99710000Y-86210000D02*
X99710000Y-85450000D01*
D11*
X99490000Y-85740000D02*
G75*
G02*
X99430000Y-85740000I-30000J0D01*
G01*
X99430000Y-85740000D02*
G75*
G02*
X99490000Y-85740000I30000J0D01*
G01*
%TO.C,D2*%
D10*
X118480000Y-74470000D02*
X118720000Y-74470000D01*
X118480000Y-77950000D02*
X121340000Y-77950000D01*
X118480000Y-79670000D02*
X118480000Y-74470000D01*
X121090000Y-74480000D02*
X121320000Y-74470000D01*
X121340000Y-79670000D02*
X121340000Y-74470000D01*
D11*
X121240000Y-79680000D02*
G75*
G02*
X121180000Y-79680000I-30000J0D01*
G01*
X121180000Y-79680000D02*
G75*
G02*
X121240000Y-79680000I30000J0D01*
G01*
D14*
G36*
X118814193Y-79591331D02*
G01*
X118809672Y-80050868D01*
X118407590Y-80047210D01*
X118407590Y-79590010D01*
X118814193Y-79591331D01*
G37*
G36*
X121412562Y-79583101D02*
G01*
X121408041Y-80042638D01*
X121005959Y-80038981D01*
X121005959Y-79581781D01*
X121412562Y-79583101D01*
G37*
%TO.C,C28*%
D12*
X121070000Y-70700000D02*
X121070000Y-69900000D01*
X121070000Y-71260000D02*
X121070000Y-72060000D01*
X121380000Y-69590000D02*
X122180000Y-69590000D01*
X122180000Y-72370000D02*
X121380000Y-72370000D01*
X122490000Y-70700000D02*
X122490000Y-69900000D01*
X122490000Y-71260000D02*
X122490000Y-72060000D01*
X121070000Y-69900000D02*
G75*
G02*
X121380000Y-69590000I310000J0D01*
G01*
X121380000Y-72370000D02*
G75*
G02*
X121070000Y-72060000I0J310000D01*
G01*
X122180000Y-69590000D02*
G75*
G02*
X122490000Y-69900000I0J-310000D01*
G01*
X122490000Y-72060000D02*
G75*
G02*
X122180000Y-72370000I-310000J0D01*
G01*
D11*
X122210000Y-71780000D02*
G75*
G02*
X122150000Y-71780000I-30000J0D01*
G01*
X122150000Y-71780000D02*
G75*
G02*
X122210000Y-71780000I30000J0D01*
G01*
%TO.C,U3*%
D12*
X125570000Y-70880000D02*
X125570000Y-73880000D01*
X127000000Y-70880000D02*
X125570000Y-70880000D01*
X128020000Y-70880000D02*
X129480000Y-70880000D01*
X129480000Y-70880000D02*
X129480000Y-73880000D01*
X129480000Y-73880000D02*
X125570000Y-73880000D01*
X128020000Y-70880000D02*
G75*
G02*
X127000000Y-70880000I-510000J0D01*
G01*
D11*
X126270000Y-71490000D02*
G75*
G02*
X126210000Y-71490000I-30000J0D01*
G01*
X126210000Y-71490000D02*
G75*
G02*
X126270000Y-71490000I30000J0D01*
G01*
D14*
%TO.C,LED1*%
D10*
X110540000Y-81667544D02*
X110540000Y-82457544D01*
X110540000Y-83687544D02*
X110540000Y-83057544D01*
X110690000Y-83847544D02*
X110540000Y-83687544D01*
X111390000Y-83847544D02*
X110690000Y-83847544D01*
X111540000Y-81667544D02*
X110540000Y-81667544D01*
X111540000Y-82457544D02*
X111540000Y-81667544D01*
X111540000Y-83057544D02*
X111540000Y-83687544D01*
X111540000Y-83687544D02*
X111390000Y-83847544D01*
D15*
X110580000Y-82757544D02*
G75*
G02*
X110500000Y-82757544I-40000J0D01*
G01*
X110500000Y-82757544D02*
G75*
G02*
X110580000Y-82757544I40000J0D01*
G01*
D11*
X111370000Y-83257544D02*
G75*
G02*
X111310000Y-83257544I-30000J0D01*
G01*
X111310000Y-83257544D02*
G75*
G02*
X111370000Y-83257544I30000J0D01*
G01*
D15*
X111580000Y-82757544D02*
G75*
G02*
X111500000Y-82757544I-40000J0D01*
G01*
X111500000Y-82757544D02*
G75*
G02*
X111580000Y-82757544I40000J0D01*
G01*
D14*
G36*
X111386202Y-84147457D02*
G01*
X110693798Y-84147457D01*
X110693798Y-83995057D01*
X111386202Y-83995057D01*
X111386202Y-84147457D01*
G37*
G36*
X111294991Y-82787541D02*
G01*
X111144978Y-82787541D01*
X111144978Y-82827521D01*
X110944979Y-82827521D01*
X110944979Y-82787541D01*
X110804974Y-82787541D01*
X110804974Y-82687542D01*
X111294991Y-82687542D01*
X111294991Y-82787541D01*
G37*
%TO.C,L10*%
D10*
X102720000Y-81500000D02*
X102720000Y-82260000D01*
X102720000Y-81500000D02*
X102870000Y-81350000D01*
X102720000Y-84040000D02*
X102720000Y-83280000D01*
X102850000Y-84190000D02*
X102720000Y-84040000D01*
X102870000Y-81350000D02*
X103890000Y-81350000D01*
X103870000Y-84190000D02*
X102850000Y-84190000D01*
X103890000Y-81350000D02*
X104020000Y-81500000D01*
X104020000Y-81500000D02*
X104020000Y-82260000D01*
X104020000Y-84040000D02*
X103870000Y-84190000D01*
X104020000Y-84040000D02*
X104020000Y-83280000D01*
D11*
X103000000Y-81970000D02*
G75*
G02*
X102940000Y-81970000I-30000J0D01*
G01*
X102940000Y-81970000D02*
G75*
G02*
X103000000Y-81970000I30000J0D01*
G01*
%TO.C,L1*%
D12*
X115400000Y-76525000D02*
X115400000Y-77795000D01*
X115400000Y-78555000D02*
X115400000Y-79695000D01*
X115400000Y-79695000D02*
X115400000Y-79825000D01*
X115400000Y-79825000D02*
X115660000Y-80085000D01*
X115660000Y-76275000D02*
X115400000Y-76525000D01*
X115660000Y-80085000D02*
X117060000Y-80085000D01*
X115790000Y-76275000D02*
X115660000Y-76275000D01*
X117060000Y-80085000D02*
X117180000Y-80085000D01*
X117180000Y-76275000D02*
X115790000Y-76275000D01*
X117180000Y-80085000D02*
X117440000Y-79825000D01*
X117440000Y-76525000D02*
X117180000Y-76275000D01*
X117440000Y-76655000D02*
X117440000Y-76525000D01*
X117440000Y-77795000D02*
X117440000Y-76655000D01*
X117440000Y-79825000D02*
X117440000Y-78555000D01*
D11*
X117090000Y-79135000D02*
G75*
G02*
X117030000Y-79135000I-30000J0D01*
G01*
X117030000Y-79135000D02*
G75*
G02*
X117090000Y-79135000I30000J0D01*
G01*
%TO.C,C22*%
D10*
X98580000Y-89910000D02*
X98580000Y-88500000D01*
X98580000Y-90710000D02*
X98580000Y-92120000D01*
X98730000Y-88350000D02*
X100230000Y-88350000D01*
X98730000Y-92270000D02*
X100230000Y-92270000D01*
X100380000Y-88500000D02*
X100380000Y-89910000D01*
X100380000Y-92120000D02*
X100380000Y-90710000D01*
X98580000Y-88500000D02*
G75*
G02*
X98730000Y-88350000I150000J0D01*
G01*
X98730000Y-92270000D02*
G75*
G02*
X98580000Y-92120000I0J150000D01*
G01*
X100230000Y-88350000D02*
G75*
G02*
X100380000Y-88500000I0J-150000D01*
G01*
X100380000Y-92120000D02*
G75*
G02*
X100230000Y-92270000I-150000J0D01*
G01*
D11*
X98880000Y-89310000D02*
G75*
G02*
X98820000Y-89310000I-30000J0D01*
G01*
X98820000Y-89310000D02*
G75*
G02*
X98880000Y-89310000I30000J0D01*
G01*
%TO.C,D1*%
D10*
X121950000Y-75320000D02*
X121950000Y-80520000D01*
X122200000Y-80510000D02*
X121970000Y-80520000D01*
X124810000Y-75320000D02*
X124810000Y-80520000D01*
X124810000Y-77040000D02*
X121950000Y-77040000D01*
X124810000Y-80520000D02*
X124570000Y-80520000D01*
D11*
X122110000Y-75310000D02*
G75*
G02*
X122050000Y-75310000I-30000J0D01*
G01*
X122050000Y-75310000D02*
G75*
G02*
X122110000Y-75310000I30000J0D01*
G01*
D14*
G36*
X122284041Y-74951019D02*
G01*
X122284041Y-75408219D01*
X121877438Y-75406899D01*
X121881959Y-74947362D01*
X122284041Y-74951019D01*
G37*
G36*
X124882410Y-74942790D02*
G01*
X124882410Y-75399990D01*
X124475807Y-75398669D01*
X124480328Y-74939132D01*
X124882410Y-74942790D01*
G37*
%TO.C,C2*%
D10*
X125830000Y-75350000D02*
X125830000Y-76830000D01*
X125830000Y-80170000D02*
X125830000Y-78690000D01*
X127860000Y-75200000D02*
X125980000Y-75200000D01*
X127860000Y-80320000D02*
X125980000Y-80320000D01*
X128010000Y-76830000D02*
X128010000Y-75350000D01*
X128010000Y-78690000D02*
X128010000Y-80170000D01*
X125830000Y-75350000D02*
G75*
G02*
X125980000Y-75200000I150000J0D01*
G01*
X125980000Y-80320000D02*
G75*
G02*
X125830000Y-80170000I0J150000D01*
G01*
X127860000Y-75200000D02*
G75*
G02*
X128010000Y-75350000I0J-150000D01*
G01*
X128010000Y-80170000D02*
G75*
G02*
X127860000Y-80320000I-150000J0D01*
G01*
D11*
X127750000Y-79360000D02*
G75*
G02*
X127690000Y-79360000I-30000J0D01*
G01*
X127690000Y-79360000D02*
G75*
G02*
X127750000Y-79360000I30000J0D01*
G01*
%TO.C,U5*%
D12*
X107842500Y-68367500D02*
X113842500Y-68367500D01*
X107842500Y-74367500D02*
X107842500Y-68367500D01*
X107842500Y-74367500D02*
X107842500Y-75967500D01*
X107842500Y-74367500D02*
X108942500Y-74367500D01*
X107842500Y-75967500D02*
X108742500Y-75967500D01*
X108742500Y-70067500D02*
X109692500Y-70067500D01*
X108742500Y-71967500D02*
X109692500Y-71967500D01*
X108742500Y-74367500D02*
X108742500Y-70067500D01*
X108742500Y-75967500D02*
X108742500Y-74367500D01*
X109692500Y-70067500D02*
X109692500Y-74367500D01*
D14*
X110142500Y-68367500D02*
X110142499Y-68367500D01*
X110142499Y-68367500D01*
X110142499Y-68367500D01*
X110142499Y-68367500D01*
X110142499Y-68367500D01*
X110142499Y-68367500D01*
X110142499Y-68367500D01*
X110142499Y-68367499D01*
X110142499Y-68367499D01*
X110142499Y-68367499D01*
X110142499Y-68367499D01*
X110142499Y-68367499D01*
X110142500Y-68367499D01*
X110142500Y-68367499D01*
X110142500Y-68367499D01*
X110142500Y-68367499D01*
X110142500Y-68367499D01*
X110142500Y-68367499D01*
X110142500Y-68367499D01*
X110142500Y-68367499D01*
X110142500Y-68367499D01*
X110142500Y-68367499D01*
X110142500Y-68367499D01*
X110142500Y-68367499D01*
X110142501Y-68367499D01*
X110142501Y-68367499D01*
X110142501Y-68367499D01*
X110142501Y-68367499D01*
X110142501Y-68367499D01*
X110142501Y-68367499D01*
X110142501Y-68367500D01*
X110142501Y-68367500D01*
X110142501Y-68367500D01*
X110142501Y-68367500D01*
X110142501Y-68367500D01*
X110142501Y-68367500D01*
X110142501Y-68367500D01*
X110142500Y-68367500D01*
X110142500Y-68367500D02*
X110142501Y-68367500D01*
X110142501Y-68367500D01*
X110142501Y-68367500D01*
X110142501Y-68367500D01*
X110142501Y-68367500D01*
X110142501Y-68367500D01*
X110142501Y-68367501D01*
X110142501Y-68367501D01*
X110142501Y-68367501D01*
X110142501Y-68367501D01*
X110142501Y-68367501D01*
X110142501Y-68367501D01*
X110142501Y-68367501D01*
X110142500Y-68367501D01*
X110142500Y-68367501D01*
X110142500Y-68367501D01*
X110142500Y-68367501D01*
X110142500Y-68367501D01*
X110142500Y-68367501D01*
X110142500Y-68367501D01*
X110142500Y-68367501D01*
X110142500Y-68367501D01*
X110142500Y-68367501D01*
X110142500Y-68367501D01*
X110142500Y-68367501D01*
X110142499Y-68367501D01*
X110142499Y-68367501D01*
X110142499Y-68367501D01*
X110142499Y-68367501D01*
X110142499Y-68367501D01*
X110142499Y-68367501D01*
X110142499Y-68367500D01*
X110142499Y-68367500D01*
X110142499Y-68367500D01*
X110142499Y-68367500D01*
X110142499Y-68367500D01*
X110142499Y-68367500D01*
X110142500Y-68367500D01*
D12*
X110142500Y-68367500D02*
X110142500Y-72617500D01*
X110142500Y-72617500D02*
X111492500Y-72617500D01*
X110742500Y-74367500D02*
X110942500Y-74367500D01*
X111492500Y-72617500D02*
X111492500Y-68367500D01*
X111972500Y-70067500D02*
X112922500Y-70067500D01*
X111972500Y-71967500D02*
X112922500Y-71967500D01*
X111972500Y-74367500D02*
X111972500Y-70067500D01*
X112742500Y-74367500D02*
X113842500Y-74367500D01*
X112922500Y-70067500D02*
X112922500Y-74367500D01*
X112942500Y-75967500D02*
X112942500Y-74367500D01*
X113242500Y-74867500D02*
X113542500Y-74867500D01*
X113392500Y-75567500D02*
X113242500Y-74867500D01*
X113542500Y-74867500D02*
X113392500Y-75567500D01*
X113842500Y-68367500D02*
X113842500Y-74367500D01*
X113842500Y-74367500D02*
X113842500Y-75967500D01*
X113842500Y-75967500D02*
X112942500Y-75967500D01*
D11*
X114002500Y-68237500D02*
G75*
G02*
X113942500Y-68237500I-30000J0D01*
G01*
X113942500Y-68237500D02*
G75*
G02*
X114002500Y-68237500I30000J0D01*
G01*
%TO.C,C14*%
D12*
X103300000Y-77880000D02*
X103300000Y-77080000D01*
X103300000Y-78440000D02*
X103300000Y-79240000D01*
X103610000Y-76770000D02*
X104410000Y-76770000D01*
X104410000Y-79550000D02*
X103610000Y-79550000D01*
X104720000Y-77880000D02*
X104720000Y-77080000D01*
X104720000Y-78440000D02*
X104720000Y-79240000D01*
X103300000Y-77080000D02*
G75*
G02*
X103610000Y-76770000I310000J0D01*
G01*
X103610000Y-79550000D02*
G75*
G02*
X103300000Y-79240000I0J310000D01*
G01*
X104410000Y-76770000D02*
G75*
G02*
X104720000Y-77080000I0J-310000D01*
G01*
X104720000Y-79240000D02*
G75*
G02*
X104410000Y-79550000I-310000J0D01*
G01*
D11*
X103640000Y-77360000D02*
G75*
G02*
X103580000Y-77360000I-30000J0D01*
G01*
X103580000Y-77360000D02*
G75*
G02*
X103640000Y-77360000I30000J0D01*
G01*
%TO.C,L4*%
D10*
X120570000Y-81790000D02*
X120720000Y-81640000D01*
X120570000Y-82580000D02*
X120570000Y-81790000D01*
X120570000Y-82840000D02*
X120570000Y-83630000D01*
X120570000Y-83630000D02*
X120720000Y-83780000D01*
X120720000Y-81640000D02*
X121420000Y-81640000D01*
X120720000Y-83780000D02*
X121410000Y-83780000D01*
X121410000Y-83780000D02*
X121570000Y-83620000D01*
X121420000Y-81640000D02*
X121570000Y-81790000D01*
X121570000Y-81790000D02*
X121570000Y-82580000D01*
X121570000Y-83620000D02*
X121570000Y-82840000D01*
D11*
X120860000Y-82210000D02*
G75*
G02*
X120800000Y-82210000I-30000J0D01*
G01*
X120800000Y-82210000D02*
G75*
G02*
X120860000Y-82210000I30000J0D01*
G01*
%TO.C,C7*%
D10*
X113630000Y-86280000D02*
X113630000Y-84870000D01*
X113630000Y-87080000D02*
X113630000Y-88490000D01*
X113780000Y-84720000D02*
X115280000Y-84720000D01*
X113780000Y-88640000D02*
X115280000Y-88640000D01*
X115430000Y-84870000D02*
X115430000Y-86280000D01*
X115430000Y-88490000D02*
X115430000Y-87080000D01*
X113630000Y-84870000D02*
G75*
G02*
X113780000Y-84720000I150000J0D01*
G01*
X113780000Y-88640000D02*
G75*
G02*
X113630000Y-88490000I0J150000D01*
G01*
X115280000Y-84720000D02*
G75*
G02*
X115430000Y-84870000I0J-150000D01*
G01*
X115430000Y-88490000D02*
G75*
G02*
X115280000Y-88640000I-150000J0D01*
G01*
D11*
X113930000Y-85680000D02*
G75*
G02*
X113870000Y-85680000I-30000J0D01*
G01*
X113870000Y-85680000D02*
G75*
G02*
X113930000Y-85680000I30000J0D01*
G01*
%TO.C,U6*%
D13*
X117180000Y-84605000D02*
X117730000Y-84605000D01*
X117180000Y-85155000D02*
X117180000Y-84605000D01*
X117180000Y-90825000D02*
X117180000Y-90275000D01*
X117730000Y-90825000D02*
X117180000Y-90825000D01*
X122850000Y-84605000D02*
X123400000Y-84605000D01*
X123400000Y-84605000D02*
X123400000Y-85155000D01*
X123400000Y-90275000D02*
X123400000Y-90825000D01*
X123400000Y-90825000D02*
X122850000Y-90825000D01*
X116680000Y-85515000D02*
X116350000Y-85755000D01*
X116350000Y-85275000D01*
X116680000Y-85515000D01*
G36*
X116680000Y-85515000D02*
G01*
X116350000Y-85755000D01*
X116350000Y-85275000D01*
X116680000Y-85515000D01*
G37*
%TO.C,R14*%
D10*
X109300000Y-81130000D02*
X110300000Y-81130000D01*
X109300000Y-81840000D02*
X109300000Y-81130000D01*
X109300000Y-82300000D02*
X109300000Y-83010000D01*
X109300000Y-83010000D02*
X110300000Y-83010000D01*
X110300000Y-81130000D02*
X110300000Y-81840000D01*
X110300000Y-83010000D02*
X110300000Y-82300000D01*
D11*
X109580000Y-81570000D02*
G75*
G02*
X109520000Y-81570000I-30000J0D01*
G01*
X109520000Y-81570000D02*
G75*
G02*
X109580000Y-81570000I30000J0D01*
G01*
%TO.C,U4*%
D12*
X94170000Y-94500000D02*
X100170000Y-94500000D01*
D14*
X94170000Y-98200000D02*
X94169999Y-98200000D01*
X94169999Y-98200000D01*
X94169999Y-98200000D01*
X94169999Y-98200000D01*
X94169999Y-98200000D01*
X94169999Y-98200000D01*
X94169999Y-98200000D01*
X94169999Y-98199999D01*
X94169999Y-98199999D01*
X94169999Y-98199999D01*
X94169999Y-98199999D01*
X94169999Y-98199999D01*
X94170000Y-98199999D01*
X94170000Y-98199999D01*
X94170000Y-98199999D01*
X94170000Y-98199999D01*
X94170000Y-98199999D01*
X94170000Y-98199999D01*
X94170000Y-98199999D01*
X94170000Y-98199999D01*
X94170000Y-98199999D01*
X94170000Y-98199999D01*
X94170000Y-98199999D01*
X94170000Y-98199999D01*
X94170001Y-98199999D01*
X94170001Y-98199999D01*
X94170001Y-98199999D01*
X94170001Y-98199999D01*
X94170001Y-98199999D01*
X94170001Y-98199999D01*
X94170001Y-98200000D01*
X94170001Y-98200000D01*
X94170001Y-98200000D01*
X94170001Y-98200000D01*
X94170001Y-98200000D01*
X94170001Y-98200000D01*
X94170001Y-98200000D01*
X94170000Y-98200000D01*
X94170000Y-98200000D02*
X94170001Y-98200000D01*
X94170001Y-98200000D01*
X94170001Y-98200000D01*
X94170001Y-98200000D01*
X94170001Y-98200000D01*
X94170001Y-98200000D01*
X94170001Y-98200001D01*
X94170001Y-98200001D01*
X94170001Y-98200001D01*
X94170001Y-98200001D01*
X94170001Y-98200001D01*
X94170001Y-98200001D01*
X94170001Y-98200001D01*
X94170000Y-98200001D01*
X94170000Y-98200001D01*
X94170000Y-98200001D01*
X94170000Y-98200001D01*
X94170000Y-98200001D01*
X94170000Y-98200001D01*
X94170000Y-98200001D01*
X94170000Y-98200001D01*
X94170000Y-98200001D01*
X94170000Y-98200001D01*
X94170000Y-98200001D01*
X94170000Y-98200001D01*
X94169999Y-98200001D01*
X94169999Y-98200001D01*
X94169999Y-98200001D01*
X94169999Y-98200001D01*
X94169999Y-98200001D01*
X94169999Y-98200001D01*
X94169999Y-98200000D01*
X94169999Y-98200000D01*
X94169999Y-98200000D01*
X94169999Y-98200000D01*
X94169999Y-98200000D01*
X94169999Y-98200000D01*
X94170000Y-98200000D01*
D12*
X94170000Y-98200000D02*
X98420000Y-98200000D01*
X94170000Y-100500000D02*
X94170000Y-94500000D01*
X95870000Y-95420000D02*
X100170000Y-95420000D01*
X95870000Y-96370000D02*
X95870000Y-95420000D01*
X95870000Y-98650000D02*
X100170000Y-98650000D01*
X95870000Y-99600000D02*
X95870000Y-98650000D01*
X97770000Y-96370000D02*
X97770000Y-95420000D01*
X97770000Y-99600000D02*
X97770000Y-98650000D01*
X98420000Y-96850000D02*
X94170000Y-96850000D01*
X98420000Y-98200000D02*
X98420000Y-96850000D01*
X100170000Y-94500000D02*
X101770000Y-94500000D01*
X100170000Y-95600000D02*
X100170000Y-94500000D01*
X100170000Y-96370000D02*
X95870000Y-96370000D01*
X100170000Y-97600000D02*
X100170000Y-97400000D01*
X100170000Y-99600000D02*
X95870000Y-99600000D01*
X100170000Y-100500000D02*
X94170000Y-100500000D01*
X100170000Y-100500000D02*
X100170000Y-99400000D01*
X100170000Y-100500000D02*
X101770000Y-100500000D01*
X100670000Y-94800000D02*
X101370000Y-94950000D01*
X100670000Y-95100000D02*
X100670000Y-94800000D01*
X101370000Y-94950000D02*
X100670000Y-95100000D01*
X101770000Y-94500000D02*
X101770000Y-95400000D01*
X101770000Y-95400000D02*
X100170000Y-95400000D01*
X101770000Y-99600000D02*
X100170000Y-99600000D01*
X101770000Y-100500000D02*
X101770000Y-99600000D01*
D11*
X94070000Y-94370000D02*
G75*
G02*
X94010000Y-94370000I-30000J0D01*
G01*
X94010000Y-94370000D02*
G75*
G02*
X94070000Y-94370000I30000J0D01*
G01*
%TO.C,J3*%
D16*
X125470000Y-100200000D02*
X128900000Y-100200000D01*
X128900000Y-93680000D02*
X125470000Y-93680000D01*
X129320000Y-100730000D02*
G75*
G02*
X129120000Y-100730000I-100000J0D01*
G01*
X129120000Y-100730000D02*
G75*
G02*
X129320000Y-100730000I100000J0D01*
G01*
%TO.C,C19*%
D10*
X110870000Y-84720000D02*
X110870000Y-84220000D01*
X110870000Y-85660000D02*
X110870000Y-85160000D01*
X111020000Y-84070000D02*
X111720000Y-84070000D01*
X111720000Y-85810000D02*
X111020000Y-85810000D01*
X111870000Y-84220000D02*
X111870000Y-84720000D01*
X111870000Y-85160000D02*
X111870000Y-85660000D01*
X110870000Y-84220000D02*
G75*
G02*
X111020000Y-84070000I150000J0D01*
G01*
X111020000Y-85810000D02*
G75*
G02*
X110870000Y-85660000I0J150000D01*
G01*
X111720000Y-84070000D02*
G75*
G02*
X111870000Y-84220000I0J-150000D01*
G01*
X111870000Y-85660000D02*
G75*
G02*
X111720000Y-85810000I-150000J0D01*
G01*
D11*
X111150000Y-84440000D02*
G75*
G02*
X111090000Y-84440000I-30000J0D01*
G01*
X111090000Y-84440000D02*
G75*
G02*
X111150000Y-84440000I30000J0D01*
G01*
%TO.C,L3*%
D10*
X131570000Y-86870000D02*
X131570000Y-87230000D01*
X131570000Y-87930000D02*
X131570000Y-87570000D01*
X131720000Y-86710000D02*
X131570000Y-86870000D01*
X131720000Y-88090000D02*
X131570000Y-87930000D01*
X132200000Y-86710000D02*
X131720000Y-86710000D01*
X132200000Y-88090000D02*
X131720000Y-88090000D01*
X132350000Y-86870000D02*
X132200000Y-86710000D01*
X132350000Y-87230000D02*
X132350000Y-86870000D01*
X132350000Y-87570000D02*
X132350000Y-87930000D01*
X132350000Y-87930000D02*
X132200000Y-88090000D01*
D11*
X132140000Y-87700000D02*
G75*
G02*
X132080000Y-87700000I-30000J0D01*
G01*
X132080000Y-87700000D02*
G75*
G02*
X132140000Y-87700000I30000J0D01*
G01*
%TO.C,R13*%
D10*
X105530000Y-91270000D02*
X105530000Y-91980000D01*
X105530000Y-93150000D02*
X105530000Y-92440000D01*
X106530000Y-91270000D02*
X105530000Y-91270000D01*
X106530000Y-91980000D02*
X106530000Y-91270000D01*
X106530000Y-92440000D02*
X106530000Y-93150000D01*
X106530000Y-93150000D02*
X105530000Y-93150000D01*
D11*
X106310000Y-92710000D02*
G75*
G02*
X106250000Y-92710000I-30000J0D01*
G01*
X106250000Y-92710000D02*
G75*
G02*
X106310000Y-92710000I30000J0D01*
G01*
%TO.C,R5*%
D10*
X118370000Y-69890000D02*
X118370000Y-70890000D01*
X118370000Y-70890000D02*
X119080000Y-70890000D01*
X119080000Y-69890000D02*
X118370000Y-69890000D01*
X119540000Y-69890000D02*
X120250000Y-69890000D01*
X120250000Y-69890000D02*
X120250000Y-70890000D01*
X120250000Y-70890000D02*
X119540000Y-70890000D01*
D11*
X119840000Y-70140000D02*
G75*
G02*
X119780000Y-70140000I-30000J0D01*
G01*
X119780000Y-70140000D02*
G75*
G02*
X119840000Y-70140000I30000J0D01*
G01*
%TO.C,R6*%
D10*
X129350000Y-75240000D02*
X130350000Y-75240000D01*
X129350000Y-75950000D02*
X129350000Y-75240000D01*
X129350000Y-76410000D02*
X129350000Y-77120000D01*
X129350000Y-77120000D02*
X130350000Y-77120000D01*
X130350000Y-75240000D02*
X130350000Y-75950000D01*
X130350000Y-77120000D02*
X130350000Y-76410000D01*
D11*
X129630000Y-75680000D02*
G75*
G02*
X129570000Y-75680000I-30000J0D01*
G01*
X129570000Y-75680000D02*
G75*
G02*
X129630000Y-75680000I30000J0D01*
G01*
%TO.C,R11*%
D10*
X129240000Y-86820000D02*
X129940000Y-86820000D01*
X129240000Y-88220000D02*
X129940000Y-88220000D01*
D11*
X129980000Y-88070000D02*
G75*
G02*
X129920000Y-88070000I-30000J0D01*
G01*
X129920000Y-88070000D02*
G75*
G02*
X129980000Y-88070000I30000J0D01*
G01*
D17*
X130420000Y-87900000D02*
G75*
G02*
X130280000Y-87900000I-70000J0D01*
G01*
X130280000Y-87900000D02*
G75*
G02*
X130420000Y-87900000I70000J0D01*
G01*
%TO.C,C5*%
D10*
X126550000Y-87820000D02*
X126550000Y-88180000D01*
X126550000Y-88880000D02*
X126550000Y-88520000D01*
X127180000Y-87660000D02*
X126700000Y-87660000D01*
X127180000Y-89040000D02*
X126700000Y-89040000D01*
X127330000Y-88180000D02*
X127330000Y-87820000D01*
X127330000Y-88520000D02*
X127330000Y-88880000D01*
X126550000Y-87820000D02*
G75*
G02*
X126700000Y-87670000I150000J0D01*
G01*
X126700000Y-89030000D02*
G75*
G02*
X126550000Y-88880000I0J150000D01*
G01*
X127180000Y-87660000D02*
G75*
G02*
X127340000Y-87820000I0J-160000D01*
G01*
X127340000Y-88880000D02*
G75*
G02*
X127180000Y-89040000I-160000J0D01*
G01*
D11*
X127120000Y-88650000D02*
G75*
G02*
X127060000Y-88650000I-30000J0D01*
G01*
X127060000Y-88650000D02*
G75*
G02*
X127120000Y-88650000I30000J0D01*
G01*
%TO.C,C3*%
D12*
X112480000Y-89280000D02*
X112480000Y-88480000D01*
X112480000Y-89840000D02*
X112480000Y-90640000D01*
X112790000Y-88170000D02*
X113590000Y-88170000D01*
X113590000Y-90950000D02*
X112790000Y-90950000D01*
X113900000Y-89280000D02*
X113900000Y-88480000D01*
X113900000Y-89840000D02*
X113900000Y-90640000D01*
X112480000Y-88480000D02*
G75*
G02*
X112790000Y-88170000I310000J0D01*
G01*
X112790000Y-90950000D02*
G75*
G02*
X112480000Y-90640000I0J310000D01*
G01*
X113590000Y-88170000D02*
G75*
G02*
X113900000Y-88480000I0J-310000D01*
G01*
X113900000Y-90640000D02*
G75*
G02*
X113590000Y-90950000I-310000J0D01*
G01*
D11*
X113620000Y-90360000D02*
G75*
G02*
X113560000Y-90360000I-30000J0D01*
G01*
X113560000Y-90360000D02*
G75*
G02*
X113620000Y-90360000I30000J0D01*
G01*
%TO.C,C15*%
D12*
X128560000Y-84940000D02*
X128560000Y-84140000D01*
X128560000Y-85500000D02*
X128560000Y-86300000D01*
X128870000Y-83830000D02*
X129670000Y-83830000D01*
X129670000Y-86610000D02*
X128870000Y-86610000D01*
X129980000Y-84940000D02*
X129980000Y-84140000D01*
X129980000Y-85500000D02*
X129980000Y-86300000D01*
X128560000Y-84140000D02*
G75*
G02*
X128870000Y-83830000I310000J0D01*
G01*
X128870000Y-86610000D02*
G75*
G02*
X128560000Y-86300000I0J310000D01*
G01*
X129670000Y-83830000D02*
G75*
G02*
X129980000Y-84140000I0J-310000D01*
G01*
X129980000Y-86300000D02*
G75*
G02*
X129670000Y-86610000I-310000J0D01*
G01*
D11*
X128900000Y-84420000D02*
G75*
G02*
X128840000Y-84420000I-30000J0D01*
G01*
X128840000Y-84420000D02*
G75*
G02*
X128900000Y-84420000I30000J0D01*
G01*
%TO.C,L5*%
D10*
X124260000Y-87270000D02*
X124420000Y-87120000D01*
X124260000Y-87750000D02*
X124260000Y-87270000D01*
X124420000Y-87120000D02*
X124780000Y-87120000D01*
X124420000Y-87900000D02*
X124260000Y-87750000D01*
X124780000Y-87900000D02*
X124420000Y-87900000D01*
X125120000Y-87900000D02*
X125480000Y-87900000D01*
X125480000Y-87120000D02*
X125120000Y-87120000D01*
X125480000Y-87900000D02*
X125640000Y-87750000D01*
X125640000Y-87270000D02*
X125480000Y-87120000D01*
X125640000Y-87750000D02*
X125640000Y-87270000D01*
D11*
X124680000Y-87660000D02*
G75*
G02*
X124620000Y-87660000I-30000J0D01*
G01*
X124620000Y-87660000D02*
G75*
G02*
X124680000Y-87660000I30000J0D01*
G01*
%TO.C,C20*%
D10*
X100720000Y-89950000D02*
X100720000Y-88540000D01*
X100720000Y-90750000D02*
X100720000Y-92160000D01*
X100870000Y-88390000D02*
X102370000Y-88390000D01*
X100870000Y-92310000D02*
X102370000Y-92310000D01*
X102520000Y-88540000D02*
X102520000Y-89950000D01*
X102520000Y-92160000D02*
X102520000Y-90750000D01*
X100720000Y-88540000D02*
G75*
G02*
X100870000Y-88390000I150000J0D01*
G01*
X100870000Y-92310000D02*
G75*
G02*
X100720000Y-92160000I0J150000D01*
G01*
X102370000Y-88390000D02*
G75*
G02*
X102520000Y-88540000I0J-150000D01*
G01*
X102520000Y-92160000D02*
G75*
G02*
X102370000Y-92310000I-150000J0D01*
G01*
D11*
X101020000Y-89350000D02*
G75*
G02*
X100960000Y-89350000I-30000J0D01*
G01*
X100960000Y-89350000D02*
G75*
G02*
X101020000Y-89350000I30000J0D01*
G01*
%TO.C,R2*%
D10*
X103690000Y-73050000D02*
X103690000Y-73760000D01*
X103690000Y-74930000D02*
X103690000Y-74220000D01*
X104690000Y-73050000D02*
X103690000Y-73050000D01*
X104690000Y-73760000D02*
X104690000Y-73050000D01*
X104690000Y-74220000D02*
X104690000Y-74930000D01*
X104690000Y-74930000D02*
X103690000Y-74930000D01*
D11*
X104470000Y-74490000D02*
G75*
G02*
X104410000Y-74490000I-30000J0D01*
G01*
X104410000Y-74490000D02*
G75*
G02*
X104470000Y-74490000I30000J0D01*
G01*
%TO.C,L7*%
D10*
X117730000Y-82780000D02*
X117880000Y-82650000D01*
X117730000Y-83800000D02*
X117730000Y-82780000D01*
X117880000Y-82650000D02*
X118640000Y-82650000D01*
X117880000Y-83950000D02*
X117730000Y-83800000D01*
X117880000Y-83950000D02*
X118640000Y-83950000D01*
X120420000Y-82650000D02*
X119660000Y-82650000D01*
X120420000Y-82650000D02*
X120570000Y-82800000D01*
X120420000Y-83950000D02*
X119660000Y-83950000D01*
X120570000Y-82800000D02*
X120570000Y-83820000D01*
X120570000Y-83820000D02*
X120420000Y-83950000D01*
D11*
X118380000Y-83700000D02*
G75*
G02*
X118320000Y-83700000I-30000J0D01*
G01*
X118320000Y-83700000D02*
G75*
G02*
X118380000Y-83700000I30000J0D01*
G01*
%TO.C,C13*%
D10*
X128180000Y-88140000D02*
X128180000Y-87780000D01*
X128180000Y-88480000D02*
X128180000Y-88840000D01*
X128330000Y-87620000D02*
X128810000Y-87620000D01*
X128330000Y-89000000D02*
X128810000Y-89000000D01*
X128960000Y-87780000D02*
X128960000Y-88140000D01*
X128960000Y-88840000D02*
X128960000Y-88480000D01*
X128170000Y-87780000D02*
G75*
G02*
X128330000Y-87620000I160000J0D01*
G01*
X128330000Y-89000000D02*
G75*
G02*
X128170000Y-88840000I0J160000D01*
G01*
X128810000Y-87630000D02*
G75*
G02*
X128960000Y-87780000I0J-150000D01*
G01*
X128960000Y-88840000D02*
G75*
G02*
X128810000Y-88990000I-150000J0D01*
G01*
D11*
X128450000Y-88010000D02*
G75*
G02*
X128390000Y-88010000I-30000J0D01*
G01*
X128390000Y-88010000D02*
G75*
G02*
X128450000Y-88010000I30000J0D01*
G01*
%TO.C,R12*%
D10*
X107060000Y-91380000D02*
X108060000Y-91380000D01*
X107060000Y-92090000D02*
X107060000Y-91380000D01*
X107060000Y-92550000D02*
X107060000Y-93260000D01*
X107060000Y-93260000D02*
X108060000Y-93260000D01*
X108060000Y-91380000D02*
X108060000Y-92090000D01*
X108060000Y-93260000D02*
X108060000Y-92550000D01*
D11*
X107340000Y-91820000D02*
G75*
G02*
X107280000Y-91820000I-30000J0D01*
G01*
X107280000Y-91820000D02*
G75*
G02*
X107340000Y-91820000I30000J0D01*
G01*
%TO.C,R7*%
D10*
X130670000Y-75230000D02*
X130670000Y-75940000D01*
X130670000Y-77110000D02*
X130670000Y-76400000D01*
X131670000Y-75230000D02*
X130670000Y-75230000D01*
X131670000Y-75940000D02*
X131670000Y-75230000D01*
X131670000Y-76400000D02*
X131670000Y-77110000D01*
X131670000Y-77110000D02*
X130670000Y-77110000D01*
D11*
X131450000Y-76670000D02*
G75*
G02*
X131390000Y-76670000I-30000J0D01*
G01*
X131390000Y-76670000D02*
G75*
G02*
X131450000Y-76670000I30000J0D01*
G01*
%TO.C,C11*%
D10*
X123070000Y-82340000D02*
X123070000Y-82700000D01*
X123070000Y-83400000D02*
X123070000Y-83040000D01*
X123700000Y-82180000D02*
X123220000Y-82180000D01*
X123700000Y-83560000D02*
X123220000Y-83560000D01*
X123850000Y-82700000D02*
X123850000Y-82340000D01*
X123850000Y-83040000D02*
X123850000Y-83400000D01*
X123070000Y-82340000D02*
G75*
G02*
X123220000Y-82190000I150000J0D01*
G01*
X123220000Y-83550000D02*
G75*
G02*
X123070000Y-83400000I0J150000D01*
G01*
X123700000Y-82180000D02*
G75*
G02*
X123860000Y-82340000I0J-160000D01*
G01*
X123860000Y-83400000D02*
G75*
G02*
X123700000Y-83560000I-160000J0D01*
G01*
D11*
X123640000Y-83170000D02*
G75*
G02*
X123580000Y-83170000I-30000J0D01*
G01*
X123580000Y-83170000D02*
G75*
G02*
X123640000Y-83170000I30000J0D01*
G01*
%TO.C,L2*%
D10*
X132230000Y-86880000D02*
X132230000Y-87240000D01*
X132230000Y-87940000D02*
X132230000Y-87580000D01*
X132380000Y-86720000D02*
X132230000Y-86880000D01*
X132380000Y-88100000D02*
X132230000Y-87940000D01*
X132860000Y-86720000D02*
X132380000Y-86720000D01*
X132860000Y-88100000D02*
X132380000Y-88100000D01*
X133010000Y-86880000D02*
X132860000Y-86720000D01*
X133010000Y-87240000D02*
X133010000Y-86880000D01*
X133010000Y-87580000D02*
X133010000Y-87940000D01*
X133010000Y-87940000D02*
X132860000Y-88100000D01*
D11*
X132800000Y-87710000D02*
G75*
G02*
X132740000Y-87710000I-30000J0D01*
G01*
X132740000Y-87710000D02*
G75*
G02*
X132800000Y-87710000I30000J0D01*
G01*
%TO.C,C1*%
D10*
X122320000Y-82300000D02*
X122320000Y-82660000D01*
X122320000Y-83360000D02*
X122320000Y-83000000D01*
X122950000Y-82140000D02*
X122470000Y-82140000D01*
X122950000Y-83520000D02*
X122470000Y-83520000D01*
X123100000Y-82660000D02*
X123100000Y-82300000D01*
X123100000Y-83000000D02*
X123100000Y-83360000D01*
X122320000Y-82300000D02*
G75*
G02*
X122470000Y-82150000I150000J0D01*
G01*
X122470000Y-83510000D02*
G75*
G02*
X122320000Y-83360000I0J150000D01*
G01*
X122950000Y-82140000D02*
G75*
G02*
X123110000Y-82300000I0J-160000D01*
G01*
X123110000Y-83360000D02*
G75*
G02*
X122950000Y-83520000I-160000J0D01*
G01*
D11*
X122890000Y-83130000D02*
G75*
G02*
X122830000Y-83130000I-30000J0D01*
G01*
X122830000Y-83130000D02*
G75*
G02*
X122890000Y-83130000I30000J0D01*
G01*
%TO.C,C16*%
D12*
X97040000Y-90270000D02*
X97040000Y-89470000D01*
X97040000Y-90830000D02*
X97040000Y-91630000D01*
X97350000Y-89160000D02*
X98150000Y-89160000D01*
X98150000Y-91940000D02*
X97350000Y-91940000D01*
X98460000Y-90270000D02*
X98460000Y-89470000D01*
X98460000Y-90830000D02*
X98460000Y-91630000D01*
X97040000Y-89470000D02*
G75*
G02*
X97350000Y-89160000I310000J0D01*
G01*
X97350000Y-91940000D02*
G75*
G02*
X97040000Y-91630000I0J310000D01*
G01*
X98150000Y-89160000D02*
G75*
G02*
X98460000Y-89470000I0J-310000D01*
G01*
X98460000Y-91630000D02*
G75*
G02*
X98150000Y-91940000I-310000J0D01*
G01*
D11*
X97380000Y-89750000D02*
G75*
G02*
X97320000Y-89750000I-30000J0D01*
G01*
X97320000Y-89750000D02*
G75*
G02*
X97380000Y-89750000I30000J0D01*
G01*
%TO.C,R10*%
D10*
X110560000Y-92240000D02*
X110560000Y-93560000D01*
X110560000Y-93560000D02*
X111520000Y-93560000D01*
X111520000Y-92240000D02*
X110560000Y-92240000D01*
X112380000Y-92240000D02*
X113340000Y-92240000D01*
X113340000Y-92240000D02*
X113340000Y-93560000D01*
X113340000Y-93560000D02*
X112380000Y-93560000D01*
D11*
X112780000Y-92500000D02*
G75*
G02*
X112720000Y-92500000I-30000J0D01*
G01*
X112720000Y-92500000D02*
G75*
G02*
X112780000Y-92500000I30000J0D01*
G01*
%TO.C,C17*%
D10*
X103850000Y-82070000D02*
X103850000Y-80660000D01*
X103850000Y-82870000D02*
X103850000Y-84280000D01*
X104000000Y-80510000D02*
X105500000Y-80510000D01*
X104000000Y-84430000D02*
X105500000Y-84430000D01*
X105650000Y-80660000D02*
X105650000Y-82070000D01*
X105650000Y-84280000D02*
X105650000Y-82870000D01*
X103850000Y-80660000D02*
G75*
G02*
X104000000Y-80510000I150000J0D01*
G01*
X104000000Y-84430000D02*
G75*
G02*
X103850000Y-84280000I0J150000D01*
G01*
X105500000Y-80510000D02*
G75*
G02*
X105650000Y-80660000I0J-150000D01*
G01*
X105650000Y-84280000D02*
G75*
G02*
X105500000Y-84430000I-150000J0D01*
G01*
D11*
X104150000Y-81470000D02*
G75*
G02*
X104090000Y-81470000I-30000J0D01*
G01*
X104090000Y-81470000D02*
G75*
G02*
X104150000Y-81470000I30000J0D01*
G01*
%TO.C,L8*%
D10*
X126990000Y-87290000D02*
X127150000Y-87140000D01*
X126990000Y-87770000D02*
X126990000Y-87290000D01*
X127150000Y-87140000D02*
X127510000Y-87140000D01*
X127150000Y-87920000D02*
X126990000Y-87770000D01*
X127510000Y-87920000D02*
X127150000Y-87920000D01*
X127850000Y-87920000D02*
X128210000Y-87920000D01*
X128210000Y-87140000D02*
X127850000Y-87140000D01*
X128210000Y-87920000D02*
X128370000Y-87770000D01*
X128370000Y-87290000D02*
X128210000Y-87140000D01*
X128370000Y-87770000D02*
X128370000Y-87290000D01*
D11*
X127410000Y-87680000D02*
G75*
G02*
X127350000Y-87680000I-30000J0D01*
G01*
X127350000Y-87680000D02*
G75*
G02*
X127410000Y-87680000I30000J0D01*
G01*
%TO.C,C12*%
D10*
X130330000Y-87370000D02*
X130330000Y-86890000D01*
X130490000Y-86740000D02*
X130850000Y-86740000D01*
X130850000Y-87520000D02*
X130490000Y-87520000D01*
X131190000Y-87520000D02*
X131550000Y-87520000D01*
X131550000Y-86740000D02*
X131190000Y-86740000D01*
X131710000Y-87370000D02*
X131710000Y-86890000D01*
X130340000Y-86890000D02*
G75*
G02*
X130490000Y-86740000I150000J0D01*
G01*
X130490000Y-87530000D02*
G75*
G02*
X130330000Y-87370000I0J160000D01*
G01*
X131550000Y-86740000D02*
G75*
G02*
X131700000Y-86890000I0J-150000D01*
G01*
X131710000Y-87370000D02*
G75*
G02*
X131550000Y-87530000I-160000J0D01*
G01*
D11*
X130750000Y-87280000D02*
G75*
G02*
X130690000Y-87280000I-30000J0D01*
G01*
X130690000Y-87280000D02*
G75*
G02*
X130750000Y-87280000I30000J0D01*
G01*
%TO.C,C27*%
D10*
X115430000Y-72150000D02*
X115430000Y-73560000D01*
X115430000Y-75770000D02*
X115430000Y-74360000D01*
X117080000Y-72000000D02*
X115580000Y-72000000D01*
X117080000Y-75920000D02*
X115580000Y-75920000D01*
X117230000Y-73560000D02*
X117230000Y-72150000D01*
X117230000Y-74360000D02*
X117230000Y-75770000D01*
X115430000Y-72150000D02*
G75*
G02*
X115580000Y-72000000I150000J0D01*
G01*
X115580000Y-75920000D02*
G75*
G02*
X115430000Y-75770000I0J150000D01*
G01*
X117080000Y-72000000D02*
G75*
G02*
X117230000Y-72150000I0J-150000D01*
G01*
X117230000Y-75770000D02*
G75*
G02*
X117080000Y-75920000I-150000J0D01*
G01*
D11*
X116990000Y-74960000D02*
G75*
G02*
X116930000Y-74960000I-30000J0D01*
G01*
X116930000Y-74960000D02*
G75*
G02*
X116990000Y-74960000I30000J0D01*
G01*
%TO.C,C9*%
D10*
X121510000Y-82540000D02*
X121510000Y-82040000D01*
X121510000Y-83480000D02*
X121510000Y-82980000D01*
X121660000Y-81890000D02*
X122360000Y-81890000D01*
X122360000Y-83630000D02*
X121660000Y-83630000D01*
X122510000Y-82040000D02*
X122510000Y-82540000D01*
X122510000Y-82980000D02*
X122510000Y-83480000D01*
X121510000Y-82040000D02*
G75*
G02*
X121660000Y-81890000I150000J0D01*
G01*
X121660000Y-83630000D02*
G75*
G02*
X121510000Y-83480000I0J150000D01*
G01*
X122360000Y-81890000D02*
G75*
G02*
X122510000Y-82040000I0J-150000D01*
G01*
X122510000Y-83480000D02*
G75*
G02*
X122360000Y-83630000I-150000J0D01*
G01*
D11*
X122290000Y-83260000D02*
G75*
G02*
X122230000Y-83260000I-30000J0D01*
G01*
X122230000Y-83260000D02*
G75*
G02*
X122290000Y-83260000I30000J0D01*
G01*
%TO.C,C8*%
D10*
X125210000Y-87830000D02*
X125210000Y-88190000D01*
X125210000Y-88890000D02*
X125210000Y-88530000D01*
X125840000Y-87670000D02*
X125360000Y-87670000D01*
X125840000Y-89050000D02*
X125360000Y-89050000D01*
X125990000Y-88190000D02*
X125990000Y-87830000D01*
X125990000Y-88530000D02*
X125990000Y-88890000D01*
X125210000Y-87830000D02*
G75*
G02*
X125360000Y-87680000I150000J0D01*
G01*
X125360000Y-89040000D02*
G75*
G02*
X125210000Y-88890000I0J150000D01*
G01*
X125840000Y-87670000D02*
G75*
G02*
X126000000Y-87830000I0J-160000D01*
G01*
X126000000Y-88890000D02*
G75*
G02*
X125840000Y-89050000I-160000J0D01*
G01*
D11*
X125780000Y-88660000D02*
G75*
G02*
X125720000Y-88660000I-30000J0D01*
G01*
X125720000Y-88660000D02*
G75*
G02*
X125780000Y-88660000I30000J0D01*
G01*
%TD*%
M02*
