M48
; DRILL file KiCad 10.0.0 date 2026-07-18T14:48:30
; FORMAT={-:-/ absolute / metric / decimal}
; #@! TF.CreationDate,2026-07-18T14:48:30-04:00
; #@! TF.GenerationSoftware,Kicad,Pcbnew,10.0.0
; #@! TF.FileFunction,MixedPlating,1,4
FMAT,2
METRIC
; #@! TA.AperFunction,Plated,PTH,ViaDrill
T1C0.200
; #@! TA.AperFunction,Plated,PTH,ComponentDrill
T2C0.200
; #@! TA.AperFunction,Plated,PTH,ViaDrill
T3C0.300
; #@! TA.AperFunction,Plated,PTH,ComponentDrill
T4C0.800
; #@! TA.AperFunction,Plated,PTH,ComponentDrill
T5C0.900
; #@! TA.AperFunction,NonPlated,NPTH,ComponentDrill
T6C0.750
%
G90
G05
T1
X108.99Y-87.81
T2
X105.54Y-86.56
X105.54Y-87.56
X105.54Y-88.56
X106.54Y-86.56
X106.54Y-87.56
X106.54Y-88.56
X107.54Y-86.56
X107.54Y-87.56
X107.54Y-88.56
X118.49Y-85.915
X118.49Y-87.115
X118.49Y-88.315
X118.49Y-89.515
X119.69Y-85.915
X119.69Y-87.115
X119.69Y-88.315
X119.69Y-89.515
X120.89Y-85.915
X120.89Y-87.115
X120.89Y-88.315
X120.89Y-89.515
X122.09Y-85.915
X122.09Y-87.115
X122.09Y-88.315
X122.09Y-89.515
T3
X95.55Y-88.55
X95.575Y-86.475
X95.625Y-81.5
X95.7Y-84.05
X95.775Y-93.175
X96.78Y-89.92
X98.025Y-81.375
X98.3Y-88.97
X99.71Y-86.74
X100.5Y-93.425
X101.3Y-88.23
X102.36Y-98.44
X102.4Y-83.04
X102.57Y-92.83
X102.695Y-88.56
X103.1Y-69.7
X103.2Y-87.81
X103.54Y-74.46
X103.56Y-75.48
X103.632Y-95.123
X103.65Y-91.18
X104.05Y-79.67
X104.32Y-100.43
X104.725Y-70.1
X104.89Y-91.8
X105.16Y-72.51
X105.16Y-77.46
X105.86Y-81.47
X105.97Y-96.423
X106.0Y-70.85
X106.02Y-76.57
X106.045Y-83.185
X106.66Y-79.6
X106.85Y-71.825
X106.925Y-73.475
X107.315Y-94.59
X107.8Y-81.35
X108.49Y-91.02
X108.63Y-93.87
X108.72Y-94.97
X108.99Y-85.5
X109.705Y-94.065
X109.76Y-83.23
X109.85Y-76.81
X110.53Y-78.03
X110.54Y-85.63
X111.991Y-88.89
X112.05Y-84.52
X112.15Y-100.32
X112.525Y-78.95
X112.715Y-93.58
X112.95Y-87.13
X113.0Y-92.125
X113.19Y-88.72
X113.49Y-82.09
X114.15Y-91.17
X114.56Y-84.45
X114.6Y-91.72
X115.215Y-89.405
X115.57Y-95.81
X115.65Y-85.49
X116.28Y-86.75
X116.35Y-76.01
X116.71Y-84.86
X116.975Y-100.325
X117.175Y-93.35
X118.02Y-79.88
X118.175Y-71.675
X118.55Y-96.625
X118.96Y-82.17
X119.82Y-71.14
X121.39Y-92.36
X121.65Y-99.575
X121.725Y-98.2
X122.02Y-81.77
X122.125Y-73.825
X122.57Y-71.7
X122.575Y-96.65
X122.71Y-82.12
X123.2Y-91.78
X123.21Y-84.85
X123.46Y-83.58
X123.55Y-72.06
X123.86Y-82.6
X124.265Y-86.825
X124.587Y-88.265
X124.587Y-89.62
X124.92Y-86.76
X124.93Y-83.9
X125.075Y-93.05
X125.475Y-69.55
X125.71Y-86.75
X126.1Y-88.63
X126.55Y-86.76
X126.9Y-90.375
X126.94Y-89.22
X126.96Y-80.46
X127.07Y-85.82
X127.31Y-86.75
X127.73Y-88.17
X127.73Y-89.53
X127.75Y-88.84
X128.03Y-85.852
X128.1Y-92.325
X128.14Y-86.75
X128.59Y-89.17
X129.11Y-91.3
X129.86Y-88.65
X130.07Y-84.51
X130.175Y-69.475
X130.18Y-86.52
X130.63Y-87.74
X130.8Y-92.89
X130.88Y-86.51
X131.225Y-96.95
X131.25Y-98.2
X131.275Y-81.2
X131.325Y-94.425
X131.34Y-87.7
X131.4Y-101.025
X131.52Y-72.71
X131.53Y-72.03
X131.59Y-86.49
X131.93Y-76.66
X131.93Y-92.45
X132.33Y-86.48
X132.65Y-88.375
X132.79Y-90.2
X132.88Y-91.06
X133.18Y-86.49
X133.25Y-69.425
X133.42Y-88.19
X133.49Y-90.22
X133.55Y-91.03
X133.775Y-81.275
X133.9Y-100.925
X134.03Y-90.25
X134.15Y-91.01
X134.17Y-88.19
X134.94Y-88.19
X135.15Y-90.3
X135.275Y-91.45
X135.3Y-90.875
X135.7Y-88.19
X136.125Y-80.375
X136.15Y-78.65
X136.15Y-82.375
X136.175Y-76.725
X136.18Y-97.42
X136.2Y-74.075
X136.225Y-71.475
X136.25Y-69.475
X136.25Y-84.4
X136.4Y-100.85
X136.5Y-88.26
X136.85Y-88.7
X137.025Y-90.175
X137.05Y-90.85
X137.05Y-91.525
X137.26Y-89.2
T5
X100.42Y-96.5
X100.42Y-98.5
X109.843Y-74.617
X111.843Y-74.617
T6
X100.25Y-71.94
X100.25Y-77.74
T4
G00X96.87Y-70.51
M15
G01X96.27Y-70.51
M16
G05
G00X96.87Y-79.17
M15
G01X96.27Y-79.17
M16
G05
G00X101.15Y-70.51
M15
G01X100.35Y-70.51
M16
G05
G00X101.15Y-79.17
M15
G01X100.35Y-79.17
M16
G05
M30
