%TF.GenerationSoftware,KiCad,Pcbnew,10.0.0*%
%TF.CreationDate,2026-07-18T14:48:19-04:00*%
%TF.ProjectId,nrf54l15_v2,6e726635-346c-4313-955f-76322e6b6963,rev?*%
%TF.SameCoordinates,Original*%
%TF.FileFunction,Copper,L3,Inr*%
%TF.FilePolarity,Positive*%
%FSLAX46Y46*%
G04 Gerber Fmt 4.6, Leading zero omitted, Abs format (unit mm)*
G04 Created by KiCad (PCBNEW 10.0.0) date 2026-07-18 14:48:19*
%MOMM*%
%LPD*%
G01*
G04 APERTURE LIST*
%TA.AperFunction,ComponentPad*%
%ADD10O,2.000000X1.200000*%
%TD*%
%TA.AperFunction,ComponentPad*%
%ADD11O,1.800000X1.200000*%
%TD*%
%TA.AperFunction,HeatsinkPad*%
%ADD12C,0.500000*%
%TD*%
%TA.AperFunction,ComponentPad*%
%ADD13C,1.400000*%
%TD*%
%TA.AperFunction,ViaPad*%
%ADD14C,0.500000*%
%TD*%
%TA.AperFunction,ViaPad*%
%ADD15C,0.450000*%
%TD*%
%TA.AperFunction,Conductor*%
%ADD16C,0.500000*%
%TD*%
G04 APERTURE END LIST*
D10*
%TO.N,GND*%
%TO.C,J1*%
X100749912Y-79170000D03*
D11*
%TO.N,N/C*%
X96569912Y-79170000D03*
X96569912Y-70510000D03*
D10*
%TO.N,GND*%
X100749912Y-70510000D03*
%TD*%
D12*
%TO.N,GND*%
%TO.C,U2*%
X105540000Y-86560000D03*
X105540000Y-87560000D03*
X105540000Y-88560000D03*
X106540000Y-86560000D03*
X106540000Y-87560000D03*
X106540000Y-88560000D03*
X107540000Y-86560000D03*
X107540000Y-87560000D03*
X107540000Y-88560000D03*
%TD*%
D13*
%TO.N,SOLAR_5p5V*%
%TO.C,U5*%
X111842500Y-74617500D03*
%TO.N,GND*%
X109842500Y-74617500D03*
%TD*%
D12*
%TO.N,GND*%
%TO.C,U6*%
X118490000Y-85915000D03*
X118490000Y-87115000D03*
X118490000Y-88315000D03*
X118490000Y-89515000D03*
X119690000Y-85915000D03*
X119690000Y-87115000D03*
X119690000Y-88315000D03*
X119690000Y-89515000D03*
X120890000Y-85915000D03*
X120890000Y-87115000D03*
X120890000Y-88315000D03*
X120890000Y-89515000D03*
X122090000Y-85915000D03*
X122090000Y-87115000D03*
X122090000Y-88315000D03*
X122090000Y-89515000D03*
%TD*%
D13*
%TO.N,VBAT*%
%TO.C,U4*%
X100420000Y-96500000D03*
%TO.N,GND*%
X100420000Y-98500000D03*
%TD*%
D14*
%TO.N,GND*%
X132650000Y-88375000D03*
X136150000Y-82375000D03*
X122575000Y-96650000D03*
X95550000Y-88550000D03*
X136150000Y-78650000D03*
X129860000Y-88650000D03*
X136500000Y-88260000D03*
X131520000Y-72710000D03*
X131930000Y-76660000D03*
X124920000Y-86760000D03*
X102360000Y-98440000D03*
X113000000Y-92125000D03*
X95775000Y-93175000D03*
X135300000Y-90875000D03*
X134170000Y-88190000D03*
X136200000Y-74075000D03*
X124930000Y-83900000D03*
X118175000Y-71675000D03*
X126940000Y-89220000D03*
X133180000Y-86490000D03*
X127730000Y-89530000D03*
X116975000Y-100325000D03*
X137050000Y-91525000D03*
X114150000Y-91170000D03*
X127730000Y-88170000D03*
X130070000Y-84510000D03*
X112150000Y-100320000D03*
X133250000Y-69425000D03*
X136225000Y-71475000D03*
X136180000Y-97420000D03*
X109850000Y-76810000D03*
X112715000Y-93580000D03*
X135275000Y-91450000D03*
X131530000Y-72030000D03*
X100500000Y-93425000D03*
X125710000Y-86750000D03*
X112950000Y-87130000D03*
X105860000Y-81470000D03*
X128140000Y-86750000D03*
X136250000Y-84400000D03*
X117175000Y-93350000D03*
X104320000Y-100430000D03*
X127750000Y-88840000D03*
X129110000Y-91300000D03*
X119820000Y-71140000D03*
X95575000Y-86475000D03*
X108490000Y-91020000D03*
X122125000Y-73825000D03*
X99710000Y-86740000D03*
X126550000Y-86760000D03*
X135150000Y-90300000D03*
X106000000Y-70850000D03*
X127070000Y-85820000D03*
X133550000Y-91030000D03*
X128590000Y-89170000D03*
X134940000Y-88190000D03*
X95625000Y-81500000D03*
X103100000Y-69700000D03*
X126960000Y-80460000D03*
X136400000Y-100850000D03*
X112050000Y-84520000D03*
X131325000Y-94425000D03*
X131590000Y-86490000D03*
X122020000Y-81770000D03*
X102570000Y-92830000D03*
X133490000Y-90220000D03*
X136125000Y-80375000D03*
X131400000Y-101025000D03*
X126900000Y-90375000D03*
X105970000Y-96423000D03*
X104725000Y-70100000D03*
X123860000Y-82600000D03*
X114560000Y-84450000D03*
X133420000Y-88190000D03*
X107800000Y-81350000D03*
X136250000Y-69475000D03*
X131930000Y-92450000D03*
X125475000Y-69550000D03*
X106925000Y-73475000D03*
X132880000Y-91060000D03*
X128100000Y-92325000D03*
X134150000Y-91010000D03*
X134030000Y-90250000D03*
X132330000Y-86480000D03*
X133775000Y-81275000D03*
X118550000Y-96625000D03*
X96780000Y-89920000D03*
X101300000Y-88230000D03*
X98300000Y-88970000D03*
X131275000Y-81200000D03*
X130180000Y-86520000D03*
X136175000Y-76725000D03*
X126100000Y-88630000D03*
X103560000Y-75480000D03*
X132790000Y-90200000D03*
X130630000Y-87740000D03*
X118960000Y-82170000D03*
X135700000Y-88190000D03*
X98025000Y-81375000D03*
X127310000Y-86750000D03*
X103540000Y-74460000D03*
X111990762Y-88890000D03*
X137025000Y-90175000D03*
X131340000Y-87700000D03*
X104050000Y-79670000D03*
X137050000Y-90850000D03*
X122710000Y-82120000D03*
X133900000Y-100925000D03*
X123550000Y-72060000D03*
X131225000Y-96950000D03*
X122570000Y-71700000D03*
X95700000Y-84050000D03*
X137260000Y-89200000D03*
X130800000Y-92890000D03*
X130175000Y-69475000D03*
X131250000Y-98200000D03*
X112525000Y-78950000D03*
X106850000Y-71825000D03*
X136850000Y-88700000D03*
X116350000Y-76010000D03*
X130880000Y-86510000D03*
%TO.N,CHG_IN*%
X113490000Y-82090000D03*
X118020000Y-79880000D03*
%TO.N,VDDIO*%
X108630000Y-93870000D03*
X104890000Y-91800000D03*
X123210000Y-84850000D03*
X116710000Y-84860000D03*
X106045000Y-83185000D03*
X115570000Y-95810000D03*
X107315000Y-94590000D03*
X115215000Y-89405000D03*
%TO.N,VBUS*%
X105160000Y-72510000D03*
X105160000Y-77460000D03*
%TO.N,CC1*%
X110530000Y-78030000D03*
X110540000Y-85630000D03*
%TO.N,CC2*%
X106020000Y-76570000D03*
X108990000Y-85500000D03*
%TO.N,VOUT1*%
X128030000Y-85852000D03*
X106660000Y-79600000D03*
D15*
%TO.N,/npm1300/VSYS*%
X108990000Y-87810000D03*
D14*
X109760000Y-83230000D03*
X102695000Y-88560000D03*
%TO.N,Net-(U2-SW2)*%
X103200000Y-87810000D03*
X102400000Y-83040000D03*
%TO.N,PMIC_INT*%
X121390000Y-92360000D03*
X103650000Y-91180000D03*
%TO.N,I2C_SDA*%
X115650000Y-85490000D03*
X108720000Y-94970000D03*
%TO.N,I2C_SCL*%
X116280000Y-86750000D03*
X114600000Y-91720000D03*
X109705000Y-94065000D03*
%TO.N,VBAT*%
X113190000Y-88720000D03*
X103632000Y-95123000D03*
%TO.N,Net-(U6-DECA)*%
X124265000Y-86825000D03*
X123460000Y-83580000D03*
%TO.N,nRF54_SWDIO*%
X123200000Y-91780000D03*
X121650000Y-99575000D03*
%TO.N,nRF54_SWDCLK*%
X124587000Y-89620000D03*
X121725000Y-98200000D03*
%TO.N,nRF54_RESET*%
X124587000Y-88265000D03*
X125075000Y-93050000D03*
%TD*%
%TO.N,VBAT*%
D16*
X111220761Y-89540000D02*
X112370000Y-89540000D01*
X105637761Y-95123000D02*
X108825881Y-91934881D01*
X112370000Y-89540000D02*
X113190000Y-88720000D01*
X103632000Y-95123000D02*
X105637761Y-95123000D01*
X109090381Y-91640381D02*
X109090381Y-91670381D01*
X109090381Y-91670381D02*
X111220761Y-89540000D01*
X108825881Y-91934881D02*
X109090381Y-91670381D01*
%TD*%
%TA.AperFunction,Conductor*%
%TO.N,GND*%
G36*
X137562539Y-68580185D02*
G01*
X137608294Y-68632989D01*
X137619500Y-68684500D01*
X137619500Y-101430635D01*
X137599815Y-101497674D01*
X137547011Y-101543429D01*
X137495500Y-101554635D01*
X94364500Y-101554635D01*
X94297461Y-101534950D01*
X94251706Y-101482146D01*
X94240500Y-101430635D01*
X94240500Y-96405513D01*
X99219500Y-96405513D01*
X99219500Y-96594486D01*
X99249059Y-96781118D01*
X99307454Y-96960836D01*
X99393240Y-97129199D01*
X99504310Y-97282073D01*
X99637927Y-97415690D01*
X99790801Y-97526760D01*
X99792695Y-97527725D01*
X99794408Y-97528969D01*
X99794949Y-97529301D01*
X99794922Y-97529343D01*
X99824083Y-97550529D01*
X100331406Y-98057852D01*
X100246302Y-98080656D01*
X100143686Y-98139901D01*
X100059901Y-98223686D01*
X100000656Y-98326302D01*
X99977852Y-98411405D01*
X99412116Y-97845669D01*
X99412116Y-97845670D01*
X99393669Y-97871060D01*
X99307914Y-98039362D01*
X99249548Y-98218997D01*
X99220000Y-98405552D01*
X99220000Y-98594447D01*
X99249548Y-98781002D01*
X99307914Y-98960637D01*
X99393666Y-99128933D01*
X99412116Y-99154328D01*
X99977852Y-98588593D01*
X100000656Y-98673698D01*
X100059901Y-98776314D01*
X100143686Y-98860099D01*
X100246302Y-98919344D01*
X100331405Y-98942147D01*
X99765669Y-99507882D01*
X99765670Y-99507883D01*
X99791059Y-99526329D01*
X99959362Y-99612085D01*
X100138997Y-99670451D01*
X100325553Y-99700000D01*
X100514447Y-99700000D01*
X100701002Y-99670451D01*
X100767269Y-99648920D01*
X120899499Y-99648920D01*
X120928340Y-99793907D01*
X120928343Y-99793917D01*
X120984912Y-99930488D01*
X120984919Y-99930501D01*
X121067048Y-100053415D01*
X121067051Y-100053419D01*
X121171580Y-100157948D01*
X121171584Y-100157951D01*
X121294498Y-100240080D01*
X121294511Y-100240087D01*
X121431082Y-100296656D01*
X121431087Y-100296658D01*
X121431091Y-100296658D01*
X121431092Y-100296659D01*
X121576079Y-100325500D01*
X121576082Y-100325500D01*
X121723920Y-100325500D01*
X121821462Y-100306096D01*
X121868913Y-100296658D01*
X122005495Y-100240084D01*
X122128416Y-100157951D01*
X122232951Y-100053416D01*
X122315084Y-99930495D01*
X122371658Y-99793913D01*
X122400500Y-99648918D01*
X122400500Y-99501082D01*
X122400500Y-99501079D01*
X122371659Y-99356092D01*
X122371658Y-99356091D01*
X122371658Y-99356087D01*
X122371656Y-99356082D01*
X122315087Y-99219511D01*
X122315080Y-99219498D01*
X122232951Y-99096584D01*
X122232948Y-99096580D01*
X122139952Y-99003584D01*
X122106467Y-98942261D01*
X122111451Y-98872569D01*
X122153323Y-98816636D01*
X122158730Y-98812808D01*
X122203416Y-98782951D01*
X122307951Y-98678416D01*
X122390084Y-98555495D01*
X122446658Y-98418913D01*
X122475500Y-98273918D01*
X122475500Y-98126082D01*
X122475500Y-98126079D01*
X122446659Y-97981092D01*
X122446658Y-97981091D01*
X122446658Y-97981087D01*
X122446656Y-97981082D01*
X122390087Y-97844511D01*
X122390080Y-97844498D01*
X122307951Y-97721584D01*
X122307948Y-97721580D01*
X122203419Y-97617051D01*
X122203415Y-97617048D01*
X122080501Y-97534919D01*
X122080488Y-97534912D01*
X121943917Y-97478343D01*
X121943907Y-97478340D01*
X121798920Y-97449500D01*
X121798918Y-97449500D01*
X121651082Y-97449500D01*
X121651080Y-97449500D01*
X121506092Y-97478340D01*
X121506082Y-97478343D01*
X121369511Y-97534912D01*
X121369498Y-97534919D01*
X121246584Y-97617048D01*
X121246580Y-97617051D01*
X121142051Y-97721580D01*
X121142048Y-97721584D01*
X121059919Y-97844498D01*
X121059912Y-97844511D01*
X121003343Y-97981082D01*
X121003340Y-97981092D01*
X120974500Y-98126079D01*
X120974500Y-98126082D01*
X120974500Y-98273918D01*
X120974500Y-98273920D01*
X120974499Y-98273920D01*
X121003340Y-98418907D01*
X121003343Y-98418917D01*
X121059912Y-98555488D01*
X121059919Y-98555501D01*
X121142048Y-98678415D01*
X121142051Y-98678419D01*
X121235047Y-98771415D01*
X121268532Y-98832738D01*
X121263548Y-98902430D01*
X121221676Y-98958363D01*
X121216258Y-98962197D01*
X121171586Y-98992046D01*
X121171580Y-98992051D01*
X121067051Y-99096580D01*
X121067048Y-99096584D01*
X120984919Y-99219498D01*
X120984912Y-99219511D01*
X120928343Y-99356082D01*
X120928340Y-99356092D01*
X120899500Y-99501079D01*
X120899500Y-99501082D01*
X120899500Y-99648918D01*
X120899500Y-99648920D01*
X120899499Y-99648920D01*
X100767269Y-99648920D01*
X100880637Y-99612085D01*
X101048937Y-99526331D01*
X101074328Y-99507883D01*
X101074328Y-99507882D01*
X100508594Y-98942147D01*
X100593698Y-98919344D01*
X100696314Y-98860099D01*
X100780099Y-98776314D01*
X100839344Y-98673698D01*
X100862147Y-98588593D01*
X101427882Y-99154328D01*
X101427883Y-99154328D01*
X101446331Y-99128937D01*
X101532085Y-98960637D01*
X101590451Y-98781002D01*
X101620000Y-98594447D01*
X101620000Y-98405552D01*
X101590451Y-98218997D01*
X101532085Y-98039362D01*
X101446329Y-97871059D01*
X101427883Y-97845670D01*
X101427882Y-97845669D01*
X100862147Y-98411405D01*
X100839344Y-98326302D01*
X100780099Y-98223686D01*
X100696314Y-98139901D01*
X100593698Y-98080656D01*
X100508594Y-98057852D01*
X101015914Y-97550530D01*
X101045072Y-97529347D01*
X101045046Y-97529304D01*
X101045598Y-97528965D01*
X101047308Y-97527723D01*
X101049199Y-97526760D01*
X101202073Y-97415690D01*
X101335690Y-97282073D01*
X101446760Y-97129199D01*
X101532547Y-96960832D01*
X101590940Y-96781118D01*
X101620500Y-96594486D01*
X101620500Y-96405513D01*
X101590940Y-96218881D01*
X101532545Y-96039163D01*
X101453444Y-95883920D01*
X114819499Y-95883920D01*
X114848340Y-96028907D01*
X114848343Y-96028917D01*
X114904912Y-96165488D01*
X114904919Y-96165501D01*
X114987048Y-96288415D01*
X114987051Y-96288419D01*
X115091580Y-96392948D01*
X115091584Y-96392951D01*
X115214498Y-96475080D01*
X115214511Y-96475087D01*
X115351082Y-96531656D01*
X115351087Y-96531658D01*
X115351091Y-96531658D01*
X115351092Y-96531659D01*
X115496079Y-96560500D01*
X115496082Y-96560500D01*
X115643920Y-96560500D01*
X115741462Y-96541096D01*
X115788913Y-96531658D01*
X115925495Y-96475084D01*
X116048416Y-96392951D01*
X116152951Y-96288416D01*
X116235084Y-96165495D01*
X116291658Y-96028913D01*
X116320500Y-95883918D01*
X116320500Y-95736082D01*
X116320500Y-95736081D01*
X116320500Y-95736079D01*
X116291659Y-95591092D01*
X116291658Y-95591091D01*
X116291658Y-95591087D01*
X116275862Y-95552951D01*
X116235087Y-95454511D01*
X116235080Y-95454498D01*
X116152951Y-95331584D01*
X116152948Y-95331580D01*
X116048419Y-95227051D01*
X116048415Y-95227048D01*
X115925501Y-95144919D01*
X115925488Y-95144912D01*
X115788917Y-95088343D01*
X115788907Y-95088340D01*
X115643920Y-95059500D01*
X115643918Y-95059500D01*
X115496082Y-95059500D01*
X115496080Y-95059500D01*
X115351092Y-95088340D01*
X115351082Y-95088343D01*
X115214511Y-95144912D01*
X115214498Y-95144919D01*
X115091584Y-95227048D01*
X115091580Y-95227051D01*
X114987051Y-95331580D01*
X114987048Y-95331584D01*
X114904919Y-95454498D01*
X114904912Y-95454511D01*
X114848343Y-95591082D01*
X114848340Y-95591092D01*
X114819500Y-95736079D01*
X114819500Y-95736081D01*
X114819500Y-95736082D01*
X114819500Y-95883918D01*
X114819500Y-95883920D01*
X114819499Y-95883920D01*
X101453444Y-95883920D01*
X101446759Y-95870800D01*
X101335690Y-95717927D01*
X101202073Y-95584310D01*
X101049199Y-95473240D01*
X100880836Y-95387454D01*
X100701118Y-95329059D01*
X100514486Y-95299500D01*
X100514481Y-95299500D01*
X100325519Y-95299500D01*
X100325514Y-95299500D01*
X100138881Y-95329059D01*
X99959163Y-95387454D01*
X99790800Y-95473240D01*
X99703579Y-95536610D01*
X99637927Y-95584310D01*
X99637925Y-95584312D01*
X99637924Y-95584312D01*
X99504312Y-95717924D01*
X99504312Y-95717925D01*
X99504310Y-95717927D01*
X99491120Y-95736082D01*
X99393240Y-95870800D01*
X99307454Y-96039163D01*
X99249059Y-96218881D01*
X99219500Y-96405513D01*
X94240500Y-96405513D01*
X94240500Y-95196920D01*
X102881499Y-95196920D01*
X102910340Y-95341907D01*
X102910343Y-95341917D01*
X102966912Y-95478488D01*
X102966919Y-95478501D01*
X103049048Y-95601415D01*
X103049051Y-95601419D01*
X103153580Y-95705948D01*
X103153584Y-95705951D01*
X103276498Y-95788080D01*
X103276511Y-95788087D01*
X103413082Y-95844656D01*
X103413087Y-95844658D01*
X103413091Y-95844658D01*
X103413092Y-95844659D01*
X103558079Y-95873500D01*
X103558082Y-95873500D01*
X105711681Y-95873500D01*
X105809223Y-95854096D01*
X105856674Y-95844658D01*
X105993256Y-95788084D01*
X106071083Y-95736082D01*
X106116177Y-95705952D01*
X106655201Y-95166927D01*
X106716522Y-95133444D01*
X106786213Y-95138428D01*
X106830561Y-95166929D01*
X106836580Y-95172948D01*
X106836584Y-95172951D01*
X106959498Y-95255080D01*
X106959511Y-95255087D01*
X107066735Y-95299500D01*
X107096087Y-95311658D01*
X107096091Y-95311658D01*
X107096092Y-95311659D01*
X107241079Y-95340500D01*
X107241082Y-95340500D01*
X107388920Y-95340500D01*
X107486462Y-95321096D01*
X107533913Y-95311658D01*
X107670495Y-95255084D01*
X107793416Y-95172951D01*
X107802419Y-95163947D01*
X107863739Y-95130462D01*
X107933431Y-95135444D01*
X107989366Y-95177313D01*
X108004663Y-95204174D01*
X108054914Y-95325492D01*
X108054919Y-95325501D01*
X108137048Y-95448415D01*
X108137051Y-95448419D01*
X108241580Y-95552948D01*
X108241584Y-95552951D01*
X108364498Y-95635080D01*
X108364511Y-95635087D01*
X108501082Y-95691656D01*
X108501087Y-95691658D01*
X108501091Y-95691658D01*
X108501092Y-95691659D01*
X108646079Y-95720500D01*
X108646082Y-95720500D01*
X108793920Y-95720500D01*
X108891462Y-95701096D01*
X108938913Y-95691658D01*
X109075495Y-95635084D01*
X109082303Y-95630534D01*
X109087762Y-95626888D01*
X109151484Y-95584310D01*
X109198416Y-95552951D01*
X109302951Y-95448416D01*
X109385084Y-95325495D01*
X109390816Y-95311658D01*
X109425861Y-95227051D01*
X109441658Y-95188913D01*
X109461663Y-95088343D01*
X109470500Y-95043920D01*
X109470500Y-94934652D01*
X109490185Y-94867613D01*
X109542989Y-94821858D01*
X109612147Y-94811914D01*
X109618682Y-94813033D01*
X109627038Y-94814695D01*
X109631081Y-94815500D01*
X109631082Y-94815500D01*
X109778920Y-94815500D01*
X109876462Y-94796096D01*
X109923913Y-94786658D01*
X110060495Y-94730084D01*
X110183416Y-94647951D01*
X110287951Y-94543416D01*
X110370084Y-94420495D01*
X110426658Y-94283913D01*
X110436096Y-94236462D01*
X110455500Y-94138920D01*
X110455500Y-93991079D01*
X110426659Y-93846092D01*
X110426658Y-93846091D01*
X110426658Y-93846087D01*
X110426656Y-93846082D01*
X110370087Y-93709511D01*
X110370080Y-93709498D01*
X110287951Y-93586584D01*
X110287948Y-93586580D01*
X110183419Y-93482051D01*
X110183415Y-93482048D01*
X110060501Y-93399919D01*
X110060488Y-93399912D01*
X109923917Y-93343343D01*
X109923907Y-93343340D01*
X109778920Y-93314500D01*
X109778918Y-93314500D01*
X109631082Y-93314500D01*
X109631080Y-93314500D01*
X109486092Y-93343340D01*
X109486086Y-93343342D01*
X109349500Y-93399917D01*
X109347034Y-93401236D01*
X109345597Y-93401534D01*
X109343878Y-93402247D01*
X109343742Y-93401920D01*
X109278629Y-93415467D01*
X109213389Y-93390456D01*
X109200917Y-93379549D01*
X109108419Y-93287051D01*
X109108415Y-93287048D01*
X108985501Y-93204919D01*
X108985491Y-93204914D01*
X108896533Y-93168066D01*
X108842129Y-93124225D01*
X108842027Y-93123920D01*
X124324499Y-93123920D01*
X124353340Y-93268907D01*
X124353343Y-93268917D01*
X124409912Y-93405488D01*
X124409919Y-93405501D01*
X124492048Y-93528415D01*
X124492051Y-93528419D01*
X124596580Y-93632948D01*
X124596584Y-93632951D01*
X124719498Y-93715080D01*
X124719511Y-93715087D01*
X124856082Y-93771656D01*
X124856087Y-93771658D01*
X124856091Y-93771658D01*
X124856092Y-93771659D01*
X125001079Y-93800500D01*
X125001082Y-93800500D01*
X125148920Y-93800500D01*
X125246462Y-93781096D01*
X125293913Y-93771658D01*
X125430495Y-93715084D01*
X125553416Y-93632951D01*
X125657951Y-93528416D01*
X125740084Y-93405495D01*
X125742395Y-93399917D01*
X125765828Y-93343343D01*
X125796658Y-93268913D01*
X125825500Y-93123918D01*
X125825500Y-92976082D01*
X125825500Y-92976079D01*
X125796659Y-92831092D01*
X125796658Y-92831091D01*
X125796658Y-92831087D01*
X125748781Y-92715501D01*
X125740087Y-92694511D01*
X125740080Y-92694498D01*
X125657951Y-92571584D01*
X125657948Y-92571580D01*
X125553419Y-92467051D01*
X125553415Y-92467048D01*
X125430501Y-92384919D01*
X125430488Y-92384912D01*
X125293917Y-92328343D01*
X125293907Y-92328340D01*
X125148920Y-92299500D01*
X125148918Y-92299500D01*
X125001082Y-92299500D01*
X125001080Y-92299500D01*
X124856092Y-92328340D01*
X124856082Y-92328343D01*
X124719511Y-92384912D01*
X124719498Y-92384919D01*
X124596584Y-92467048D01*
X124596580Y-92467051D01*
X124492051Y-92571580D01*
X124492048Y-92571584D01*
X124409919Y-92694498D01*
X124409912Y-92694511D01*
X124353343Y-92831082D01*
X124353340Y-92831092D01*
X124324500Y-92976079D01*
X124324500Y-92976082D01*
X124324500Y-93123918D01*
X124324500Y-93123920D01*
X124324499Y-93123920D01*
X108842027Y-93123920D01*
X108820065Y-93057930D01*
X108837345Y-92990231D01*
X108856301Y-92965828D01*
X109408833Y-92413297D01*
X109408833Y-92413296D01*
X109673332Y-92148797D01*
X110028209Y-91793920D01*
X113849499Y-91793920D01*
X113878340Y-91938907D01*
X113878343Y-91938917D01*
X113934912Y-92075488D01*
X113934919Y-92075501D01*
X114017048Y-92198415D01*
X114017051Y-92198419D01*
X114121580Y-92302948D01*
X114121584Y-92302951D01*
X114244498Y-92385080D01*
X114244511Y-92385087D01*
X114381082Y-92441656D01*
X114381087Y-92441658D01*
X114381091Y-92441658D01*
X114381092Y-92441659D01*
X114526079Y-92470500D01*
X114526082Y-92470500D01*
X114673920Y-92470500D01*
X114771462Y-92451096D01*
X114818913Y-92441658D01*
X114837594Y-92433920D01*
X120639499Y-92433920D01*
X120668340Y-92578907D01*
X120668343Y-92578917D01*
X120724912Y-92715488D01*
X120724919Y-92715501D01*
X120807048Y-92838415D01*
X120807051Y-92838419D01*
X120911580Y-92942948D01*
X120911584Y-92942951D01*
X121034498Y-93025080D01*
X121034511Y-93025087D01*
X121113802Y-93057930D01*
X121171087Y-93081658D01*
X121171091Y-93081658D01*
X121171092Y-93081659D01*
X121316079Y-93110500D01*
X121316082Y-93110500D01*
X121463920Y-93110500D01*
X121561462Y-93091096D01*
X121608913Y-93081658D01*
X121745495Y-93025084D01*
X121868416Y-92942951D01*
X121868419Y-92942948D01*
X121929059Y-92882309D01*
X121972948Y-92838419D01*
X121972951Y-92838416D01*
X122055084Y-92715495D01*
X122111658Y-92578913D01*
X122133223Y-92470500D01*
X122140500Y-92433920D01*
X122140500Y-92286079D01*
X122111659Y-92141092D01*
X122111658Y-92141091D01*
X122111658Y-92141087D01*
X122109339Y-92135488D01*
X122055087Y-92004511D01*
X122055080Y-92004498D01*
X121972951Y-91881584D01*
X121972948Y-91881580D01*
X121945288Y-91853920D01*
X122449499Y-91853920D01*
X122478340Y-91998907D01*
X122478343Y-91998917D01*
X122534912Y-92135488D01*
X122534919Y-92135501D01*
X122617048Y-92258415D01*
X122617051Y-92258419D01*
X122721580Y-92362948D01*
X122721584Y-92362951D01*
X122844498Y-92445080D01*
X122844511Y-92445087D01*
X122981082Y-92501656D01*
X122981087Y-92501658D01*
X122981091Y-92501658D01*
X122981092Y-92501659D01*
X123126079Y-92530500D01*
X123126082Y-92530500D01*
X123273920Y-92530500D01*
X123371462Y-92511096D01*
X123418913Y-92501658D01*
X123555495Y-92445084D01*
X123678416Y-92362951D01*
X123782951Y-92258416D01*
X123865084Y-92135495D01*
X123921658Y-91998913D01*
X123935267Y-91930500D01*
X123950500Y-91853920D01*
X123950500Y-91706079D01*
X123921659Y-91561092D01*
X123921658Y-91561091D01*
X123921658Y-91561087D01*
X123911060Y-91535501D01*
X123865087Y-91424511D01*
X123865080Y-91424498D01*
X123782951Y-91301584D01*
X123782948Y-91301580D01*
X123678419Y-91197051D01*
X123678415Y-91197048D01*
X123555501Y-91114919D01*
X123555488Y-91114912D01*
X123418917Y-91058343D01*
X123418907Y-91058340D01*
X123273920Y-91029500D01*
X123273918Y-91029500D01*
X123126082Y-91029500D01*
X123126080Y-91029500D01*
X122981092Y-91058340D01*
X122981082Y-91058343D01*
X122844511Y-91114912D01*
X122844498Y-91114919D01*
X122721584Y-91197048D01*
X122721580Y-91197051D01*
X122617051Y-91301580D01*
X122617048Y-91301584D01*
X122534919Y-91424498D01*
X122534912Y-91424511D01*
X122478343Y-91561082D01*
X122478340Y-91561092D01*
X122449500Y-91706079D01*
X122449500Y-91706082D01*
X122449500Y-91853918D01*
X122449500Y-91853920D01*
X122449499Y-91853920D01*
X121945288Y-91853920D01*
X121868419Y-91777051D01*
X121868415Y-91777048D01*
X121745501Y-91694919D01*
X121745488Y-91694912D01*
X121608917Y-91638343D01*
X121608907Y-91638340D01*
X121463920Y-91609500D01*
X121463918Y-91609500D01*
X121316082Y-91609500D01*
X121316080Y-91609500D01*
X121171092Y-91638340D01*
X121171082Y-91638343D01*
X121034511Y-91694912D01*
X121034498Y-91694919D01*
X120911584Y-91777048D01*
X120911580Y-91777051D01*
X120807051Y-91881580D01*
X120807048Y-91881584D01*
X120724919Y-92004498D01*
X120724912Y-92004511D01*
X120668343Y-92141082D01*
X120668340Y-92141092D01*
X120639500Y-92286079D01*
X120639500Y-92286082D01*
X120639500Y-92433918D01*
X120639500Y-92433920D01*
X120639499Y-92433920D01*
X114837594Y-92433920D01*
X114955495Y-92385084D01*
X115078416Y-92302951D01*
X115182951Y-92198416D01*
X115265084Y-92075495D01*
X115321658Y-91938913D01*
X115350500Y-91793918D01*
X115350500Y-91646082D01*
X115350500Y-91646079D01*
X115321659Y-91501092D01*
X115321658Y-91501091D01*
X115321658Y-91501087D01*
X115298218Y-91444498D01*
X115265087Y-91364511D01*
X115265080Y-91364498D01*
X115182951Y-91241584D01*
X115182948Y-91241580D01*
X115078419Y-91137051D01*
X115078415Y-91137048D01*
X114955501Y-91054919D01*
X114955488Y-91054912D01*
X114818917Y-90998343D01*
X114818907Y-90998340D01*
X114673920Y-90969500D01*
X114673918Y-90969500D01*
X114526082Y-90969500D01*
X114526080Y-90969500D01*
X114381092Y-90998340D01*
X114381082Y-90998343D01*
X114244511Y-91054912D01*
X114244498Y-91054919D01*
X114121584Y-91137048D01*
X114121580Y-91137051D01*
X114017051Y-91241580D01*
X114017048Y-91241584D01*
X113934919Y-91364498D01*
X113934912Y-91364511D01*
X113878343Y-91501082D01*
X113878340Y-91501092D01*
X113849500Y-91646079D01*
X113849500Y-91646082D01*
X113849500Y-91793918D01*
X113849500Y-91793920D01*
X113849499Y-91793920D01*
X110028209Y-91793920D01*
X111495310Y-90326819D01*
X111556633Y-90293334D01*
X111582991Y-90290500D01*
X112443920Y-90290500D01*
X112541462Y-90271096D01*
X112588913Y-90261658D01*
X112725495Y-90205084D01*
X112744213Y-90192577D01*
X118165975Y-90192577D01*
X118271236Y-90236178D01*
X118271240Y-90236179D01*
X118416126Y-90264999D01*
X118416129Y-90265000D01*
X118563871Y-90265000D01*
X118563873Y-90264999D01*
X118708760Y-90236179D01*
X118708775Y-90236175D01*
X118814024Y-90192578D01*
X118814024Y-90192577D01*
X119365975Y-90192577D01*
X119471236Y-90236178D01*
X119471240Y-90236179D01*
X119616126Y-90264999D01*
X119616129Y-90265000D01*
X119763871Y-90265000D01*
X119763873Y-90264999D01*
X119908760Y-90236179D01*
X119908775Y-90236175D01*
X120014024Y-90192578D01*
X120014024Y-90192577D01*
X120565975Y-90192577D01*
X120671236Y-90236178D01*
X120671240Y-90236179D01*
X120816126Y-90264999D01*
X120816129Y-90265000D01*
X120963871Y-90265000D01*
X120963873Y-90264999D01*
X121108760Y-90236179D01*
X121108775Y-90236175D01*
X121214024Y-90192578D01*
X121214024Y-90192577D01*
X121765975Y-90192577D01*
X121871236Y-90236178D01*
X121871240Y-90236179D01*
X122016126Y-90264999D01*
X122016129Y-90265000D01*
X122163871Y-90265000D01*
X122163873Y-90264999D01*
X122308760Y-90236179D01*
X122308775Y-90236175D01*
X122414024Y-90192578D01*
X122414024Y-90192577D01*
X122090001Y-89868554D01*
X122090000Y-89868554D01*
X121765975Y-90192577D01*
X121214024Y-90192577D01*
X120890001Y-89868554D01*
X120890000Y-89868554D01*
X120565975Y-90192577D01*
X120014024Y-90192577D01*
X119690001Y-89868554D01*
X119690000Y-89868554D01*
X119365975Y-90192577D01*
X118814024Y-90192577D01*
X118490001Y-89868554D01*
X118490000Y-89868554D01*
X118165975Y-90192577D01*
X112744213Y-90192577D01*
X112799703Y-90155500D01*
X112842868Y-90126659D01*
X112848412Y-90122955D01*
X112848412Y-90122954D01*
X112848416Y-90122952D01*
X113492447Y-89478920D01*
X114464499Y-89478920D01*
X114493340Y-89623907D01*
X114493343Y-89623917D01*
X114549912Y-89760488D01*
X114549919Y-89760501D01*
X114632048Y-89883415D01*
X114632051Y-89883419D01*
X114736580Y-89987948D01*
X114736584Y-89987951D01*
X114859498Y-90070080D01*
X114859511Y-90070087D01*
X114987140Y-90122952D01*
X114996087Y-90126658D01*
X114996091Y-90126658D01*
X114996092Y-90126659D01*
X115141079Y-90155500D01*
X115141082Y-90155500D01*
X115288920Y-90155500D01*
X115386462Y-90136096D01*
X115433913Y-90126658D01*
X115570495Y-90070084D01*
X115570502Y-90070078D01*
X115570506Y-90070077D01*
X115602554Y-90048663D01*
X115602558Y-90048661D01*
X115650998Y-90016293D01*
X115693416Y-89987951D01*
X115797951Y-89883416D01*
X115880084Y-89760495D01*
X115936658Y-89623913D01*
X115954366Y-89534891D01*
X115965500Y-89478920D01*
X115965500Y-89441126D01*
X117740000Y-89441126D01*
X117740000Y-89588873D01*
X117768820Y-89733759D01*
X117768822Y-89733767D01*
X117812421Y-89839024D01*
X118136446Y-89515000D01*
X118136446Y-89514999D01*
X118116556Y-89495109D01*
X118390000Y-89495109D01*
X118390000Y-89534891D01*
X118405224Y-89571645D01*
X118433355Y-89599776D01*
X118470109Y-89615000D01*
X118509891Y-89615000D01*
X118546645Y-89599776D01*
X118574776Y-89571645D01*
X118590000Y-89534891D01*
X118590000Y-89515000D01*
X118843554Y-89515000D01*
X119090000Y-89761446D01*
X119336446Y-89515000D01*
X119316555Y-89495109D01*
X119590000Y-89495109D01*
X119590000Y-89534891D01*
X119605224Y-89571645D01*
X119633355Y-89599776D01*
X119670109Y-89615000D01*
X119709891Y-89615000D01*
X119746645Y-89599776D01*
X119774776Y-89571645D01*
X119790000Y-89534891D01*
X119790000Y-89515000D01*
X120043554Y-89515000D01*
X120290000Y-89761446D01*
X120536446Y-89515000D01*
X120516555Y-89495109D01*
X120790000Y-89495109D01*
X120790000Y-89534891D01*
X120805224Y-89571645D01*
X120833355Y-89599776D01*
X120870109Y-89615000D01*
X120909891Y-89615000D01*
X120946645Y-89599776D01*
X120974776Y-89571645D01*
X120990000Y-89534891D01*
X120990000Y-89515000D01*
X121243554Y-89515000D01*
X121490000Y-89761446D01*
X121736446Y-89515000D01*
X121716555Y-89495109D01*
X121990000Y-89495109D01*
X121990000Y-89534891D01*
X122005224Y-89571645D01*
X122033355Y-89599776D01*
X122070109Y-89615000D01*
X122109891Y-89615000D01*
X122146645Y-89599776D01*
X122174776Y-89571645D01*
X122190000Y-89534891D01*
X122190000Y-89514999D01*
X122443554Y-89514999D01*
X122443554Y-89515001D01*
X122767577Y-89839024D01*
X122767578Y-89839024D01*
X122811175Y-89733775D01*
X122811179Y-89733760D01*
X122839999Y-89588873D01*
X122840000Y-89588871D01*
X122840000Y-89441128D01*
X122839999Y-89441126D01*
X122811179Y-89296240D01*
X122811178Y-89296236D01*
X122767577Y-89190975D01*
X122443554Y-89514999D01*
X122190000Y-89514999D01*
X122190000Y-89495109D01*
X122174776Y-89458355D01*
X122146645Y-89430224D01*
X122109891Y-89415000D01*
X122070109Y-89415000D01*
X122033355Y-89430224D01*
X122005224Y-89458355D01*
X121990000Y-89495109D01*
X121716555Y-89495109D01*
X121490000Y-89268554D01*
X121243554Y-89515000D01*
X120990000Y-89515000D01*
X120990000Y-89495109D01*
X120974776Y-89458355D01*
X120946645Y-89430224D01*
X120909891Y-89415000D01*
X120870109Y-89415000D01*
X120833355Y-89430224D01*
X120805224Y-89458355D01*
X120790000Y-89495109D01*
X120516555Y-89495109D01*
X120290000Y-89268554D01*
X120043554Y-89515000D01*
X119790000Y-89515000D01*
X119790000Y-89495109D01*
X119774776Y-89458355D01*
X119746645Y-89430224D01*
X119709891Y-89415000D01*
X119670109Y-89415000D01*
X119633355Y-89430224D01*
X119605224Y-89458355D01*
X119590000Y-89495109D01*
X119316555Y-89495109D01*
X119090000Y-89268554D01*
X118843554Y-89515000D01*
X118590000Y-89515000D01*
X118590000Y-89495109D01*
X118574776Y-89458355D01*
X118546645Y-89430224D01*
X118509891Y-89415000D01*
X118470109Y-89415000D01*
X118433355Y-89430224D01*
X118405224Y-89458355D01*
X118390000Y-89495109D01*
X118116556Y-89495109D01*
X117812421Y-89190974D01*
X117812420Y-89190974D01*
X117768823Y-89296228D01*
X117768820Y-89296240D01*
X117740000Y-89441126D01*
X115965500Y-89441126D01*
X115965500Y-89331079D01*
X115936659Y-89186092D01*
X115936658Y-89186091D01*
X115936658Y-89186087D01*
X115933660Y-89178849D01*
X115880087Y-89049511D01*
X115880080Y-89049498D01*
X115801924Y-88932529D01*
X115797950Y-88926582D01*
X115786368Y-88915000D01*
X118243554Y-88915000D01*
X118490000Y-89161446D01*
X118736446Y-88915000D01*
X119443554Y-88915000D01*
X119690000Y-89161446D01*
X119936446Y-88915000D01*
X120643554Y-88915000D01*
X120890000Y-89161446D01*
X121136446Y-88915000D01*
X121843554Y-88915000D01*
X122090000Y-89161446D01*
X122336446Y-88915000D01*
X122090000Y-88668554D01*
X121843554Y-88915000D01*
X121136446Y-88915000D01*
X120890000Y-88668554D01*
X120643554Y-88915000D01*
X119936446Y-88915000D01*
X119690000Y-88668554D01*
X119443554Y-88915000D01*
X118736446Y-88915000D01*
X118490000Y-88668554D01*
X118243554Y-88915000D01*
X115786368Y-88915000D01*
X115693419Y-88822051D01*
X115693415Y-88822048D01*
X115570501Y-88739919D01*
X115570488Y-88739912D01*
X115433917Y-88683343D01*
X115433907Y-88683340D01*
X115288920Y-88654500D01*
X115288918Y-88654500D01*
X115141082Y-88654500D01*
X115141080Y-88654500D01*
X114996092Y-88683340D01*
X114996082Y-88683343D01*
X114859511Y-88739912D01*
X114859498Y-88739919D01*
X114736584Y-88822048D01*
X114736580Y-88822051D01*
X114632051Y-88926580D01*
X114632048Y-88926584D01*
X114549919Y-89049498D01*
X114549912Y-89049511D01*
X114493343Y-89186082D01*
X114493340Y-89186092D01*
X114464500Y-89331079D01*
X114464500Y-89331082D01*
X114464500Y-89478918D01*
X114464500Y-89478920D01*
X114464499Y-89478920D01*
X113492447Y-89478920D01*
X113772951Y-89198416D01*
X113781189Y-89186087D01*
X113855084Y-89075495D01*
X113911658Y-88938913D01*
X113934904Y-88822051D01*
X113940500Y-88793920D01*
X113940500Y-88646079D01*
X113911659Y-88501092D01*
X113911658Y-88501091D01*
X113911658Y-88501087D01*
X113905443Y-88486082D01*
X113855087Y-88364511D01*
X113855077Y-88364493D01*
X113814611Y-88303931D01*
X113814610Y-88303930D01*
X113772951Y-88241584D01*
X113772948Y-88241580D01*
X113772494Y-88241126D01*
X117740000Y-88241126D01*
X117740000Y-88388873D01*
X117768820Y-88533759D01*
X117768822Y-88533767D01*
X117812421Y-88639024D01*
X118136446Y-88315000D01*
X118136446Y-88314999D01*
X118116556Y-88295109D01*
X118390000Y-88295109D01*
X118390000Y-88334891D01*
X118405224Y-88371645D01*
X118433355Y-88399776D01*
X118470109Y-88415000D01*
X118509891Y-88415000D01*
X118546645Y-88399776D01*
X118574776Y-88371645D01*
X118590000Y-88334891D01*
X118590000Y-88315000D01*
X118843554Y-88315000D01*
X119090000Y-88561446D01*
X119336446Y-88315000D01*
X119316555Y-88295109D01*
X119590000Y-88295109D01*
X119590000Y-88334891D01*
X119605224Y-88371645D01*
X119633355Y-88399776D01*
X119670109Y-88415000D01*
X119709891Y-88415000D01*
X119746645Y-88399776D01*
X119774776Y-88371645D01*
X119790000Y-88334891D01*
X119790000Y-88315000D01*
X120043554Y-88315000D01*
X120290000Y-88561446D01*
X120536446Y-88315000D01*
X120516555Y-88295109D01*
X120790000Y-88295109D01*
X120790000Y-88334891D01*
X120805224Y-88371645D01*
X120833355Y-88399776D01*
X120870109Y-88415000D01*
X120909891Y-88415000D01*
X120946645Y-88399776D01*
X120974776Y-88371645D01*
X120990000Y-88334891D01*
X120990000Y-88315000D01*
X121243554Y-88315000D01*
X121490000Y-88561446D01*
X121736446Y-88315000D01*
X121716555Y-88295109D01*
X121990000Y-88295109D01*
X121990000Y-88334891D01*
X122005224Y-88371645D01*
X122033355Y-88399776D01*
X122070109Y-88415000D01*
X122109891Y-88415000D01*
X122146645Y-88399776D01*
X122174776Y-88371645D01*
X122190000Y-88334891D01*
X122190000Y-88314999D01*
X122443554Y-88314999D01*
X122443554Y-88315001D01*
X122767577Y-88639024D01*
X122767578Y-88639024D01*
X122811175Y-88533775D01*
X122811179Y-88533760D01*
X122839999Y-88388873D01*
X122840000Y-88388871D01*
X122840000Y-88241128D01*
X122839999Y-88241126D01*
X122811179Y-88096240D01*
X122811178Y-88096236D01*
X122767577Y-87990975D01*
X122443554Y-88314999D01*
X122190000Y-88314999D01*
X122190000Y-88295109D01*
X122174776Y-88258355D01*
X122146645Y-88230224D01*
X122109891Y-88215000D01*
X122070109Y-88215000D01*
X122033355Y-88230224D01*
X122005224Y-88258355D01*
X121990000Y-88295109D01*
X121716555Y-88295109D01*
X121490000Y-88068554D01*
X121243554Y-88315000D01*
X120990000Y-88315000D01*
X120990000Y-88295109D01*
X120974776Y-88258355D01*
X120946645Y-88230224D01*
X120909891Y-88215000D01*
X120870109Y-88215000D01*
X120833355Y-88230224D01*
X120805224Y-88258355D01*
X120790000Y-88295109D01*
X120516555Y-88295109D01*
X120290000Y-88068554D01*
X120043554Y-88315000D01*
X119790000Y-88315000D01*
X119790000Y-88295109D01*
X119774776Y-88258355D01*
X119746645Y-88230224D01*
X119709891Y-88215000D01*
X119670109Y-88215000D01*
X119633355Y-88230224D01*
X119605224Y-88258355D01*
X119590000Y-88295109D01*
X119316555Y-88295109D01*
X119090000Y-88068554D01*
X118843554Y-88315000D01*
X118590000Y-88315000D01*
X118590000Y-88295109D01*
X118574776Y-88258355D01*
X118546645Y-88230224D01*
X118509891Y-88215000D01*
X118470109Y-88215000D01*
X118433355Y-88230224D01*
X118405224Y-88258355D01*
X118390000Y-88295109D01*
X118116556Y-88295109D01*
X117812421Y-87990974D01*
X117812420Y-87990974D01*
X117768823Y-88096228D01*
X117768820Y-88096240D01*
X117740000Y-88241126D01*
X113772494Y-88241126D01*
X113668419Y-88137051D01*
X113668415Y-88137048D01*
X113545501Y-88054919D01*
X113545488Y-88054912D01*
X113408917Y-87998343D01*
X113408907Y-87998340D01*
X113263920Y-87969500D01*
X113263918Y-87969500D01*
X113116082Y-87969500D01*
X113116080Y-87969500D01*
X112971092Y-87998340D01*
X112971082Y-87998343D01*
X112834511Y-88054912D01*
X112834504Y-88054916D01*
X112826896Y-88060000D01*
X112775265Y-88094499D01*
X112759451Y-88105065D01*
X112711581Y-88137050D01*
X112711580Y-88137051D01*
X112095451Y-88753181D01*
X112034128Y-88786666D01*
X112007770Y-88789500D01*
X111146841Y-88789500D01*
X111001853Y-88818340D01*
X111001843Y-88818343D01*
X110865272Y-88874912D01*
X110865259Y-88874919D01*
X110742345Y-88957048D01*
X110742341Y-88957051D01*
X108711007Y-90988385D01*
X108692218Y-91003806D01*
X108611961Y-91057432D01*
X108507432Y-91161961D01*
X108507429Y-91161965D01*
X108453807Y-91242216D01*
X108438387Y-91261006D01*
X108391000Y-91308393D01*
X108347465Y-91351928D01*
X108330023Y-91369371D01*
X108330020Y-91369372D01*
X105363213Y-94336181D01*
X105301890Y-94369666D01*
X105275532Y-94372500D01*
X103558080Y-94372500D01*
X103413092Y-94401340D01*
X103413082Y-94401343D01*
X103276511Y-94457912D01*
X103276498Y-94457919D01*
X103153584Y-94540048D01*
X103153580Y-94540051D01*
X103049051Y-94644580D01*
X103049048Y-94644584D01*
X102966919Y-94767498D01*
X102966912Y-94767511D01*
X102910343Y-94904082D01*
X102910340Y-94904092D01*
X102881500Y-95049079D01*
X102881500Y-95049082D01*
X102881500Y-95196918D01*
X102881500Y-95196920D01*
X102881499Y-95196920D01*
X94240500Y-95196920D01*
X94240500Y-91253920D01*
X102899499Y-91253920D01*
X102928340Y-91398907D01*
X102928343Y-91398917D01*
X102984912Y-91535488D01*
X102984919Y-91535501D01*
X103067048Y-91658415D01*
X103067051Y-91658419D01*
X103171580Y-91762948D01*
X103171584Y-91762951D01*
X103294498Y-91845080D01*
X103294511Y-91845087D01*
X103431082Y-91901656D01*
X103431087Y-91901658D01*
X103431091Y-91901658D01*
X103431092Y-91901659D01*
X103576079Y-91930500D01*
X103576082Y-91930500D01*
X103723920Y-91930500D01*
X103821462Y-91911096D01*
X103868913Y-91901658D01*
X103984409Y-91853817D01*
X104053876Y-91846349D01*
X104116355Y-91877624D01*
X104152008Y-91937712D01*
X104153477Y-91944187D01*
X104168340Y-92018907D01*
X104168343Y-92018917D01*
X104224912Y-92155488D01*
X104224919Y-92155501D01*
X104307048Y-92278415D01*
X104307051Y-92278419D01*
X104411580Y-92382948D01*
X104411584Y-92382951D01*
X104534498Y-92465080D01*
X104534511Y-92465087D01*
X104671082Y-92521656D01*
X104671087Y-92521658D01*
X104671091Y-92521658D01*
X104671092Y-92521659D01*
X104816079Y-92550500D01*
X104816082Y-92550500D01*
X104963920Y-92550500D01*
X105064462Y-92530500D01*
X105108913Y-92521658D01*
X105240751Y-92467049D01*
X105245488Y-92465087D01*
X105245488Y-92465086D01*
X105245495Y-92465084D01*
X105368416Y-92382951D01*
X105472951Y-92278416D01*
X105555084Y-92155495D01*
X105611658Y-92018913D01*
X105627571Y-91938917D01*
X105640500Y-91873920D01*
X105640500Y-91726079D01*
X105611659Y-91581092D01*
X105611658Y-91581091D01*
X105611658Y-91581087D01*
X105592773Y-91535495D01*
X105555087Y-91444511D01*
X105555080Y-91444498D01*
X105472951Y-91321584D01*
X105472948Y-91321580D01*
X105368419Y-91217051D01*
X105368415Y-91217048D01*
X105245501Y-91134919D01*
X105245488Y-91134912D01*
X105108917Y-91078343D01*
X105108907Y-91078340D01*
X104963920Y-91049500D01*
X104963918Y-91049500D01*
X104816082Y-91049500D01*
X104816080Y-91049500D01*
X104671092Y-91078340D01*
X104671082Y-91078343D01*
X104555591Y-91126181D01*
X104486122Y-91133650D01*
X104423643Y-91102374D01*
X104387991Y-91042285D01*
X104386522Y-91035811D01*
X104383248Y-91019354D01*
X104371658Y-90961087D01*
X104371656Y-90961082D01*
X104315087Y-90824511D01*
X104315080Y-90824498D01*
X104232951Y-90701584D01*
X104232948Y-90701580D01*
X104128419Y-90597051D01*
X104128415Y-90597048D01*
X104005501Y-90514919D01*
X104005488Y-90514912D01*
X103868917Y-90458343D01*
X103868907Y-90458340D01*
X103723920Y-90429500D01*
X103723918Y-90429500D01*
X103576082Y-90429500D01*
X103576080Y-90429500D01*
X103431092Y-90458340D01*
X103431082Y-90458343D01*
X103294511Y-90514912D01*
X103294498Y-90514919D01*
X103171584Y-90597048D01*
X103171580Y-90597051D01*
X103067051Y-90701580D01*
X103067048Y-90701584D01*
X102984919Y-90824498D01*
X102984912Y-90824511D01*
X102928343Y-90961082D01*
X102928340Y-90961092D01*
X102899500Y-91106079D01*
X102899500Y-91106082D01*
X102899500Y-91253918D01*
X102899500Y-91253920D01*
X102899499Y-91253920D01*
X94240500Y-91253920D01*
X94240500Y-88633920D01*
X101944499Y-88633920D01*
X101973340Y-88778907D01*
X101973343Y-88778917D01*
X102029912Y-88915488D01*
X102029919Y-88915501D01*
X102112048Y-89038415D01*
X102112051Y-89038419D01*
X102216580Y-89142948D01*
X102216584Y-89142951D01*
X102339498Y-89225080D01*
X102339511Y-89225087D01*
X102476082Y-89281656D01*
X102476087Y-89281658D01*
X102476091Y-89281658D01*
X102476092Y-89281659D01*
X102621079Y-89310500D01*
X102621082Y-89310500D01*
X102768920Y-89310500D01*
X102866462Y-89291096D01*
X102913913Y-89281658D01*
X103020334Y-89237577D01*
X105215975Y-89237577D01*
X105321236Y-89281178D01*
X105321240Y-89281179D01*
X105466126Y-89309999D01*
X105466129Y-89310000D01*
X105613871Y-89310000D01*
X105613873Y-89309999D01*
X105758760Y-89281179D01*
X105758775Y-89281175D01*
X105864024Y-89237578D01*
X105864024Y-89237577D01*
X106215975Y-89237577D01*
X106321236Y-89281178D01*
X106321240Y-89281179D01*
X106466126Y-89309999D01*
X106466129Y-89310000D01*
X106613871Y-89310000D01*
X106613873Y-89309999D01*
X106758760Y-89281179D01*
X106758775Y-89281175D01*
X106864024Y-89237578D01*
X106864024Y-89237577D01*
X107215975Y-89237577D01*
X107321236Y-89281178D01*
X107321240Y-89281179D01*
X107466126Y-89309999D01*
X107466129Y-89310000D01*
X107613871Y-89310000D01*
X107613873Y-89309999D01*
X107758760Y-89281179D01*
X107758775Y-89281175D01*
X107864024Y-89237578D01*
X107864024Y-89237577D01*
X107540001Y-88913554D01*
X107540000Y-88913554D01*
X107215975Y-89237577D01*
X106864024Y-89237577D01*
X106540001Y-88913554D01*
X106540000Y-88913554D01*
X106215975Y-89237577D01*
X105864024Y-89237577D01*
X105540001Y-88913554D01*
X105540000Y-88913554D01*
X105215975Y-89237577D01*
X103020334Y-89237577D01*
X103050495Y-89225084D01*
X103173416Y-89142951D01*
X103174787Y-89141580D01*
X103207286Y-89109082D01*
X103277948Y-89038419D01*
X103277951Y-89038416D01*
X103360084Y-88915495D01*
X103416658Y-88778913D01*
X103435669Y-88683340D01*
X103445500Y-88633920D01*
X103445500Y-88603499D01*
X103465185Y-88536460D01*
X103503698Y-88498399D01*
X103512477Y-88492902D01*
X103528836Y-88486126D01*
X104790000Y-88486126D01*
X104790000Y-88633873D01*
X104818820Y-88778759D01*
X104818822Y-88778767D01*
X104862421Y-88884024D01*
X105186446Y-88560000D01*
X105186446Y-88559999D01*
X105166556Y-88540109D01*
X105440000Y-88540109D01*
X105440000Y-88579891D01*
X105455224Y-88616645D01*
X105483355Y-88644776D01*
X105520109Y-88660000D01*
X105559891Y-88660000D01*
X105596645Y-88644776D01*
X105624776Y-88616645D01*
X105640000Y-88579891D01*
X105640000Y-88560000D01*
X105893554Y-88560000D01*
X106040000Y-88706446D01*
X106186446Y-88560000D01*
X106166555Y-88540109D01*
X106440000Y-88540109D01*
X106440000Y-88579891D01*
X106455224Y-88616645D01*
X106483355Y-88644776D01*
X106520109Y-88660000D01*
X106559891Y-88660000D01*
X106596645Y-88644776D01*
X106624776Y-88616645D01*
X106640000Y-88579891D01*
X106640000Y-88560000D01*
X106893554Y-88560000D01*
X107040000Y-88706446D01*
X107186446Y-88560000D01*
X107166555Y-88540109D01*
X107440000Y-88540109D01*
X107440000Y-88579891D01*
X107455224Y-88616645D01*
X107483355Y-88644776D01*
X107520109Y-88660000D01*
X107559891Y-88660000D01*
X107596645Y-88644776D01*
X107624776Y-88616645D01*
X107640000Y-88579891D01*
X107640000Y-88540109D01*
X107624776Y-88503355D01*
X107596645Y-88475224D01*
X107559891Y-88460000D01*
X107520109Y-88460000D01*
X107483355Y-88475224D01*
X107455224Y-88503355D01*
X107440000Y-88540109D01*
X107166555Y-88540109D01*
X107040000Y-88413554D01*
X106893554Y-88560000D01*
X106640000Y-88560000D01*
X106640000Y-88540109D01*
X106624776Y-88503355D01*
X106596645Y-88475224D01*
X106559891Y-88460000D01*
X106520109Y-88460000D01*
X106483355Y-88475224D01*
X106455224Y-88503355D01*
X106440000Y-88540109D01*
X106166555Y-88540109D01*
X106040000Y-88413554D01*
X105893554Y-88560000D01*
X105640000Y-88560000D01*
X105640000Y-88540109D01*
X105624776Y-88503355D01*
X105596645Y-88475224D01*
X105559891Y-88460000D01*
X105520109Y-88460000D01*
X105483355Y-88475224D01*
X105455224Y-88503355D01*
X105440000Y-88540109D01*
X105166556Y-88540109D01*
X104862421Y-88235974D01*
X104862420Y-88235974D01*
X104818823Y-88341228D01*
X104818820Y-88341240D01*
X104790000Y-88486126D01*
X103528836Y-88486126D01*
X103555495Y-88475084D01*
X103678416Y-88392951D01*
X103782951Y-88288416D01*
X103865084Y-88165495D01*
X103908781Y-88060000D01*
X105393554Y-88060000D01*
X105540000Y-88206446D01*
X105686446Y-88060000D01*
X106393554Y-88060000D01*
X106540000Y-88206446D01*
X106686446Y-88060000D01*
X107393554Y-88060000D01*
X107540000Y-88206446D01*
X107686446Y-88060000D01*
X107540000Y-87913554D01*
X107393554Y-88060000D01*
X106686446Y-88060000D01*
X106540000Y-87913554D01*
X106393554Y-88060000D01*
X105686446Y-88060000D01*
X105540000Y-87913554D01*
X105393554Y-88060000D01*
X103908781Y-88060000D01*
X103921658Y-88028913D01*
X103935078Y-87961446D01*
X103950500Y-87883920D01*
X103950500Y-87736079D01*
X103921659Y-87591092D01*
X103921658Y-87591091D01*
X103921658Y-87591087D01*
X103879821Y-87490084D01*
X103878182Y-87486126D01*
X104790000Y-87486126D01*
X104790000Y-87633873D01*
X104818820Y-87778759D01*
X104818822Y-87778767D01*
X104862421Y-87884024D01*
X105186446Y-87560000D01*
X105186446Y-87559999D01*
X105166556Y-87540109D01*
X105440000Y-87540109D01*
X105440000Y-87579891D01*
X105455224Y-87616645D01*
X105483355Y-87644776D01*
X105520109Y-87660000D01*
X105559891Y-87660000D01*
X105596645Y-87644776D01*
X105624776Y-87616645D01*
X105640000Y-87579891D01*
X105640000Y-87560000D01*
X105893554Y-87560000D01*
X106040000Y-87706446D01*
X106186446Y-87560000D01*
X106166555Y-87540109D01*
X106440000Y-87540109D01*
X106440000Y-87579891D01*
X106455224Y-87616645D01*
X106483355Y-87644776D01*
X106520109Y-87660000D01*
X106559891Y-87660000D01*
X106596645Y-87644776D01*
X106624776Y-87616645D01*
X106640000Y-87579891D01*
X106640000Y-87560000D01*
X106893554Y-87560000D01*
X107040000Y-87706446D01*
X107186446Y-87560000D01*
X107166555Y-87540109D01*
X107440000Y-87540109D01*
X107440000Y-87579891D01*
X107455224Y-87616645D01*
X107483355Y-87644776D01*
X107520109Y-87660000D01*
X107559891Y-87660000D01*
X107596645Y-87644776D01*
X107624776Y-87616645D01*
X107640000Y-87579891D01*
X107640000Y-87559999D01*
X107893554Y-87559999D01*
X107893554Y-87560001D01*
X108250191Y-87916638D01*
X108281301Y-87968757D01*
X108282984Y-87974378D01*
X108292381Y-88021620D01*
X108309495Y-88062938D01*
X108311310Y-88068999D01*
X108311462Y-88097873D01*
X108314548Y-88126580D01*
X108311644Y-88132379D01*
X108311679Y-88138868D01*
X108296196Y-88163240D01*
X108283273Y-88189058D01*
X108277693Y-88192368D01*
X108274215Y-88197844D01*
X108248017Y-88209975D01*
X108237098Y-88216454D01*
X107893554Y-88559999D01*
X107893554Y-88560001D01*
X108217577Y-88884024D01*
X108217578Y-88884024D01*
X108261175Y-88778775D01*
X108261179Y-88778760D01*
X108289999Y-88633873D01*
X108290000Y-88633871D01*
X108290000Y-88486129D01*
X108282812Y-88449996D01*
X108289039Y-88380404D01*
X108331901Y-88325226D01*
X108397790Y-88301981D01*
X108465787Y-88318048D01*
X108492110Y-88338122D01*
X108527517Y-88373529D01*
X108527521Y-88373532D01*
X108646340Y-88452925D01*
X108646346Y-88452928D01*
X108646347Y-88452929D01*
X108778380Y-88507619D01*
X108778384Y-88507619D01*
X108778385Y-88507620D01*
X108918542Y-88535500D01*
X108918545Y-88535500D01*
X109061457Y-88535500D01*
X109155751Y-88516742D01*
X109201620Y-88507619D01*
X109333653Y-88452929D01*
X109452479Y-88373532D01*
X109553532Y-88272479D01*
X109632929Y-88153653D01*
X109687619Y-88021620D01*
X109696742Y-87975751D01*
X109715500Y-87881457D01*
X109715500Y-87738543D01*
X109710817Y-87715000D01*
X118243554Y-87715000D01*
X118490000Y-87961446D01*
X118736446Y-87715000D01*
X119443554Y-87715000D01*
X119690000Y-87961446D01*
X119936446Y-87715000D01*
X120643554Y-87715000D01*
X120890000Y-87961446D01*
X121136446Y-87715000D01*
X121843554Y-87715000D01*
X122090000Y-87961446D01*
X122336446Y-87715000D01*
X122090000Y-87468554D01*
X121843554Y-87715000D01*
X121136446Y-87715000D01*
X120890000Y-87468554D01*
X120643554Y-87715000D01*
X119936446Y-87715000D01*
X119690000Y-87468554D01*
X119443554Y-87715000D01*
X118736446Y-87715000D01*
X118490000Y-87468554D01*
X118243554Y-87715000D01*
X109710817Y-87715000D01*
X109705412Y-87687831D01*
X109705412Y-87687829D01*
X109687925Y-87599919D01*
X109687619Y-87598380D01*
X109632929Y-87466347D01*
X109632928Y-87466346D01*
X109632925Y-87466340D01*
X109553532Y-87347521D01*
X109553529Y-87347517D01*
X109452482Y-87246470D01*
X109452478Y-87246467D01*
X109333659Y-87167074D01*
X109333650Y-87167069D01*
X109201620Y-87112381D01*
X109201614Y-87112379D01*
X109061457Y-87084500D01*
X109061455Y-87084500D01*
X108918545Y-87084500D01*
X108918543Y-87084500D01*
X108778385Y-87112379D01*
X108778379Y-87112381D01*
X108646349Y-87167069D01*
X108646340Y-87167074D01*
X108527521Y-87246467D01*
X108442655Y-87331333D01*
X108381331Y-87364817D01*
X108311640Y-87359833D01*
X108255706Y-87317961D01*
X108240413Y-87291104D01*
X108217577Y-87235974D01*
X107893554Y-87559999D01*
X107640000Y-87559999D01*
X107640000Y-87540109D01*
X107624776Y-87503355D01*
X107596645Y-87475224D01*
X107559891Y-87460000D01*
X107520109Y-87460000D01*
X107483355Y-87475224D01*
X107455224Y-87503355D01*
X107440000Y-87540109D01*
X107166555Y-87540109D01*
X107040000Y-87413554D01*
X106893554Y-87560000D01*
X106640000Y-87560000D01*
X106640000Y-87540109D01*
X106624776Y-87503355D01*
X106596645Y-87475224D01*
X106559891Y-87460000D01*
X106520109Y-87460000D01*
X106483355Y-87475224D01*
X106455224Y-87503355D01*
X106440000Y-87540109D01*
X106166555Y-87540109D01*
X106040000Y-87413554D01*
X105893554Y-87560000D01*
X105640000Y-87560000D01*
X105640000Y-87540109D01*
X105624776Y-87503355D01*
X105596645Y-87475224D01*
X105559891Y-87460000D01*
X105520109Y-87460000D01*
X105483355Y-87475224D01*
X105455224Y-87503355D01*
X105440000Y-87540109D01*
X105166556Y-87540109D01*
X104862421Y-87235974D01*
X104862420Y-87235974D01*
X104818823Y-87341228D01*
X104818820Y-87341240D01*
X104790000Y-87486126D01*
X103878182Y-87486126D01*
X103865087Y-87454511D01*
X103865080Y-87454498D01*
X103782951Y-87331584D01*
X103782948Y-87331580D01*
X103678419Y-87227051D01*
X103678415Y-87227048D01*
X103555501Y-87144919D01*
X103555488Y-87144912D01*
X103418917Y-87088343D01*
X103418907Y-87088340D01*
X103276434Y-87060000D01*
X105393554Y-87060000D01*
X105540000Y-87206446D01*
X105686446Y-87060000D01*
X106393554Y-87060000D01*
X106540000Y-87206446D01*
X106686446Y-87060000D01*
X107393554Y-87060000D01*
X107540000Y-87206446D01*
X107686446Y-87060000D01*
X107540000Y-86913554D01*
X107393554Y-87060000D01*
X106686446Y-87060000D01*
X106540000Y-86913554D01*
X106393554Y-87060000D01*
X105686446Y-87060000D01*
X105540000Y-86913554D01*
X105393554Y-87060000D01*
X103276434Y-87060000D01*
X103273920Y-87059500D01*
X103273918Y-87059500D01*
X103126082Y-87059500D01*
X103126080Y-87059500D01*
X102981092Y-87088340D01*
X102981082Y-87088343D01*
X102844511Y-87144912D01*
X102844498Y-87144919D01*
X102721584Y-87227048D01*
X102721580Y-87227051D01*
X102617051Y-87331580D01*
X102617048Y-87331584D01*
X102534919Y-87454498D01*
X102534912Y-87454511D01*
X102478343Y-87591082D01*
X102478340Y-87591092D01*
X102449500Y-87736079D01*
X102449500Y-87766500D01*
X102429815Y-87833539D01*
X102377011Y-87879294D01*
X102372953Y-87881061D01*
X102339508Y-87894914D01*
X102339498Y-87894919D01*
X102216584Y-87977048D01*
X102216580Y-87977051D01*
X102112051Y-88081580D01*
X102112048Y-88081584D01*
X102029919Y-88204498D01*
X102029912Y-88204511D01*
X101973343Y-88341082D01*
X101973340Y-88341092D01*
X101944500Y-88486079D01*
X101944500Y-88486082D01*
X101944500Y-88633918D01*
X101944500Y-88633920D01*
X101944499Y-88633920D01*
X94240500Y-88633920D01*
X94240500Y-86486126D01*
X104790000Y-86486126D01*
X104790000Y-86633873D01*
X104818820Y-86778759D01*
X104818822Y-86778767D01*
X104862421Y-86884024D01*
X105186446Y-86560000D01*
X105186446Y-86559999D01*
X105166556Y-86540109D01*
X105440000Y-86540109D01*
X105440000Y-86579891D01*
X105455224Y-86616645D01*
X105483355Y-86644776D01*
X105520109Y-86660000D01*
X105559891Y-86660000D01*
X105596645Y-86644776D01*
X105624776Y-86616645D01*
X105640000Y-86579891D01*
X105640000Y-86560000D01*
X105893554Y-86560000D01*
X106040000Y-86706446D01*
X106186446Y-86560000D01*
X106166555Y-86540109D01*
X106440000Y-86540109D01*
X106440000Y-86579891D01*
X106455224Y-86616645D01*
X106483355Y-86644776D01*
X106520109Y-86660000D01*
X106559891Y-86660000D01*
X106596645Y-86644776D01*
X106624776Y-86616645D01*
X106640000Y-86579891D01*
X106640000Y-86560000D01*
X106893554Y-86560000D01*
X107040000Y-86706446D01*
X107186446Y-86560000D01*
X107166555Y-86540109D01*
X107440000Y-86540109D01*
X107440000Y-86579891D01*
X107455224Y-86616645D01*
X107483355Y-86644776D01*
X107520109Y-86660000D01*
X107559891Y-86660000D01*
X107596645Y-86644776D01*
X107624776Y-86616645D01*
X107640000Y-86579891D01*
X107640000Y-86559999D01*
X107893554Y-86559999D01*
X107893554Y-86560001D01*
X108217577Y-86884024D01*
X108217578Y-86884024D01*
X108261175Y-86778775D01*
X108261179Y-86778760D01*
X108289999Y-86633873D01*
X108290000Y-86633871D01*
X108290000Y-86486128D01*
X108289999Y-86486126D01*
X108261179Y-86341240D01*
X108261178Y-86341236D01*
X108217577Y-86235975D01*
X107893554Y-86559999D01*
X107640000Y-86559999D01*
X107640000Y-86540109D01*
X107624776Y-86503355D01*
X107596645Y-86475224D01*
X107559891Y-86460000D01*
X107520109Y-86460000D01*
X107483355Y-86475224D01*
X107455224Y-86503355D01*
X107440000Y-86540109D01*
X107166555Y-86540109D01*
X107040000Y-86413554D01*
X106893554Y-86560000D01*
X106640000Y-86560000D01*
X106640000Y-86540109D01*
X106624776Y-86503355D01*
X106596645Y-86475224D01*
X106559891Y-86460000D01*
X106520109Y-86460000D01*
X106483355Y-86475224D01*
X106455224Y-86503355D01*
X106440000Y-86540109D01*
X106166555Y-86540109D01*
X106040000Y-86413554D01*
X105893554Y-86560000D01*
X105640000Y-86560000D01*
X105640000Y-86540109D01*
X105624776Y-86503355D01*
X105596645Y-86475224D01*
X105559891Y-86460000D01*
X105520109Y-86460000D01*
X105483355Y-86475224D01*
X105455224Y-86503355D01*
X105440000Y-86540109D01*
X105166556Y-86540109D01*
X104862421Y-86235974D01*
X104862420Y-86235974D01*
X104818823Y-86341228D01*
X104818820Y-86341240D01*
X104790000Y-86486126D01*
X94240500Y-86486126D01*
X94240500Y-85882420D01*
X105215974Y-85882420D01*
X105215974Y-85882421D01*
X105540000Y-86206446D01*
X105540001Y-86206446D01*
X105864024Y-85882421D01*
X105864022Y-85882420D01*
X106215974Y-85882420D01*
X106215974Y-85882421D01*
X106540000Y-86206446D01*
X106540001Y-86206446D01*
X106864024Y-85882421D01*
X106864022Y-85882420D01*
X107215974Y-85882420D01*
X107215974Y-85882421D01*
X107540000Y-86206446D01*
X107540001Y-86206446D01*
X107864024Y-85882421D01*
X107758767Y-85838822D01*
X107758759Y-85838820D01*
X107613872Y-85810000D01*
X107466128Y-85810000D01*
X107321240Y-85838820D01*
X107321228Y-85838823D01*
X107215974Y-85882420D01*
X106864022Y-85882420D01*
X106758767Y-85838822D01*
X106758759Y-85838820D01*
X106613872Y-85810000D01*
X106466128Y-85810000D01*
X106321240Y-85838820D01*
X106321228Y-85838823D01*
X106215974Y-85882420D01*
X105864022Y-85882420D01*
X105758767Y-85838822D01*
X105758759Y-85838820D01*
X105613872Y-85810000D01*
X105466128Y-85810000D01*
X105321240Y-85838820D01*
X105321228Y-85838823D01*
X105215974Y-85882420D01*
X94240500Y-85882420D01*
X94240500Y-85573920D01*
X108239499Y-85573920D01*
X108268340Y-85718907D01*
X108268343Y-85718917D01*
X108324912Y-85855488D01*
X108324919Y-85855501D01*
X108407048Y-85978415D01*
X108407051Y-85978419D01*
X108511580Y-86082948D01*
X108511584Y-86082951D01*
X108634498Y-86165080D01*
X108634511Y-86165087D01*
X108746947Y-86211659D01*
X108771087Y-86221658D01*
X108771091Y-86221658D01*
X108771092Y-86221659D01*
X108916079Y-86250500D01*
X108916082Y-86250500D01*
X109063920Y-86250500D01*
X109167569Y-86229882D01*
X109208913Y-86221658D01*
X109340751Y-86167049D01*
X109345488Y-86165087D01*
X109345488Y-86165086D01*
X109345495Y-86165084D01*
X109468416Y-86082951D01*
X109572951Y-85978416D01*
X109628664Y-85895035D01*
X109682274Y-85850232D01*
X109751599Y-85841524D01*
X109814627Y-85871678D01*
X109846326Y-85916474D01*
X109874914Y-85985491D01*
X109874919Y-85985501D01*
X109957048Y-86108415D01*
X109957051Y-86108419D01*
X110061580Y-86212948D01*
X110061584Y-86212951D01*
X110184498Y-86295080D01*
X110184511Y-86295087D01*
X110308837Y-86346584D01*
X110321087Y-86351658D01*
X110321091Y-86351658D01*
X110321092Y-86351659D01*
X110466079Y-86380500D01*
X110466082Y-86380500D01*
X110613920Y-86380500D01*
X110711462Y-86361096D01*
X110758913Y-86351658D01*
X110895495Y-86295084D01*
X111018416Y-86212951D01*
X111122951Y-86108416D01*
X111205084Y-85985495D01*
X111261658Y-85848913D01*
X111283676Y-85738223D01*
X111290500Y-85703920D01*
X111290500Y-85563920D01*
X114899499Y-85563920D01*
X114928340Y-85708907D01*
X114928343Y-85708917D01*
X114984912Y-85845488D01*
X114984919Y-85845501D01*
X115067048Y-85968415D01*
X115067051Y-85968419D01*
X115171580Y-86072948D01*
X115171584Y-86072951D01*
X115294498Y-86155080D01*
X115294511Y-86155087D01*
X115421051Y-86207501D01*
X115431087Y-86211658D01*
X115522369Y-86229815D01*
X115522703Y-86229882D01*
X115584614Y-86262267D01*
X115619188Y-86322982D01*
X115615449Y-86392752D01*
X115613073Y-86398951D01*
X115558343Y-86531082D01*
X115558340Y-86531092D01*
X115529500Y-86676079D01*
X115529500Y-86676082D01*
X115529500Y-86823918D01*
X115529500Y-86823920D01*
X115529499Y-86823920D01*
X115558340Y-86968907D01*
X115558343Y-86968917D01*
X115614912Y-87105488D01*
X115614919Y-87105501D01*
X115697048Y-87228415D01*
X115697051Y-87228419D01*
X115801580Y-87332948D01*
X115801584Y-87332951D01*
X115924498Y-87415080D01*
X115924511Y-87415087D01*
X116019690Y-87454511D01*
X116061087Y-87471658D01*
X116061091Y-87471658D01*
X116061092Y-87471659D01*
X116206079Y-87500500D01*
X116206082Y-87500500D01*
X116353920Y-87500500D01*
X116451462Y-87481096D01*
X116498913Y-87471658D01*
X116635495Y-87415084D01*
X116758416Y-87332951D01*
X116862951Y-87228416D01*
X116945084Y-87105495D01*
X116971746Y-87041126D01*
X117740000Y-87041126D01*
X117740000Y-87188873D01*
X117768820Y-87333759D01*
X117768822Y-87333767D01*
X117812421Y-87439024D01*
X118136446Y-87115000D01*
X118136446Y-87114999D01*
X118116556Y-87095109D01*
X118390000Y-87095109D01*
X118390000Y-87134891D01*
X118405224Y-87171645D01*
X118433355Y-87199776D01*
X118470109Y-87215000D01*
X118509891Y-87215000D01*
X118546645Y-87199776D01*
X118574776Y-87171645D01*
X118590000Y-87134891D01*
X118590000Y-87115000D01*
X118843554Y-87115000D01*
X119090000Y-87361446D01*
X119336446Y-87115000D01*
X119316555Y-87095109D01*
X119590000Y-87095109D01*
X119590000Y-87134891D01*
X119605224Y-87171645D01*
X119633355Y-87199776D01*
X119670109Y-87215000D01*
X119709891Y-87215000D01*
X119746645Y-87199776D01*
X119774776Y-87171645D01*
X119790000Y-87134891D01*
X119790000Y-87115000D01*
X120043554Y-87115000D01*
X120290000Y-87361446D01*
X120536446Y-87115000D01*
X120516555Y-87095109D01*
X120790000Y-87095109D01*
X120790000Y-87134891D01*
X120805224Y-87171645D01*
X120833355Y-87199776D01*
X120870109Y-87215000D01*
X120909891Y-87215000D01*
X120946645Y-87199776D01*
X120974776Y-87171645D01*
X120990000Y-87134891D01*
X120990000Y-87115000D01*
X121243554Y-87115000D01*
X121490000Y-87361446D01*
X121736446Y-87115000D01*
X121716555Y-87095109D01*
X121990000Y-87095109D01*
X121990000Y-87134891D01*
X122005224Y-87171645D01*
X122033355Y-87199776D01*
X122070109Y-87215000D01*
X122109891Y-87215000D01*
X122146645Y-87199776D01*
X122174776Y-87171645D01*
X122190000Y-87134891D01*
X122190000Y-87114999D01*
X122443554Y-87114999D01*
X122443554Y-87115001D01*
X122767577Y-87439024D01*
X122767578Y-87439024D01*
X122811175Y-87333775D01*
X122811179Y-87333760D01*
X122839999Y-87188873D01*
X122840000Y-87188871D01*
X122840000Y-87041128D01*
X122839999Y-87041126D01*
X122811712Y-86898920D01*
X123514499Y-86898920D01*
X123543340Y-87043907D01*
X123543343Y-87043917D01*
X123599912Y-87180488D01*
X123599919Y-87180501D01*
X123682048Y-87303415D01*
X123682051Y-87303419D01*
X123786580Y-87407948D01*
X123786584Y-87407951D01*
X123909498Y-87490080D01*
X123909502Y-87490082D01*
X123909505Y-87490084D01*
X124014564Y-87533601D01*
X124068965Y-87577439D01*
X124091030Y-87643733D01*
X124073751Y-87711432D01*
X124054791Y-87735840D01*
X124004052Y-87786579D01*
X124004048Y-87786584D01*
X123921919Y-87909498D01*
X123921912Y-87909511D01*
X123865343Y-88046082D01*
X123865340Y-88046092D01*
X123836500Y-88191079D01*
X123836500Y-88191082D01*
X123836500Y-88338918D01*
X123836500Y-88338920D01*
X123836499Y-88338920D01*
X123865340Y-88483907D01*
X123865343Y-88483917D01*
X123921912Y-88620488D01*
X123921919Y-88620501D01*
X124004048Y-88743415D01*
X124004051Y-88743419D01*
X124112891Y-88852259D01*
X124111658Y-88853491D01*
X124146330Y-88904399D01*
X124148197Y-88974244D01*
X124112818Y-89032668D01*
X124112891Y-89032741D01*
X124112595Y-89033036D01*
X124112006Y-89034010D01*
X124109127Y-89036504D01*
X124004051Y-89141580D01*
X124004048Y-89141584D01*
X123921919Y-89264498D01*
X123921912Y-89264511D01*
X123865343Y-89401082D01*
X123865340Y-89401092D01*
X123836500Y-89546079D01*
X123836500Y-89546082D01*
X123836500Y-89693918D01*
X123836500Y-89693920D01*
X123836499Y-89693920D01*
X123865340Y-89838907D01*
X123865343Y-89838917D01*
X123921912Y-89975488D01*
X123921919Y-89975501D01*
X124004048Y-90098415D01*
X124004051Y-90098419D01*
X124108580Y-90202948D01*
X124108584Y-90202951D01*
X124231498Y-90285080D01*
X124231511Y-90285087D01*
X124332262Y-90326819D01*
X124368087Y-90341658D01*
X124368091Y-90341658D01*
X124368092Y-90341659D01*
X124513079Y-90370500D01*
X124513082Y-90370500D01*
X124660920Y-90370500D01*
X124758462Y-90351096D01*
X124805913Y-90341658D01*
X124942495Y-90285084D01*
X125065416Y-90202951D01*
X125169951Y-90098416D01*
X125252084Y-89975495D01*
X125308658Y-89838913D01*
X125324068Y-89761446D01*
X125337500Y-89693920D01*
X125337500Y-89546079D01*
X125308659Y-89401092D01*
X125308658Y-89401091D01*
X125308658Y-89401087D01*
X125270929Y-89310000D01*
X125252087Y-89264511D01*
X125252080Y-89264498D01*
X125169951Y-89141584D01*
X125169948Y-89141580D01*
X125061109Y-89032741D01*
X125062344Y-89031505D01*
X125027675Y-88980619D01*
X125025797Y-88910775D01*
X125061176Y-88852326D01*
X125061109Y-88852259D01*
X125061384Y-88851983D01*
X125061978Y-88851003D01*
X125064874Y-88848493D01*
X125169948Y-88743419D01*
X125169951Y-88743416D01*
X125252084Y-88620495D01*
X125308658Y-88483913D01*
X125327563Y-88388873D01*
X125337500Y-88338920D01*
X125337500Y-88191079D01*
X125308659Y-88046092D01*
X125308658Y-88046091D01*
X125308658Y-88046087D01*
X125301542Y-88028907D01*
X125252087Y-87909511D01*
X125252080Y-87909498D01*
X125169951Y-87786584D01*
X125169948Y-87786580D01*
X125065419Y-87682051D01*
X125065415Y-87682048D01*
X124942501Y-87599919D01*
X124942488Y-87599912D01*
X124837438Y-87556400D01*
X124783034Y-87512560D01*
X124760969Y-87446265D01*
X124778248Y-87378566D01*
X124797210Y-87354157D01*
X124847948Y-87303419D01*
X124847951Y-87303416D01*
X124930084Y-87180495D01*
X124986658Y-87043913D01*
X125015500Y-86898918D01*
X125015500Y-86751082D01*
X125015500Y-86751079D01*
X124986659Y-86606092D01*
X124986658Y-86606091D01*
X124986658Y-86606087D01*
X124973226Y-86573659D01*
X124930087Y-86469511D01*
X124930080Y-86469498D01*
X124847951Y-86346584D01*
X124847948Y-86346580D01*
X124743419Y-86242051D01*
X124743415Y-86242048D01*
X124620501Y-86159919D01*
X124620488Y-86159912D01*
X124483917Y-86103343D01*
X124483907Y-86103340D01*
X124338920Y-86074500D01*
X124338918Y-86074500D01*
X124191082Y-86074500D01*
X124191080Y-86074500D01*
X124046092Y-86103340D01*
X124046082Y-86103343D01*
X123909511Y-86159912D01*
X123909498Y-86159919D01*
X123786584Y-86242048D01*
X123786580Y-86242051D01*
X123682051Y-86346580D01*
X123682048Y-86346584D01*
X123599919Y-86469498D01*
X123599912Y-86469511D01*
X123543343Y-86606082D01*
X123543340Y-86606092D01*
X123514500Y-86751079D01*
X123514500Y-86751082D01*
X123514500Y-86898918D01*
X123514500Y-86898920D01*
X123514499Y-86898920D01*
X122811712Y-86898920D01*
X122811179Y-86896240D01*
X122811177Y-86896232D01*
X122768186Y-86792443D01*
X122768185Y-86792441D01*
X122767578Y-86790974D01*
X122767577Y-86790974D01*
X122443554Y-87114999D01*
X122190000Y-87114999D01*
X122190000Y-87095109D01*
X122174776Y-87058355D01*
X122146645Y-87030224D01*
X122109891Y-87015000D01*
X122070109Y-87015000D01*
X122033355Y-87030224D01*
X122005224Y-87058355D01*
X121990000Y-87095109D01*
X121716555Y-87095109D01*
X121490000Y-86868554D01*
X121243554Y-87115000D01*
X120990000Y-87115000D01*
X120990000Y-87095109D01*
X120974776Y-87058355D01*
X120946645Y-87030224D01*
X120909891Y-87015000D01*
X120870109Y-87015000D01*
X120833355Y-87030224D01*
X120805224Y-87058355D01*
X120790000Y-87095109D01*
X120516555Y-87095109D01*
X120290000Y-86868554D01*
X120043554Y-87115000D01*
X119790000Y-87115000D01*
X119790000Y-87095109D01*
X119774776Y-87058355D01*
X119746645Y-87030224D01*
X119709891Y-87015000D01*
X119670109Y-87015000D01*
X119633355Y-87030224D01*
X119605224Y-87058355D01*
X119590000Y-87095109D01*
X119316555Y-87095109D01*
X119090000Y-86868554D01*
X118843554Y-87115000D01*
X118590000Y-87115000D01*
X118590000Y-87095109D01*
X118574776Y-87058355D01*
X118546645Y-87030224D01*
X118509891Y-87015000D01*
X118470109Y-87015000D01*
X118433355Y-87030224D01*
X118405224Y-87058355D01*
X118390000Y-87095109D01*
X118116556Y-87095109D01*
X117812421Y-86790974D01*
X117812420Y-86790974D01*
X117768823Y-86896228D01*
X117768820Y-86896240D01*
X117740000Y-87041126D01*
X116971746Y-87041126D01*
X117001658Y-86968913D01*
X117030500Y-86823918D01*
X117030500Y-86676082D01*
X117030500Y-86676079D01*
X117001659Y-86531092D01*
X117001658Y-86531091D01*
X117001658Y-86531087D01*
X116994995Y-86515000D01*
X118243554Y-86515000D01*
X118490000Y-86761446D01*
X118736446Y-86515000D01*
X119443554Y-86515000D01*
X119690000Y-86761446D01*
X119936446Y-86515000D01*
X120643554Y-86515000D01*
X120890000Y-86761446D01*
X121136446Y-86515000D01*
X121843554Y-86515000D01*
X122090000Y-86761446D01*
X122336446Y-86515000D01*
X122090000Y-86268554D01*
X121843554Y-86515000D01*
X121136446Y-86515000D01*
X120890000Y-86268554D01*
X120643554Y-86515000D01*
X119936446Y-86515000D01*
X119690000Y-86268554D01*
X119443554Y-86515000D01*
X118736446Y-86515000D01*
X118490000Y-86268554D01*
X118243554Y-86515000D01*
X116994995Y-86515000D01*
X116961836Y-86434948D01*
X116945087Y-86394511D01*
X116945080Y-86394498D01*
X116862951Y-86271584D01*
X116862948Y-86271580D01*
X116758419Y-86167051D01*
X116758415Y-86167048D01*
X116635501Y-86084919D01*
X116635488Y-86084912D01*
X116498917Y-86028343D01*
X116498907Y-86028340D01*
X116407295Y-86010117D01*
X116345384Y-85977732D01*
X116310810Y-85917016D01*
X116314551Y-85847246D01*
X116316896Y-85841126D01*
X117740000Y-85841126D01*
X117740000Y-85988873D01*
X117768820Y-86133759D01*
X117768822Y-86133767D01*
X117812421Y-86239024D01*
X118136446Y-85915000D01*
X118136446Y-85914999D01*
X118116556Y-85895109D01*
X118390000Y-85895109D01*
X118390000Y-85934891D01*
X118405224Y-85971645D01*
X118433355Y-85999776D01*
X118470109Y-86015000D01*
X118509891Y-86015000D01*
X118546645Y-85999776D01*
X118574776Y-85971645D01*
X118590000Y-85934891D01*
X118590000Y-85915000D01*
X118843554Y-85915000D01*
X119090000Y-86161446D01*
X119336446Y-85915000D01*
X119316555Y-85895109D01*
X119590000Y-85895109D01*
X119590000Y-85934891D01*
X119605224Y-85971645D01*
X119633355Y-85999776D01*
X119670109Y-86015000D01*
X119709891Y-86015000D01*
X119746645Y-85999776D01*
X119774776Y-85971645D01*
X119790000Y-85934891D01*
X119790000Y-85915000D01*
X120043554Y-85915000D01*
X120290000Y-86161446D01*
X120536446Y-85915000D01*
X120516555Y-85895109D01*
X120790000Y-85895109D01*
X120790000Y-85934891D01*
X120805224Y-85971645D01*
X120833355Y-85999776D01*
X120870109Y-86015000D01*
X120909891Y-86015000D01*
X120946645Y-85999776D01*
X120974776Y-85971645D01*
X120990000Y-85934891D01*
X120990000Y-85915000D01*
X121243554Y-85915000D01*
X121490000Y-86161446D01*
X121736446Y-85915000D01*
X121716555Y-85895109D01*
X121990000Y-85895109D01*
X121990000Y-85934891D01*
X122005224Y-85971645D01*
X122033355Y-85999776D01*
X122070109Y-86015000D01*
X122109891Y-86015000D01*
X122146645Y-85999776D01*
X122174776Y-85971645D01*
X122190000Y-85934891D01*
X122190000Y-85895109D01*
X122174776Y-85858355D01*
X122146645Y-85830224D01*
X122109891Y-85815000D01*
X122070109Y-85815000D01*
X122033355Y-85830224D01*
X122005224Y-85858355D01*
X121990000Y-85895109D01*
X121716555Y-85895109D01*
X121490000Y-85668554D01*
X121243554Y-85915000D01*
X120990000Y-85915000D01*
X120990000Y-85895109D01*
X120974776Y-85858355D01*
X120946645Y-85830224D01*
X120909891Y-85815000D01*
X120870109Y-85815000D01*
X120833355Y-85830224D01*
X120805224Y-85858355D01*
X120790000Y-85895109D01*
X120516555Y-85895109D01*
X120290000Y-85668554D01*
X120043554Y-85915000D01*
X119790000Y-85915000D01*
X119790000Y-85895109D01*
X119774776Y-85858355D01*
X119746645Y-85830224D01*
X119709891Y-85815000D01*
X119670109Y-85815000D01*
X119633355Y-85830224D01*
X119605224Y-85858355D01*
X119590000Y-85895109D01*
X119316555Y-85895109D01*
X119090000Y-85668554D01*
X118843554Y-85915000D01*
X118590000Y-85915000D01*
X118590000Y-85895109D01*
X118574776Y-85858355D01*
X118546645Y-85830224D01*
X118509891Y-85815000D01*
X118470109Y-85815000D01*
X118433355Y-85830224D01*
X118405224Y-85858355D01*
X118390000Y-85895109D01*
X118116556Y-85895109D01*
X117812421Y-85590974D01*
X117812420Y-85590974D01*
X117768823Y-85696228D01*
X117768820Y-85696240D01*
X117740000Y-85841126D01*
X116316896Y-85841126D01*
X116316926Y-85841048D01*
X116329786Y-85810000D01*
X116371658Y-85708913D01*
X116376362Y-85685267D01*
X116408747Y-85623356D01*
X116469462Y-85588782D01*
X116522170Y-85587841D01*
X116526901Y-85588782D01*
X116636080Y-85610500D01*
X116636082Y-85610500D01*
X116783920Y-85610500D01*
X116893099Y-85588782D01*
X116928913Y-85581658D01*
X117065495Y-85525084D01*
X117188416Y-85442951D01*
X117292951Y-85338416D01*
X117360434Y-85237420D01*
X118165974Y-85237420D01*
X118165974Y-85237421D01*
X118490000Y-85561446D01*
X118490001Y-85561446D01*
X118814024Y-85237421D01*
X118814022Y-85237420D01*
X119365974Y-85237420D01*
X119365974Y-85237421D01*
X119690000Y-85561446D01*
X119690001Y-85561446D01*
X120014024Y-85237421D01*
X120014022Y-85237420D01*
X120565974Y-85237420D01*
X120565974Y-85237421D01*
X120890000Y-85561446D01*
X120890001Y-85561446D01*
X121214024Y-85237421D01*
X121214022Y-85237420D01*
X121765974Y-85237420D01*
X121765974Y-85237421D01*
X122266777Y-85738223D01*
X122767577Y-86239024D01*
X122767578Y-86239024D01*
X122811175Y-86133775D01*
X122811179Y-86133760D01*
X122839999Y-85988873D01*
X122840000Y-85988871D01*
X122840000Y-85925920D01*
X127279499Y-85925920D01*
X127308340Y-86070907D01*
X127308343Y-86070917D01*
X127364912Y-86207488D01*
X127364919Y-86207501D01*
X127447048Y-86330415D01*
X127447051Y-86330419D01*
X127551580Y-86434948D01*
X127551584Y-86434951D01*
X127674498Y-86517080D01*
X127674511Y-86517087D01*
X127778116Y-86560001D01*
X127811087Y-86573658D01*
X127811091Y-86573658D01*
X127811092Y-86573659D01*
X127956079Y-86602500D01*
X127956082Y-86602500D01*
X128103920Y-86602500D01*
X128217578Y-86579891D01*
X128248913Y-86573658D01*
X128385495Y-86517084D01*
X128508416Y-86434951D01*
X128612951Y-86330416D01*
X128695084Y-86207495D01*
X128751658Y-86070913D01*
X128770057Y-85978416D01*
X128780500Y-85925920D01*
X128780500Y-85778079D01*
X128751659Y-85633092D01*
X128751658Y-85633091D01*
X128751658Y-85633087D01*
X128734214Y-85590974D01*
X128695087Y-85496511D01*
X128695080Y-85496498D01*
X128612951Y-85373584D01*
X128612948Y-85373580D01*
X128508419Y-85269051D01*
X128508415Y-85269048D01*
X128385501Y-85186919D01*
X128385488Y-85186912D01*
X128248917Y-85130343D01*
X128248907Y-85130340D01*
X128103920Y-85101500D01*
X128103918Y-85101500D01*
X127956082Y-85101500D01*
X127956080Y-85101500D01*
X127811092Y-85130340D01*
X127811082Y-85130343D01*
X127674511Y-85186912D01*
X127674498Y-85186919D01*
X127551584Y-85269048D01*
X127551580Y-85269051D01*
X127447051Y-85373580D01*
X127447048Y-85373584D01*
X127364919Y-85496498D01*
X127364912Y-85496511D01*
X127308343Y-85633082D01*
X127308340Y-85633092D01*
X127279500Y-85778079D01*
X127279500Y-85778082D01*
X127279500Y-85925918D01*
X127279500Y-85925920D01*
X127279499Y-85925920D01*
X122840000Y-85925920D01*
X122840000Y-85841129D01*
X122831059Y-85796183D01*
X122831059Y-85796181D01*
X122813278Y-85706790D01*
X122819505Y-85637199D01*
X122862368Y-85582021D01*
X122928258Y-85558777D01*
X122937521Y-85558627D01*
X122960818Y-85559120D01*
X122991087Y-85571658D01*
X123136082Y-85600500D01*
X123283918Y-85600500D01*
X123428913Y-85571658D01*
X123434939Y-85569162D01*
X123565488Y-85515087D01*
X123565488Y-85515086D01*
X123565495Y-85515084D01*
X123688416Y-85432951D01*
X123792951Y-85328416D01*
X123875084Y-85205495D01*
X123931658Y-85068913D01*
X123952346Y-84964912D01*
X123960500Y-84923920D01*
X123960500Y-84776079D01*
X123931659Y-84631092D01*
X123931658Y-84631091D01*
X123931658Y-84631087D01*
X123879229Y-84504511D01*
X123875087Y-84494511D01*
X123875080Y-84494498D01*
X123810365Y-84397645D01*
X123789487Y-84330967D01*
X123807972Y-84263587D01*
X123844574Y-84225654D01*
X123938416Y-84162951D01*
X124042951Y-84058416D01*
X124125084Y-83935495D01*
X124181658Y-83798913D01*
X124199659Y-83708419D01*
X124210500Y-83653920D01*
X124210500Y-83506079D01*
X124181659Y-83361092D01*
X124181658Y-83361091D01*
X124181658Y-83361087D01*
X124157978Y-83303918D01*
X124125087Y-83224511D01*
X124125080Y-83224498D01*
X124042951Y-83101584D01*
X124042948Y-83101580D01*
X123938419Y-82997051D01*
X123938415Y-82997048D01*
X123815501Y-82914919D01*
X123815488Y-82914912D01*
X123678917Y-82858343D01*
X123678907Y-82858340D01*
X123533920Y-82829500D01*
X123533918Y-82829500D01*
X123386082Y-82829500D01*
X123386080Y-82829500D01*
X123241092Y-82858340D01*
X123241082Y-82858343D01*
X123104511Y-82914912D01*
X123104498Y-82914919D01*
X122981584Y-82997048D01*
X122981580Y-82997051D01*
X122877051Y-83101580D01*
X122877048Y-83101584D01*
X122794919Y-83224498D01*
X122794912Y-83224511D01*
X122738343Y-83361082D01*
X122738340Y-83361092D01*
X122709500Y-83506079D01*
X122709500Y-83506082D01*
X122709500Y-83653918D01*
X122709500Y-83653920D01*
X122709499Y-83653920D01*
X122738340Y-83798907D01*
X122738343Y-83798917D01*
X122794912Y-83935488D01*
X122794919Y-83935500D01*
X122859634Y-84032353D01*
X122880512Y-84099031D01*
X122862028Y-84166411D01*
X122825424Y-84204346D01*
X122731580Y-84267051D01*
X122627051Y-84371580D01*
X122627048Y-84371584D01*
X122544919Y-84494498D01*
X122544912Y-84494511D01*
X122488343Y-84631082D01*
X122488340Y-84631092D01*
X122459500Y-84776079D01*
X122459500Y-84923922D01*
X122486283Y-85058569D01*
X122480056Y-85128160D01*
X122437193Y-85183338D01*
X122371303Y-85206582D01*
X122317211Y-85197320D01*
X122308767Y-85193822D01*
X122308759Y-85193820D01*
X122163872Y-85165000D01*
X122016128Y-85165000D01*
X121871240Y-85193820D01*
X121871228Y-85193823D01*
X121765974Y-85237420D01*
X121214022Y-85237420D01*
X121108767Y-85193822D01*
X121108759Y-85193820D01*
X120963872Y-85165000D01*
X120816128Y-85165000D01*
X120671240Y-85193820D01*
X120671228Y-85193823D01*
X120565974Y-85237420D01*
X120014022Y-85237420D01*
X119908767Y-85193822D01*
X119908759Y-85193820D01*
X119763872Y-85165000D01*
X119616128Y-85165000D01*
X119471240Y-85193820D01*
X119471228Y-85193823D01*
X119365974Y-85237420D01*
X118814022Y-85237420D01*
X118708767Y-85193822D01*
X118708759Y-85193820D01*
X118563872Y-85165000D01*
X118416128Y-85165000D01*
X118271240Y-85193820D01*
X118271228Y-85193823D01*
X118165974Y-85237420D01*
X117360434Y-85237420D01*
X117375084Y-85215495D01*
X117375901Y-85213524D01*
X117404492Y-85144498D01*
X117431658Y-85078913D01*
X117445052Y-85011580D01*
X117460500Y-84933920D01*
X117460500Y-84786079D01*
X117431659Y-84641092D01*
X117431658Y-84641091D01*
X117431658Y-84641087D01*
X117427514Y-84631082D01*
X117375087Y-84504511D01*
X117375080Y-84504498D01*
X117292951Y-84381584D01*
X117292948Y-84381580D01*
X117188419Y-84277051D01*
X117188415Y-84277048D01*
X117065501Y-84194919D01*
X117065488Y-84194912D01*
X116928917Y-84138343D01*
X116928907Y-84138340D01*
X116783920Y-84109500D01*
X116783918Y-84109500D01*
X116636082Y-84109500D01*
X116636080Y-84109500D01*
X116491092Y-84138340D01*
X116491082Y-84138343D01*
X116354511Y-84194912D01*
X116354498Y-84194919D01*
X116231584Y-84277048D01*
X116231580Y-84277051D01*
X116127051Y-84381580D01*
X116127048Y-84381584D01*
X116044919Y-84504498D01*
X116044912Y-84504511D01*
X115988343Y-84641082D01*
X115988339Y-84641096D01*
X115983636Y-84664737D01*
X115951249Y-84726647D01*
X115890532Y-84761219D01*
X115837828Y-84762158D01*
X115723920Y-84739500D01*
X115723918Y-84739500D01*
X115576082Y-84739500D01*
X115576080Y-84739500D01*
X115431092Y-84768340D01*
X115431082Y-84768343D01*
X115294511Y-84824912D01*
X115294498Y-84824919D01*
X115171584Y-84907048D01*
X115171580Y-84907051D01*
X115067051Y-85011580D01*
X115067048Y-85011584D01*
X114984919Y-85134498D01*
X114984912Y-85134511D01*
X114928343Y-85271082D01*
X114928340Y-85271092D01*
X114899500Y-85416079D01*
X114899500Y-85416082D01*
X114899500Y-85563918D01*
X114899500Y-85563920D01*
X114899499Y-85563920D01*
X111290500Y-85563920D01*
X111290500Y-85556079D01*
X111266252Y-85434182D01*
X111266251Y-85434181D01*
X111261658Y-85411087D01*
X111231557Y-85338416D01*
X111205087Y-85274511D01*
X111205080Y-85274498D01*
X111122951Y-85151584D01*
X111122948Y-85151580D01*
X111018419Y-85047051D01*
X111018415Y-85047048D01*
X110895501Y-84964919D01*
X110895488Y-84964912D01*
X110758917Y-84908343D01*
X110758907Y-84908340D01*
X110613920Y-84879500D01*
X110613918Y-84879500D01*
X110466082Y-84879500D01*
X110466080Y-84879500D01*
X110321092Y-84908340D01*
X110321082Y-84908343D01*
X110184511Y-84964912D01*
X110184498Y-84964919D01*
X110061584Y-85047048D01*
X110061580Y-85047051D01*
X109957051Y-85151580D01*
X109957048Y-85151584D01*
X109901336Y-85234963D01*
X109847723Y-85279768D01*
X109778398Y-85288475D01*
X109715371Y-85258320D01*
X109683673Y-85213524D01*
X109655087Y-85144511D01*
X109655080Y-85144498D01*
X109572951Y-85021584D01*
X109572948Y-85021580D01*
X109468419Y-84917051D01*
X109468415Y-84917048D01*
X109345501Y-84834919D01*
X109345488Y-84834912D01*
X109208917Y-84778343D01*
X109208907Y-84778340D01*
X109063920Y-84749500D01*
X109063918Y-84749500D01*
X108916082Y-84749500D01*
X108916080Y-84749500D01*
X108771092Y-84778340D01*
X108771082Y-84778343D01*
X108634511Y-84834912D01*
X108634498Y-84834919D01*
X108511584Y-84917048D01*
X108511580Y-84917051D01*
X108407051Y-85021580D01*
X108407048Y-85021584D01*
X108324919Y-85144498D01*
X108324912Y-85144511D01*
X108268343Y-85281082D01*
X108268340Y-85281092D01*
X108239500Y-85426079D01*
X108239500Y-85426082D01*
X108239500Y-85573918D01*
X108239500Y-85573920D01*
X108239499Y-85573920D01*
X94240500Y-85573920D01*
X94240500Y-83113920D01*
X101649499Y-83113920D01*
X101678340Y-83258907D01*
X101678343Y-83258917D01*
X101734912Y-83395488D01*
X101734919Y-83395501D01*
X101817048Y-83518415D01*
X101817051Y-83518419D01*
X101921580Y-83622948D01*
X101921584Y-83622951D01*
X102044498Y-83705080D01*
X102044511Y-83705087D01*
X102181082Y-83761656D01*
X102181087Y-83761658D01*
X102181091Y-83761658D01*
X102181092Y-83761659D01*
X102326079Y-83790500D01*
X102326082Y-83790500D01*
X102473920Y-83790500D01*
X102571462Y-83771096D01*
X102618913Y-83761658D01*
X102755495Y-83705084D01*
X102878416Y-83622951D01*
X102982951Y-83518416D01*
X103065084Y-83395495D01*
X103121655Y-83258920D01*
X105294499Y-83258920D01*
X105323340Y-83403907D01*
X105323343Y-83403917D01*
X105379912Y-83540488D01*
X105379919Y-83540501D01*
X105462048Y-83663415D01*
X105462051Y-83663419D01*
X105566580Y-83767948D01*
X105566584Y-83767951D01*
X105689498Y-83850080D01*
X105689511Y-83850087D01*
X105798152Y-83895087D01*
X105826087Y-83906658D01*
X105826091Y-83906658D01*
X105826092Y-83906659D01*
X105971079Y-83935500D01*
X105971082Y-83935500D01*
X106118920Y-83935500D01*
X106216462Y-83916096D01*
X106263913Y-83906658D01*
X106400495Y-83850084D01*
X106523416Y-83767951D01*
X106627951Y-83663416D01*
X106710084Y-83540495D01*
X106766658Y-83403913D01*
X106776096Y-83356462D01*
X106786548Y-83303920D01*
X109009499Y-83303920D01*
X109038340Y-83448907D01*
X109038343Y-83448917D01*
X109094912Y-83585488D01*
X109094919Y-83585501D01*
X109177048Y-83708415D01*
X109177051Y-83708419D01*
X109281580Y-83812948D01*
X109281584Y-83812951D01*
X109404498Y-83895080D01*
X109404511Y-83895087D01*
X109502049Y-83935488D01*
X109541087Y-83951658D01*
X109541091Y-83951658D01*
X109541092Y-83951659D01*
X109686079Y-83980500D01*
X109686082Y-83980500D01*
X109833920Y-83980500D01*
X109931462Y-83961096D01*
X109978913Y-83951658D01*
X110115495Y-83895084D01*
X110238416Y-83812951D01*
X110342951Y-83708416D01*
X110425084Y-83585495D01*
X110481658Y-83448913D01*
X110510500Y-83303918D01*
X110510500Y-83156082D01*
X110510500Y-83156079D01*
X110481659Y-83011092D01*
X110481658Y-83011091D01*
X110481658Y-83011087D01*
X110475843Y-82997048D01*
X110425087Y-82874511D01*
X110425080Y-82874498D01*
X110342951Y-82751584D01*
X110342948Y-82751580D01*
X110238419Y-82647051D01*
X110238415Y-82647048D01*
X110115501Y-82564919D01*
X110115488Y-82564912D01*
X109978917Y-82508343D01*
X109978907Y-82508340D01*
X109833920Y-82479500D01*
X109833918Y-82479500D01*
X109686082Y-82479500D01*
X109686080Y-82479500D01*
X109541092Y-82508340D01*
X109541082Y-82508343D01*
X109404511Y-82564912D01*
X109404498Y-82564919D01*
X109281584Y-82647048D01*
X109281580Y-82647051D01*
X109177051Y-82751580D01*
X109177048Y-82751584D01*
X109094919Y-82874498D01*
X109094912Y-82874511D01*
X109038343Y-83011082D01*
X109038340Y-83011092D01*
X109009500Y-83156079D01*
X109009500Y-83156082D01*
X109009500Y-83303918D01*
X109009500Y-83303920D01*
X109009499Y-83303920D01*
X106786548Y-83303920D01*
X106795500Y-83258920D01*
X106795500Y-83111079D01*
X106766659Y-82966092D01*
X106766658Y-82966091D01*
X106766658Y-82966087D01*
X106745464Y-82914919D01*
X106710087Y-82829511D01*
X106710080Y-82829498D01*
X106627951Y-82706584D01*
X106627948Y-82706580D01*
X106523419Y-82602051D01*
X106523415Y-82602048D01*
X106400501Y-82519919D01*
X106400488Y-82519912D01*
X106263917Y-82463343D01*
X106263907Y-82463340D01*
X106118920Y-82434500D01*
X106118918Y-82434500D01*
X105971082Y-82434500D01*
X105971080Y-82434500D01*
X105826092Y-82463340D01*
X105826082Y-82463343D01*
X105689511Y-82519912D01*
X105689498Y-82519919D01*
X105566584Y-82602048D01*
X105566580Y-82602051D01*
X105462051Y-82706580D01*
X105462048Y-82706584D01*
X105379919Y-82829498D01*
X105379912Y-82829511D01*
X105323343Y-82966082D01*
X105323340Y-82966092D01*
X105294500Y-83111079D01*
X105294500Y-83111082D01*
X105294500Y-83258918D01*
X105294500Y-83258920D01*
X105294499Y-83258920D01*
X103121655Y-83258920D01*
X103121658Y-83258913D01*
X103142113Y-83156082D01*
X103150500Y-83113920D01*
X103150500Y-82966079D01*
X103121659Y-82821092D01*
X103121658Y-82821091D01*
X103121658Y-82821087D01*
X103092869Y-82751584D01*
X103065087Y-82684511D01*
X103065080Y-82684498D01*
X102982951Y-82561584D01*
X102982948Y-82561580D01*
X102878419Y-82457051D01*
X102878415Y-82457048D01*
X102755501Y-82374919D01*
X102755488Y-82374912D01*
X102618917Y-82318343D01*
X102618907Y-82318340D01*
X102473920Y-82289500D01*
X102473918Y-82289500D01*
X102326082Y-82289500D01*
X102326080Y-82289500D01*
X102181092Y-82318340D01*
X102181082Y-82318343D01*
X102044511Y-82374912D01*
X102044498Y-82374919D01*
X101921584Y-82457048D01*
X101921580Y-82457051D01*
X101817051Y-82561580D01*
X101817048Y-82561584D01*
X101734919Y-82684498D01*
X101734912Y-82684511D01*
X101678343Y-82821082D01*
X101678340Y-82821092D01*
X101649500Y-82966079D01*
X101649500Y-82966082D01*
X101649500Y-83113918D01*
X101649500Y-83113920D01*
X101649499Y-83113920D01*
X94240500Y-83113920D01*
X94240500Y-82163920D01*
X112739499Y-82163920D01*
X112768340Y-82308907D01*
X112768343Y-82308917D01*
X112824912Y-82445488D01*
X112824919Y-82445501D01*
X112907048Y-82568415D01*
X112907051Y-82568419D01*
X113011580Y-82672948D01*
X113011584Y-82672951D01*
X113134498Y-82755080D01*
X113134511Y-82755087D01*
X113271082Y-82811656D01*
X113271087Y-82811658D01*
X113271091Y-82811658D01*
X113271092Y-82811659D01*
X113416079Y-82840500D01*
X113416082Y-82840500D01*
X113563920Y-82840500D01*
X113661537Y-82821082D01*
X113708913Y-82811658D01*
X113845495Y-82755084D01*
X113968416Y-82672951D01*
X114072951Y-82568416D01*
X114155084Y-82445495D01*
X114211658Y-82308913D01*
X114240500Y-82163918D01*
X114240500Y-82016082D01*
X114240500Y-82016079D01*
X114211659Y-81871092D01*
X114211658Y-81871091D01*
X114211658Y-81871087D01*
X114211656Y-81871082D01*
X114155087Y-81734511D01*
X114155080Y-81734498D01*
X114072951Y-81611584D01*
X114072948Y-81611580D01*
X113968419Y-81507051D01*
X113968415Y-81507048D01*
X113845501Y-81424919D01*
X113845488Y-81424912D01*
X113708917Y-81368343D01*
X113708907Y-81368340D01*
X113563920Y-81339500D01*
X113563918Y-81339500D01*
X113416082Y-81339500D01*
X113416080Y-81339500D01*
X113271092Y-81368340D01*
X113271082Y-81368343D01*
X113134511Y-81424912D01*
X113134498Y-81424919D01*
X113011584Y-81507048D01*
X113011580Y-81507051D01*
X112907051Y-81611580D01*
X112907048Y-81611584D01*
X112824919Y-81734498D01*
X112824912Y-81734511D01*
X112768343Y-81871082D01*
X112768340Y-81871092D01*
X112739500Y-82016079D01*
X112739500Y-82016082D01*
X112739500Y-82163918D01*
X112739500Y-82163920D01*
X112739499Y-82163920D01*
X94240500Y-82163920D01*
X94240500Y-79083389D01*
X95169412Y-79083389D01*
X95169412Y-79256611D01*
X95196510Y-79427701D01*
X95250039Y-79592445D01*
X95328680Y-79746788D01*
X95430498Y-79886928D01*
X95552984Y-80009414D01*
X95693124Y-80111232D01*
X95847467Y-80189873D01*
X96012211Y-80243402D01*
X96183301Y-80270500D01*
X96183302Y-80270500D01*
X96956522Y-80270500D01*
X96956523Y-80270500D01*
X97127613Y-80243402D01*
X97292357Y-80189873D01*
X97446700Y-80111232D01*
X97586840Y-80009414D01*
X97709326Y-79886928D01*
X97811144Y-79746788D01*
X97889785Y-79592445D01*
X97943314Y-79427701D01*
X97964008Y-79297048D01*
X97970412Y-79256611D01*
X97970412Y-79083388D01*
X97953477Y-78976462D01*
X97953477Y-78976460D01*
X97945230Y-78924395D01*
X97944534Y-78919999D01*
X99275796Y-78919999D01*
X99275797Y-78920000D01*
X100034241Y-78920000D01*
X100029846Y-78924395D01*
X99977185Y-79015606D01*
X99949926Y-79117339D01*
X99949926Y-79222661D01*
X99977185Y-79324394D01*
X100029846Y-79415605D01*
X100034241Y-79420000D01*
X99275797Y-79420000D01*
X99276997Y-79427584D01*
X99330503Y-79592255D01*
X99409107Y-79746524D01*
X99510879Y-79886602D01*
X99633309Y-80009032D01*
X99773387Y-80110804D01*
X99927654Y-80189408D01*
X100092327Y-80242914D01*
X100263341Y-80270000D01*
X100499912Y-80270000D01*
X100499912Y-79569999D01*
X100999912Y-79569999D01*
X100999912Y-80270000D01*
X101236483Y-80270000D01*
X101407496Y-80242914D01*
X101572169Y-80189408D01*
X101726436Y-80110804D01*
X101866514Y-80009032D01*
X101988944Y-79886602D01*
X102090716Y-79746524D01*
X102127710Y-79673920D01*
X105909499Y-79673920D01*
X105938340Y-79818907D01*
X105938343Y-79818917D01*
X105994912Y-79955488D01*
X105994919Y-79955501D01*
X106077048Y-80078415D01*
X106077051Y-80078419D01*
X106181580Y-80182948D01*
X106181584Y-80182951D01*
X106304498Y-80265080D01*
X106304511Y-80265087D01*
X106441082Y-80321656D01*
X106441087Y-80321658D01*
X106441091Y-80321658D01*
X106441092Y-80321659D01*
X106586079Y-80350500D01*
X106586082Y-80350500D01*
X106733920Y-80350500D01*
X106831462Y-80331096D01*
X106878913Y-80321658D01*
X107015495Y-80265084D01*
X107138416Y-80182951D01*
X107242951Y-80078416D01*
X107325084Y-79955495D01*
X107325736Y-79953920D01*
X117269499Y-79953920D01*
X117298340Y-80098907D01*
X117298343Y-80098917D01*
X117354912Y-80235488D01*
X117354919Y-80235501D01*
X117437048Y-80358415D01*
X117437051Y-80358419D01*
X117541580Y-80462948D01*
X117541584Y-80462951D01*
X117664498Y-80545080D01*
X117664511Y-80545087D01*
X117801082Y-80601656D01*
X117801087Y-80601658D01*
X117801091Y-80601658D01*
X117801092Y-80601659D01*
X117946079Y-80630500D01*
X117946082Y-80630500D01*
X118093920Y-80630500D01*
X118191462Y-80611096D01*
X118238913Y-80601658D01*
X118375495Y-80545084D01*
X118498416Y-80462951D01*
X118602951Y-80358416D01*
X118685084Y-80235495D01*
X118741658Y-80098913D01*
X118759461Y-80009414D01*
X118770500Y-79953920D01*
X118770500Y-79806079D01*
X118741659Y-79661092D01*
X118741658Y-79661091D01*
X118741658Y-79661087D01*
X118741656Y-79661082D01*
X118685087Y-79524511D01*
X118685080Y-79524498D01*
X118602951Y-79401584D01*
X118602948Y-79401580D01*
X118498419Y-79297051D01*
X118498415Y-79297048D01*
X118375501Y-79214919D01*
X118375488Y-79214912D01*
X118238917Y-79158343D01*
X118238907Y-79158340D01*
X118093920Y-79129500D01*
X118093918Y-79129500D01*
X117946082Y-79129500D01*
X117946080Y-79129500D01*
X117801092Y-79158340D01*
X117801082Y-79158343D01*
X117664511Y-79214912D01*
X117664498Y-79214919D01*
X117541584Y-79297048D01*
X117541580Y-79297051D01*
X117437051Y-79401580D01*
X117437048Y-79401584D01*
X117354919Y-79524498D01*
X117354912Y-79524511D01*
X117298343Y-79661082D01*
X117298340Y-79661092D01*
X117269500Y-79806079D01*
X117269500Y-79806082D01*
X117269500Y-79953918D01*
X117269500Y-79953920D01*
X117269499Y-79953920D01*
X107325736Y-79953920D01*
X107381658Y-79818913D01*
X107396005Y-79746788D01*
X107410500Y-79673920D01*
X107410500Y-79526079D01*
X107381659Y-79381092D01*
X107381658Y-79381091D01*
X107381658Y-79381087D01*
X107358175Y-79324394D01*
X107325087Y-79244511D01*
X107325080Y-79244498D01*
X107242951Y-79121584D01*
X107242948Y-79121580D01*
X107138419Y-79017051D01*
X107138415Y-79017048D01*
X107015501Y-78934919D01*
X107015488Y-78934912D01*
X106878917Y-78878343D01*
X106878907Y-78878340D01*
X106733920Y-78849500D01*
X106733918Y-78849500D01*
X106586082Y-78849500D01*
X106586080Y-78849500D01*
X106441092Y-78878340D01*
X106441082Y-78878343D01*
X106304511Y-78934912D01*
X106304498Y-78934919D01*
X106181584Y-79017048D01*
X106181580Y-79017051D01*
X106077051Y-79121580D01*
X106077048Y-79121584D01*
X105994919Y-79244498D01*
X105994912Y-79244511D01*
X105938343Y-79381082D01*
X105938340Y-79381092D01*
X105909500Y-79526079D01*
X105909500Y-79526082D01*
X105909500Y-79673918D01*
X105909500Y-79673920D01*
X105909499Y-79673920D01*
X102127710Y-79673920D01*
X102169320Y-79592255D01*
X102205252Y-79481672D01*
X102222826Y-79427584D01*
X102224027Y-79420000D01*
X101465583Y-79420000D01*
X101469978Y-79415605D01*
X101522639Y-79324394D01*
X101549898Y-79222661D01*
X101549898Y-79117339D01*
X101522639Y-79015606D01*
X101469978Y-78924395D01*
X101465583Y-78920000D01*
X102224027Y-78920000D01*
X102224027Y-78919999D01*
X102222826Y-78912415D01*
X102169320Y-78747744D01*
X102090716Y-78593475D01*
X101988944Y-78453397D01*
X101866514Y-78330967D01*
X101726436Y-78229195D01*
X101572169Y-78150591D01*
X101407496Y-78097085D01*
X101236483Y-78070000D01*
X100973120Y-78070000D01*
X100906081Y-78050315D01*
X100860326Y-77997511D01*
X100850382Y-77928353D01*
X100851503Y-77921809D01*
X100875411Y-77801610D01*
X100875412Y-77801607D01*
X100875412Y-77678393D01*
X100875411Y-77678389D01*
X100851376Y-77557555D01*
X100851375Y-77557548D01*
X100841588Y-77533920D01*
X104409499Y-77533920D01*
X104438340Y-77678907D01*
X104438343Y-77678917D01*
X104494912Y-77815488D01*
X104494919Y-77815501D01*
X104577048Y-77938415D01*
X104577051Y-77938419D01*
X104681580Y-78042948D01*
X104681584Y-78042951D01*
X104804498Y-78125080D01*
X104804511Y-78125087D01*
X104866084Y-78150591D01*
X104941087Y-78181658D01*
X104941091Y-78181658D01*
X104941092Y-78181659D01*
X105086079Y-78210500D01*
X105086082Y-78210500D01*
X105233920Y-78210500D01*
X105331462Y-78191096D01*
X105378913Y-78181658D01*
X105515495Y-78125084D01*
X105547169Y-78103920D01*
X109779499Y-78103920D01*
X109808340Y-78248907D01*
X109808343Y-78248917D01*
X109864912Y-78385488D01*
X109864919Y-78385501D01*
X109947048Y-78508415D01*
X109947051Y-78508419D01*
X110051580Y-78612948D01*
X110051584Y-78612951D01*
X110174498Y-78695080D01*
X110174511Y-78695087D01*
X110301174Y-78747552D01*
X110311087Y-78751658D01*
X110311091Y-78751658D01*
X110311092Y-78751659D01*
X110456079Y-78780500D01*
X110456082Y-78780500D01*
X110603920Y-78780500D01*
X110701462Y-78761096D01*
X110748913Y-78751658D01*
X110885495Y-78695084D01*
X111008416Y-78612951D01*
X111112951Y-78508416D01*
X111195084Y-78385495D01*
X111251658Y-78248913D01*
X111265037Y-78181656D01*
X111280500Y-78103920D01*
X111280500Y-77956079D01*
X111251659Y-77811092D01*
X111251658Y-77811091D01*
X111251658Y-77811087D01*
X111196910Y-77678913D01*
X111195087Y-77674511D01*
X111195080Y-77674498D01*
X111112951Y-77551584D01*
X111112948Y-77551580D01*
X111008419Y-77447051D01*
X111008415Y-77447048D01*
X110885501Y-77364919D01*
X110885488Y-77364912D01*
X110748917Y-77308343D01*
X110748907Y-77308340D01*
X110603920Y-77279500D01*
X110603918Y-77279500D01*
X110456082Y-77279500D01*
X110456080Y-77279500D01*
X110311092Y-77308340D01*
X110311082Y-77308343D01*
X110174511Y-77364912D01*
X110174498Y-77364919D01*
X110051584Y-77447048D01*
X110051580Y-77447051D01*
X109947051Y-77551580D01*
X109947048Y-77551584D01*
X109864919Y-77674498D01*
X109864912Y-77674511D01*
X109808343Y-77811082D01*
X109808340Y-77811092D01*
X109779500Y-77956079D01*
X109779500Y-77956082D01*
X109779500Y-78103918D01*
X109779500Y-78103920D01*
X109779499Y-78103920D01*
X105547169Y-78103920D01*
X105638416Y-78042951D01*
X105742951Y-77938416D01*
X105754811Y-77920666D01*
X105781249Y-77881100D01*
X105781249Y-77881099D01*
X105825080Y-77815501D01*
X105825080Y-77815500D01*
X105825084Y-77815495D01*
X105881658Y-77678913D01*
X105910500Y-77533918D01*
X105910500Y-77444500D01*
X105930185Y-77377461D01*
X105982989Y-77331706D01*
X106034500Y-77320500D01*
X106093920Y-77320500D01*
X106191462Y-77301096D01*
X106238913Y-77291658D01*
X106344547Y-77247902D01*
X106375488Y-77235087D01*
X106375488Y-77235086D01*
X106375495Y-77235084D01*
X106498416Y-77152951D01*
X106602951Y-77048416D01*
X106685084Y-76925495D01*
X106741658Y-76788913D01*
X106770500Y-76643918D01*
X106770500Y-76496082D01*
X106770500Y-76496079D01*
X106741659Y-76351092D01*
X106741658Y-76351091D01*
X106741658Y-76351087D01*
X106741656Y-76351082D01*
X106685087Y-76214511D01*
X106685080Y-76214498D01*
X106602951Y-76091584D01*
X106602948Y-76091580D01*
X106498419Y-75987051D01*
X106498415Y-75987048D01*
X106375501Y-75904919D01*
X106375488Y-75904912D01*
X106238917Y-75848343D01*
X106238907Y-75848340D01*
X106093920Y-75819500D01*
X106093918Y-75819500D01*
X105946082Y-75819500D01*
X105946080Y-75819500D01*
X105801092Y-75848340D01*
X105801082Y-75848343D01*
X105664511Y-75904912D01*
X105664498Y-75904919D01*
X105541584Y-75987048D01*
X105541580Y-75987051D01*
X105437051Y-76091580D01*
X105437048Y-76091584D01*
X105354919Y-76214498D01*
X105354912Y-76214511D01*
X105298343Y-76351082D01*
X105298340Y-76351092D01*
X105269500Y-76496079D01*
X105269500Y-76585500D01*
X105249815Y-76652539D01*
X105197011Y-76698294D01*
X105145500Y-76709500D01*
X105086080Y-76709500D01*
X104941092Y-76738340D01*
X104941082Y-76738343D01*
X104804511Y-76794912D01*
X104804498Y-76794919D01*
X104681584Y-76877048D01*
X104681580Y-76877051D01*
X104577051Y-76981580D01*
X104577048Y-76981584D01*
X104494919Y-77104498D01*
X104494912Y-77104511D01*
X104438343Y-77241082D01*
X104438340Y-77241092D01*
X104409500Y-77386079D01*
X104409500Y-77386082D01*
X104409500Y-77533918D01*
X104409500Y-77533920D01*
X104409499Y-77533920D01*
X100841588Y-77533920D01*
X100820893Y-77483959D01*
X100804223Y-77443713D01*
X100804221Y-77443710D01*
X100735770Y-77341267D01*
X100735767Y-77341263D01*
X100648648Y-77254144D01*
X100648644Y-77254141D01*
X100546204Y-77185692D01*
X100546195Y-77185687D01*
X100432366Y-77138538D01*
X100432367Y-77138538D01*
X100432364Y-77138537D01*
X100432360Y-77138536D01*
X100432356Y-77138535D01*
X100311522Y-77114500D01*
X100311518Y-77114500D01*
X100188306Y-77114500D01*
X100188301Y-77114500D01*
X100067467Y-77138535D01*
X100067457Y-77138538D01*
X99953628Y-77185687D01*
X99953619Y-77185692D01*
X99851179Y-77254141D01*
X99851175Y-77254144D01*
X99764056Y-77341263D01*
X99764053Y-77341267D01*
X99695604Y-77443707D01*
X99695599Y-77443716D01*
X99648450Y-77557545D01*
X99648447Y-77557555D01*
X99624412Y-77678389D01*
X99624412Y-77801610D01*
X99648321Y-77921809D01*
X99648449Y-77922452D01*
X99655061Y-77938415D01*
X99695599Y-78036283D01*
X99695604Y-78036292D01*
X99741557Y-78105065D01*
X99762435Y-78171743D01*
X99743950Y-78239123D01*
X99711340Y-78274274D01*
X99633316Y-78330961D01*
X99633311Y-78330965D01*
X99510879Y-78453397D01*
X99409107Y-78593475D01*
X99330503Y-78747744D01*
X99276997Y-78912415D01*
X99275796Y-78919999D01*
X97944534Y-78919999D01*
X97943314Y-78912299D01*
X97889785Y-78747555D01*
X97811144Y-78593212D01*
X97709326Y-78453072D01*
X97586840Y-78330586D01*
X97446700Y-78228768D01*
X97292357Y-78150127D01*
X97127613Y-78096598D01*
X97127611Y-78096597D01*
X97127610Y-78096597D01*
X96996183Y-78075781D01*
X96956523Y-78069500D01*
X96183301Y-78069500D01*
X96143640Y-78075781D01*
X96012214Y-78096597D01*
X95847464Y-78150128D01*
X95693123Y-78228768D01*
X95613168Y-78286859D01*
X95552984Y-78330586D01*
X95552982Y-78330588D01*
X95552981Y-78330588D01*
X95430500Y-78453069D01*
X95430500Y-78453070D01*
X95430498Y-78453072D01*
X95430262Y-78453397D01*
X95328680Y-78593211D01*
X95250040Y-78747552D01*
X95250039Y-78747554D01*
X95250039Y-78747555D01*
X95248706Y-78751658D01*
X95196509Y-78912302D01*
X95180148Y-79015606D01*
X95169412Y-79083389D01*
X94240500Y-79083389D01*
X94240500Y-74523052D01*
X108642500Y-74523052D01*
X108642500Y-74711947D01*
X108672048Y-74898502D01*
X108730414Y-75078137D01*
X108816166Y-75246433D01*
X108834616Y-75271828D01*
X109400352Y-74706093D01*
X109423156Y-74791198D01*
X109482401Y-74893814D01*
X109566186Y-74977599D01*
X109668802Y-75036844D01*
X109753905Y-75059647D01*
X109188169Y-75625382D01*
X109188170Y-75625383D01*
X109213559Y-75643829D01*
X109381862Y-75729585D01*
X109561497Y-75787951D01*
X109748053Y-75817500D01*
X109936947Y-75817500D01*
X110123502Y-75787951D01*
X110303137Y-75729585D01*
X110471437Y-75643831D01*
X110496828Y-75625383D01*
X110496828Y-75625382D01*
X109931094Y-75059647D01*
X110016198Y-75036844D01*
X110118814Y-74977599D01*
X110202599Y-74893814D01*
X110261844Y-74791198D01*
X110284647Y-74706093D01*
X110791969Y-75213415D01*
X110813151Y-75242567D01*
X110813193Y-75242542D01*
X110813514Y-75243066D01*
X110814768Y-75244792D01*
X110815740Y-75246699D01*
X110926810Y-75399573D01*
X111060427Y-75533190D01*
X111213301Y-75644260D01*
X111292847Y-75684790D01*
X111381663Y-75730045D01*
X111381665Y-75730045D01*
X111381668Y-75730047D01*
X111477997Y-75761346D01*
X111561381Y-75788440D01*
X111748014Y-75818000D01*
X111748019Y-75818000D01*
X111936986Y-75818000D01*
X112123618Y-75788440D01*
X112125123Y-75787951D01*
X112303332Y-75730047D01*
X112471699Y-75644260D01*
X112624573Y-75533190D01*
X112758190Y-75399573D01*
X112869260Y-75246699D01*
X112955047Y-75078332D01*
X113013440Y-74898618D01*
X113014201Y-74893814D01*
X113043000Y-74711986D01*
X113043000Y-74523013D01*
X113013440Y-74336381D01*
X112968527Y-74198156D01*
X112955047Y-74156668D01*
X112955045Y-74156665D01*
X112955045Y-74156663D01*
X112886218Y-74021583D01*
X112869260Y-73988301D01*
X112758190Y-73835427D01*
X112624573Y-73701810D01*
X112471699Y-73590740D01*
X112303336Y-73504954D01*
X112123618Y-73446559D01*
X111936986Y-73417000D01*
X111936981Y-73417000D01*
X111748019Y-73417000D01*
X111748014Y-73417000D01*
X111561381Y-73446559D01*
X111381663Y-73504954D01*
X111213300Y-73590740D01*
X111126079Y-73654110D01*
X111060427Y-73701810D01*
X111060425Y-73701812D01*
X111060424Y-73701812D01*
X110926812Y-73835424D01*
X110926812Y-73835425D01*
X110926810Y-73835427D01*
X110871275Y-73911864D01*
X110815738Y-73988303D01*
X110815734Y-73988310D01*
X110814765Y-73990212D01*
X110813512Y-73991935D01*
X110813193Y-73992457D01*
X110813151Y-73992431D01*
X110791969Y-74021583D01*
X110284647Y-74528905D01*
X110261844Y-74443802D01*
X110202599Y-74341186D01*
X110118814Y-74257401D01*
X110016198Y-74198156D01*
X109931094Y-74175352D01*
X110496828Y-73609616D01*
X110471433Y-73591166D01*
X110303137Y-73505414D01*
X110123502Y-73447048D01*
X109936947Y-73417500D01*
X109748053Y-73417500D01*
X109561497Y-73447048D01*
X109381862Y-73505414D01*
X109213560Y-73591169D01*
X109188170Y-73609616D01*
X109188169Y-73609616D01*
X109753906Y-74175352D01*
X109668802Y-74198156D01*
X109566186Y-74257401D01*
X109482401Y-74341186D01*
X109423156Y-74443802D01*
X109400352Y-74528905D01*
X108834616Y-73963169D01*
X108834616Y-73963170D01*
X108816169Y-73988560D01*
X108730414Y-74156862D01*
X108672048Y-74336497D01*
X108642500Y-74523052D01*
X94240500Y-74523052D01*
X94240500Y-72583920D01*
X104409499Y-72583920D01*
X104438340Y-72728907D01*
X104438343Y-72728917D01*
X104494912Y-72865488D01*
X104494919Y-72865501D01*
X104577048Y-72988415D01*
X104577051Y-72988419D01*
X104681580Y-73092948D01*
X104681584Y-73092951D01*
X104804498Y-73175080D01*
X104804511Y-73175087D01*
X104941082Y-73231656D01*
X104941087Y-73231658D01*
X104941091Y-73231658D01*
X104941092Y-73231659D01*
X105086079Y-73260500D01*
X105086082Y-73260500D01*
X105233920Y-73260500D01*
X105331462Y-73241096D01*
X105378913Y-73231658D01*
X105515495Y-73175084D01*
X105638416Y-73092951D01*
X105742951Y-72988416D01*
X105825084Y-72865495D01*
X105881658Y-72728913D01*
X105910500Y-72583918D01*
X105910500Y-72436082D01*
X105910500Y-72436079D01*
X105881659Y-72291092D01*
X105881658Y-72291091D01*
X105881658Y-72291087D01*
X105858959Y-72236286D01*
X105825087Y-72154511D01*
X105825080Y-72154498D01*
X105742951Y-72031584D01*
X105742948Y-72031580D01*
X105638419Y-71927051D01*
X105638415Y-71927048D01*
X105515501Y-71844919D01*
X105515488Y-71844912D01*
X105378917Y-71788343D01*
X105378907Y-71788340D01*
X105233920Y-71759500D01*
X105233918Y-71759500D01*
X105086082Y-71759500D01*
X105086080Y-71759500D01*
X104941092Y-71788340D01*
X104941082Y-71788343D01*
X104804511Y-71844912D01*
X104804498Y-71844919D01*
X104681584Y-71927048D01*
X104681580Y-71927051D01*
X104577051Y-72031580D01*
X104577048Y-72031584D01*
X104494919Y-72154498D01*
X104494912Y-72154511D01*
X104438343Y-72291082D01*
X104438340Y-72291092D01*
X104409500Y-72436079D01*
X104409500Y-72436082D01*
X104409500Y-72583918D01*
X104409500Y-72583920D01*
X104409499Y-72583920D01*
X94240500Y-72583920D01*
X94240500Y-70423389D01*
X95169412Y-70423389D01*
X95169412Y-70596611D01*
X95196510Y-70767701D01*
X95250039Y-70932445D01*
X95328680Y-71086788D01*
X95430498Y-71226928D01*
X95552984Y-71349414D01*
X95693124Y-71451232D01*
X95847467Y-71529873D01*
X96012211Y-71583402D01*
X96183301Y-71610500D01*
X96183302Y-71610500D01*
X96956522Y-71610500D01*
X96956523Y-71610500D01*
X97127613Y-71583402D01*
X97292357Y-71529873D01*
X97446700Y-71451232D01*
X97586840Y-71349414D01*
X97709326Y-71226928D01*
X97811144Y-71086788D01*
X97889785Y-70932445D01*
X97943314Y-70767701D01*
X97970412Y-70596611D01*
X97970412Y-70423389D01*
X97970412Y-70423388D01*
X97953477Y-70316462D01*
X97953477Y-70316460D01*
X97945230Y-70264395D01*
X97944534Y-70259999D01*
X99275796Y-70259999D01*
X99275797Y-70260000D01*
X100034216Y-70260000D01*
X100029821Y-70264395D01*
X99977160Y-70355606D01*
X99949901Y-70457339D01*
X99949901Y-70562661D01*
X99977160Y-70664394D01*
X100029821Y-70755605D01*
X100034216Y-70760000D01*
X99275797Y-70760000D01*
X99276997Y-70767584D01*
X99330503Y-70932255D01*
X99409107Y-71086524D01*
X99510879Y-71226602D01*
X99633313Y-71349036D01*
X99711339Y-71405724D01*
X99754006Y-71461054D01*
X99759985Y-71530667D01*
X99741558Y-71574933D01*
X99695603Y-71643709D01*
X99695599Y-71643716D01*
X99648450Y-71757545D01*
X99648447Y-71757555D01*
X99624412Y-71878389D01*
X99624412Y-72001610D01*
X99648447Y-72122444D01*
X99648450Y-72122454D01*
X99695599Y-72236283D01*
X99695604Y-72236292D01*
X99764053Y-72338732D01*
X99764056Y-72338736D01*
X99851175Y-72425855D01*
X99851179Y-72425858D01*
X99953619Y-72494307D01*
X99953625Y-72494310D01*
X99953626Y-72494311D01*
X100067460Y-72541463D01*
X100188301Y-72565499D01*
X100188305Y-72565500D01*
X100188306Y-72565500D01*
X100311519Y-72565500D01*
X100311520Y-72565499D01*
X100432364Y-72541463D01*
X100546198Y-72494311D01*
X100648645Y-72425858D01*
X100648648Y-72425855D01*
X100732195Y-72342309D01*
X100735767Y-72338736D01*
X100735770Y-72338733D01*
X100804223Y-72236286D01*
X100851375Y-72122452D01*
X100875412Y-72001606D01*
X100875412Y-71878394D01*
X100851503Y-71758191D01*
X100857730Y-71688599D01*
X100900594Y-71633422D01*
X100966483Y-71610178D01*
X100973120Y-71610000D01*
X101236483Y-71610000D01*
X101407496Y-71582914D01*
X101572169Y-71529408D01*
X101726436Y-71450804D01*
X101866514Y-71349032D01*
X101988944Y-71226602D01*
X102090716Y-71086524D01*
X102169320Y-70932255D01*
X102222826Y-70767584D01*
X102224027Y-70760000D01*
X101465608Y-70760000D01*
X101470003Y-70755605D01*
X101522664Y-70664394D01*
X101549923Y-70562661D01*
X101549923Y-70457339D01*
X101522664Y-70355606D01*
X101470003Y-70264395D01*
X101465608Y-70260000D01*
X102224027Y-70260000D01*
X102224027Y-70259999D01*
X102222826Y-70252415D01*
X102169320Y-70087744D01*
X102090716Y-69933475D01*
X101988944Y-69793397D01*
X101866514Y-69670967D01*
X101726436Y-69569195D01*
X101572169Y-69490591D01*
X101407496Y-69437085D01*
X101236483Y-69410000D01*
X100999912Y-69410000D01*
X100999912Y-70110001D01*
X100499912Y-70110001D01*
X100499912Y-69410000D01*
X100263341Y-69410000D01*
X100092327Y-69437085D01*
X99927654Y-69490591D01*
X99773387Y-69569195D01*
X99633309Y-69670967D01*
X99510879Y-69793397D01*
X99409107Y-69933475D01*
X99330503Y-70087744D01*
X99276997Y-70252415D01*
X99275796Y-70259999D01*
X97944534Y-70259999D01*
X97943314Y-70252299D01*
X97889785Y-70087555D01*
X97811144Y-69933212D01*
X97709326Y-69793072D01*
X97586840Y-69670586D01*
X97446700Y-69568768D01*
X97292357Y-69490127D01*
X97127613Y-69436598D01*
X97127611Y-69436597D01*
X97127610Y-69436597D01*
X96996183Y-69415781D01*
X96956523Y-69409500D01*
X96183301Y-69409500D01*
X96143640Y-69415781D01*
X96012214Y-69436597D01*
X95847464Y-69490128D01*
X95693123Y-69568768D01*
X95613168Y-69626859D01*
X95552984Y-69670586D01*
X95552982Y-69670588D01*
X95552981Y-69670588D01*
X95430500Y-69793069D01*
X95430500Y-69793070D01*
X95430498Y-69793072D01*
X95430262Y-69793397D01*
X95328680Y-69933211D01*
X95250040Y-70087552D01*
X95196509Y-70252302D01*
X95180148Y-70355606D01*
X95169412Y-70423389D01*
X94240500Y-70423389D01*
X94240500Y-68684500D01*
X94260185Y-68617461D01*
X94312989Y-68571706D01*
X94364500Y-68560500D01*
X137495500Y-68560500D01*
X137562539Y-68580185D01*
G37*
%TD.AperFunction*%
%TD*%
M02*
