%TF.GenerationSoftware,KiCad,Pcbnew,10.0.0*%
%TF.CreationDate,2026-09-10T04:53:07-04:00*%
%TF.ProjectId,nrf54l15_v3,6e726635-346c-4313-955f-76332e6b6963,rev?*%
%TF.SameCoordinates,Original*%
%TF.FileFunction,Copper,L2,Inr*%
%TF.FilePolarity,Positive*%
%FSLAX46Y46*%
G04 Gerber Fmt 4.6, Leading zero omitted, Abs format (unit mm)*
G04 Created by KiCad (PCBNEW 10.0.0) date 2026-09-10 04:53:07*
%MOMM*%
%LPD*%
G01*
G04 APERTURE LIST*
%TA.AperFunction,ComponentPad*%
%ADD10O,2.000000X1.200000*%
%TD*%
%TA.AperFunction,ComponentPad*%
%ADD11O,1.800000X1.200000*%
%TD*%
%TA.AperFunction,HeatsinkPad*%
%ADD12C,0.500000*%
%TD*%
%TA.AperFunction,ComponentPad*%
%ADD13C,1.400000*%
%TD*%
%TA.AperFunction,ViaPad*%
%ADD14C,0.500000*%
%TD*%
%TA.AperFunction,ViaPad*%
%ADD15C,0.450000*%
%TD*%
G04 APERTURE END LIST*
D10*
%TO.N,GND*%
%TO.C,J1*%
X100749912Y-79170000D03*
D11*
X96569912Y-79170000D03*
X96569912Y-70510000D03*
D10*
X100749912Y-70510000D03*
%TD*%
D12*
%TO.N,GND*%
%TO.C,U2*%
X105540000Y-86560000D03*
X105540000Y-87560000D03*
X105540000Y-88560000D03*
X106540000Y-86560000D03*
X106540000Y-87560000D03*
X106540000Y-88560000D03*
X107540000Y-86560000D03*
X107540000Y-87560000D03*
X107540000Y-88560000D03*
%TD*%
%TO.N,GND*%
%TO.C,IC1*%
X125200000Y-73400000D03*
X125200000Y-74500000D03*
X125200000Y-75600000D03*
X126300000Y-73400000D03*
X126300000Y-74500000D03*
X126300000Y-75600000D03*
X127400000Y-73400000D03*
X127400000Y-74500000D03*
X127400000Y-75600000D03*
%TD*%
D13*
%TO.N,SOLAR_5p5V*%
%TO.C,U5*%
X111842500Y-74617500D03*
%TO.N,GND*%
X109842500Y-74617500D03*
%TD*%
D12*
%TO.N,GND*%
%TO.C,U6*%
X118490000Y-85915000D03*
X118490000Y-87115000D03*
X118490000Y-88315000D03*
X118490000Y-89515000D03*
X119690000Y-85915000D03*
X119690000Y-87115000D03*
X119690000Y-88315000D03*
X119690000Y-89515000D03*
X120890000Y-85915000D03*
X120890000Y-87115000D03*
X120890000Y-88315000D03*
X120890000Y-89515000D03*
X122090000Y-85915000D03*
X122090000Y-87115000D03*
X122090000Y-88315000D03*
X122090000Y-89515000D03*
%TD*%
D13*
%TO.N,VBAT*%
%TO.C,U4*%
X100420000Y-96500000D03*
%TO.N,GND*%
X100420000Y-98500000D03*
%TD*%
D14*
%TO.N,GND*%
X122575000Y-96650000D03*
X95550000Y-88550000D03*
X135600000Y-72900000D03*
X131000000Y-73800000D03*
X131500000Y-75800000D03*
X129860000Y-88650000D03*
X136500000Y-88260000D03*
X118200000Y-70700000D03*
X133600000Y-74800000D03*
X136400000Y-69800000D03*
X135800000Y-79000000D03*
X124920000Y-86760000D03*
X120500000Y-70700000D03*
X102360000Y-98440000D03*
X113000000Y-92125000D03*
X95775000Y-93175000D03*
X135300000Y-90875000D03*
X134170000Y-88190000D03*
X124930000Y-83900000D03*
X130300000Y-69800000D03*
X126940000Y-89220000D03*
X133180000Y-86490000D03*
X127730000Y-89530000D03*
X136100000Y-82000000D03*
X116975000Y-100325000D03*
X137050000Y-91525000D03*
X114150000Y-91170000D03*
X127730000Y-88170000D03*
X130070000Y-84510000D03*
X112150000Y-100320000D03*
X132650000Y-88375000D03*
X109850000Y-76810000D03*
X126100000Y-77900000D03*
X112715000Y-93580000D03*
X135275000Y-91450000D03*
X100500000Y-93425000D03*
X125710000Y-86750000D03*
X112950000Y-87130000D03*
X105860000Y-81470000D03*
X128140000Y-86750000D03*
X117175000Y-93350000D03*
X104320000Y-100430000D03*
X127750000Y-88840000D03*
X135600000Y-76000000D03*
X122400000Y-70200000D03*
X129110000Y-91300000D03*
X95575000Y-86475000D03*
X108490000Y-91020000D03*
X99710000Y-86740000D03*
X126550000Y-86760000D03*
X117800000Y-79500000D03*
X135150000Y-90300000D03*
X106000000Y-70850000D03*
X127070000Y-85820000D03*
X133550000Y-91030000D03*
X128590000Y-89170000D03*
X134940000Y-88190000D03*
X95625000Y-81500000D03*
X134100000Y-81100000D03*
X103100000Y-69700000D03*
X136400000Y-100850000D03*
X122800000Y-76600000D03*
X112050000Y-84520000D03*
X133600000Y-69700000D03*
X131325000Y-94425000D03*
X133400000Y-84100000D03*
X131590000Y-86490000D03*
X122020000Y-81770000D03*
X102570000Y-92830000D03*
X131400000Y-101025000D03*
X136300000Y-85400000D03*
X126900000Y-90375000D03*
X135800000Y-97100000D03*
X105970000Y-96423000D03*
X104725000Y-70100000D03*
X123860000Y-82600000D03*
X114560000Y-84450000D03*
X115800000Y-70700000D03*
X133420000Y-88190000D03*
X107800000Y-81350000D03*
X131930000Y-92450000D03*
X106925000Y-73475000D03*
X132880000Y-91060000D03*
X128100000Y-92325000D03*
X134150000Y-91010000D03*
X134030000Y-90250000D03*
X132330000Y-86480000D03*
X118550000Y-96625000D03*
X96780000Y-89920000D03*
X101300000Y-88230000D03*
X98300000Y-88970000D03*
X130180000Y-86520000D03*
X124500000Y-79600000D03*
X126100000Y-88630000D03*
X103560000Y-75480000D03*
X132790000Y-90200000D03*
X130630000Y-87740000D03*
X118960000Y-82170000D03*
X135700000Y-88190000D03*
X98025000Y-81375000D03*
X127310000Y-86750000D03*
X103540000Y-74460000D03*
X111990762Y-88890000D03*
X137025000Y-90175000D03*
X131340000Y-87700000D03*
X104050000Y-79670000D03*
X137050000Y-90850000D03*
X122710000Y-82120000D03*
X133900000Y-100925000D03*
X131225000Y-96950000D03*
X128500000Y-71100000D03*
X127700000Y-78650003D03*
X127000000Y-69700000D03*
X122600000Y-74300000D03*
X95700000Y-84050000D03*
X137260000Y-89200000D03*
X130800000Y-92890000D03*
X133100000Y-72200000D03*
X131250000Y-98200000D03*
X106850000Y-71825000D03*
X136850000Y-88700000D03*
X130880000Y-86510000D03*
%TO.N,VBUS*%
X105160000Y-72510000D03*
X105160000Y-77460000D03*
%TO.N,VDDIO*%
X108630000Y-93870000D03*
X104890000Y-91800000D03*
X123210000Y-84850000D03*
X116710000Y-84860000D03*
X106045000Y-83185000D03*
X115570000Y-95810000D03*
X115205000Y-89395000D03*
X107315000Y-94590000D03*
%TO.N,VBAT*%
X127700000Y-78000000D03*
X113190000Y-88720000D03*
X103632000Y-95123000D03*
X131500000Y-81400000D03*
%TO.N,CC1*%
X110530000Y-78030000D03*
X110540000Y-85630000D03*
%TO.N,CC2*%
X106020000Y-76570000D03*
X108990000Y-85500000D03*
%TO.N,VOUT1*%
X128030000Y-85852000D03*
X106660000Y-79600000D03*
D15*
%TO.N,/npm1300/VSYS*%
X108990000Y-87810000D03*
D14*
X109760000Y-83230000D03*
X102695000Y-88560000D03*
%TO.N,Net-(U2-SW2)*%
X103200000Y-87810000D03*
X102400000Y-83040000D03*
%TO.N,PMIC_INT*%
X121390000Y-92360000D03*
X103650000Y-91180000D03*
%TO.N,I2C_SDA*%
X115650000Y-85490000D03*
X108720000Y-94970000D03*
%TO.N,I2C_SCL*%
X116280000Y-86750000D03*
X114600000Y-91720000D03*
%TO.N,/Solar/VINT*%
X129900000Y-72900000D03*
X125300000Y-78300000D03*
%TO.N,/Solar/LOAD*%
X124900000Y-71000000D03*
X128100000Y-80900000D03*
%TO.N,Net-(U6-DECA)*%
X124265000Y-86825000D03*
X123460000Y-83580000D03*
%TO.N,nRF54_SWDIO*%
X123200000Y-91780000D03*
X121650000Y-99575000D03*
%TO.N,nRF54_SWDCLK*%
X124587000Y-89620000D03*
X121725000Y-98200000D03*
%TO.N,nRF54_RESET*%
X124587000Y-88265000D03*
X125075000Y-93050000D03*
%TD*%
%TA.AperFunction,Conductor*%
%TO.N,GND*%
G36*
X137512606Y-68565523D02*
G01*
X137527604Y-68569927D01*
X137586355Y-68607672D01*
X137587542Y-68609041D01*
X137615018Y-68663902D01*
X137616663Y-68671460D01*
X137619500Y-68697831D01*
X137619500Y-92376000D01*
X137599815Y-92443039D01*
X137547011Y-92488794D01*
X137495500Y-92500000D01*
X136999999Y-92500000D01*
X136953956Y-93651091D01*
X136940855Y-93978638D01*
X136940762Y-93980956D01*
X136918414Y-94047155D01*
X136863823Y-94090763D01*
X136816861Y-94100000D01*
X134655433Y-94100000D01*
X134588394Y-94080315D01*
X134542639Y-94027511D01*
X134531461Y-93978638D01*
X134500000Y-92500000D01*
X132600000Y-92500000D01*
X132599999Y-92500000D01*
X132799999Y-99499999D01*
X132800000Y-99500000D01*
X132800001Y-99500000D01*
X137495500Y-99500000D01*
X137562539Y-99519685D01*
X137608294Y-99572489D01*
X137619500Y-99624000D01*
X137619500Y-101412805D01*
X137614475Y-101447749D01*
X137610070Y-101462747D01*
X137572327Y-101521490D01*
X137570958Y-101522677D01*
X137516097Y-101550153D01*
X137508539Y-101551798D01*
X137482168Y-101554635D01*
X94382330Y-101554635D01*
X94347389Y-101549610D01*
X94332390Y-101545205D01*
X94273644Y-101507462D01*
X94272457Y-101506093D01*
X94244977Y-101451218D01*
X94243332Y-101443656D01*
X94240500Y-101417303D01*
X94240500Y-96405507D01*
X99219500Y-96405507D01*
X99219500Y-96594491D01*
X99249058Y-96781112D01*
X99249059Y-96781118D01*
X99307454Y-96960836D01*
X99393240Y-97129199D01*
X99504310Y-97282073D01*
X99637927Y-97415690D01*
X99790801Y-97526760D01*
X99790805Y-97526762D01*
X99791317Y-97527134D01*
X99798352Y-97531835D01*
X99816188Y-97544793D01*
X99830985Y-97557431D01*
X100200444Y-97926890D01*
X100233929Y-97988213D01*
X100228945Y-98057905D01*
X100187073Y-98113838D01*
X100174764Y-98121958D01*
X100143686Y-98139900D01*
X100059902Y-98223684D01*
X100059898Y-98223689D01*
X100041957Y-98254764D01*
X99991389Y-98302979D01*
X99922782Y-98316200D01*
X99857918Y-98290231D01*
X99846890Y-98280443D01*
X99412116Y-97845668D01*
X99399444Y-97850917D01*
X99395100Y-97866321D01*
X99395881Y-97866719D01*
X99393882Y-97870640D01*
X99393846Y-97870771D01*
X99393670Y-97871057D01*
X99307913Y-98039361D01*
X99307912Y-98039364D01*
X99249548Y-98218995D01*
X99240849Y-98273918D01*
X99220000Y-98405552D01*
X99220000Y-98594447D01*
X99233300Y-98678416D01*
X99249548Y-98781003D01*
X99307912Y-98960634D01*
X99307913Y-98960636D01*
X99333976Y-99011786D01*
X99393666Y-99128933D01*
X99412116Y-99154328D01*
X99846892Y-98719551D01*
X99908212Y-98686069D01*
X99977903Y-98691053D01*
X100033837Y-98732924D01*
X100041957Y-98745235D01*
X100059898Y-98776310D01*
X100059900Y-98776313D01*
X100059901Y-98776314D01*
X100143686Y-98860099D01*
X100174760Y-98878040D01*
X100222976Y-98928606D01*
X100236200Y-98997213D01*
X100210232Y-99062078D01*
X100200442Y-99073108D01*
X99765669Y-99507881D01*
X99765669Y-99507882D01*
X99765673Y-99507886D01*
X99781914Y-99519685D01*
X99791059Y-99526329D01*
X99959362Y-99612085D01*
X100138997Y-99670451D01*
X100325553Y-99700000D01*
X100514446Y-99700000D01*
X100514447Y-99700000D01*
X100701002Y-99670451D01*
X100767269Y-99648920D01*
X120899499Y-99648920D01*
X120928340Y-99793907D01*
X120928343Y-99793917D01*
X120928819Y-99795067D01*
X120928820Y-99795070D01*
X120984908Y-99930481D01*
X120984913Y-99930490D01*
X120984923Y-99930507D01*
X121067049Y-100053417D01*
X121067050Y-100053418D01*
X121067055Y-100053424D01*
X121171574Y-100157943D01*
X121171580Y-100157948D01*
X121171584Y-100157951D01*
X121294498Y-100240080D01*
X121294511Y-100240087D01*
X121431082Y-100296656D01*
X121431087Y-100296658D01*
X121431091Y-100296658D01*
X121431092Y-100296659D01*
X121431357Y-100296711D01*
X121431358Y-100296712D01*
X121431382Y-100296717D01*
X121576077Y-100325500D01*
X121576079Y-100325500D01*
X121576082Y-100325500D01*
X121723920Y-100325500D01*
X121821462Y-100306096D01*
X121868913Y-100296658D01*
X122005495Y-100240084D01*
X122128416Y-100157951D01*
X122232951Y-100053416D01*
X122315084Y-99930495D01*
X122371658Y-99793913D01*
X122400500Y-99648918D01*
X122400500Y-99501082D01*
X122400500Y-99501079D01*
X122400500Y-99501076D01*
X122371717Y-99356383D01*
X122371419Y-99354885D01*
X122369338Y-99350487D01*
X122315087Y-99219511D01*
X122315080Y-99219498D01*
X122232951Y-99096584D01*
X122232948Y-99096580D01*
X122152555Y-99016187D01*
X122131406Y-98987934D01*
X122124755Y-98975753D01*
X122109904Y-98907479D01*
X122134320Y-98842019D01*
X122140925Y-98833196D01*
X122171298Y-98804411D01*
X122181716Y-98797449D01*
X122203416Y-98782951D01*
X122307951Y-98678416D01*
X122390084Y-98555495D01*
X122446658Y-98418913D01*
X122465080Y-98326302D01*
X122475500Y-98273920D01*
X122475500Y-98126076D01*
X122446717Y-97981383D01*
X122446419Y-97979885D01*
X122444338Y-97975487D01*
X122390087Y-97844511D01*
X122390080Y-97844498D01*
X122307951Y-97721584D01*
X122307948Y-97721580D01*
X122307943Y-97721574D01*
X122203424Y-97617055D01*
X122203418Y-97617050D01*
X122203417Y-97617049D01*
X122080507Y-97534923D01*
X122080506Y-97534922D01*
X122080501Y-97534919D01*
X122080488Y-97534912D01*
X122080481Y-97534908D01*
X121943919Y-97478344D01*
X121943920Y-97478344D01*
X121943917Y-97478343D01*
X121943907Y-97478340D01*
X121943905Y-97478339D01*
X121943900Y-97478338D01*
X121798922Y-97449500D01*
X121798920Y-97449500D01*
X121798918Y-97449500D01*
X121651082Y-97449500D01*
X121651080Y-97449500D01*
X121651078Y-97449500D01*
X121506096Y-97478338D01*
X121506079Y-97478344D01*
X121369517Y-97534908D01*
X121369508Y-97534913D01*
X121369491Y-97534923D01*
X121246581Y-97617049D01*
X121246580Y-97617050D01*
X121246574Y-97617055D01*
X121142055Y-97721574D01*
X121142050Y-97721580D01*
X121142049Y-97721581D01*
X121059923Y-97844491D01*
X121059913Y-97844508D01*
X121059908Y-97844517D01*
X121003344Y-97981079D01*
X121003338Y-97981098D01*
X120974500Y-98126076D01*
X120974500Y-98229551D01*
X120969237Y-98247471D01*
X121003338Y-98418899D01*
X121003344Y-98418919D01*
X121059908Y-98555481D01*
X121059913Y-98555490D01*
X121059923Y-98555507D01*
X121142048Y-98678416D01*
X121142051Y-98678419D01*
X121222442Y-98758810D01*
X121243592Y-98787064D01*
X121250243Y-98799245D01*
X121265094Y-98867519D01*
X121240676Y-98932982D01*
X121240673Y-98932985D01*
X121234075Y-98941798D01*
X121203705Y-98970583D01*
X121171606Y-98992031D01*
X121171577Y-98992053D01*
X121171566Y-98992063D01*
X121067055Y-99096574D01*
X121067050Y-99096580D01*
X121067049Y-99096581D01*
X120984923Y-99219491D01*
X120984913Y-99219508D01*
X120984908Y-99219517D01*
X120928344Y-99356079D01*
X120928338Y-99356098D01*
X120899500Y-99501076D01*
X120899500Y-99501079D01*
X120899500Y-99501082D01*
X120899500Y-99648918D01*
X120899500Y-99648920D01*
X120899499Y-99648920D01*
X100767269Y-99648920D01*
X100880637Y-99612085D01*
X101048937Y-99526331D01*
X101074328Y-99507883D01*
X101074328Y-99507882D01*
X100639555Y-99073108D01*
X100606071Y-99011786D01*
X100611055Y-98942094D01*
X100652927Y-98886161D01*
X100665230Y-98878044D01*
X100696314Y-98860099D01*
X100780099Y-98776314D01*
X100798041Y-98745236D01*
X100848605Y-98697022D01*
X100917212Y-98683797D01*
X100982077Y-98709763D01*
X100993109Y-98719555D01*
X101427882Y-99154328D01*
X101427883Y-99154328D01*
X101446331Y-99128937D01*
X101532085Y-98960637D01*
X101590451Y-98781002D01*
X101620000Y-98594447D01*
X101620000Y-98405552D01*
X101590451Y-98218997D01*
X101532085Y-98039362D01*
X101446329Y-97871059D01*
X101442887Y-97866321D01*
X101427886Y-97845673D01*
X101427882Y-97845669D01*
X101427881Y-97845669D01*
X100993108Y-98280442D01*
X100931785Y-98313927D01*
X100862093Y-98308943D01*
X100806160Y-98267071D01*
X100798039Y-98254760D01*
X100780099Y-98223686D01*
X100696315Y-98139902D01*
X100696307Y-98139896D01*
X100665237Y-98121958D01*
X100617021Y-98071392D01*
X100603797Y-98002785D01*
X100629765Y-97937920D01*
X100639555Y-97926890D01*
X100721954Y-97844491D01*
X101009016Y-97557427D01*
X101023805Y-97544797D01*
X101041645Y-97531836D01*
X101048679Y-97527137D01*
X101049195Y-97526761D01*
X101049199Y-97526760D01*
X101202073Y-97415690D01*
X101335690Y-97282073D01*
X101446760Y-97129199D01*
X101532547Y-96960832D01*
X101590940Y-96781118D01*
X101620500Y-96594486D01*
X101620500Y-96405513D01*
X101590940Y-96218881D01*
X101532545Y-96039163D01*
X101453444Y-95883920D01*
X114819499Y-95883920D01*
X114848340Y-96028907D01*
X114848343Y-96028917D01*
X114848819Y-96030067D01*
X114848820Y-96030070D01*
X114904908Y-96165481D01*
X114904913Y-96165490D01*
X114904923Y-96165507D01*
X114987049Y-96288417D01*
X114987050Y-96288418D01*
X114987055Y-96288424D01*
X115091574Y-96392943D01*
X115091580Y-96392948D01*
X115091584Y-96392951D01*
X115214498Y-96475080D01*
X115214511Y-96475087D01*
X115351082Y-96531656D01*
X115351087Y-96531658D01*
X115351091Y-96531658D01*
X115351092Y-96531659D01*
X115351357Y-96531711D01*
X115351358Y-96531712D01*
X115351382Y-96531717D01*
X115496077Y-96560500D01*
X115496079Y-96560500D01*
X115496082Y-96560500D01*
X115643920Y-96560500D01*
X115741462Y-96541096D01*
X115788913Y-96531658D01*
X115925495Y-96475084D01*
X116048416Y-96392951D01*
X116152951Y-96288416D01*
X116235084Y-96165495D01*
X116291658Y-96028913D01*
X116320500Y-95883918D01*
X116320500Y-95736082D01*
X116320500Y-95736079D01*
X116320500Y-95736076D01*
X116291419Y-95589886D01*
X116289337Y-95585485D01*
X116275862Y-95552951D01*
X116255474Y-95503731D01*
X116235088Y-95454513D01*
X116235085Y-95454508D01*
X116235080Y-95454498D01*
X116152951Y-95331584D01*
X116152948Y-95331580D01*
X116152943Y-95331574D01*
X116048421Y-95227052D01*
X116048417Y-95227049D01*
X115925507Y-95144923D01*
X115925506Y-95144922D01*
X115925501Y-95144919D01*
X115925488Y-95144912D01*
X115925481Y-95144908D01*
X115788919Y-95088344D01*
X115788920Y-95088344D01*
X115788917Y-95088343D01*
X115788907Y-95088340D01*
X115788905Y-95088339D01*
X115788900Y-95088338D01*
X115643922Y-95059500D01*
X115643920Y-95059500D01*
X115643918Y-95059500D01*
X115496082Y-95059500D01*
X115496080Y-95059500D01*
X115496078Y-95059500D01*
X115351096Y-95088338D01*
X115351079Y-95088344D01*
X115214517Y-95144908D01*
X115214508Y-95144913D01*
X115214491Y-95144923D01*
X115091582Y-95227049D01*
X115091578Y-95227052D01*
X114987055Y-95331574D01*
X114987050Y-95331580D01*
X114987049Y-95331581D01*
X114904923Y-95454491D01*
X114904913Y-95454508D01*
X114904911Y-95454513D01*
X114848344Y-95591079D01*
X114848338Y-95591098D01*
X114819500Y-95736076D01*
X114819500Y-95736079D01*
X114819500Y-95736082D01*
X114819500Y-95883918D01*
X114819500Y-95883920D01*
X114819499Y-95883920D01*
X101453444Y-95883920D01*
X101446759Y-95870800D01*
X101335690Y-95717927D01*
X101202073Y-95584310D01*
X101049199Y-95473240D01*
X100880836Y-95387454D01*
X100701118Y-95329059D01*
X100701112Y-95329058D01*
X100514491Y-95299500D01*
X100514486Y-95299500D01*
X100514481Y-95299500D01*
X100325519Y-95299500D01*
X100325514Y-95299500D01*
X100325509Y-95299500D01*
X100138886Y-95329058D01*
X100138884Y-95329058D01*
X100138881Y-95329059D01*
X99959163Y-95387454D01*
X99874981Y-95430347D01*
X99790799Y-95473240D01*
X99703579Y-95536610D01*
X99703578Y-95536610D01*
X99649794Y-95575686D01*
X99642419Y-95579816D01*
X99499816Y-95722419D01*
X99495685Y-95729796D01*
X99393241Y-95870796D01*
X99393241Y-95870797D01*
X99392379Y-95872489D01*
X99307454Y-96039163D01*
X99249059Y-96218881D01*
X99249058Y-96218884D01*
X99249058Y-96218886D01*
X99219500Y-96405507D01*
X94240500Y-96405507D01*
X94240500Y-95170471D01*
X102876237Y-95170471D01*
X102910338Y-95341899D01*
X102910344Y-95341919D01*
X102966908Y-95478481D01*
X102966913Y-95478490D01*
X102966923Y-95478507D01*
X103049049Y-95601417D01*
X103049050Y-95601418D01*
X103049055Y-95601424D01*
X103153574Y-95705943D01*
X103153580Y-95705948D01*
X103153584Y-95705951D01*
X103276498Y-95788080D01*
X103276511Y-95788087D01*
X103413082Y-95844656D01*
X103413087Y-95844658D01*
X103413091Y-95844658D01*
X103413092Y-95844659D01*
X103413357Y-95844711D01*
X103413358Y-95844712D01*
X103413382Y-95844717D01*
X103558077Y-95873500D01*
X103558079Y-95873500D01*
X103558082Y-95873500D01*
X103705920Y-95873500D01*
X103803462Y-95854096D01*
X103850913Y-95844658D01*
X103987495Y-95788084D01*
X103987508Y-95788075D01*
X104048251Y-95747489D01*
X104088642Y-95720500D01*
X104110416Y-95705951D01*
X104214951Y-95601416D01*
X104297084Y-95478495D01*
X104307019Y-95454511D01*
X104353656Y-95341917D01*
X104353658Y-95341913D01*
X104376506Y-95227051D01*
X104382500Y-95196920D01*
X104382500Y-95049079D01*
X104382500Y-95049076D01*
X104353419Y-94902887D01*
X104351337Y-94898484D01*
X104350341Y-94896079D01*
X104350340Y-94896076D01*
X104297090Y-94767517D01*
X104297085Y-94767508D01*
X104297080Y-94767498D01*
X104297069Y-94767481D01*
X104251634Y-94699483D01*
X104251633Y-94699482D01*
X104227871Y-94663920D01*
X106564499Y-94663920D01*
X106593340Y-94808907D01*
X106593343Y-94808917D01*
X106593819Y-94810067D01*
X106593820Y-94810070D01*
X106649908Y-94945481D01*
X106649913Y-94945490D01*
X106649923Y-94945507D01*
X106732049Y-95068417D01*
X106732050Y-95068418D01*
X106732055Y-95068424D01*
X106836574Y-95172943D01*
X106836580Y-95172948D01*
X106836584Y-95172951D01*
X106959498Y-95255080D01*
X106959511Y-95255087D01*
X107066735Y-95299500D01*
X107090475Y-95309333D01*
X107090477Y-95309335D01*
X107094884Y-95311419D01*
X107241076Y-95340500D01*
X107241079Y-95340500D01*
X107241082Y-95340500D01*
X107388920Y-95340500D01*
X107486462Y-95321096D01*
X107533913Y-95311658D01*
X107670495Y-95255084D01*
X107793416Y-95172951D01*
X107793419Y-95172948D01*
X107798127Y-95169085D01*
X107798764Y-95169861D01*
X107818065Y-95155403D01*
X107830247Y-95148750D01*
X107898519Y-95133898D01*
X107963983Y-95158313D01*
X107963992Y-95158320D01*
X107968186Y-95161460D01*
X108008430Y-95213270D01*
X108054910Y-95325486D01*
X108054915Y-95325496D01*
X108137049Y-95448417D01*
X108137050Y-95448418D01*
X108137055Y-95448424D01*
X108241574Y-95552943D01*
X108241580Y-95552948D01*
X108241581Y-95552949D01*
X108241584Y-95552951D01*
X108364498Y-95635080D01*
X108364511Y-95635087D01*
X108501082Y-95691656D01*
X108501087Y-95691658D01*
X108501091Y-95691658D01*
X108501092Y-95691659D01*
X108501357Y-95691711D01*
X108501358Y-95691712D01*
X108501382Y-95691717D01*
X108646077Y-95720500D01*
X108646079Y-95720500D01*
X108646082Y-95720500D01*
X108793920Y-95720500D01*
X108891462Y-95701096D01*
X108938913Y-95691658D01*
X109032905Y-95652725D01*
X109075491Y-95635086D01*
X109075492Y-95635084D01*
X109075495Y-95635084D01*
X109082303Y-95630534D01*
X109087762Y-95626888D01*
X109151484Y-95584310D01*
X109198416Y-95552951D01*
X109302951Y-95448416D01*
X109385084Y-95325495D01*
X109390816Y-95311658D01*
X109425861Y-95227051D01*
X109441658Y-95188913D01*
X109461663Y-95088343D01*
X109470500Y-95043920D01*
X109470500Y-94896079D01*
X109470500Y-94896076D01*
X109441717Y-94751383D01*
X109441419Y-94749885D01*
X109439338Y-94745487D01*
X109385087Y-94614511D01*
X109385080Y-94614498D01*
X109302951Y-94491584D01*
X109302948Y-94491580D01*
X109276217Y-94464849D01*
X109255066Y-94436593D01*
X109247575Y-94422873D01*
X109232725Y-94354602D01*
X109233249Y-94347277D01*
X109253830Y-94287235D01*
X109292146Y-94229891D01*
X109293904Y-94227490D01*
X109295069Y-94225517D01*
X109295079Y-94225503D01*
X109295080Y-94225500D01*
X109295084Y-94225495D01*
X109295087Y-94225487D01*
X109295531Y-94224736D01*
X109296746Y-94221480D01*
X109351658Y-94088913D01*
X109367941Y-94007055D01*
X109367942Y-94007050D01*
X109367942Y-94007047D01*
X109373594Y-93978638D01*
X109380500Y-93943920D01*
X109380500Y-93796079D01*
X109380500Y-93796076D01*
X109351419Y-93649884D01*
X109349331Y-93645469D01*
X109344143Y-93632942D01*
X109344143Y-93632941D01*
X109295088Y-93514514D01*
X109295087Y-93514511D01*
X109295080Y-93514498D01*
X109212951Y-93391584D01*
X109212948Y-93391580D01*
X109212943Y-93391574D01*
X109108424Y-93287055D01*
X109108418Y-93287050D01*
X109108417Y-93287049D01*
X108985507Y-93204923D01*
X108985506Y-93204922D01*
X108985501Y-93204919D01*
X108985488Y-93204912D01*
X108985486Y-93204911D01*
X108985481Y-93204908D01*
X108848919Y-93148344D01*
X108848920Y-93148344D01*
X108848917Y-93148343D01*
X108848907Y-93148340D01*
X108848905Y-93148339D01*
X108848900Y-93148338D01*
X108703922Y-93119500D01*
X108703920Y-93119500D01*
X108703918Y-93119500D01*
X108556082Y-93119500D01*
X108556080Y-93119500D01*
X108556078Y-93119500D01*
X108411096Y-93148338D01*
X108411079Y-93148344D01*
X108274517Y-93204908D01*
X108274513Y-93204911D01*
X108274491Y-93204923D01*
X108151581Y-93287049D01*
X108151580Y-93287050D01*
X108151574Y-93287055D01*
X108047055Y-93391574D01*
X108047050Y-93391580D01*
X108047049Y-93391581D01*
X107964923Y-93514491D01*
X107964913Y-93514508D01*
X107964908Y-93514517D01*
X107908344Y-93651079D01*
X107908338Y-93651098D01*
X107879500Y-93796076D01*
X107879500Y-93814750D01*
X107874474Y-93849695D01*
X107870636Y-93862762D01*
X107832857Y-93921537D01*
X107769299Y-93950556D01*
X107707296Y-93943609D01*
X107699581Y-93940653D01*
X107675062Y-93927967D01*
X107670499Y-93924918D01*
X107670490Y-93924913D01*
X107670492Y-93924913D01*
X107609425Y-93899619D01*
X107533917Y-93868343D01*
X107533907Y-93868340D01*
X107533906Y-93868339D01*
X107533900Y-93868338D01*
X107388922Y-93839500D01*
X107388920Y-93839500D01*
X107388918Y-93839500D01*
X107241082Y-93839500D01*
X107241080Y-93839500D01*
X107241078Y-93839500D01*
X107096096Y-93868338D01*
X107096079Y-93868344D01*
X106959517Y-93924908D01*
X106959508Y-93924913D01*
X106959491Y-93924923D01*
X106836585Y-94007047D01*
X106836580Y-94007050D01*
X106836574Y-94007055D01*
X106732055Y-94111574D01*
X106732050Y-94111580D01*
X106732049Y-94111581D01*
X106649923Y-94234491D01*
X106649913Y-94234508D01*
X106649908Y-94234517D01*
X106593344Y-94371079D01*
X106593338Y-94371098D01*
X106564500Y-94516076D01*
X106564500Y-94516079D01*
X106564500Y-94516082D01*
X106564500Y-94663918D01*
X106564500Y-94663920D01*
X106564499Y-94663920D01*
X104227871Y-94663920D01*
X104214949Y-94644581D01*
X104214948Y-94644580D01*
X104214943Y-94644574D01*
X104110424Y-94540055D01*
X104110418Y-94540050D01*
X104110417Y-94540049D01*
X103987507Y-94457923D01*
X103987506Y-94457922D01*
X103987501Y-94457919D01*
X103987488Y-94457912D01*
X103987481Y-94457908D01*
X103850919Y-94401344D01*
X103850920Y-94401344D01*
X103850917Y-94401343D01*
X103850907Y-94401340D01*
X103850905Y-94401339D01*
X103850900Y-94401338D01*
X103705922Y-94372500D01*
X103705920Y-94372500D01*
X103705918Y-94372500D01*
X103558082Y-94372500D01*
X103558080Y-94372500D01*
X103558078Y-94372500D01*
X103413096Y-94401338D01*
X103413079Y-94401344D01*
X103276517Y-94457908D01*
X103276508Y-94457913D01*
X103276491Y-94457923D01*
X103153581Y-94540049D01*
X103153580Y-94540050D01*
X103153574Y-94540055D01*
X103049055Y-94644574D01*
X103049050Y-94644580D01*
X103049049Y-94644581D01*
X102966923Y-94767491D01*
X102966913Y-94767508D01*
X102966908Y-94767517D01*
X102910344Y-94904079D01*
X102910338Y-94904098D01*
X102881500Y-95049076D01*
X102881500Y-95152551D01*
X102876237Y-95170471D01*
X94240500Y-95170471D01*
X94240500Y-91253920D01*
X102899499Y-91253920D01*
X102928340Y-91398907D01*
X102928343Y-91398917D01*
X102928819Y-91400067D01*
X102928820Y-91400070D01*
X102984908Y-91535481D01*
X102984912Y-91535488D01*
X102984918Y-91535500D01*
X102984923Y-91535507D01*
X103067049Y-91658417D01*
X103067050Y-91658418D01*
X103067055Y-91658424D01*
X103171574Y-91762943D01*
X103171580Y-91762948D01*
X103171584Y-91762951D01*
X103294498Y-91845080D01*
X103294511Y-91845087D01*
X103431082Y-91901656D01*
X103431087Y-91901658D01*
X103431091Y-91901658D01*
X103431092Y-91901659D01*
X103431357Y-91901711D01*
X103431358Y-91901712D01*
X103431382Y-91901717D01*
X103576077Y-91930500D01*
X103576079Y-91930500D01*
X103576082Y-91930500D01*
X103723920Y-91930500D01*
X103821462Y-91911096D01*
X103868913Y-91901658D01*
X103971721Y-91859072D01*
X103975598Y-91857759D01*
X103979921Y-91857581D01*
X104002137Y-91851911D01*
X104005437Y-91851556D01*
X104015935Y-91850428D01*
X104041539Y-91855048D01*
X104045408Y-91854889D01*
X104047521Y-91856127D01*
X104084694Y-91862835D01*
X104135829Y-91910445D01*
X104137152Y-91912674D01*
X104141448Y-91919915D01*
X104156422Y-91958995D01*
X104168338Y-92018899D01*
X104168340Y-92018907D01*
X104168343Y-92018915D01*
X104168344Y-92018919D01*
X104224908Y-92155481D01*
X104224913Y-92155490D01*
X104224923Y-92155507D01*
X104307049Y-92278417D01*
X104307050Y-92278418D01*
X104307055Y-92278424D01*
X104411574Y-92382943D01*
X104411580Y-92382948D01*
X104411584Y-92382951D01*
X104534498Y-92465080D01*
X104534511Y-92465087D01*
X104671082Y-92521656D01*
X104671087Y-92521658D01*
X104671091Y-92521658D01*
X104671092Y-92521659D01*
X104671357Y-92521711D01*
X104671358Y-92521712D01*
X104671382Y-92521717D01*
X104816077Y-92550500D01*
X104963920Y-92550500D01*
X104963921Y-92550500D01*
X104981869Y-92546929D01*
X105064462Y-92530500D01*
X105108913Y-92521658D01*
X105240751Y-92467049D01*
X105242043Y-92466513D01*
X105243664Y-92465942D01*
X105247848Y-92464109D01*
X105257105Y-92460275D01*
X105265990Y-92451389D01*
X105368416Y-92382951D01*
X105472951Y-92278416D01*
X105555084Y-92155495D01*
X105563375Y-92135480D01*
X105588216Y-92075507D01*
X105611658Y-92018913D01*
X105627571Y-91938917D01*
X105640500Y-91873920D01*
X105640500Y-91767471D01*
X113844237Y-91767471D01*
X113878338Y-91938899D01*
X113878343Y-91938917D01*
X113934908Y-92075481D01*
X113934913Y-92075490D01*
X113934923Y-92075507D01*
X114017049Y-92198417D01*
X114017050Y-92198418D01*
X114017055Y-92198424D01*
X114121574Y-92302943D01*
X114121578Y-92302946D01*
X114121580Y-92302948D01*
X114121584Y-92302951D01*
X114244498Y-92385080D01*
X114244511Y-92385087D01*
X114381082Y-92441656D01*
X114381087Y-92441658D01*
X114381091Y-92441658D01*
X114381092Y-92441659D01*
X114381357Y-92441711D01*
X114381358Y-92441712D01*
X114381382Y-92441717D01*
X114526077Y-92470500D01*
X114526079Y-92470500D01*
X114526082Y-92470500D01*
X114673920Y-92470500D01*
X114771462Y-92451096D01*
X114818913Y-92441658D01*
X114837594Y-92433920D01*
X120639499Y-92433920D01*
X120668340Y-92578907D01*
X120668343Y-92578917D01*
X120668819Y-92580067D01*
X120668820Y-92580070D01*
X120724908Y-92715481D01*
X120724912Y-92715488D01*
X120724919Y-92715501D01*
X120798400Y-92825472D01*
X120807044Y-92838409D01*
X120807050Y-92838418D01*
X120807055Y-92838424D01*
X120911574Y-92942943D01*
X120911580Y-92942948D01*
X120911584Y-92942951D01*
X121034498Y-93025080D01*
X121034511Y-93025087D01*
X121171082Y-93081656D01*
X121171087Y-93081658D01*
X121171091Y-93081658D01*
X121171092Y-93081659D01*
X121171357Y-93081711D01*
X121171358Y-93081712D01*
X121171382Y-93081717D01*
X121316077Y-93110500D01*
X121316079Y-93110500D01*
X121316082Y-93110500D01*
X121463920Y-93110500D01*
X121529416Y-93097471D01*
X124319237Y-93097471D01*
X124353338Y-93268899D01*
X124353344Y-93268919D01*
X124409908Y-93405481D01*
X124409913Y-93405490D01*
X124409923Y-93405507D01*
X124492049Y-93528417D01*
X124492050Y-93528418D01*
X124492055Y-93528424D01*
X124596573Y-93632942D01*
X124596580Y-93632948D01*
X124596584Y-93632951D01*
X124719498Y-93715080D01*
X124719511Y-93715087D01*
X124856082Y-93771656D01*
X124856087Y-93771658D01*
X124856091Y-93771658D01*
X124856092Y-93771659D01*
X124856357Y-93771711D01*
X124856358Y-93771712D01*
X124856382Y-93771717D01*
X125001077Y-93800500D01*
X125001079Y-93800500D01*
X125001082Y-93800500D01*
X125148920Y-93800500D01*
X125246462Y-93781096D01*
X125293913Y-93771658D01*
X125430495Y-93715084D01*
X125526274Y-93651087D01*
X125553419Y-93632949D01*
X125553419Y-93632948D01*
X125657948Y-93528419D01*
X125657950Y-93528417D01*
X125657951Y-93528416D01*
X125740084Y-93405495D01*
X125796658Y-93268913D01*
X125809389Y-93204912D01*
X125825500Y-93123920D01*
X125825500Y-92976079D01*
X125825500Y-92976076D01*
X125796419Y-92829884D01*
X125794332Y-92825472D01*
X125748781Y-92715500D01*
X125740092Y-92694524D01*
X125740089Y-92694517D01*
X125740087Y-92694511D01*
X125740080Y-92694498D01*
X125657951Y-92571584D01*
X125657948Y-92571580D01*
X125657943Y-92571574D01*
X125553424Y-92467055D01*
X125553418Y-92467050D01*
X125553417Y-92467049D01*
X125430507Y-92384923D01*
X125430506Y-92384922D01*
X125430501Y-92384919D01*
X125430488Y-92384912D01*
X125430481Y-92384908D01*
X125293919Y-92328344D01*
X125293920Y-92328344D01*
X125293917Y-92328343D01*
X125293907Y-92328340D01*
X125293905Y-92328339D01*
X125293900Y-92328338D01*
X125148922Y-92299500D01*
X125148920Y-92299500D01*
X125148918Y-92299500D01*
X125001082Y-92299500D01*
X125001080Y-92299500D01*
X125001078Y-92299500D01*
X124856096Y-92328338D01*
X124856079Y-92328344D01*
X124719517Y-92384908D01*
X124719508Y-92384913D01*
X124719491Y-92384923D01*
X124596581Y-92467049D01*
X124596580Y-92467050D01*
X124596574Y-92467055D01*
X124492055Y-92571574D01*
X124492050Y-92571580D01*
X124492049Y-92571581D01*
X124409923Y-92694491D01*
X124409913Y-92694508D01*
X124409908Y-92694517D01*
X124353344Y-92831079D01*
X124353338Y-92831098D01*
X124324500Y-92976076D01*
X124324500Y-93079551D01*
X124319237Y-93097471D01*
X121529416Y-93097471D01*
X121561462Y-93091096D01*
X121608913Y-93081658D01*
X121745495Y-93025084D01*
X121868416Y-92942951D01*
X121868419Y-92942948D01*
X121929059Y-92882309D01*
X121972948Y-92838419D01*
X121972951Y-92838416D01*
X122055084Y-92715495D01*
X122111658Y-92578913D01*
X122125148Y-92511096D01*
X122133223Y-92470502D01*
X122133223Y-92470500D01*
X122140500Y-92433920D01*
X122140500Y-92286076D01*
X122111419Y-92139883D01*
X122109334Y-92135475D01*
X122055088Y-92004513D01*
X122055085Y-92004508D01*
X122055080Y-92004498D01*
X121972951Y-91881584D01*
X121972948Y-91881580D01*
X121972943Y-91881574D01*
X121918840Y-91827471D01*
X122444237Y-91827471D01*
X122478338Y-91998899D01*
X122478340Y-91998907D01*
X122478343Y-91998915D01*
X122478344Y-91998919D01*
X122534906Y-92135475D01*
X122534908Y-92135480D01*
X122534913Y-92135490D01*
X122534923Y-92135507D01*
X122617049Y-92258417D01*
X122617050Y-92258418D01*
X122617055Y-92258424D01*
X122721574Y-92362943D01*
X122721580Y-92362948D01*
X122721584Y-92362951D01*
X122844498Y-92445080D01*
X122844511Y-92445087D01*
X122981082Y-92501656D01*
X122981087Y-92501658D01*
X122981091Y-92501658D01*
X122981092Y-92501659D01*
X122981357Y-92501711D01*
X122981358Y-92501712D01*
X122981382Y-92501717D01*
X123126077Y-92530500D01*
X123126079Y-92530500D01*
X123126082Y-92530500D01*
X123273920Y-92530500D01*
X123371462Y-92511096D01*
X123418913Y-92501658D01*
X123555495Y-92445084D01*
X123678416Y-92362951D01*
X123782951Y-92258416D01*
X123865084Y-92135495D01*
X123921658Y-91998913D01*
X123935267Y-91930500D01*
X123939256Y-91910446D01*
X123950500Y-91853922D01*
X123950500Y-91706076D01*
X123921419Y-91559887D01*
X123919337Y-91555485D01*
X123911060Y-91535501D01*
X123896308Y-91499885D01*
X123865090Y-91424517D01*
X123865085Y-91424508D01*
X123865080Y-91424498D01*
X123782951Y-91301584D01*
X123782948Y-91301580D01*
X123782943Y-91301574D01*
X123678424Y-91197055D01*
X123678418Y-91197050D01*
X123678417Y-91197049D01*
X123555507Y-91114923D01*
X123555506Y-91114922D01*
X123555501Y-91114919D01*
X123555488Y-91114912D01*
X123555481Y-91114908D01*
X123418919Y-91058344D01*
X123418920Y-91058344D01*
X123418917Y-91058343D01*
X123418907Y-91058340D01*
X123418905Y-91058339D01*
X123418900Y-91058338D01*
X123273922Y-91029500D01*
X123273920Y-91029500D01*
X123273918Y-91029500D01*
X123126082Y-91029500D01*
X123126080Y-91029500D01*
X123126078Y-91029500D01*
X122981096Y-91058338D01*
X122981079Y-91058344D01*
X122844517Y-91114908D01*
X122844508Y-91114913D01*
X122844491Y-91114923D01*
X122721581Y-91197049D01*
X122721580Y-91197050D01*
X122721574Y-91197055D01*
X122617055Y-91301574D01*
X122617050Y-91301580D01*
X122617049Y-91301581D01*
X122534923Y-91424491D01*
X122534913Y-91424508D01*
X122534908Y-91424517D01*
X122478344Y-91561079D01*
X122478338Y-91561098D01*
X122449500Y-91706076D01*
X122449500Y-91809551D01*
X122444237Y-91827471D01*
X121918840Y-91827471D01*
X121868424Y-91777055D01*
X121868418Y-91777050D01*
X121868417Y-91777049D01*
X121745507Y-91694923D01*
X121745506Y-91694922D01*
X121745501Y-91694919D01*
X121745488Y-91694912D01*
X121745481Y-91694908D01*
X121608919Y-91638344D01*
X121608920Y-91638344D01*
X121608917Y-91638343D01*
X121608907Y-91638340D01*
X121608905Y-91638339D01*
X121608900Y-91638338D01*
X121463922Y-91609500D01*
X121463920Y-91609500D01*
X121463918Y-91609500D01*
X121316082Y-91609500D01*
X121316080Y-91609500D01*
X121316078Y-91609500D01*
X121171096Y-91638338D01*
X121171079Y-91638344D01*
X121034517Y-91694908D01*
X121034508Y-91694913D01*
X121034491Y-91694923D01*
X120911581Y-91777049D01*
X120911580Y-91777050D01*
X120911574Y-91777055D01*
X120807055Y-91881574D01*
X120807050Y-91881580D01*
X120807049Y-91881581D01*
X120724923Y-92004491D01*
X120724913Y-92004508D01*
X120724908Y-92004517D01*
X120668344Y-92141079D01*
X120668338Y-92141098D01*
X120639500Y-92286076D01*
X120639500Y-92286079D01*
X120639500Y-92286082D01*
X120639500Y-92433918D01*
X120639500Y-92433920D01*
X120639499Y-92433920D01*
X114837594Y-92433920D01*
X114955495Y-92385084D01*
X115078416Y-92302951D01*
X115182951Y-92198416D01*
X115265084Y-92075495D01*
X115321658Y-91938913D01*
X115343826Y-91827471D01*
X115350500Y-91793920D01*
X115350500Y-91646076D01*
X115321419Y-91499885D01*
X115319333Y-91495474D01*
X115298218Y-91444497D01*
X115265092Y-91364524D01*
X115265089Y-91364517D01*
X115265087Y-91364511D01*
X115265080Y-91364498D01*
X115182951Y-91241584D01*
X115182948Y-91241580D01*
X115182943Y-91241574D01*
X115078424Y-91137055D01*
X115078418Y-91137050D01*
X115078417Y-91137049D01*
X114955507Y-91054923D01*
X114955506Y-91054922D01*
X114955501Y-91054919D01*
X114955488Y-91054912D01*
X114955481Y-91054908D01*
X114818919Y-90998344D01*
X114818920Y-90998344D01*
X114818917Y-90998343D01*
X114818907Y-90998340D01*
X114818905Y-90998339D01*
X114818900Y-90998338D01*
X114673922Y-90969500D01*
X114673920Y-90969500D01*
X114673918Y-90969500D01*
X114526082Y-90969500D01*
X114526080Y-90969500D01*
X114526078Y-90969500D01*
X114381096Y-90998338D01*
X114381079Y-90998344D01*
X114244517Y-91054908D01*
X114244508Y-91054913D01*
X114244491Y-91054923D01*
X114121581Y-91137049D01*
X114121580Y-91137050D01*
X114121574Y-91137055D01*
X114017055Y-91241574D01*
X114017050Y-91241580D01*
X114017049Y-91241581D01*
X113934923Y-91364491D01*
X113934913Y-91364508D01*
X113934908Y-91364517D01*
X113878344Y-91501079D01*
X113878338Y-91501098D01*
X113849500Y-91646076D01*
X113849500Y-91749551D01*
X113844237Y-91767471D01*
X105640500Y-91767471D01*
X105640500Y-91726080D01*
X105628187Y-91664183D01*
X105628187Y-91664181D01*
X105612311Y-91584375D01*
X105611903Y-91581984D01*
X105611658Y-91581092D01*
X105611658Y-91581087D01*
X105592773Y-91535495D01*
X105592770Y-91535488D01*
X105555092Y-91444524D01*
X105555087Y-91444511D01*
X105555080Y-91444498D01*
X105472951Y-91321584D01*
X105472948Y-91321580D01*
X105472943Y-91321574D01*
X105368424Y-91217055D01*
X105368418Y-91217050D01*
X105368417Y-91217049D01*
X105245507Y-91134923D01*
X105245506Y-91134922D01*
X105245501Y-91134919D01*
X105245488Y-91134912D01*
X105245481Y-91134908D01*
X105108919Y-91078344D01*
X105108920Y-91078344D01*
X105108917Y-91078343D01*
X105108907Y-91078340D01*
X105108905Y-91078339D01*
X105108900Y-91078338D01*
X104963922Y-91049500D01*
X104963920Y-91049500D01*
X104963918Y-91049500D01*
X104816082Y-91049500D01*
X104816080Y-91049500D01*
X104816078Y-91049500D01*
X104671096Y-91078338D01*
X104671087Y-91078341D01*
X104671075Y-91078346D01*
X104572058Y-91119359D01*
X104537870Y-91128086D01*
X104533113Y-91128597D01*
X104524073Y-91129569D01*
X104455314Y-91117168D01*
X104404174Y-91069561D01*
X104404171Y-91069556D01*
X104398550Y-91060082D01*
X104383577Y-91021006D01*
X104372839Y-90967028D01*
X104372822Y-90966907D01*
X104371658Y-90961087D01*
X104371655Y-90961080D01*
X104315090Y-90824517D01*
X104315085Y-90824508D01*
X104315080Y-90824498D01*
X104232951Y-90701584D01*
X104232948Y-90701580D01*
X104232943Y-90701574D01*
X104128424Y-90597055D01*
X104128418Y-90597050D01*
X104128417Y-90597049D01*
X104005507Y-90514923D01*
X104005506Y-90514922D01*
X104005501Y-90514919D01*
X104005488Y-90514912D01*
X104005481Y-90514908D01*
X103868919Y-90458344D01*
X103868920Y-90458344D01*
X103868917Y-90458343D01*
X103868907Y-90458340D01*
X103868905Y-90458339D01*
X103868900Y-90458338D01*
X103723922Y-90429500D01*
X103723920Y-90429500D01*
X103723918Y-90429500D01*
X103576082Y-90429500D01*
X103576080Y-90429500D01*
X103576078Y-90429500D01*
X103431096Y-90458338D01*
X103431079Y-90458344D01*
X103294517Y-90514908D01*
X103294508Y-90514913D01*
X103294491Y-90514923D01*
X103171581Y-90597049D01*
X103171580Y-90597050D01*
X103171574Y-90597055D01*
X103067055Y-90701574D01*
X103067050Y-90701580D01*
X103067049Y-90701581D01*
X102984923Y-90824491D01*
X102984913Y-90824508D01*
X102984908Y-90824517D01*
X102928344Y-90961079D01*
X102928338Y-90961098D01*
X102899500Y-91106076D01*
X102899500Y-91106079D01*
X102899500Y-91106082D01*
X102899500Y-91253918D01*
X102899500Y-91253920D01*
X102899499Y-91253920D01*
X94240500Y-91253920D01*
X94240500Y-90192577D01*
X118165975Y-90192577D01*
X118271236Y-90236178D01*
X118271240Y-90236179D01*
X118416126Y-90264999D01*
X118416129Y-90265000D01*
X118563871Y-90265000D01*
X118563873Y-90264999D01*
X118708760Y-90236179D01*
X118708775Y-90236175D01*
X118814024Y-90192578D01*
X118814024Y-90192577D01*
X119365975Y-90192577D01*
X119471236Y-90236178D01*
X119471240Y-90236179D01*
X119616126Y-90264999D01*
X119616129Y-90265000D01*
X119763871Y-90265000D01*
X119763873Y-90264999D01*
X119908760Y-90236179D01*
X119908775Y-90236175D01*
X120014024Y-90192578D01*
X120014024Y-90192577D01*
X120565975Y-90192577D01*
X120671236Y-90236178D01*
X120671240Y-90236179D01*
X120816126Y-90264999D01*
X120816129Y-90265000D01*
X120963871Y-90265000D01*
X120963873Y-90264999D01*
X121108760Y-90236179D01*
X121108775Y-90236175D01*
X121214024Y-90192578D01*
X121214024Y-90192577D01*
X121765975Y-90192577D01*
X121871236Y-90236178D01*
X121871240Y-90236179D01*
X122016126Y-90264999D01*
X122016129Y-90265000D01*
X122163871Y-90265000D01*
X122163873Y-90264999D01*
X122308760Y-90236179D01*
X122308775Y-90236175D01*
X122414024Y-90192578D01*
X122414024Y-90192577D01*
X122090001Y-89868554D01*
X122090000Y-89868554D01*
X121765975Y-90192577D01*
X121214024Y-90192577D01*
X120890001Y-89868554D01*
X120890000Y-89868554D01*
X120565975Y-90192577D01*
X120014024Y-90192577D01*
X119690001Y-89868554D01*
X119690000Y-89868554D01*
X119365975Y-90192577D01*
X118814024Y-90192577D01*
X118490001Y-89868554D01*
X118490000Y-89868554D01*
X118165975Y-90192577D01*
X94240500Y-90192577D01*
X94240500Y-88633920D01*
X101944499Y-88633920D01*
X101973340Y-88778907D01*
X101973343Y-88778917D01*
X101973819Y-88780067D01*
X101973820Y-88780070D01*
X102029908Y-88915481D01*
X102029913Y-88915490D01*
X102029923Y-88915507D01*
X102112049Y-89038417D01*
X102112050Y-89038418D01*
X102112055Y-89038424D01*
X102216574Y-89142943D01*
X102216580Y-89142948D01*
X102216584Y-89142951D01*
X102339498Y-89225080D01*
X102339511Y-89225087D01*
X102476082Y-89281656D01*
X102476087Y-89281658D01*
X102476091Y-89281658D01*
X102476092Y-89281659D01*
X102476357Y-89281711D01*
X102476358Y-89281712D01*
X102476382Y-89281717D01*
X102621077Y-89310500D01*
X102621079Y-89310500D01*
X102621082Y-89310500D01*
X102768920Y-89310500D01*
X102866462Y-89291096D01*
X102913913Y-89281658D01*
X103020334Y-89237577D01*
X105215975Y-89237577D01*
X105321236Y-89281178D01*
X105321240Y-89281179D01*
X105466126Y-89309999D01*
X105466129Y-89310000D01*
X105613871Y-89310000D01*
X105613873Y-89309999D01*
X105758760Y-89281179D01*
X105758775Y-89281175D01*
X105864024Y-89237578D01*
X105864024Y-89237577D01*
X106215975Y-89237577D01*
X106321236Y-89281178D01*
X106321240Y-89281179D01*
X106466126Y-89309999D01*
X106466129Y-89310000D01*
X106613871Y-89310000D01*
X106613873Y-89309999D01*
X106758760Y-89281179D01*
X106758775Y-89281175D01*
X106864024Y-89237578D01*
X106864024Y-89237577D01*
X107215975Y-89237577D01*
X107321236Y-89281178D01*
X107321240Y-89281179D01*
X107466126Y-89309999D01*
X107466129Y-89310000D01*
X107613871Y-89310000D01*
X107613873Y-89309999D01*
X107758760Y-89281179D01*
X107758775Y-89281175D01*
X107864024Y-89237578D01*
X107864024Y-89237577D01*
X107540001Y-88913554D01*
X107540000Y-88913554D01*
X107215975Y-89237577D01*
X106864024Y-89237577D01*
X106540001Y-88913554D01*
X106540000Y-88913554D01*
X106215975Y-89237577D01*
X105864024Y-89237577D01*
X105540001Y-88913554D01*
X105540000Y-88913554D01*
X105215975Y-89237577D01*
X103020334Y-89237577D01*
X103043954Y-89227793D01*
X103046736Y-89226823D01*
X103048178Y-89226156D01*
X103052846Y-89224109D01*
X103062107Y-89220273D01*
X103070990Y-89211389D01*
X103173416Y-89142951D01*
X103174787Y-89141580D01*
X103207286Y-89109082D01*
X103277948Y-89038419D01*
X103277951Y-89038416D01*
X103360084Y-88915495D01*
X103416658Y-88778913D01*
X103437658Y-88673342D01*
X103445500Y-88633920D01*
X103445500Y-88633875D01*
X104789999Y-88633875D01*
X104818816Y-88778741D01*
X104818820Y-88778759D01*
X104818822Y-88778767D01*
X104862421Y-88884024D01*
X105186446Y-88560000D01*
X105186446Y-88559999D01*
X105166554Y-88540107D01*
X105440000Y-88540107D01*
X105440000Y-88579892D01*
X105442694Y-88586396D01*
X105455224Y-88616645D01*
X105483355Y-88644776D01*
X105520109Y-88660000D01*
X105559889Y-88660000D01*
X105559891Y-88660000D01*
X105596645Y-88644776D01*
X105624776Y-88616645D01*
X105640000Y-88579891D01*
X105640000Y-88560000D01*
X105893554Y-88560000D01*
X106040000Y-88706446D01*
X106186446Y-88560000D01*
X106166553Y-88540107D01*
X106440000Y-88540107D01*
X106440000Y-88579892D01*
X106442694Y-88586396D01*
X106455224Y-88616645D01*
X106483355Y-88644776D01*
X106520109Y-88660000D01*
X106559889Y-88660000D01*
X106559891Y-88660000D01*
X106596645Y-88644776D01*
X106624776Y-88616645D01*
X106640000Y-88579891D01*
X106640000Y-88560000D01*
X106893554Y-88560000D01*
X107040000Y-88706446D01*
X107186446Y-88560000D01*
X107166553Y-88540107D01*
X107440000Y-88540107D01*
X107440000Y-88579892D01*
X107442694Y-88586396D01*
X107455224Y-88616645D01*
X107483355Y-88644776D01*
X107520109Y-88660000D01*
X107559889Y-88660000D01*
X107559891Y-88660000D01*
X107596645Y-88644776D01*
X107624776Y-88616645D01*
X107640000Y-88579891D01*
X107640000Y-88540109D01*
X107624776Y-88503355D01*
X107596645Y-88475224D01*
X107596290Y-88475077D01*
X107559892Y-88460000D01*
X107559891Y-88460000D01*
X107520109Y-88460000D01*
X107520107Y-88460000D01*
X107483354Y-88475224D01*
X107455224Y-88503354D01*
X107440000Y-88540107D01*
X107166553Y-88540107D01*
X107040000Y-88413554D01*
X106893554Y-88560000D01*
X106640000Y-88560000D01*
X106640000Y-88540109D01*
X106624776Y-88503355D01*
X106596645Y-88475224D01*
X106596290Y-88475077D01*
X106559892Y-88460000D01*
X106559891Y-88460000D01*
X106520109Y-88460000D01*
X106520107Y-88460000D01*
X106483354Y-88475224D01*
X106455224Y-88503354D01*
X106440000Y-88540107D01*
X106166553Y-88540107D01*
X106040000Y-88413554D01*
X105893554Y-88560000D01*
X105640000Y-88560000D01*
X105640000Y-88540109D01*
X105624776Y-88503355D01*
X105596645Y-88475224D01*
X105596290Y-88475077D01*
X105559892Y-88460000D01*
X105559891Y-88460000D01*
X105520109Y-88460000D01*
X105520107Y-88460000D01*
X105483354Y-88475224D01*
X105455224Y-88503354D01*
X105440000Y-88540107D01*
X105166554Y-88540107D01*
X104862421Y-88235974D01*
X104862420Y-88235974D01*
X104818823Y-88341226D01*
X104818816Y-88341257D01*
X104790000Y-88486123D01*
X104790000Y-88486126D01*
X104790000Y-88633873D01*
X104790000Y-88633875D01*
X104789999Y-88633875D01*
X103445500Y-88633875D01*
X103445500Y-88613043D01*
X103446601Y-88604838D01*
X103448475Y-88600627D01*
X103450522Y-88586396D01*
X103452432Y-88579891D01*
X103456158Y-88567200D01*
X103488000Y-88513912D01*
X103489697Y-88512235D01*
X103529374Y-88485903D01*
X103555495Y-88475084D01*
X103678416Y-88392951D01*
X103678419Y-88392948D01*
X103679015Y-88392353D01*
X103782948Y-88288419D01*
X103782951Y-88288416D01*
X103865084Y-88165495D01*
X103908781Y-88060000D01*
X105393554Y-88060000D01*
X105540000Y-88206446D01*
X105686446Y-88060000D01*
X106393554Y-88060000D01*
X106540000Y-88206446D01*
X106686446Y-88060000D01*
X107393554Y-88060000D01*
X107540000Y-88206446D01*
X107686446Y-88060000D01*
X107540000Y-87913554D01*
X107393554Y-88060000D01*
X106686446Y-88060000D01*
X106540000Y-87913554D01*
X106393554Y-88060000D01*
X105686446Y-88060000D01*
X105540000Y-87913554D01*
X105393554Y-88060000D01*
X103908781Y-88060000D01*
X103921658Y-88028913D01*
X103931974Y-87977050D01*
X103935078Y-87961448D01*
X103935078Y-87961446D01*
X103950500Y-87883921D01*
X103950500Y-87736076D01*
X103930170Y-87633875D01*
X104789999Y-87633875D01*
X104818816Y-87778741D01*
X104818820Y-87778759D01*
X104818822Y-87778767D01*
X104862421Y-87884024D01*
X105186446Y-87560000D01*
X105186446Y-87559999D01*
X105166554Y-87540107D01*
X105440000Y-87540107D01*
X105440000Y-87579892D01*
X105452837Y-87610883D01*
X105455224Y-87616645D01*
X105483355Y-87644776D01*
X105520109Y-87660000D01*
X105559889Y-87660000D01*
X105559891Y-87660000D01*
X105596645Y-87644776D01*
X105624776Y-87616645D01*
X105640000Y-87579891D01*
X105640000Y-87560000D01*
X105893554Y-87560000D01*
X106040000Y-87706446D01*
X106186446Y-87560000D01*
X106166553Y-87540107D01*
X106440000Y-87540107D01*
X106440000Y-87579892D01*
X106452837Y-87610883D01*
X106455224Y-87616645D01*
X106483355Y-87644776D01*
X106520109Y-87660000D01*
X106559889Y-87660000D01*
X106559891Y-87660000D01*
X106596645Y-87644776D01*
X106624776Y-87616645D01*
X106640000Y-87579891D01*
X106640000Y-87560000D01*
X106893554Y-87560000D01*
X107040000Y-87706446D01*
X107186446Y-87560000D01*
X107166553Y-87540107D01*
X107440000Y-87540107D01*
X107440000Y-87579892D01*
X107452837Y-87610883D01*
X107455224Y-87616645D01*
X107483355Y-87644776D01*
X107520109Y-87660000D01*
X107559889Y-87660000D01*
X107559891Y-87660000D01*
X107596645Y-87644776D01*
X107624776Y-87616645D01*
X107640000Y-87579891D01*
X107640000Y-87559999D01*
X107893554Y-87559999D01*
X107893554Y-87560001D01*
X108239295Y-87905742D01*
X108258088Y-87929868D01*
X108271180Y-87951801D01*
X108286322Y-87991162D01*
X108292381Y-88021619D01*
X108292382Y-88021625D01*
X108292383Y-88021629D01*
X108301992Y-88044828D01*
X108311428Y-88091607D01*
X108311479Y-88101040D01*
X108302339Y-88132801D01*
X108294206Y-88164843D01*
X108292701Y-88166291D01*
X108292157Y-88168185D01*
X108276406Y-88181982D01*
X108250107Y-88207306D01*
X108250734Y-88208363D01*
X108237097Y-88216454D01*
X107893554Y-88559998D01*
X107893554Y-88559999D01*
X107893554Y-88560001D01*
X108217577Y-88884024D01*
X108217578Y-88884024D01*
X108261175Y-88778775D01*
X108261179Y-88778760D01*
X108263425Y-88767471D01*
X112434237Y-88767471D01*
X112468338Y-88938899D01*
X112468340Y-88938907D01*
X112468343Y-88938917D01*
X112475973Y-88957338D01*
X112524908Y-89075481D01*
X112524913Y-89075490D01*
X112524923Y-89075507D01*
X112607049Y-89198417D01*
X112607050Y-89198418D01*
X112607055Y-89198424D01*
X112711574Y-89302943D01*
X112711580Y-89302948D01*
X112711584Y-89302951D01*
X112834498Y-89385080D01*
X112834511Y-89385087D01*
X112834513Y-89385087D01*
X112834517Y-89385090D01*
X112965461Y-89439328D01*
X112969807Y-89441128D01*
X112971087Y-89441658D01*
X112971089Y-89441658D01*
X112971091Y-89441658D01*
X112971092Y-89441659D01*
X113055020Y-89458354D01*
X113116078Y-89470500D01*
X113116079Y-89470500D01*
X113116082Y-89470500D01*
X113263920Y-89470500D01*
X113361462Y-89451096D01*
X113404826Y-89442471D01*
X114449237Y-89442471D01*
X114483338Y-89613899D01*
X114483344Y-89613919D01*
X114539908Y-89750481D01*
X114539913Y-89750490D01*
X114539923Y-89750507D01*
X114622049Y-89873417D01*
X114622050Y-89873418D01*
X114622055Y-89873424D01*
X114726574Y-89977943D01*
X114726579Y-89977947D01*
X114726580Y-89977948D01*
X114726584Y-89977951D01*
X114849498Y-90060080D01*
X114849511Y-90060087D01*
X114942054Y-90098419D01*
X114980482Y-90114336D01*
X114984886Y-90116419D01*
X115131076Y-90145500D01*
X115131079Y-90145500D01*
X115131082Y-90145500D01*
X115278920Y-90145500D01*
X115376462Y-90126096D01*
X115423913Y-90116658D01*
X115560495Y-90060084D01*
X115567324Y-90055520D01*
X115577593Y-90048660D01*
X115577593Y-90048659D01*
X115583830Y-90044491D01*
X115602829Y-90031800D01*
X115602833Y-90031796D01*
X115603229Y-90031529D01*
X115683416Y-89977951D01*
X115787951Y-89873416D01*
X115870084Y-89750495D01*
X115877011Y-89733773D01*
X115893519Y-89693918D01*
X115926658Y-89613913D01*
X115931639Y-89588875D01*
X117739999Y-89588875D01*
X117760895Y-89693920D01*
X117768820Y-89733759D01*
X117768822Y-89733767D01*
X117812421Y-89839024D01*
X118136446Y-89515000D01*
X118136446Y-89514999D01*
X118116554Y-89495107D01*
X118390000Y-89495107D01*
X118390000Y-89495108D01*
X118390000Y-89495109D01*
X118390000Y-89534891D01*
X118405224Y-89571645D01*
X118433355Y-89599776D01*
X118470109Y-89615000D01*
X118509889Y-89615000D01*
X118509891Y-89615000D01*
X118546645Y-89599776D01*
X118574776Y-89571645D01*
X118590000Y-89534891D01*
X118590000Y-89515000D01*
X118843554Y-89515000D01*
X119090000Y-89761446D01*
X119336446Y-89515000D01*
X119316553Y-89495107D01*
X119590000Y-89495107D01*
X119590000Y-89495108D01*
X119590000Y-89495109D01*
X119590000Y-89534891D01*
X119605224Y-89571645D01*
X119633355Y-89599776D01*
X119670109Y-89615000D01*
X119709889Y-89615000D01*
X119709891Y-89615000D01*
X119746645Y-89599776D01*
X119774776Y-89571645D01*
X119790000Y-89534891D01*
X119790000Y-89515000D01*
X120043554Y-89515000D01*
X120290000Y-89761446D01*
X120536446Y-89515000D01*
X120516553Y-89495107D01*
X120790000Y-89495107D01*
X120790000Y-89495108D01*
X120790000Y-89495109D01*
X120790000Y-89534891D01*
X120805224Y-89571645D01*
X120833355Y-89599776D01*
X120870109Y-89615000D01*
X120909889Y-89615000D01*
X120909891Y-89615000D01*
X120946645Y-89599776D01*
X120974776Y-89571645D01*
X120990000Y-89534891D01*
X120990000Y-89515000D01*
X121243554Y-89515000D01*
X121490000Y-89761446D01*
X121736446Y-89515000D01*
X121716553Y-89495107D01*
X121990000Y-89495107D01*
X121990000Y-89495108D01*
X121990000Y-89495109D01*
X121990000Y-89534891D01*
X122005224Y-89571645D01*
X122033355Y-89599776D01*
X122070109Y-89615000D01*
X122109889Y-89615000D01*
X122109891Y-89615000D01*
X122146645Y-89599776D01*
X122174776Y-89571645D01*
X122190000Y-89534891D01*
X122190000Y-89514998D01*
X122443554Y-89514998D01*
X122443554Y-89514999D01*
X122443554Y-89515001D01*
X122767577Y-89839024D01*
X122767578Y-89839024D01*
X122811175Y-89733775D01*
X122811179Y-89733760D01*
X122839999Y-89588873D01*
X122840000Y-89588871D01*
X122840000Y-89441128D01*
X122839999Y-89441126D01*
X122811179Y-89296240D01*
X122811178Y-89296236D01*
X122767577Y-89190975D01*
X122767576Y-89190975D01*
X122767576Y-89190974D01*
X122443554Y-89514998D01*
X122190000Y-89514998D01*
X122190000Y-89495109D01*
X122174776Y-89458355D01*
X122146645Y-89430224D01*
X122138772Y-89426963D01*
X122109892Y-89415000D01*
X122109891Y-89415000D01*
X122070109Y-89415000D01*
X122070107Y-89415000D01*
X122033354Y-89430224D01*
X122005224Y-89458354D01*
X121990000Y-89495107D01*
X121716553Y-89495107D01*
X121490000Y-89268554D01*
X121243554Y-89515000D01*
X120990000Y-89515000D01*
X120990000Y-89495109D01*
X120974776Y-89458355D01*
X120946645Y-89430224D01*
X120938772Y-89426963D01*
X120909892Y-89415000D01*
X120909891Y-89415000D01*
X120870109Y-89415000D01*
X120870107Y-89415000D01*
X120833354Y-89430224D01*
X120805224Y-89458354D01*
X120790000Y-89495107D01*
X120516553Y-89495107D01*
X120290000Y-89268554D01*
X120043554Y-89515000D01*
X119790000Y-89515000D01*
X119790000Y-89495109D01*
X119774776Y-89458355D01*
X119746645Y-89430224D01*
X119738772Y-89426963D01*
X119709892Y-89415000D01*
X119709891Y-89415000D01*
X119670109Y-89415000D01*
X119670107Y-89415000D01*
X119633354Y-89430224D01*
X119605224Y-89458354D01*
X119590000Y-89495107D01*
X119316553Y-89495107D01*
X119090000Y-89268554D01*
X118843554Y-89515000D01*
X118590000Y-89515000D01*
X118590000Y-89495109D01*
X118574776Y-89458355D01*
X118546645Y-89430224D01*
X118538772Y-89426963D01*
X118509892Y-89415000D01*
X118509891Y-89415000D01*
X118470109Y-89415000D01*
X118470107Y-89415000D01*
X118433354Y-89430224D01*
X118405224Y-89458354D01*
X118390000Y-89495107D01*
X118116554Y-89495107D01*
X117812421Y-89190974D01*
X117812420Y-89190974D01*
X117768823Y-89296226D01*
X117768816Y-89296257D01*
X117740000Y-89441123D01*
X117740000Y-89441126D01*
X117740000Y-89588873D01*
X117740000Y-89588875D01*
X117739999Y-89588875D01*
X115931639Y-89588875D01*
X115942377Y-89534891D01*
X115955500Y-89468920D01*
X115955500Y-89321079D01*
X115955500Y-89321076D01*
X115926419Y-89174884D01*
X115924332Y-89170471D01*
X115912933Y-89142951D01*
X115870090Y-89039517D01*
X115870085Y-89039508D01*
X115870080Y-89039498D01*
X115798605Y-88932529D01*
X115798604Y-88932527D01*
X115787952Y-88916585D01*
X115787948Y-88916580D01*
X115787947Y-88916579D01*
X115787945Y-88916576D01*
X115786369Y-88915000D01*
X118243554Y-88915000D01*
X118490000Y-89161446D01*
X118736446Y-88915000D01*
X119443554Y-88915000D01*
X119690000Y-89161446D01*
X119936446Y-88915000D01*
X120643554Y-88915000D01*
X120890000Y-89161446D01*
X121136446Y-88915000D01*
X121843554Y-88915000D01*
X122090000Y-89161446D01*
X122336446Y-88915000D01*
X122090000Y-88668554D01*
X121843554Y-88915000D01*
X121136446Y-88915000D01*
X120890000Y-88668554D01*
X120643554Y-88915000D01*
X119936446Y-88915000D01*
X119690000Y-88668554D01*
X119443554Y-88915000D01*
X118736446Y-88915000D01*
X118490000Y-88668554D01*
X118243554Y-88915000D01*
X115786369Y-88915000D01*
X115683423Y-88812054D01*
X115683418Y-88812050D01*
X115683417Y-88812049D01*
X115560507Y-88729923D01*
X115560506Y-88729922D01*
X115560501Y-88729919D01*
X115560488Y-88729912D01*
X115560481Y-88729908D01*
X115423919Y-88673344D01*
X115423920Y-88673344D01*
X115423917Y-88673343D01*
X115423907Y-88673340D01*
X115423905Y-88673339D01*
X115423900Y-88673338D01*
X115278922Y-88644500D01*
X115278920Y-88644500D01*
X115278918Y-88644500D01*
X115131082Y-88644500D01*
X115131080Y-88644500D01*
X115131078Y-88644500D01*
X114986096Y-88673338D01*
X114986079Y-88673344D01*
X114849517Y-88729908D01*
X114849508Y-88729913D01*
X114849491Y-88729923D01*
X114726581Y-88812049D01*
X114726576Y-88812054D01*
X114622055Y-88916574D01*
X114622050Y-88916580D01*
X114622049Y-88916581D01*
X114539923Y-89039491D01*
X114539913Y-89039508D01*
X114539908Y-89039517D01*
X114483344Y-89176079D01*
X114483338Y-89176098D01*
X114454500Y-89321076D01*
X114454500Y-89424551D01*
X114449237Y-89442471D01*
X113404826Y-89442471D01*
X113408913Y-89441658D01*
X113545495Y-89385084D01*
X113668416Y-89302951D01*
X113702813Y-89268554D01*
X113744059Y-89227309D01*
X113751095Y-89220273D01*
X113772950Y-89198418D01*
X113772951Y-89198416D01*
X113855084Y-89075495D01*
X113911658Y-88938913D01*
X113936893Y-88812051D01*
X113940500Y-88793920D01*
X113940500Y-88646079D01*
X113940500Y-88646076D01*
X113911568Y-88500634D01*
X113910990Y-88499476D01*
X113905443Y-88486082D01*
X113855087Y-88364511D01*
X113855077Y-88364493D01*
X113814611Y-88303931D01*
X113814610Y-88303930D01*
X113810243Y-88297395D01*
X113810241Y-88297390D01*
X113772955Y-88241590D01*
X113772948Y-88241580D01*
X113772943Y-88241574D01*
X113772492Y-88241123D01*
X117740000Y-88241123D01*
X117740000Y-88388874D01*
X117763620Y-88507620D01*
X117768820Y-88533759D01*
X117768822Y-88533767D01*
X117812421Y-88639024D01*
X118136446Y-88315000D01*
X118136446Y-88314999D01*
X118116554Y-88295107D01*
X118390000Y-88295107D01*
X118390000Y-88334892D01*
X118402264Y-88364498D01*
X118405224Y-88371645D01*
X118433355Y-88399776D01*
X118470109Y-88415000D01*
X118509889Y-88415000D01*
X118509891Y-88415000D01*
X118546645Y-88399776D01*
X118574776Y-88371645D01*
X118590000Y-88334891D01*
X118590000Y-88315000D01*
X118843554Y-88315000D01*
X119090000Y-88561446D01*
X119336446Y-88315000D01*
X119316553Y-88295107D01*
X119590000Y-88295107D01*
X119590000Y-88334892D01*
X119602264Y-88364498D01*
X119605224Y-88371645D01*
X119633355Y-88399776D01*
X119670109Y-88415000D01*
X119709889Y-88415000D01*
X119709891Y-88415000D01*
X119746645Y-88399776D01*
X119774776Y-88371645D01*
X119790000Y-88334891D01*
X119790000Y-88315000D01*
X120043554Y-88315000D01*
X120290000Y-88561446D01*
X120536446Y-88315000D01*
X120516553Y-88295107D01*
X120790000Y-88295107D01*
X120790000Y-88334892D01*
X120802264Y-88364498D01*
X120805224Y-88371645D01*
X120833355Y-88399776D01*
X120870109Y-88415000D01*
X120909889Y-88415000D01*
X120909891Y-88415000D01*
X120946645Y-88399776D01*
X120974776Y-88371645D01*
X120990000Y-88334891D01*
X120990000Y-88315000D01*
X121243554Y-88315000D01*
X121490000Y-88561446D01*
X121736446Y-88315000D01*
X121716553Y-88295107D01*
X121990000Y-88295107D01*
X121990000Y-88334892D01*
X122002264Y-88364498D01*
X122005224Y-88371645D01*
X122033355Y-88399776D01*
X122070109Y-88415000D01*
X122109889Y-88415000D01*
X122109891Y-88415000D01*
X122146645Y-88399776D01*
X122174776Y-88371645D01*
X122190000Y-88334891D01*
X122190000Y-88314998D01*
X122443554Y-88314998D01*
X122443554Y-88314999D01*
X122443554Y-88315001D01*
X122767577Y-88639024D01*
X122767578Y-88639024D01*
X122811175Y-88533775D01*
X122811179Y-88533760D01*
X122839999Y-88388873D01*
X122840000Y-88388871D01*
X122840000Y-88241128D01*
X122839999Y-88241126D01*
X122811179Y-88096240D01*
X122811178Y-88096236D01*
X122767577Y-87990975D01*
X122767576Y-87990975D01*
X122767576Y-87990974D01*
X122443554Y-88314998D01*
X122190000Y-88314998D01*
X122190000Y-88295109D01*
X122174776Y-88258355D01*
X122146645Y-88230224D01*
X122138772Y-88226963D01*
X122109892Y-88215000D01*
X122109891Y-88215000D01*
X122070109Y-88215000D01*
X122070107Y-88215000D01*
X122033354Y-88230224D01*
X122005224Y-88258354D01*
X121990000Y-88295107D01*
X121716553Y-88295107D01*
X121490000Y-88068554D01*
X121243554Y-88315000D01*
X120990000Y-88315000D01*
X120990000Y-88295109D01*
X120974776Y-88258355D01*
X120946645Y-88230224D01*
X120938772Y-88226963D01*
X120909892Y-88215000D01*
X120909891Y-88215000D01*
X120870109Y-88215000D01*
X120870107Y-88215000D01*
X120833354Y-88230224D01*
X120805224Y-88258354D01*
X120790000Y-88295107D01*
X120516553Y-88295107D01*
X120290000Y-88068554D01*
X120043554Y-88315000D01*
X119790000Y-88315000D01*
X119790000Y-88295109D01*
X119774776Y-88258355D01*
X119746645Y-88230224D01*
X119738772Y-88226963D01*
X119709892Y-88215000D01*
X119709891Y-88215000D01*
X119670109Y-88215000D01*
X119670107Y-88215000D01*
X119633354Y-88230224D01*
X119605224Y-88258354D01*
X119590000Y-88295107D01*
X119316553Y-88295107D01*
X119090000Y-88068554D01*
X118843554Y-88315000D01*
X118590000Y-88315000D01*
X118590000Y-88295109D01*
X118574776Y-88258355D01*
X118546645Y-88230224D01*
X118538772Y-88226963D01*
X118509892Y-88215000D01*
X118509891Y-88215000D01*
X118470109Y-88215000D01*
X118470107Y-88215000D01*
X118433354Y-88230224D01*
X118405224Y-88258354D01*
X118390000Y-88295107D01*
X118116554Y-88295107D01*
X117812421Y-87990974D01*
X117812420Y-87990974D01*
X117768823Y-88096226D01*
X117768816Y-88096257D01*
X117740000Y-88241123D01*
X113772492Y-88241123D01*
X113668424Y-88137055D01*
X113668418Y-88137050D01*
X113668417Y-88137049D01*
X113545507Y-88054923D01*
X113545506Y-88054922D01*
X113545501Y-88054919D01*
X113545488Y-88054912D01*
X113545481Y-88054908D01*
X113408919Y-87998344D01*
X113408920Y-87998344D01*
X113408917Y-87998343D01*
X113408907Y-87998340D01*
X113408905Y-87998339D01*
X113408900Y-87998338D01*
X113263922Y-87969500D01*
X113263920Y-87969500D01*
X113263918Y-87969500D01*
X113116082Y-87969500D01*
X113116080Y-87969500D01*
X113116078Y-87969500D01*
X112971096Y-87998338D01*
X112971079Y-87998344D01*
X112834517Y-88054908D01*
X112834508Y-88054913D01*
X112834491Y-88054923D01*
X112711581Y-88137049D01*
X112711580Y-88137050D01*
X112711574Y-88137055D01*
X112607055Y-88241574D01*
X112607050Y-88241580D01*
X112607049Y-88241581D01*
X112524923Y-88364491D01*
X112524913Y-88364508D01*
X112524908Y-88364517D01*
X112468344Y-88501079D01*
X112468338Y-88501098D01*
X112439500Y-88646076D01*
X112439500Y-88749551D01*
X112434237Y-88767471D01*
X108263425Y-88767471D01*
X108289566Y-88636049D01*
X108290000Y-88634052D01*
X108290000Y-88486128D01*
X108288966Y-88480932D01*
X108286291Y-88467484D01*
X108289326Y-88407034D01*
X108292606Y-88396306D01*
X108292658Y-88396321D01*
X108293527Y-88386618D01*
X108336393Y-88331443D01*
X108402284Y-88308201D01*
X108437435Y-88311348D01*
X108439709Y-88311886D01*
X108498867Y-88344879D01*
X108527517Y-88373529D01*
X108527521Y-88373532D01*
X108646340Y-88452925D01*
X108646346Y-88452928D01*
X108646347Y-88452929D01*
X108773423Y-88505566D01*
X108773949Y-88505790D01*
X108774127Y-88505937D01*
X108777179Y-88507380D01*
X108918539Y-88535500D01*
X109061457Y-88535500D01*
X109061459Y-88535500D01*
X109147560Y-88518373D01*
X109160056Y-88515886D01*
X109184717Y-88510981D01*
X109184719Y-88510981D01*
X109196138Y-88508709D01*
X109201620Y-88507619D01*
X109333653Y-88452929D01*
X109452479Y-88373532D01*
X109553532Y-88272479D01*
X109632929Y-88153653D01*
X109687619Y-88021620D01*
X109696742Y-87975751D01*
X109715500Y-87881457D01*
X109715500Y-87738543D01*
X109710816Y-87715000D01*
X118243554Y-87715000D01*
X118490000Y-87961446D01*
X118736446Y-87715000D01*
X119443554Y-87715000D01*
X119690000Y-87961446D01*
X119936446Y-87715000D01*
X120643554Y-87715000D01*
X120890000Y-87961446D01*
X121136446Y-87715000D01*
X121843554Y-87715000D01*
X122090000Y-87961446D01*
X122336446Y-87715000D01*
X122090000Y-87468554D01*
X121843554Y-87715000D01*
X121136446Y-87715000D01*
X120890000Y-87468554D01*
X120643554Y-87715000D01*
X119936446Y-87715000D01*
X119690000Y-87468554D01*
X119443554Y-87715000D01*
X118736446Y-87715000D01*
X118490000Y-87468554D01*
X118243554Y-87715000D01*
X109710816Y-87715000D01*
X109706578Y-87693694D01*
X109705413Y-87687831D01*
X109705411Y-87687823D01*
X109705411Y-87687821D01*
X109687925Y-87599920D01*
X109687924Y-87599914D01*
X109687619Y-87598380D01*
X109671721Y-87560000D01*
X109648258Y-87503354D01*
X109632929Y-87466347D01*
X109632928Y-87466346D01*
X109632927Y-87466343D01*
X109553530Y-87347518D01*
X109553529Y-87347517D01*
X109553524Y-87347511D01*
X109452487Y-87246474D01*
X109452481Y-87246469D01*
X109452480Y-87246468D01*
X109333653Y-87167070D01*
X109333654Y-87167070D01*
X109333644Y-87167065D01*
X109201629Y-87112384D01*
X109201609Y-87112377D01*
X109201601Y-87112375D01*
X109061460Y-87084500D01*
X109061457Y-87084500D01*
X109061455Y-87084500D01*
X108918545Y-87084500D01*
X108918543Y-87084500D01*
X108918538Y-87084500D01*
X108778397Y-87112375D01*
X108778389Y-87112377D01*
X108778369Y-87112384D01*
X108646354Y-87167065D01*
X108646344Y-87167070D01*
X108527521Y-87246466D01*
X108527517Y-87246469D01*
X108455262Y-87318725D01*
X108427006Y-87339877D01*
X108414825Y-87346528D01*
X108346551Y-87361379D01*
X108281099Y-87336969D01*
X108276905Y-87333830D01*
X108236646Y-87282010D01*
X108217577Y-87235974D01*
X108217576Y-87235974D01*
X107893554Y-87559999D01*
X107640000Y-87559999D01*
X107640000Y-87540109D01*
X107624776Y-87503355D01*
X107596645Y-87475224D01*
X107559892Y-87460000D01*
X107559891Y-87460000D01*
X107520109Y-87460000D01*
X107520107Y-87460000D01*
X107483354Y-87475224D01*
X107455224Y-87503354D01*
X107440000Y-87540107D01*
X107166553Y-87540107D01*
X107040000Y-87413554D01*
X106893554Y-87560000D01*
X106640000Y-87560000D01*
X106640000Y-87540109D01*
X106624776Y-87503355D01*
X106596645Y-87475224D01*
X106559892Y-87460000D01*
X106559891Y-87460000D01*
X106520109Y-87460000D01*
X106520107Y-87460000D01*
X106483354Y-87475224D01*
X106455224Y-87503354D01*
X106440000Y-87540107D01*
X106166553Y-87540107D01*
X106040000Y-87413554D01*
X105893554Y-87560000D01*
X105640000Y-87560000D01*
X105640000Y-87540109D01*
X105624776Y-87503355D01*
X105596645Y-87475224D01*
X105559892Y-87460000D01*
X105559891Y-87460000D01*
X105520109Y-87460000D01*
X105520107Y-87460000D01*
X105483354Y-87475224D01*
X105455224Y-87503354D01*
X105440000Y-87540107D01*
X105166554Y-87540107D01*
X104862421Y-87235974D01*
X104862420Y-87235974D01*
X104818823Y-87341226D01*
X104818816Y-87341257D01*
X104790000Y-87486123D01*
X104790000Y-87486126D01*
X104790000Y-87633873D01*
X104790000Y-87633875D01*
X104789999Y-87633875D01*
X103930170Y-87633875D01*
X103921419Y-87589884D01*
X103919334Y-87585476D01*
X103907290Y-87556400D01*
X103879821Y-87490084D01*
X103879820Y-87490081D01*
X103865092Y-87454522D01*
X103865089Y-87454516D01*
X103865087Y-87454511D01*
X103865080Y-87454498D01*
X103782951Y-87331584D01*
X103782948Y-87331580D01*
X103782943Y-87331574D01*
X103678424Y-87227055D01*
X103678418Y-87227050D01*
X103678414Y-87227047D01*
X103555507Y-87144923D01*
X103555506Y-87144922D01*
X103555501Y-87144919D01*
X103555488Y-87144912D01*
X103555481Y-87144908D01*
X103418919Y-87088344D01*
X103418920Y-87088344D01*
X103418917Y-87088343D01*
X103418907Y-87088340D01*
X103418905Y-87088339D01*
X103418900Y-87088338D01*
X103276436Y-87060000D01*
X105393554Y-87060000D01*
X105540000Y-87206446D01*
X105686446Y-87060000D01*
X106393554Y-87060000D01*
X106540000Y-87206446D01*
X106686446Y-87060000D01*
X107393554Y-87060000D01*
X107540000Y-87206446D01*
X107686446Y-87060000D01*
X107540000Y-86913554D01*
X107393554Y-87060000D01*
X106686446Y-87060000D01*
X106540000Y-86913554D01*
X106393554Y-87060000D01*
X105686446Y-87060000D01*
X105540000Y-86913554D01*
X105393554Y-87060000D01*
X103276436Y-87060000D01*
X103273922Y-87059500D01*
X103273920Y-87059500D01*
X103273918Y-87059500D01*
X103126082Y-87059500D01*
X103126080Y-87059500D01*
X103126078Y-87059500D01*
X102981096Y-87088338D01*
X102981079Y-87088344D01*
X102844517Y-87144908D01*
X102844508Y-87144913D01*
X102844491Y-87144923D01*
X102721585Y-87227047D01*
X102721580Y-87227050D01*
X102721574Y-87227055D01*
X102617055Y-87331574D01*
X102617050Y-87331580D01*
X102617049Y-87331581D01*
X102534923Y-87454491D01*
X102534913Y-87454508D01*
X102534912Y-87454511D01*
X102534909Y-87454515D01*
X102478344Y-87591079D01*
X102478338Y-87591098D01*
X102449500Y-87736076D01*
X102449500Y-87748670D01*
X102444475Y-87783614D01*
X102440070Y-87798612D01*
X102402302Y-87857377D01*
X102392011Y-87866295D01*
X102358260Y-87887146D01*
X102339503Y-87894915D01*
X102339502Y-87894916D01*
X102339490Y-87894923D01*
X102216581Y-87977049D01*
X102216580Y-87977050D01*
X102216574Y-87977055D01*
X102112055Y-88081574D01*
X102112050Y-88081580D01*
X102112049Y-88081581D01*
X102029923Y-88204491D01*
X102029913Y-88204508D01*
X102029908Y-88204517D01*
X101973344Y-88341079D01*
X101973338Y-88341098D01*
X101944500Y-88486076D01*
X101944500Y-88486079D01*
X101944500Y-88486082D01*
X101944500Y-88633918D01*
X101944500Y-88633920D01*
X101944499Y-88633920D01*
X94240500Y-88633920D01*
X94240500Y-86633875D01*
X104789999Y-86633875D01*
X104815376Y-86761446D01*
X104818820Y-86778759D01*
X104818822Y-86778767D01*
X104862421Y-86884024D01*
X105186446Y-86560000D01*
X105186446Y-86559999D01*
X105166554Y-86540107D01*
X105440000Y-86540107D01*
X105440000Y-86540108D01*
X105440000Y-86540109D01*
X105440000Y-86579891D01*
X105455224Y-86616645D01*
X105483355Y-86644776D01*
X105520109Y-86660000D01*
X105559889Y-86660000D01*
X105559891Y-86660000D01*
X105596645Y-86644776D01*
X105624776Y-86616645D01*
X105640000Y-86579891D01*
X105640000Y-86560000D01*
X105893554Y-86560000D01*
X106040000Y-86706446D01*
X106186446Y-86560000D01*
X106166553Y-86540107D01*
X106440000Y-86540107D01*
X106440000Y-86540108D01*
X106440000Y-86540109D01*
X106440000Y-86579891D01*
X106455224Y-86616645D01*
X106483355Y-86644776D01*
X106520109Y-86660000D01*
X106559889Y-86660000D01*
X106559891Y-86660000D01*
X106596645Y-86644776D01*
X106624776Y-86616645D01*
X106640000Y-86579891D01*
X106640000Y-86560000D01*
X106893554Y-86560000D01*
X107040000Y-86706446D01*
X107186446Y-86560000D01*
X107166553Y-86540107D01*
X107440000Y-86540107D01*
X107440000Y-86540108D01*
X107440000Y-86540109D01*
X107440000Y-86579891D01*
X107455224Y-86616645D01*
X107483355Y-86644776D01*
X107520109Y-86660000D01*
X107559889Y-86660000D01*
X107559891Y-86660000D01*
X107596645Y-86644776D01*
X107624776Y-86616645D01*
X107640000Y-86579891D01*
X107640000Y-86559998D01*
X107893554Y-86559998D01*
X107893554Y-86559999D01*
X107893554Y-86560001D01*
X108217577Y-86884024D01*
X108217578Y-86884024D01*
X108261175Y-86778775D01*
X108261179Y-86778760D01*
X108289999Y-86633873D01*
X108290000Y-86633871D01*
X108290000Y-86486128D01*
X108289999Y-86486126D01*
X108261179Y-86341240D01*
X108261178Y-86341236D01*
X108217577Y-86235975D01*
X108217576Y-86235975D01*
X108217576Y-86235974D01*
X107893554Y-86559998D01*
X107640000Y-86559998D01*
X107640000Y-86540109D01*
X107624776Y-86503355D01*
X107596645Y-86475224D01*
X107582853Y-86469511D01*
X107559892Y-86460000D01*
X107559891Y-86460000D01*
X107520109Y-86460000D01*
X107520107Y-86460000D01*
X107483354Y-86475224D01*
X107455224Y-86503354D01*
X107440000Y-86540107D01*
X107166553Y-86540107D01*
X107040000Y-86413554D01*
X106893554Y-86560000D01*
X106640000Y-86560000D01*
X106640000Y-86540109D01*
X106624776Y-86503355D01*
X106596645Y-86475224D01*
X106582853Y-86469511D01*
X106559892Y-86460000D01*
X106559891Y-86460000D01*
X106520109Y-86460000D01*
X106520107Y-86460000D01*
X106483354Y-86475224D01*
X106455224Y-86503354D01*
X106440000Y-86540107D01*
X106166553Y-86540107D01*
X106040000Y-86413554D01*
X105893554Y-86560000D01*
X105640000Y-86560000D01*
X105640000Y-86540109D01*
X105624776Y-86503355D01*
X105596645Y-86475224D01*
X105582853Y-86469511D01*
X105559892Y-86460000D01*
X105559891Y-86460000D01*
X105520109Y-86460000D01*
X105520107Y-86460000D01*
X105483354Y-86475224D01*
X105455224Y-86503354D01*
X105440000Y-86540107D01*
X105166554Y-86540107D01*
X104862421Y-86235974D01*
X104862420Y-86235974D01*
X104818823Y-86341226D01*
X104818816Y-86341257D01*
X104790000Y-86486123D01*
X104790000Y-86486126D01*
X104790000Y-86633873D01*
X104790000Y-86633875D01*
X104789999Y-86633875D01*
X94240500Y-86633875D01*
X94240500Y-85882420D01*
X105215973Y-85882420D01*
X105215974Y-85882421D01*
X105540000Y-86206446D01*
X105540001Y-86206446D01*
X105864024Y-85882421D01*
X105864022Y-85882420D01*
X105864023Y-85882420D01*
X106215973Y-85882420D01*
X106215974Y-85882421D01*
X106540000Y-86206446D01*
X106540001Y-86206446D01*
X106864024Y-85882421D01*
X106864022Y-85882420D01*
X106864023Y-85882420D01*
X106864021Y-85882419D01*
X107215974Y-85882419D01*
X107215974Y-85882420D01*
X107215974Y-85882421D01*
X107540000Y-86206446D01*
X107540001Y-86206446D01*
X107864024Y-85882421D01*
X107864022Y-85882420D01*
X107864023Y-85882420D01*
X107799048Y-85855507D01*
X107758767Y-85838822D01*
X107758759Y-85838820D01*
X107758751Y-85838818D01*
X107758741Y-85838816D01*
X107613874Y-85810000D01*
X107613872Y-85810000D01*
X107466128Y-85810000D01*
X107466126Y-85810000D01*
X107321257Y-85838816D01*
X107321226Y-85838823D01*
X107215974Y-85882419D01*
X106864021Y-85882419D01*
X106799048Y-85855507D01*
X106758767Y-85838822D01*
X106758759Y-85838820D01*
X106758751Y-85838818D01*
X106758741Y-85838816D01*
X106613874Y-85810000D01*
X106613872Y-85810000D01*
X106466128Y-85810000D01*
X106466126Y-85810000D01*
X106321257Y-85838816D01*
X106321226Y-85838823D01*
X106215974Y-85882419D01*
X106215973Y-85882420D01*
X105864023Y-85882420D01*
X105799048Y-85855507D01*
X105758767Y-85838822D01*
X105758759Y-85838820D01*
X105758751Y-85838818D01*
X105758741Y-85838816D01*
X105613874Y-85810000D01*
X105613872Y-85810000D01*
X105466128Y-85810000D01*
X105466126Y-85810000D01*
X105321257Y-85838816D01*
X105321226Y-85838823D01*
X105215974Y-85882419D01*
X105215973Y-85882420D01*
X94240500Y-85882420D01*
X94240500Y-85547471D01*
X108234237Y-85547471D01*
X108268338Y-85718899D01*
X108268344Y-85718919D01*
X108324908Y-85855481D01*
X108324913Y-85855490D01*
X108324923Y-85855507D01*
X108407048Y-85978415D01*
X108407050Y-85978418D01*
X108407055Y-85978424D01*
X108511574Y-86082943D01*
X108511580Y-86082948D01*
X108511584Y-86082951D01*
X108634498Y-86165080D01*
X108634511Y-86165087D01*
X108634513Y-86165087D01*
X108634517Y-86165090D01*
X108718838Y-86200016D01*
X108746947Y-86211659D01*
X108765477Y-86219334D01*
X108769886Y-86221419D01*
X108916076Y-86250500D01*
X109063920Y-86250500D01*
X109063921Y-86250500D01*
X109085647Y-86246177D01*
X109167569Y-86229882D01*
X109208913Y-86221658D01*
X109340751Y-86167049D01*
X109341927Y-86166561D01*
X109343627Y-86165958D01*
X109347848Y-86164109D01*
X109357105Y-86160275D01*
X109365990Y-86151389D01*
X109468416Y-86082951D01*
X109572951Y-85978416D01*
X109618762Y-85909853D01*
X109642344Y-85883602D01*
X109643758Y-85882421D01*
X109652794Y-85874868D01*
X109716858Y-85846984D01*
X109785828Y-85858162D01*
X109833529Y-85898391D01*
X109838302Y-85905136D01*
X109851643Y-85929310D01*
X109874916Y-85985496D01*
X109874917Y-85985498D01*
X109874923Y-85985508D01*
X109957049Y-86108417D01*
X109957050Y-86108418D01*
X109957055Y-86108424D01*
X110061574Y-86212943D01*
X110061580Y-86212948D01*
X110061584Y-86212951D01*
X110184498Y-86295080D01*
X110184511Y-86295087D01*
X110184513Y-86295087D01*
X110184517Y-86295090D01*
X110269806Y-86330417D01*
X110308827Y-86346580D01*
X110308830Y-86346581D01*
X110308837Y-86346584D01*
X110315479Y-86349335D01*
X110319887Y-86351419D01*
X110321085Y-86351657D01*
X110321087Y-86351658D01*
X110321088Y-86351658D01*
X110321091Y-86351658D01*
X110321092Y-86351659D01*
X110368498Y-86361089D01*
X110466076Y-86380500D01*
X110466079Y-86380500D01*
X110466082Y-86380500D01*
X110613920Y-86380500D01*
X110711462Y-86361096D01*
X110758913Y-86351658D01*
X110895495Y-86295084D01*
X111018416Y-86212951D01*
X111122951Y-86108416D01*
X111205084Y-85985495D01*
X111261658Y-85848913D01*
X111283676Y-85738223D01*
X111290500Y-85703920D01*
X111290500Y-85556079D01*
X111286798Y-85537471D01*
X114894237Y-85537471D01*
X114928338Y-85708899D01*
X114928344Y-85708919D01*
X114984908Y-85845481D01*
X114984913Y-85845490D01*
X114984923Y-85845507D01*
X115067049Y-85968417D01*
X115067050Y-85968418D01*
X115067055Y-85968424D01*
X115171574Y-86072943D01*
X115171580Y-86072948D01*
X115171584Y-86072951D01*
X115294498Y-86155080D01*
X115294511Y-86155087D01*
X115294513Y-86155087D01*
X115294517Y-86155090D01*
X115389416Y-86194397D01*
X115421024Y-86207490D01*
X115421049Y-86207500D01*
X115421051Y-86207501D01*
X115431087Y-86211658D01*
X115505218Y-86226403D01*
X115538495Y-86238143D01*
X115550797Y-86244578D01*
X115601077Y-86293094D01*
X115617145Y-86361089D01*
X115616556Y-86372081D01*
X115607296Y-86412897D01*
X115558342Y-86531084D01*
X115558338Y-86531098D01*
X115529500Y-86676076D01*
X115529500Y-86779551D01*
X115524237Y-86797471D01*
X115558338Y-86968899D01*
X115558344Y-86968919D01*
X115614908Y-87105481D01*
X115614913Y-87105490D01*
X115614923Y-87105507D01*
X115697049Y-87228417D01*
X115697050Y-87228418D01*
X115697055Y-87228424D01*
X115801574Y-87332943D01*
X115801580Y-87332948D01*
X115801584Y-87332951D01*
X115924498Y-87415080D01*
X115924511Y-87415087D01*
X116019690Y-87454511D01*
X116055475Y-87469333D01*
X116059885Y-87471419D01*
X116206076Y-87500500D01*
X116206079Y-87500500D01*
X116206082Y-87500500D01*
X116353920Y-87500500D01*
X116451462Y-87481096D01*
X116498913Y-87471658D01*
X116635495Y-87415084D01*
X116758416Y-87332951D01*
X116862951Y-87228416D01*
X116889371Y-87188875D01*
X117739999Y-87188875D01*
X117768659Y-87332951D01*
X117768820Y-87333759D01*
X117768822Y-87333767D01*
X117812421Y-87439024D01*
X118136446Y-87115000D01*
X118136446Y-87114999D01*
X118116554Y-87095107D01*
X118390000Y-87095107D01*
X118390000Y-87134892D01*
X118394155Y-87144923D01*
X118405224Y-87171645D01*
X118433355Y-87199776D01*
X118470109Y-87215000D01*
X118509889Y-87215000D01*
X118509891Y-87215000D01*
X118546645Y-87199776D01*
X118574776Y-87171645D01*
X118590000Y-87134891D01*
X118590000Y-87115000D01*
X118843554Y-87115000D01*
X119090000Y-87361446D01*
X119336446Y-87115000D01*
X119316553Y-87095107D01*
X119590000Y-87095107D01*
X119590000Y-87134892D01*
X119594155Y-87144923D01*
X119605224Y-87171645D01*
X119633355Y-87199776D01*
X119670109Y-87215000D01*
X119709889Y-87215000D01*
X119709891Y-87215000D01*
X119746645Y-87199776D01*
X119774776Y-87171645D01*
X119790000Y-87134891D01*
X119790000Y-87115000D01*
X120043554Y-87115000D01*
X120290000Y-87361446D01*
X120536446Y-87115000D01*
X120516553Y-87095107D01*
X120790000Y-87095107D01*
X120790000Y-87134892D01*
X120794155Y-87144923D01*
X120805224Y-87171645D01*
X120833355Y-87199776D01*
X120870109Y-87215000D01*
X120909889Y-87215000D01*
X120909891Y-87215000D01*
X120946645Y-87199776D01*
X120974776Y-87171645D01*
X120990000Y-87134891D01*
X120990000Y-87115000D01*
X121243554Y-87115000D01*
X121490000Y-87361446D01*
X121736446Y-87115000D01*
X121716553Y-87095107D01*
X121990000Y-87095107D01*
X121990000Y-87134892D01*
X121994155Y-87144923D01*
X122005224Y-87171645D01*
X122033355Y-87199776D01*
X122070109Y-87215000D01*
X122109889Y-87215000D01*
X122109891Y-87215000D01*
X122146645Y-87199776D01*
X122174776Y-87171645D01*
X122190000Y-87134891D01*
X122190000Y-87114999D01*
X122443554Y-87114999D01*
X122443554Y-87115001D01*
X122767577Y-87439024D01*
X122767578Y-87439024D01*
X122811175Y-87333775D01*
X122811179Y-87333760D01*
X122839999Y-87188873D01*
X122840000Y-87188871D01*
X122840000Y-87041128D01*
X122839999Y-87041126D01*
X122811179Y-86896240D01*
X122811177Y-86896232D01*
X122801335Y-86872471D01*
X123509237Y-86872471D01*
X123543338Y-87043899D01*
X123543344Y-87043919D01*
X123599908Y-87180481D01*
X123599913Y-87180490D01*
X123599923Y-87180507D01*
X123682044Y-87303409D01*
X123682050Y-87303418D01*
X123682055Y-87303424D01*
X123786574Y-87407943D01*
X123786580Y-87407948D01*
X123786581Y-87407949D01*
X123909490Y-87490075D01*
X123909494Y-87490077D01*
X123909498Y-87490080D01*
X123909502Y-87490082D01*
X123909505Y-87490084D01*
X123963767Y-87512560D01*
X123998092Y-87526778D01*
X124028443Y-87544786D01*
X124039247Y-87553492D01*
X124079097Y-87610883D01*
X124081593Y-87680704D01*
X124080298Y-87685779D01*
X124047829Y-87742801D01*
X124004059Y-87786570D01*
X124004057Y-87786572D01*
X124004045Y-87786587D01*
X123921923Y-87909491D01*
X123921913Y-87909508D01*
X123921908Y-87909517D01*
X123865344Y-88046079D01*
X123865338Y-88046098D01*
X123836500Y-88191076D01*
X123836500Y-88294551D01*
X123831237Y-88312471D01*
X123865338Y-88483899D01*
X123865344Y-88483919D01*
X123921908Y-88620481D01*
X123921913Y-88620490D01*
X123921923Y-88620507D01*
X124004044Y-88743409D01*
X124004048Y-88743416D01*
X124004051Y-88743419D01*
X124098151Y-88837519D01*
X124112953Y-88855393D01*
X124124847Y-88872856D01*
X124146316Y-88939345D01*
X124128430Y-89006887D01*
X124128427Y-89006891D01*
X124120368Y-89020199D01*
X124101982Y-89043648D01*
X124004055Y-89141574D01*
X124004053Y-89141577D01*
X124004051Y-89141580D01*
X124004048Y-89141584D01*
X123990777Y-89161446D01*
X123921923Y-89264491D01*
X123921913Y-89264508D01*
X123921908Y-89264517D01*
X123865344Y-89401079D01*
X123865338Y-89401098D01*
X123836500Y-89546076D01*
X123836500Y-89649551D01*
X123831237Y-89667471D01*
X123865338Y-89838899D01*
X123865344Y-89838919D01*
X123921908Y-89975481D01*
X123921913Y-89975490D01*
X123921923Y-89975507D01*
X124004049Y-90098417D01*
X124004055Y-90098424D01*
X124108574Y-90202943D01*
X124108580Y-90202948D01*
X124108584Y-90202951D01*
X124231498Y-90285080D01*
X124231511Y-90285087D01*
X124368082Y-90341656D01*
X124368087Y-90341658D01*
X124368091Y-90341658D01*
X124368092Y-90341659D01*
X124368357Y-90341711D01*
X124368358Y-90341712D01*
X124368382Y-90341717D01*
X124513077Y-90370500D01*
X124513079Y-90370500D01*
X124513082Y-90370500D01*
X124660920Y-90370500D01*
X124758462Y-90351096D01*
X124805913Y-90341658D01*
X124942495Y-90285084D01*
X125065416Y-90202951D01*
X125075790Y-90192577D01*
X125169950Y-90098418D01*
X125169951Y-90098416D01*
X125252084Y-89975495D01*
X125308658Y-89838913D01*
X125329572Y-89733775D01*
X125337500Y-89693920D01*
X125337500Y-89546079D01*
X125337500Y-89546076D01*
X125308419Y-89399884D01*
X125306332Y-89395472D01*
X125302030Y-89385087D01*
X125270929Y-89310000D01*
X125252087Y-89264511D01*
X125252080Y-89264498D01*
X125169951Y-89141584D01*
X125169948Y-89141580D01*
X125075860Y-89047492D01*
X125061068Y-89029632D01*
X125049160Y-89012153D01*
X125027683Y-88945666D01*
X125045557Y-88878129D01*
X125053606Y-88864831D01*
X125072002Y-88841365D01*
X125169948Y-88743419D01*
X125169950Y-88743417D01*
X125169951Y-88743416D01*
X125252084Y-88620495D01*
X125308658Y-88483913D01*
X125322654Y-88413554D01*
X125327563Y-88388874D01*
X125327563Y-88388872D01*
X125328012Y-88386618D01*
X125337500Y-88338920D01*
X125337500Y-88191079D01*
X125337500Y-88191076D01*
X125308419Y-88044884D01*
X125306334Y-88040475D01*
X125301544Y-88028912D01*
X125301542Y-88028907D01*
X125252090Y-87909517D01*
X125252085Y-87909508D01*
X125252080Y-87909498D01*
X125169951Y-87786584D01*
X125169948Y-87786580D01*
X125169947Y-87786579D01*
X125169943Y-87786574D01*
X125065424Y-87682055D01*
X125065418Y-87682050D01*
X125065417Y-87682049D01*
X124942507Y-87599923D01*
X124942502Y-87599920D01*
X124942501Y-87599919D01*
X124942488Y-87599912D01*
X124853906Y-87563221D01*
X124823550Y-87545208D01*
X124812743Y-87536498D01*
X124772898Y-87479103D01*
X124770406Y-87409290D01*
X124771702Y-87404209D01*
X124804168Y-87347198D01*
X124847948Y-87303419D01*
X124847951Y-87303416D01*
X124930084Y-87180495D01*
X124986658Y-87043913D01*
X125015500Y-86898918D01*
X125015500Y-86751082D01*
X125015500Y-86751079D01*
X125015500Y-86751076D01*
X124986419Y-86604885D01*
X124984332Y-86600472D01*
X124973226Y-86573660D01*
X124973226Y-86573659D01*
X124930090Y-86469517D01*
X124930085Y-86469508D01*
X124930080Y-86469498D01*
X124847951Y-86346584D01*
X124847948Y-86346580D01*
X124847943Y-86346574D01*
X124743424Y-86242055D01*
X124743418Y-86242050D01*
X124743417Y-86242049D01*
X124620507Y-86159923D01*
X124620506Y-86159922D01*
X124620501Y-86159919D01*
X124620488Y-86159912D01*
X124620481Y-86159908D01*
X124483919Y-86103344D01*
X124483920Y-86103344D01*
X124483917Y-86103343D01*
X124483907Y-86103340D01*
X124483905Y-86103339D01*
X124483900Y-86103338D01*
X124338922Y-86074500D01*
X124338920Y-86074500D01*
X124338918Y-86074500D01*
X124191082Y-86074500D01*
X124191080Y-86074500D01*
X124191078Y-86074500D01*
X124046096Y-86103338D01*
X124046079Y-86103344D01*
X123909517Y-86159908D01*
X123909508Y-86159913D01*
X123909491Y-86159923D01*
X123786581Y-86242049D01*
X123786580Y-86242050D01*
X123786574Y-86242055D01*
X123682055Y-86346574D01*
X123682050Y-86346580D01*
X123682049Y-86346581D01*
X123599923Y-86469491D01*
X123599913Y-86469508D01*
X123599908Y-86469517D01*
X123543344Y-86606079D01*
X123543338Y-86606098D01*
X123514500Y-86751076D01*
X123514500Y-86854551D01*
X123509237Y-86872471D01*
X122801335Y-86872471D01*
X122768186Y-86792443D01*
X122768185Y-86792441D01*
X122767578Y-86790974D01*
X122767577Y-86790974D01*
X122443554Y-87114999D01*
X122190000Y-87114999D01*
X122190000Y-87095109D01*
X122174776Y-87058355D01*
X122146645Y-87030224D01*
X122138772Y-87026963D01*
X122109892Y-87015000D01*
X122109891Y-87015000D01*
X122070109Y-87015000D01*
X122070107Y-87015000D01*
X122033354Y-87030224D01*
X122005224Y-87058354D01*
X121990000Y-87095107D01*
X121716553Y-87095107D01*
X121490000Y-86868554D01*
X121243554Y-87115000D01*
X120990000Y-87115000D01*
X120990000Y-87095109D01*
X120974776Y-87058355D01*
X120946645Y-87030224D01*
X120938772Y-87026963D01*
X120909892Y-87015000D01*
X120909891Y-87015000D01*
X120870109Y-87015000D01*
X120870107Y-87015000D01*
X120833354Y-87030224D01*
X120805224Y-87058354D01*
X120790000Y-87095107D01*
X120516553Y-87095107D01*
X120290000Y-86868554D01*
X120043554Y-87115000D01*
X119790000Y-87115000D01*
X119790000Y-87095109D01*
X119774776Y-87058355D01*
X119746645Y-87030224D01*
X119738772Y-87026963D01*
X119709892Y-87015000D01*
X119709891Y-87015000D01*
X119670109Y-87015000D01*
X119670107Y-87015000D01*
X119633354Y-87030224D01*
X119605224Y-87058354D01*
X119590000Y-87095107D01*
X119316553Y-87095107D01*
X119090000Y-86868554D01*
X118843554Y-87115000D01*
X118590000Y-87115000D01*
X118590000Y-87095109D01*
X118574776Y-87058355D01*
X118546645Y-87030224D01*
X118538772Y-87026963D01*
X118509892Y-87015000D01*
X118509891Y-87015000D01*
X118470109Y-87015000D01*
X118470107Y-87015000D01*
X118433354Y-87030224D01*
X118405224Y-87058354D01*
X118390000Y-87095107D01*
X118116554Y-87095107D01*
X117812421Y-86790974D01*
X117812420Y-86790974D01*
X117768823Y-86896226D01*
X117768816Y-86896257D01*
X117740000Y-87041123D01*
X117740000Y-87041126D01*
X117740000Y-87188873D01*
X117740000Y-87188875D01*
X117739999Y-87188875D01*
X116889371Y-87188875D01*
X116945084Y-87105495D01*
X117001658Y-86968913D01*
X117030500Y-86823918D01*
X117030500Y-86676082D01*
X117030500Y-86676079D01*
X117030500Y-86676076D01*
X117001419Y-86529886D01*
X116999337Y-86525484D01*
X116994994Y-86515000D01*
X118243554Y-86515000D01*
X118490000Y-86761446D01*
X118736446Y-86515000D01*
X119443554Y-86515000D01*
X119690000Y-86761446D01*
X119936446Y-86515000D01*
X120643554Y-86515000D01*
X120890000Y-86761446D01*
X121136446Y-86515000D01*
X121843554Y-86515000D01*
X122090000Y-86761446D01*
X122336446Y-86515000D01*
X122090000Y-86268554D01*
X121843554Y-86515000D01*
X121136446Y-86515000D01*
X120890000Y-86268554D01*
X120643554Y-86515000D01*
X119936446Y-86515000D01*
X119690000Y-86268554D01*
X119443554Y-86515000D01*
X118736446Y-86515000D01*
X118490000Y-86268554D01*
X118243554Y-86515000D01*
X116994994Y-86515000D01*
X116972213Y-86460000D01*
X116961836Y-86434947D01*
X116945092Y-86394524D01*
X116945087Y-86394511D01*
X116945080Y-86394498D01*
X116862951Y-86271584D01*
X116862948Y-86271580D01*
X116862943Y-86271574D01*
X116758424Y-86167055D01*
X116758418Y-86167050D01*
X116758417Y-86167049D01*
X116635507Y-86084923D01*
X116635506Y-86084922D01*
X116635501Y-86084919D01*
X116635488Y-86084912D01*
X116635481Y-86084908D01*
X116498919Y-86028344D01*
X116498920Y-86028344D01*
X116498917Y-86028343D01*
X116498907Y-86028340D01*
X116498905Y-86028339D01*
X116498900Y-86028338D01*
X116424782Y-86013595D01*
X116391503Y-86001855D01*
X116379204Y-85995422D01*
X116328923Y-85946908D01*
X116312853Y-85878912D01*
X116312853Y-85878911D01*
X116313285Y-85870853D01*
X116313442Y-85867913D01*
X116319521Y-85841123D01*
X117740000Y-85841123D01*
X117740000Y-85988875D01*
X117763778Y-86108416D01*
X117768820Y-86133759D01*
X117768822Y-86133767D01*
X117812421Y-86239024D01*
X118136446Y-85915000D01*
X118136446Y-85914999D01*
X118116554Y-85895107D01*
X118390000Y-85895107D01*
X118390000Y-85934892D01*
X118403886Y-85968415D01*
X118405224Y-85971645D01*
X118433355Y-85999776D01*
X118470109Y-86015000D01*
X118509889Y-86015000D01*
X118509891Y-86015000D01*
X118546645Y-85999776D01*
X118574776Y-85971645D01*
X118590000Y-85934891D01*
X118590000Y-85915000D01*
X118843554Y-85915000D01*
X119090000Y-86161446D01*
X119336446Y-85915000D01*
X119316553Y-85895107D01*
X119590000Y-85895107D01*
X119590000Y-85934892D01*
X119603886Y-85968415D01*
X119605224Y-85971645D01*
X119633355Y-85999776D01*
X119670109Y-86015000D01*
X119709889Y-86015000D01*
X119709891Y-86015000D01*
X119746645Y-85999776D01*
X119774776Y-85971645D01*
X119790000Y-85934891D01*
X119790000Y-85915000D01*
X120043554Y-85915000D01*
X120290000Y-86161446D01*
X120536446Y-85915000D01*
X120516553Y-85895107D01*
X120790000Y-85895107D01*
X120790000Y-85934892D01*
X120803886Y-85968415D01*
X120805224Y-85971645D01*
X120833355Y-85999776D01*
X120870109Y-86015000D01*
X120909889Y-86015000D01*
X120909891Y-86015000D01*
X120946645Y-85999776D01*
X120974776Y-85971645D01*
X120990000Y-85934891D01*
X120990000Y-85915000D01*
X121243554Y-85915000D01*
X121490000Y-86161446D01*
X121736446Y-85915000D01*
X121490000Y-85668554D01*
X121243554Y-85915000D01*
X120990000Y-85915000D01*
X120990000Y-85895109D01*
X120974776Y-85858355D01*
X120946645Y-85830224D01*
X120939086Y-85827093D01*
X120909892Y-85815000D01*
X120909891Y-85815000D01*
X120870109Y-85815000D01*
X120870107Y-85815000D01*
X120833354Y-85830224D01*
X120805224Y-85858354D01*
X120790000Y-85895107D01*
X120516553Y-85895107D01*
X120290000Y-85668554D01*
X120043554Y-85915000D01*
X119790000Y-85915000D01*
X119790000Y-85895109D01*
X119774776Y-85858355D01*
X119746645Y-85830224D01*
X119739086Y-85827093D01*
X119709892Y-85815000D01*
X119709891Y-85815000D01*
X119670109Y-85815000D01*
X119670107Y-85815000D01*
X119633354Y-85830224D01*
X119605224Y-85858354D01*
X119590000Y-85895107D01*
X119316553Y-85895107D01*
X119090000Y-85668554D01*
X118843554Y-85915000D01*
X118590000Y-85915000D01*
X118590000Y-85895109D01*
X118574776Y-85858355D01*
X118546645Y-85830224D01*
X118539086Y-85827093D01*
X118509892Y-85815000D01*
X118509891Y-85815000D01*
X118470109Y-85815000D01*
X118470107Y-85815000D01*
X118433354Y-85830224D01*
X118405224Y-85858354D01*
X118390000Y-85895107D01*
X118116554Y-85895107D01*
X117812421Y-85590974D01*
X117812420Y-85590974D01*
X117768823Y-85696226D01*
X117768816Y-85696257D01*
X117740000Y-85841123D01*
X116319521Y-85841123D01*
X116322703Y-85827099D01*
X116329786Y-85810000D01*
X116371658Y-85708913D01*
X116372884Y-85702747D01*
X116384623Y-85669475D01*
X116391870Y-85655620D01*
X116440381Y-85605342D01*
X116441969Y-85604437D01*
X116501089Y-85588217D01*
X116508836Y-85588079D01*
X116535236Y-85590440D01*
X116636080Y-85610500D01*
X116783920Y-85610500D01*
X116783921Y-85610500D01*
X116838509Y-85599641D01*
X116893099Y-85588782D01*
X116893100Y-85588782D01*
X116902112Y-85586989D01*
X116928913Y-85581658D01*
X117065495Y-85525084D01*
X117188416Y-85442951D01*
X117292951Y-85338416D01*
X117299634Y-85328415D01*
X117329969Y-85283014D01*
X117360434Y-85237420D01*
X118165973Y-85237420D01*
X118165974Y-85237421D01*
X118490000Y-85561446D01*
X118490001Y-85561446D01*
X118814024Y-85237421D01*
X118814022Y-85237420D01*
X118814023Y-85237420D01*
X119365973Y-85237420D01*
X119365974Y-85237421D01*
X119690000Y-85561446D01*
X119690001Y-85561446D01*
X120014024Y-85237421D01*
X120014022Y-85237420D01*
X120014023Y-85237420D01*
X120565973Y-85237420D01*
X120565974Y-85237421D01*
X120890000Y-85561446D01*
X120890001Y-85561446D01*
X121214024Y-85237421D01*
X121214022Y-85237420D01*
X121214023Y-85237420D01*
X121765973Y-85237420D01*
X121765974Y-85237421D01*
X121971504Y-85442951D01*
X122134146Y-85605592D01*
X122167631Y-85666915D01*
X122162647Y-85736606D01*
X122120776Y-85792540D01*
X122081315Y-85810138D01*
X122081393Y-85810326D01*
X122074379Y-85813231D01*
X122070662Y-85814889D01*
X122070113Y-85814998D01*
X122033354Y-85830224D01*
X122005224Y-85858354D01*
X121990000Y-85895107D01*
X121990000Y-85934892D01*
X122003886Y-85968415D01*
X122005224Y-85971645D01*
X122033355Y-85999776D01*
X122070109Y-86015000D01*
X122109889Y-86015000D01*
X122109891Y-86015000D01*
X122146645Y-85999776D01*
X122174776Y-85971645D01*
X122190000Y-85934891D01*
X122190000Y-85934889D01*
X122190108Y-85934348D01*
X122190669Y-85933274D01*
X122194674Y-85923607D01*
X122195538Y-85923965D01*
X122222490Y-85872436D01*
X122283204Y-85837859D01*
X122352974Y-85841595D01*
X122399406Y-85870852D01*
X122767577Y-86239024D01*
X122767578Y-86239024D01*
X122811175Y-86133775D01*
X122811179Y-86133760D01*
X122839999Y-85988873D01*
X122840000Y-85988871D01*
X122840000Y-85899471D01*
X127274237Y-85899471D01*
X127308338Y-86070899D01*
X127308344Y-86070919D01*
X127364908Y-86207481D01*
X127364912Y-86207488D01*
X127364918Y-86207500D01*
X127364923Y-86207507D01*
X127447049Y-86330417D01*
X127447050Y-86330418D01*
X127447055Y-86330424D01*
X127551578Y-86434947D01*
X127551584Y-86434951D01*
X127674498Y-86517080D01*
X127674511Y-86517087D01*
X127778116Y-86560001D01*
X127805475Y-86571333D01*
X127805476Y-86571334D01*
X127809885Y-86573419D01*
X127956076Y-86602500D01*
X128103920Y-86602500D01*
X128103921Y-86602500D01*
X128160749Y-86591195D01*
X128217578Y-86579891D01*
X128248913Y-86573658D01*
X128385495Y-86517084D01*
X128508416Y-86434951D01*
X128508419Y-86434948D01*
X128508421Y-86434947D01*
X128612948Y-86330419D01*
X128612950Y-86330417D01*
X128612951Y-86330416D01*
X128671992Y-86242055D01*
X128695081Y-86207500D01*
X128695082Y-86207497D01*
X128695084Y-86207495D01*
X128751658Y-86070913D01*
X128765808Y-85999776D01*
X128770057Y-85978418D01*
X128770057Y-85978415D01*
X128780500Y-85925920D01*
X128780500Y-85778076D01*
X128751419Y-85631884D01*
X128749333Y-85627474D01*
X128734214Y-85590974D01*
X128734214Y-85590973D01*
X128702378Y-85514113D01*
X128695087Y-85496511D01*
X128695080Y-85496498D01*
X128612951Y-85373584D01*
X128612948Y-85373580D01*
X128612943Y-85373574D01*
X128508424Y-85269055D01*
X128508418Y-85269050D01*
X128508417Y-85269049D01*
X128385507Y-85186923D01*
X128385506Y-85186922D01*
X128385501Y-85186919D01*
X128385488Y-85186912D01*
X128385481Y-85186908D01*
X128258994Y-85134517D01*
X128248917Y-85130343D01*
X128248907Y-85130340D01*
X128248905Y-85130339D01*
X128248900Y-85130338D01*
X128103922Y-85101500D01*
X128103920Y-85101500D01*
X128103918Y-85101500D01*
X127956082Y-85101500D01*
X127956080Y-85101500D01*
X127956078Y-85101500D01*
X127811096Y-85130338D01*
X127811079Y-85130344D01*
X127674517Y-85186908D01*
X127674508Y-85186913D01*
X127674491Y-85186923D01*
X127551581Y-85269049D01*
X127551580Y-85269050D01*
X127551574Y-85269055D01*
X127447055Y-85373574D01*
X127447050Y-85373580D01*
X127447049Y-85373581D01*
X127364923Y-85496491D01*
X127364913Y-85496508D01*
X127364908Y-85496517D01*
X127308344Y-85633079D01*
X127308338Y-85633098D01*
X127279500Y-85778076D01*
X127279500Y-85881551D01*
X127274237Y-85899471D01*
X122840000Y-85899471D01*
X122840000Y-85841129D01*
X122831059Y-85796183D01*
X122831059Y-85796181D01*
X122816755Y-85724273D01*
X122814866Y-85689040D01*
X122816104Y-85675207D01*
X122822631Y-85658617D01*
X122822983Y-85654686D01*
X122825404Y-85651568D01*
X122841684Y-85610192D01*
X122898354Y-85569326D01*
X122900602Y-85568532D01*
X122970372Y-85564802D01*
X122989294Y-85570915D01*
X122991087Y-85571658D01*
X122991091Y-85571658D01*
X122991092Y-85571659D01*
X123136079Y-85600500D01*
X123283918Y-85600500D01*
X123283920Y-85600500D01*
X123356909Y-85585980D01*
X123428913Y-85571658D01*
X123434939Y-85569162D01*
X123565488Y-85515087D01*
X123565488Y-85515086D01*
X123567837Y-85514114D01*
X123567839Y-85514113D01*
X123577106Y-85510274D01*
X123585990Y-85501389D01*
X123688416Y-85432951D01*
X123792951Y-85328416D01*
X123875084Y-85205495D01*
X123876922Y-85201059D01*
X123931657Y-85068915D01*
X123931658Y-85068913D01*
X123952346Y-84964912D01*
X123960500Y-84923920D01*
X123960500Y-84776079D01*
X123960500Y-84776076D01*
X123931419Y-84629886D01*
X123929337Y-84625483D01*
X123879229Y-84504511D01*
X123879228Y-84504508D01*
X123879228Y-84504507D01*
X123875094Y-84494528D01*
X123875089Y-84494517D01*
X123875087Y-84494511D01*
X123875080Y-84494498D01*
X123820271Y-84412470D01*
X123805040Y-84380636D01*
X123800368Y-84365717D01*
X123799115Y-84295871D01*
X123799594Y-84294124D01*
X123829946Y-84240813D01*
X123835326Y-84235237D01*
X123855655Y-84218249D01*
X123938416Y-84162951D01*
X124042951Y-84058416D01*
X124115838Y-83949333D01*
X124125081Y-83935500D01*
X124125088Y-83935487D01*
X124175844Y-83812949D01*
X124181658Y-83798913D01*
X124199659Y-83708419D01*
X124205079Y-83681169D01*
X124210500Y-83653921D01*
X124210500Y-83506076D01*
X124181419Y-83359885D01*
X124179332Y-83355472D01*
X124157978Y-83303918D01*
X124125087Y-83224511D01*
X124125080Y-83224498D01*
X124042951Y-83101584D01*
X124042948Y-83101580D01*
X124042943Y-83101574D01*
X123938424Y-82997055D01*
X123938418Y-82997050D01*
X123938408Y-82997043D01*
X123883674Y-82960471D01*
X123815501Y-82914919D01*
X123815488Y-82914912D01*
X123815481Y-82914908D01*
X123678919Y-82858344D01*
X123678920Y-82858344D01*
X123678917Y-82858343D01*
X123678907Y-82858340D01*
X123678905Y-82858339D01*
X123678900Y-82858338D01*
X123533922Y-82829500D01*
X123533920Y-82829500D01*
X123533918Y-82829500D01*
X123386082Y-82829500D01*
X123386080Y-82829500D01*
X123386078Y-82829500D01*
X123241096Y-82858338D01*
X123241079Y-82858344D01*
X123104517Y-82914908D01*
X123104508Y-82914913D01*
X123104503Y-82914916D01*
X123104498Y-82914919D01*
X123036325Y-82960471D01*
X122981591Y-82997043D01*
X122981580Y-82997050D01*
X122981574Y-82997055D01*
X122877055Y-83101574D01*
X122877050Y-83101580D01*
X122877049Y-83101581D01*
X122794923Y-83224491D01*
X122794913Y-83224508D01*
X122794908Y-83224517D01*
X122738344Y-83361079D01*
X122738338Y-83361098D01*
X122709500Y-83506076D01*
X122709500Y-83609551D01*
X122704237Y-83627471D01*
X122738338Y-83798899D01*
X122738344Y-83798919D01*
X122794906Y-83935476D01*
X122794913Y-83935491D01*
X122849728Y-84017528D01*
X122864960Y-84049366D01*
X122869632Y-84064287D01*
X122870886Y-84134116D01*
X122870408Y-84135860D01*
X122840049Y-84189188D01*
X122834676Y-84194756D01*
X122814338Y-84211753D01*
X122731576Y-84267053D01*
X122627055Y-84371574D01*
X122627050Y-84371580D01*
X122627049Y-84371581D01*
X122544923Y-84494491D01*
X122544913Y-84494508D01*
X122544908Y-84494517D01*
X122488344Y-84631079D01*
X122488338Y-84631098D01*
X122459500Y-84776076D01*
X122459500Y-84776079D01*
X122459500Y-84923922D01*
X122459500Y-84923924D01*
X122459499Y-84923924D01*
X122482804Y-85041080D01*
X122484693Y-85076325D01*
X122483479Y-85089890D01*
X122457897Y-85154908D01*
X122401225Y-85195774D01*
X122339050Y-85201059D01*
X122330825Y-85199651D01*
X122312878Y-85195179D01*
X122308773Y-85193824D01*
X122308770Y-85193823D01*
X122308767Y-85193822D01*
X122308759Y-85193820D01*
X122308749Y-85193818D01*
X122308741Y-85193816D01*
X122163874Y-85165000D01*
X122163872Y-85165000D01*
X122016128Y-85165000D01*
X122016126Y-85165000D01*
X121871257Y-85193816D01*
X121871226Y-85193823D01*
X121765974Y-85237419D01*
X121765973Y-85237420D01*
X121214023Y-85237420D01*
X121139572Y-85206582D01*
X121108767Y-85193822D01*
X121108759Y-85193820D01*
X121108751Y-85193818D01*
X121108741Y-85193816D01*
X120963874Y-85165000D01*
X120963872Y-85165000D01*
X120816128Y-85165000D01*
X120816126Y-85165000D01*
X120671257Y-85193816D01*
X120671226Y-85193823D01*
X120565974Y-85237419D01*
X120565973Y-85237420D01*
X120014023Y-85237420D01*
X119939572Y-85206582D01*
X119908767Y-85193822D01*
X119908759Y-85193820D01*
X119908751Y-85193818D01*
X119908741Y-85193816D01*
X119763874Y-85165000D01*
X119763872Y-85165000D01*
X119616128Y-85165000D01*
X119616126Y-85165000D01*
X119471257Y-85193816D01*
X119471226Y-85193823D01*
X119365974Y-85237419D01*
X119365973Y-85237420D01*
X118814023Y-85237420D01*
X118739572Y-85206582D01*
X118708767Y-85193822D01*
X118708759Y-85193820D01*
X118708751Y-85193818D01*
X118708741Y-85193816D01*
X118563874Y-85165000D01*
X118563872Y-85165000D01*
X118416128Y-85165000D01*
X118416126Y-85165000D01*
X118271257Y-85193816D01*
X118271226Y-85193823D01*
X118165974Y-85237419D01*
X118165973Y-85237420D01*
X117360434Y-85237420D01*
X117375084Y-85215495D01*
X117375901Y-85213524D01*
X117404492Y-85144498D01*
X117431658Y-85078913D01*
X117445052Y-85011580D01*
X117460500Y-84933920D01*
X117460500Y-84786079D01*
X117460500Y-84786076D01*
X117431419Y-84639884D01*
X117429334Y-84635476D01*
X117427514Y-84631082D01*
X117427514Y-84631081D01*
X117375088Y-84504513D01*
X117375085Y-84504508D01*
X117375080Y-84504498D01*
X117292951Y-84381584D01*
X117292948Y-84381580D01*
X117292943Y-84381574D01*
X117188424Y-84277055D01*
X117188418Y-84277050D01*
X117188417Y-84277049D01*
X117065507Y-84194923D01*
X117065506Y-84194922D01*
X117065501Y-84194919D01*
X117065488Y-84194912D01*
X117065481Y-84194908D01*
X116928919Y-84138344D01*
X116928920Y-84138344D01*
X116928917Y-84138343D01*
X116928907Y-84138340D01*
X116928905Y-84138339D01*
X116928900Y-84138338D01*
X116783922Y-84109500D01*
X116783920Y-84109500D01*
X116783918Y-84109500D01*
X116636082Y-84109500D01*
X116636080Y-84109500D01*
X116636078Y-84109500D01*
X116491096Y-84138338D01*
X116491079Y-84138344D01*
X116354517Y-84194908D01*
X116354508Y-84194913D01*
X116354491Y-84194923D01*
X116231581Y-84277049D01*
X116231580Y-84277050D01*
X116231574Y-84277055D01*
X116127055Y-84381574D01*
X116127050Y-84381580D01*
X116127049Y-84381581D01*
X116044923Y-84504491D01*
X116044913Y-84504508D01*
X116044908Y-84504517D01*
X115988347Y-84641070D01*
X115988342Y-84641084D01*
X115988337Y-84641104D01*
X115987114Y-84647253D01*
X115975371Y-84680535D01*
X115968125Y-84694386D01*
X115919607Y-84744663D01*
X115918642Y-84745213D01*
X115918001Y-84745578D01*
X115858892Y-84761782D01*
X115851159Y-84761920D01*
X115824754Y-84759557D01*
X115723922Y-84739500D01*
X115723920Y-84739500D01*
X115723918Y-84739500D01*
X115576082Y-84739500D01*
X115576080Y-84739500D01*
X115576078Y-84739500D01*
X115431096Y-84768338D01*
X115431079Y-84768344D01*
X115294517Y-84824908D01*
X115294508Y-84824913D01*
X115294491Y-84824923D01*
X115171581Y-84907049D01*
X115171580Y-84907050D01*
X115171574Y-84907055D01*
X115067055Y-85011574D01*
X115067050Y-85011580D01*
X114984923Y-85134491D01*
X114984913Y-85134508D01*
X114984908Y-85134517D01*
X114928344Y-85271079D01*
X114928338Y-85271098D01*
X114899500Y-85416076D01*
X114899500Y-85519551D01*
X114894237Y-85537471D01*
X111286798Y-85537471D01*
X111266252Y-85434182D01*
X111266251Y-85434181D01*
X111262686Y-85416256D01*
X111261658Y-85411087D01*
X111231557Y-85338416D01*
X111205087Y-85274511D01*
X111205080Y-85274498D01*
X111122951Y-85151584D01*
X111122948Y-85151580D01*
X111122943Y-85151574D01*
X111018424Y-85047055D01*
X111018418Y-85047050D01*
X111018417Y-85047049D01*
X110895507Y-84964923D01*
X110895506Y-84964922D01*
X110895501Y-84964919D01*
X110895488Y-84964912D01*
X110895486Y-84964911D01*
X110895481Y-84964908D01*
X110758919Y-84908344D01*
X110758920Y-84908344D01*
X110758917Y-84908343D01*
X110758907Y-84908340D01*
X110758905Y-84908339D01*
X110758900Y-84908338D01*
X110613922Y-84879500D01*
X110613920Y-84879500D01*
X110613918Y-84879500D01*
X110466082Y-84879500D01*
X110466080Y-84879500D01*
X110466078Y-84879500D01*
X110321096Y-84908338D01*
X110321079Y-84908344D01*
X110184517Y-84964908D01*
X110184513Y-84964911D01*
X110184491Y-84964923D01*
X110061581Y-85047049D01*
X110061580Y-85047050D01*
X110061574Y-85047055D01*
X109957052Y-85151577D01*
X109957043Y-85151591D01*
X109911239Y-85220140D01*
X109887652Y-85246398D01*
X109877203Y-85255130D01*
X109813139Y-85283014D01*
X109744169Y-85271835D01*
X109696465Y-85231601D01*
X109691694Y-85224858D01*
X109678357Y-85200689D01*
X109655090Y-85144517D01*
X109655079Y-85144497D01*
X109655075Y-85144491D01*
X109645622Y-85130344D01*
X109572951Y-85021584D01*
X109572948Y-85021580D01*
X109572943Y-85021574D01*
X109468424Y-84917055D01*
X109468418Y-84917050D01*
X109468417Y-84917049D01*
X109345507Y-84834923D01*
X109345506Y-84834922D01*
X109345501Y-84834919D01*
X109345488Y-84834912D01*
X109345481Y-84834908D01*
X109208919Y-84778344D01*
X109208920Y-84778344D01*
X109208917Y-84778343D01*
X109208907Y-84778340D01*
X109208905Y-84778339D01*
X109208900Y-84778338D01*
X109063922Y-84749500D01*
X109063920Y-84749500D01*
X109063918Y-84749500D01*
X108916082Y-84749500D01*
X108916080Y-84749500D01*
X108916078Y-84749500D01*
X108771096Y-84778338D01*
X108771079Y-84778344D01*
X108634517Y-84834908D01*
X108634508Y-84834913D01*
X108634491Y-84834923D01*
X108511581Y-84917049D01*
X108511580Y-84917050D01*
X108511574Y-84917055D01*
X108407055Y-85021574D01*
X108407050Y-85021580D01*
X108407049Y-85021581D01*
X108324923Y-85144491D01*
X108324920Y-85144497D01*
X108324908Y-85144517D01*
X108268344Y-85281079D01*
X108268338Y-85281098D01*
X108239500Y-85426076D01*
X108239500Y-85529551D01*
X108234237Y-85547471D01*
X94240500Y-85547471D01*
X94240500Y-83113920D01*
X101649499Y-83113920D01*
X101678340Y-83258907D01*
X101678343Y-83258917D01*
X101678819Y-83260067D01*
X101678820Y-83260070D01*
X101734908Y-83395481D01*
X101734913Y-83395490D01*
X101734923Y-83395507D01*
X101817049Y-83518417D01*
X101817050Y-83518418D01*
X101817055Y-83518424D01*
X101921574Y-83622943D01*
X101921580Y-83622948D01*
X101921584Y-83622951D01*
X102044498Y-83705080D01*
X102044511Y-83705087D01*
X102181082Y-83761656D01*
X102181087Y-83761658D01*
X102181091Y-83761658D01*
X102181092Y-83761659D01*
X102181357Y-83761711D01*
X102181358Y-83761712D01*
X102181382Y-83761717D01*
X102326077Y-83790500D01*
X102326079Y-83790500D01*
X102326082Y-83790500D01*
X102473920Y-83790500D01*
X102571462Y-83771096D01*
X102618913Y-83761658D01*
X102747446Y-83708418D01*
X102755488Y-83705087D01*
X102755488Y-83705086D01*
X102755495Y-83705084D01*
X102878416Y-83622951D01*
X102982951Y-83518416D01*
X103065084Y-83395495D01*
X103121658Y-83258913D01*
X103126918Y-83232471D01*
X105289237Y-83232471D01*
X105321669Y-83395507D01*
X105323339Y-83403904D01*
X105323344Y-83403919D01*
X105379908Y-83540481D01*
X105379913Y-83540490D01*
X105379923Y-83540507D01*
X105462049Y-83663417D01*
X105462050Y-83663418D01*
X105462055Y-83663424D01*
X105566574Y-83767943D01*
X105566580Y-83767948D01*
X105566584Y-83767951D01*
X105689498Y-83850080D01*
X105689511Y-83850087D01*
X105798152Y-83895087D01*
X105820476Y-83904334D01*
X105824885Y-83906419D01*
X105971076Y-83935500D01*
X105971079Y-83935500D01*
X105971082Y-83935500D01*
X106118920Y-83935500D01*
X106216462Y-83916096D01*
X106263913Y-83906658D01*
X106400495Y-83850084D01*
X106523416Y-83767951D01*
X106627951Y-83663416D01*
X106710084Y-83540495D01*
X106766658Y-83403913D01*
X106776096Y-83356462D01*
X106791810Y-83277471D01*
X109004237Y-83277471D01*
X109038338Y-83448899D01*
X109038344Y-83448919D01*
X109094908Y-83585481D01*
X109094913Y-83585490D01*
X109094923Y-83585507D01*
X109177049Y-83708417D01*
X109177050Y-83708418D01*
X109177055Y-83708424D01*
X109281574Y-83812943D01*
X109281580Y-83812948D01*
X109281584Y-83812951D01*
X109404498Y-83895080D01*
X109404511Y-83895087D01*
X109502049Y-83935488D01*
X109535482Y-83949336D01*
X109539886Y-83951419D01*
X109686076Y-83980500D01*
X109686079Y-83980500D01*
X109686082Y-83980500D01*
X109833920Y-83980500D01*
X109931462Y-83961096D01*
X109978913Y-83951658D01*
X110115495Y-83895084D01*
X110238416Y-83812951D01*
X110289711Y-83761656D01*
X110342950Y-83708418D01*
X110342951Y-83708416D01*
X110425084Y-83585495D01*
X110481658Y-83448913D01*
X110510500Y-83303918D01*
X110510500Y-83156082D01*
X110510500Y-83156079D01*
X110510500Y-83156076D01*
X110481419Y-83009885D01*
X110479329Y-83005465D01*
X110475843Y-82997048D01*
X110425090Y-82874517D01*
X110425085Y-82874508D01*
X110425080Y-82874498D01*
X110342951Y-82751584D01*
X110342948Y-82751580D01*
X110342943Y-82751574D01*
X110238424Y-82647055D01*
X110238418Y-82647050D01*
X110238417Y-82647049D01*
X110115507Y-82564923D01*
X110115506Y-82564922D01*
X110115501Y-82564919D01*
X110115488Y-82564912D01*
X110115481Y-82564908D01*
X109978919Y-82508344D01*
X109978920Y-82508344D01*
X109978917Y-82508343D01*
X109978907Y-82508340D01*
X109978905Y-82508339D01*
X109978900Y-82508338D01*
X109833922Y-82479500D01*
X109833920Y-82479500D01*
X109833918Y-82479500D01*
X109686082Y-82479500D01*
X109686080Y-82479500D01*
X109686078Y-82479500D01*
X109541096Y-82508338D01*
X109541079Y-82508344D01*
X109404517Y-82564908D01*
X109404508Y-82564913D01*
X109404491Y-82564923D01*
X109281581Y-82647049D01*
X109281580Y-82647050D01*
X109281574Y-82647055D01*
X109177055Y-82751574D01*
X109177050Y-82751580D01*
X109177049Y-82751581D01*
X109094923Y-82874491D01*
X109094913Y-82874508D01*
X109094908Y-82874517D01*
X109038344Y-83011079D01*
X109038338Y-83011098D01*
X109009500Y-83156076D01*
X109009500Y-83259551D01*
X109004237Y-83277471D01*
X106791810Y-83277471D01*
X106795500Y-83258920D01*
X106795500Y-83111079D01*
X106795500Y-83111076D01*
X106766419Y-82964886D01*
X106764337Y-82960485D01*
X106745464Y-82914919D01*
X106722030Y-82858343D01*
X106710090Y-82829517D01*
X106710085Y-82829508D01*
X106710080Y-82829498D01*
X106627951Y-82706584D01*
X106627948Y-82706580D01*
X106627943Y-82706574D01*
X106523424Y-82602055D01*
X106523418Y-82602050D01*
X106523417Y-82602049D01*
X106400507Y-82519923D01*
X106400506Y-82519922D01*
X106400501Y-82519919D01*
X106400488Y-82519912D01*
X106400481Y-82519908D01*
X106263919Y-82463344D01*
X106263920Y-82463344D01*
X106263917Y-82463343D01*
X106263907Y-82463340D01*
X106263905Y-82463339D01*
X106263900Y-82463338D01*
X106118922Y-82434500D01*
X106118920Y-82434500D01*
X106118918Y-82434500D01*
X105971082Y-82434500D01*
X105971080Y-82434500D01*
X105971078Y-82434500D01*
X105826096Y-82463338D01*
X105826079Y-82463344D01*
X105689517Y-82519908D01*
X105689508Y-82519913D01*
X105689491Y-82519923D01*
X105566581Y-82602049D01*
X105566580Y-82602050D01*
X105566574Y-82602055D01*
X105462055Y-82706574D01*
X105462050Y-82706580D01*
X105462049Y-82706581D01*
X105379923Y-82829491D01*
X105379913Y-82829508D01*
X105379908Y-82829517D01*
X105323344Y-82966079D01*
X105323338Y-82966098D01*
X105294500Y-83111076D01*
X105294500Y-83214551D01*
X105289237Y-83232471D01*
X103126918Y-83232471D01*
X103128505Y-83224491D01*
X103133099Y-83201399D01*
X103142113Y-83156083D01*
X103142113Y-83156080D01*
X103142114Y-83156079D01*
X103150500Y-83113920D01*
X103150500Y-82966079D01*
X103150500Y-82966076D01*
X103121419Y-82819884D01*
X103119332Y-82815472D01*
X103092869Y-82751583D01*
X103074230Y-82706584D01*
X103065087Y-82684511D01*
X103065080Y-82684498D01*
X102982951Y-82561584D01*
X102982948Y-82561580D01*
X102982943Y-82561574D01*
X102878424Y-82457055D01*
X102878418Y-82457050D01*
X102878417Y-82457049D01*
X102755507Y-82374923D01*
X102755506Y-82374922D01*
X102755501Y-82374919D01*
X102755488Y-82374912D01*
X102755481Y-82374908D01*
X102618919Y-82318344D01*
X102618920Y-82318344D01*
X102618917Y-82318343D01*
X102618907Y-82318340D01*
X102618905Y-82318339D01*
X102618900Y-82318338D01*
X102473922Y-82289500D01*
X102473920Y-82289500D01*
X102473918Y-82289500D01*
X102326082Y-82289500D01*
X102326080Y-82289500D01*
X102326078Y-82289500D01*
X102181096Y-82318338D01*
X102181079Y-82318344D01*
X102044517Y-82374908D01*
X102044508Y-82374913D01*
X102044491Y-82374923D01*
X101921581Y-82457049D01*
X101921580Y-82457050D01*
X101921574Y-82457055D01*
X101817055Y-82561574D01*
X101817050Y-82561580D01*
X101817049Y-82561581D01*
X101734923Y-82684491D01*
X101734913Y-82684508D01*
X101734908Y-82684517D01*
X101678344Y-82821079D01*
X101678338Y-82821098D01*
X101649500Y-82966076D01*
X101649500Y-82966079D01*
X101649500Y-82966082D01*
X101649500Y-83113918D01*
X101649500Y-83113920D01*
X101649499Y-83113920D01*
X94240500Y-83113920D01*
X94240500Y-80973920D01*
X127349499Y-80973920D01*
X127378340Y-81118907D01*
X127378343Y-81118917D01*
X127378819Y-81120067D01*
X127378820Y-81120070D01*
X127434908Y-81255481D01*
X127434913Y-81255490D01*
X127434923Y-81255507D01*
X127517049Y-81378417D01*
X127517050Y-81378418D01*
X127517055Y-81378424D01*
X127621574Y-81482943D01*
X127621580Y-81482948D01*
X127621584Y-81482951D01*
X127744498Y-81565080D01*
X127744511Y-81565087D01*
X127881082Y-81621656D01*
X127881087Y-81621658D01*
X127881091Y-81621658D01*
X127881092Y-81621659D01*
X127881357Y-81621711D01*
X127881358Y-81621712D01*
X127881382Y-81621717D01*
X128026077Y-81650500D01*
X128026079Y-81650500D01*
X128026082Y-81650500D01*
X128173920Y-81650500D01*
X128271462Y-81631096D01*
X128318913Y-81621658D01*
X128455495Y-81565084D01*
X128578416Y-81482951D01*
X128587447Y-81473920D01*
X130749499Y-81473920D01*
X130778340Y-81618907D01*
X130778343Y-81618917D01*
X130778819Y-81620067D01*
X130778820Y-81620070D01*
X130834908Y-81755481D01*
X130834913Y-81755490D01*
X130834923Y-81755507D01*
X130917049Y-81878417D01*
X130917050Y-81878418D01*
X130917055Y-81878424D01*
X131021574Y-81982943D01*
X131021580Y-81982948D01*
X131021584Y-81982951D01*
X131144498Y-82065080D01*
X131144511Y-82065087D01*
X131281082Y-82121656D01*
X131281087Y-82121658D01*
X131281091Y-82121658D01*
X131281092Y-82121659D01*
X131281357Y-82121711D01*
X131281358Y-82121712D01*
X131281382Y-82121717D01*
X131426077Y-82150500D01*
X131426079Y-82150500D01*
X131426082Y-82150500D01*
X131573920Y-82150500D01*
X131671462Y-82131096D01*
X131718913Y-82121658D01*
X131855495Y-82065084D01*
X131978416Y-81982951D01*
X132082951Y-81878416D01*
X132165084Y-81755495D01*
X132221658Y-81618913D01*
X132232365Y-81565085D01*
X132232366Y-81565082D01*
X132232366Y-81565080D01*
X132250500Y-81473921D01*
X132250500Y-81326076D01*
X132221717Y-81181383D01*
X132221419Y-81179885D01*
X132219338Y-81175487D01*
X132165087Y-81044511D01*
X132165080Y-81044498D01*
X132082951Y-80921584D01*
X132082948Y-80921580D01*
X132082943Y-80921574D01*
X131978424Y-80817055D01*
X131978418Y-80817050D01*
X131978417Y-80817049D01*
X131855507Y-80734923D01*
X131855506Y-80734922D01*
X131855501Y-80734919D01*
X131855488Y-80734912D01*
X131855481Y-80734908D01*
X131725568Y-80681098D01*
X131718917Y-80678343D01*
X131718907Y-80678340D01*
X131718905Y-80678339D01*
X131718900Y-80678338D01*
X131573922Y-80649500D01*
X131573920Y-80649500D01*
X131573918Y-80649500D01*
X131426082Y-80649500D01*
X131426080Y-80649500D01*
X131426078Y-80649500D01*
X131281096Y-80678338D01*
X131281079Y-80678344D01*
X131144517Y-80734908D01*
X131144508Y-80734913D01*
X131144491Y-80734923D01*
X131021581Y-80817049D01*
X131021580Y-80817050D01*
X131021574Y-80817055D01*
X130917055Y-80921574D01*
X130917050Y-80921580D01*
X130917049Y-80921581D01*
X130834923Y-81044491D01*
X130834916Y-81044504D01*
X130834908Y-81044517D01*
X130778344Y-81181079D01*
X130778338Y-81181098D01*
X130749500Y-81326076D01*
X130749500Y-81326079D01*
X130749500Y-81326082D01*
X130749500Y-81473918D01*
X130749500Y-81473920D01*
X130749499Y-81473920D01*
X128587447Y-81473920D01*
X128682951Y-81378416D01*
X128682976Y-81378377D01*
X128687440Y-81371699D01*
X128765080Y-81255501D01*
X128765080Y-81255500D01*
X128765084Y-81255495D01*
X128821658Y-81118913D01*
X128836459Y-81044505D01*
X128850500Y-80973920D01*
X128850500Y-80826079D01*
X128850500Y-80826076D01*
X128821419Y-80679885D01*
X128819333Y-80675475D01*
X128808574Y-80649501D01*
X128808574Y-80649499D01*
X128765092Y-80544524D01*
X128765089Y-80544517D01*
X128765087Y-80544511D01*
X128765080Y-80544498D01*
X128682951Y-80421584D01*
X128682948Y-80421580D01*
X128682943Y-80421574D01*
X128578424Y-80317055D01*
X128578418Y-80317050D01*
X128578417Y-80317049D01*
X128455507Y-80234923D01*
X128455506Y-80234922D01*
X128455501Y-80234919D01*
X128455488Y-80234912D01*
X128455481Y-80234908D01*
X128330037Y-80182949D01*
X128318917Y-80178343D01*
X128318907Y-80178340D01*
X128318905Y-80178339D01*
X128318900Y-80178338D01*
X128173922Y-80149500D01*
X128173920Y-80149500D01*
X128173918Y-80149500D01*
X128026082Y-80149500D01*
X128026080Y-80149500D01*
X128026078Y-80149500D01*
X127881096Y-80178338D01*
X127881079Y-80178344D01*
X127744517Y-80234908D01*
X127744508Y-80234913D01*
X127744491Y-80234923D01*
X127621581Y-80317049D01*
X127621580Y-80317050D01*
X127621574Y-80317055D01*
X127517055Y-80421574D01*
X127517050Y-80421580D01*
X127517049Y-80421581D01*
X127434923Y-80544491D01*
X127434913Y-80544508D01*
X127434908Y-80544517D01*
X127378344Y-80681079D01*
X127378338Y-80681098D01*
X127349500Y-80826076D01*
X127349500Y-80826079D01*
X127349500Y-80826082D01*
X127349500Y-80973918D01*
X127349500Y-80973920D01*
X127349499Y-80973920D01*
X94240500Y-80973920D01*
X94240500Y-78919998D01*
X95195795Y-78919998D01*
X95195796Y-78919999D01*
X95195797Y-78920000D01*
X95761190Y-78920000D01*
X95828229Y-78939685D01*
X95873984Y-78992489D01*
X95883928Y-79061647D01*
X95880965Y-79076088D01*
X95869913Y-79117339D01*
X95869913Y-79222661D01*
X95875769Y-79244517D01*
X95880965Y-79263907D01*
X95879302Y-79333757D01*
X95840139Y-79391619D01*
X95775911Y-79419123D01*
X95761190Y-79420000D01*
X95195797Y-79420000D01*
X95196996Y-79427582D01*
X95250504Y-79592259D01*
X95329109Y-79746527D01*
X95430873Y-79886596D01*
X95553314Y-80009037D01*
X95648819Y-80078424D01*
X95693387Y-80110804D01*
X95847654Y-80189408D01*
X96012327Y-80242914D01*
X96183341Y-80270000D01*
X96319912Y-80270000D01*
X96319912Y-79693999D01*
X96339597Y-79626960D01*
X96392401Y-79581205D01*
X96443912Y-79569999D01*
X96695912Y-79569999D01*
X96762951Y-79589684D01*
X96808706Y-79642488D01*
X96819912Y-79693999D01*
X96819912Y-80270000D01*
X96956482Y-80270000D01*
X96956483Y-80270000D01*
X97127496Y-80242914D01*
X97292169Y-80189408D01*
X97446436Y-80110804D01*
X97525082Y-80053664D01*
X97586508Y-80009037D01*
X97586510Y-80009034D01*
X97586514Y-80009032D01*
X97708944Y-79886602D01*
X97708946Y-79886598D01*
X97708949Y-79886596D01*
X97792595Y-79771465D01*
X97810716Y-79746524D01*
X97889320Y-79592255D01*
X97942826Y-79427584D01*
X97944027Y-79420000D01*
X97378634Y-79420000D01*
X97311595Y-79400315D01*
X97265840Y-79347511D01*
X97255896Y-79278353D01*
X97258859Y-79263907D01*
X97269911Y-79222661D01*
X97269911Y-79117339D01*
X97258859Y-79076092D01*
X97260522Y-79006243D01*
X97299685Y-78948381D01*
X97363913Y-78920877D01*
X97378634Y-78920000D01*
X97944027Y-78920000D01*
X97944027Y-78919998D01*
X99275795Y-78919998D01*
X99275796Y-78919999D01*
X99275797Y-78920000D01*
X99841203Y-78920000D01*
X99908242Y-78939685D01*
X99953997Y-78992489D01*
X99963941Y-79061647D01*
X99960978Y-79076088D01*
X99949926Y-79117339D01*
X99949926Y-79222661D01*
X99955782Y-79244517D01*
X99960978Y-79263907D01*
X99959315Y-79333757D01*
X99920152Y-79391619D01*
X99855924Y-79419123D01*
X99841203Y-79420000D01*
X99275797Y-79420000D01*
X99276996Y-79427582D01*
X99330504Y-79592259D01*
X99409109Y-79746527D01*
X99510873Y-79886596D01*
X99633314Y-80009037D01*
X99728819Y-80078424D01*
X99773387Y-80110804D01*
X99927654Y-80189408D01*
X100092327Y-80242914D01*
X100263341Y-80270000D01*
X100499912Y-80270000D01*
X100499912Y-79693999D01*
X100519597Y-79626960D01*
X100572401Y-79581205D01*
X100623912Y-79569999D01*
X100875912Y-79569999D01*
X100942951Y-79589684D01*
X100988706Y-79642488D01*
X100999912Y-79693999D01*
X100999912Y-80270000D01*
X101236482Y-80270000D01*
X101236483Y-80270000D01*
X101407496Y-80242914D01*
X101572169Y-80189408D01*
X101726436Y-80110804D01*
X101805082Y-80053664D01*
X101866508Y-80009037D01*
X101866510Y-80009034D01*
X101866514Y-80009032D01*
X101988944Y-79886602D01*
X101988946Y-79886598D01*
X101988949Y-79886596D01*
X102072595Y-79771465D01*
X102090716Y-79746524D01*
X102127710Y-79673920D01*
X105909499Y-79673920D01*
X105938340Y-79818907D01*
X105938343Y-79818917D01*
X105938819Y-79820067D01*
X105938820Y-79820070D01*
X105994908Y-79955481D01*
X105994913Y-79955490D01*
X105994923Y-79955507D01*
X106077049Y-80078417D01*
X106077050Y-80078418D01*
X106077055Y-80078424D01*
X106181574Y-80182943D01*
X106181580Y-80182948D01*
X106181584Y-80182951D01*
X106304498Y-80265080D01*
X106304511Y-80265087D01*
X106441082Y-80321656D01*
X106441087Y-80321658D01*
X106441091Y-80321658D01*
X106441092Y-80321659D01*
X106441357Y-80321711D01*
X106441358Y-80321712D01*
X106441382Y-80321717D01*
X106586077Y-80350500D01*
X106586079Y-80350500D01*
X106586082Y-80350500D01*
X106733920Y-80350500D01*
X106831462Y-80331096D01*
X106878913Y-80321658D01*
X107015495Y-80265084D01*
X107138416Y-80182951D01*
X107242951Y-80078416D01*
X107325084Y-79955495D01*
X107381658Y-79818913D01*
X107387035Y-79791876D01*
X107391096Y-79771465D01*
X107391096Y-79771462D01*
X107410500Y-79673920D01*
X107410500Y-79526079D01*
X107410500Y-79526076D01*
X107381419Y-79379887D01*
X107379340Y-79375492D01*
X107358175Y-79324394D01*
X107325087Y-79244511D01*
X107325080Y-79244498D01*
X107242951Y-79121584D01*
X107242948Y-79121580D01*
X107242943Y-79121574D01*
X107138424Y-79017055D01*
X107138418Y-79017050D01*
X107138417Y-79017049D01*
X107015507Y-78934923D01*
X107015506Y-78934922D01*
X107015501Y-78934919D01*
X107015488Y-78934912D01*
X107015481Y-78934908D01*
X106890037Y-78882949D01*
X106878917Y-78878343D01*
X106878907Y-78878340D01*
X106878905Y-78878339D01*
X106878900Y-78878338D01*
X106733922Y-78849500D01*
X106733920Y-78849500D01*
X106733918Y-78849500D01*
X106586082Y-78849500D01*
X106586080Y-78849500D01*
X106586078Y-78849500D01*
X106441096Y-78878338D01*
X106441079Y-78878344D01*
X106304517Y-78934908D01*
X106304508Y-78934913D01*
X106304491Y-78934923D01*
X106181581Y-79017049D01*
X106181580Y-79017050D01*
X106181574Y-79017055D01*
X106077055Y-79121574D01*
X106077050Y-79121580D01*
X106077049Y-79121581D01*
X105994923Y-79244491D01*
X105994913Y-79244508D01*
X105994908Y-79244517D01*
X105938344Y-79381079D01*
X105938338Y-79381098D01*
X105909500Y-79526076D01*
X105909500Y-79526079D01*
X105909500Y-79526082D01*
X105909500Y-79673918D01*
X105909500Y-79673920D01*
X105909499Y-79673920D01*
X102127710Y-79673920D01*
X102169320Y-79592255D01*
X102190824Y-79526076D01*
X102205253Y-79481671D01*
X102214039Y-79454628D01*
X102222826Y-79427584D01*
X102224027Y-79420000D01*
X101658621Y-79420000D01*
X101591582Y-79400315D01*
X101545827Y-79347511D01*
X101535883Y-79278353D01*
X101538846Y-79263907D01*
X101549898Y-79222661D01*
X101549898Y-79117339D01*
X101538846Y-79076092D01*
X101540509Y-79006243D01*
X101579672Y-78948381D01*
X101643900Y-78920877D01*
X101658621Y-78920000D01*
X102224027Y-78920000D01*
X102224027Y-78919998D01*
X102222826Y-78912416D01*
X102213252Y-78882951D01*
X102169320Y-78747744D01*
X102169318Y-78747741D01*
X102169318Y-78747739D01*
X102127203Y-78665085D01*
X102090716Y-78593475D01*
X102083064Y-78582943D01*
X101988949Y-78453402D01*
X101866508Y-78330961D01*
X101726439Y-78229197D01*
X101726438Y-78229196D01*
X101726436Y-78229195D01*
X101572169Y-78150591D01*
X101507305Y-78129515D01*
X101407496Y-78097084D01*
X101236487Y-78070000D01*
X101236483Y-78070000D01*
X100990950Y-78070000D01*
X100956011Y-78064976D01*
X100942693Y-78061065D01*
X100883916Y-78023289D01*
X100854895Y-77959740D01*
X100854369Y-77956082D01*
X100853328Y-77948842D01*
X100854448Y-77907002D01*
X100873893Y-77809243D01*
X100874615Y-77806518D01*
X100875412Y-77801608D01*
X100875412Y-77678391D01*
X100875369Y-77678045D01*
X100875165Y-77677155D01*
X100868670Y-77644498D01*
X100851375Y-77557548D01*
X100830632Y-77507471D01*
X104404237Y-77507471D01*
X104438338Y-77678899D01*
X104438344Y-77678919D01*
X104494908Y-77815481D01*
X104494912Y-77815488D01*
X104494918Y-77815500D01*
X104494923Y-77815507D01*
X104577045Y-77938411D01*
X104577050Y-77938418D01*
X104577055Y-77938424D01*
X104681574Y-78042943D01*
X104681580Y-78042948D01*
X104681584Y-78042951D01*
X104804498Y-78125080D01*
X104804511Y-78125087D01*
X104866084Y-78150591D01*
X104935475Y-78179333D01*
X104939885Y-78181419D01*
X105086076Y-78210500D01*
X105086079Y-78210500D01*
X105086082Y-78210500D01*
X105233920Y-78210500D01*
X105331462Y-78191096D01*
X105378913Y-78181658D01*
X105515495Y-78125084D01*
X105586753Y-78077471D01*
X109774237Y-78077471D01*
X109808338Y-78248899D01*
X109808344Y-78248919D01*
X109864908Y-78385481D01*
X109864913Y-78385490D01*
X109864923Y-78385507D01*
X109947049Y-78508417D01*
X109947050Y-78508418D01*
X109947055Y-78508424D01*
X110051574Y-78612943D01*
X110051580Y-78612948D01*
X110051584Y-78612951D01*
X110174498Y-78695080D01*
X110174511Y-78695087D01*
X110301638Y-78747744D01*
X110304337Y-78748862D01*
X110305507Y-78749347D01*
X110305513Y-78749352D01*
X110309882Y-78751419D01*
X110456076Y-78780500D01*
X110456079Y-78780500D01*
X110456082Y-78780500D01*
X110603920Y-78780500D01*
X110701462Y-78761096D01*
X110748913Y-78751658D01*
X110885495Y-78695084D01*
X111008416Y-78612951D01*
X111112951Y-78508416D01*
X111195084Y-78385495D01*
X111251658Y-78248913D01*
X111255580Y-78229195D01*
X111262224Y-78195798D01*
X111262225Y-78195794D01*
X111280500Y-78103922D01*
X111280500Y-77956076D01*
X111251419Y-77809884D01*
X111249332Y-77805472D01*
X111239229Y-77781082D01*
X111212707Y-77717051D01*
X111212706Y-77717049D01*
X111203572Y-77694998D01*
X111195087Y-77674511D01*
X111195080Y-77674498D01*
X111112951Y-77551584D01*
X111112948Y-77551580D01*
X111112942Y-77551573D01*
X111008424Y-77447055D01*
X111008418Y-77447050D01*
X111008417Y-77447049D01*
X110885507Y-77364923D01*
X110885506Y-77364922D01*
X110885501Y-77364919D01*
X110885488Y-77364912D01*
X110885481Y-77364908D01*
X110748919Y-77308344D01*
X110748920Y-77308344D01*
X110748917Y-77308343D01*
X110748907Y-77308340D01*
X110748905Y-77308339D01*
X110748900Y-77308338D01*
X110603922Y-77279500D01*
X110603920Y-77279500D01*
X110603918Y-77279500D01*
X110456082Y-77279500D01*
X110456080Y-77279500D01*
X110456078Y-77279500D01*
X110311096Y-77308338D01*
X110311079Y-77308344D01*
X110174517Y-77364908D01*
X110174508Y-77364913D01*
X110174491Y-77364923D01*
X110051581Y-77447049D01*
X110051580Y-77447050D01*
X110051574Y-77447055D01*
X109947057Y-77551573D01*
X109947049Y-77551581D01*
X109864923Y-77674491D01*
X109864913Y-77674508D01*
X109864908Y-77674517D01*
X109808344Y-77811079D01*
X109808338Y-77811098D01*
X109779500Y-77956076D01*
X109779500Y-78059551D01*
X109774237Y-78077471D01*
X105586753Y-78077471D01*
X105638416Y-78042951D01*
X105742951Y-77938416D01*
X105754811Y-77920666D01*
X105781249Y-77881100D01*
X105781249Y-77881099D01*
X105785390Y-77874901D01*
X105791464Y-77865812D01*
X105791465Y-77865808D01*
X105825080Y-77815501D01*
X105825080Y-77815500D01*
X105825084Y-77815495D01*
X105825085Y-77815490D01*
X105825763Y-77814477D01*
X105827400Y-77809901D01*
X105881658Y-77678913D01*
X105901663Y-77578343D01*
X105910500Y-77533920D01*
X105910500Y-77457373D01*
X105910895Y-77452438D01*
X105912540Y-77448138D01*
X105915523Y-77427393D01*
X105918561Y-77417049D01*
X105919927Y-77412394D01*
X105935481Y-77388183D01*
X105935865Y-77387182D01*
X105936358Y-77386819D01*
X105957672Y-77353644D01*
X105959041Y-77352457D01*
X106013920Y-77324977D01*
X106021479Y-77323333D01*
X106047832Y-77320500D01*
X106093920Y-77320500D01*
X106191462Y-77301096D01*
X106238913Y-77291658D01*
X106344547Y-77247902D01*
X106368950Y-77237794D01*
X106371740Y-77236822D01*
X106373173Y-77236159D01*
X106377837Y-77234114D01*
X106387104Y-77230275D01*
X106395990Y-77221389D01*
X106498416Y-77152951D01*
X106602951Y-77048416D01*
X106685084Y-76925495D01*
X106741658Y-76788913D01*
X106770500Y-76643918D01*
X106770500Y-76496082D01*
X106770500Y-76496079D01*
X106770500Y-76496076D01*
X106741419Y-76349886D01*
X106739333Y-76345475D01*
X106729271Y-76321184D01*
X106702200Y-76255828D01*
X106685089Y-76214517D01*
X106685087Y-76214511D01*
X106685085Y-76214508D01*
X106685080Y-76214498D01*
X106602951Y-76091584D01*
X106602948Y-76091580D01*
X106602943Y-76091574D01*
X106498424Y-75987055D01*
X106498418Y-75987050D01*
X106498417Y-75987049D01*
X106375507Y-75904923D01*
X106375506Y-75904922D01*
X106375501Y-75904919D01*
X106375488Y-75904912D01*
X106375481Y-75904908D01*
X106363629Y-75899999D01*
X118700000Y-75899999D01*
X118700000Y-75900000D01*
X118700000Y-79300000D01*
X122600000Y-79300000D01*
X122494162Y-78373920D01*
X124549499Y-78373920D01*
X124578340Y-78518907D01*
X124578343Y-78518917D01*
X124578819Y-78520067D01*
X124578820Y-78520070D01*
X124634908Y-78655481D01*
X124634913Y-78655490D01*
X124634923Y-78655507D01*
X124717049Y-78778417D01*
X124717050Y-78778418D01*
X124717055Y-78778424D01*
X124821574Y-78882943D01*
X124821580Y-78882948D01*
X124821584Y-78882951D01*
X124944498Y-78965080D01*
X124944511Y-78965087D01*
X125081082Y-79021656D01*
X125081087Y-79021658D01*
X125081091Y-79021658D01*
X125081092Y-79021659D01*
X125081357Y-79021711D01*
X125081358Y-79021712D01*
X125081382Y-79021717D01*
X125226077Y-79050500D01*
X125226079Y-79050500D01*
X125226082Y-79050500D01*
X125373920Y-79050500D01*
X125471462Y-79031096D01*
X125518913Y-79021658D01*
X125655495Y-78965084D01*
X125778416Y-78882951D01*
X125882951Y-78778416D01*
X125965084Y-78655495D01*
X126021658Y-78518913D01*
X126050500Y-78373918D01*
X126050500Y-78226082D01*
X126050500Y-78226079D01*
X126050500Y-78226076D01*
X126032779Y-78136992D01*
X126021659Y-78081092D01*
X126021658Y-78081091D01*
X126021658Y-78081087D01*
X126021657Y-78081084D01*
X126021418Y-78079883D01*
X126019332Y-78075472D01*
X126018688Y-78073918D01*
X126007734Y-78047471D01*
X126944237Y-78047471D01*
X126978338Y-78218899D01*
X126978339Y-78218904D01*
X126978344Y-78218919D01*
X127034908Y-78355481D01*
X127034913Y-78355490D01*
X127034923Y-78355507D01*
X127117049Y-78478417D01*
X127117050Y-78478418D01*
X127117055Y-78478424D01*
X127221574Y-78582943D01*
X127221580Y-78582948D01*
X127221584Y-78582951D01*
X127344498Y-78665080D01*
X127344511Y-78665087D01*
X127481082Y-78721656D01*
X127481087Y-78721658D01*
X127481091Y-78721658D01*
X127481092Y-78721659D01*
X127481357Y-78721711D01*
X127481358Y-78721712D01*
X127481382Y-78721717D01*
X127626077Y-78750500D01*
X127626079Y-78750500D01*
X127626082Y-78750500D01*
X127773920Y-78750500D01*
X127871462Y-78731096D01*
X127918913Y-78721658D01*
X128055495Y-78665084D01*
X128178416Y-78582951D01*
X128282951Y-78478416D01*
X128365084Y-78355495D01*
X128421658Y-78218913D01*
X128429068Y-78181658D01*
X128431096Y-78171465D01*
X128431096Y-78171462D01*
X128450500Y-78073920D01*
X128450500Y-77926079D01*
X128450500Y-77926076D01*
X128421717Y-77781383D01*
X128421419Y-77779885D01*
X128419338Y-77775487D01*
X128365087Y-77644511D01*
X128365080Y-77644498D01*
X128282951Y-77521584D01*
X128282948Y-77521580D01*
X128282943Y-77521574D01*
X128178424Y-77417055D01*
X128178418Y-77417050D01*
X128178417Y-77417049D01*
X128055507Y-77334923D01*
X128055506Y-77334922D01*
X128055501Y-77334919D01*
X128055488Y-77334912D01*
X128055481Y-77334908D01*
X127918919Y-77278344D01*
X127918920Y-77278344D01*
X127918917Y-77278343D01*
X127918907Y-77278340D01*
X127918905Y-77278339D01*
X127918900Y-77278338D01*
X127773922Y-77249500D01*
X127773920Y-77249500D01*
X127773918Y-77249500D01*
X127626082Y-77249500D01*
X127626080Y-77249500D01*
X127626078Y-77249500D01*
X127481096Y-77278338D01*
X127481079Y-77278344D01*
X127344517Y-77334908D01*
X127344508Y-77334913D01*
X127344491Y-77334923D01*
X127221581Y-77417049D01*
X127221580Y-77417050D01*
X127221574Y-77417055D01*
X127117055Y-77521574D01*
X127117050Y-77521580D01*
X127117049Y-77521581D01*
X127034923Y-77644491D01*
X127034920Y-77644495D01*
X127034919Y-77644498D01*
X127034914Y-77644506D01*
X127034908Y-77644517D01*
X126978344Y-77781079D01*
X126978338Y-77781098D01*
X126949500Y-77926076D01*
X126949500Y-78029551D01*
X126944237Y-78047471D01*
X126007734Y-78047471D01*
X125971395Y-77959740D01*
X125965088Y-77944514D01*
X125965082Y-77944501D01*
X125882949Y-77821581D01*
X125882948Y-77821580D01*
X125882943Y-77821574D01*
X125778424Y-77717055D01*
X125778418Y-77717050D01*
X125778417Y-77717049D01*
X125655507Y-77634923D01*
X125655506Y-77634922D01*
X125655501Y-77634919D01*
X125655488Y-77634912D01*
X125655481Y-77634908D01*
X125518919Y-77578344D01*
X125518920Y-77578344D01*
X125518917Y-77578343D01*
X125518907Y-77578340D01*
X125518905Y-77578339D01*
X125518900Y-77578338D01*
X125373922Y-77549500D01*
X125373920Y-77549500D01*
X125373918Y-77549500D01*
X125226082Y-77549500D01*
X125226080Y-77549500D01*
X125226078Y-77549500D01*
X125081096Y-77578338D01*
X125081079Y-77578344D01*
X124944517Y-77634908D01*
X124944508Y-77634913D01*
X124944491Y-77634923D01*
X124821581Y-77717049D01*
X124821580Y-77717050D01*
X124821574Y-77717055D01*
X124717055Y-77821574D01*
X124717050Y-77821580D01*
X124717049Y-77821581D01*
X124634923Y-77944491D01*
X124634913Y-77944508D01*
X124634908Y-77944517D01*
X124578344Y-78081079D01*
X124578338Y-78081098D01*
X124549500Y-78226076D01*
X124549500Y-78226079D01*
X124549500Y-78226082D01*
X124549500Y-78373918D01*
X124549500Y-78373920D01*
X124549499Y-78373920D01*
X122494162Y-78373920D01*
X122254580Y-76277577D01*
X124875975Y-76277577D01*
X124981236Y-76321178D01*
X124981240Y-76321179D01*
X125126126Y-76349999D01*
X125126129Y-76350000D01*
X125273871Y-76350000D01*
X125273873Y-76349999D01*
X125418760Y-76321179D01*
X125418775Y-76321175D01*
X125524024Y-76277578D01*
X125524024Y-76277577D01*
X125975975Y-76277577D01*
X126081236Y-76321178D01*
X126081240Y-76321179D01*
X126226126Y-76349999D01*
X126226129Y-76350000D01*
X126373871Y-76350000D01*
X126373873Y-76349999D01*
X126518760Y-76321179D01*
X126518775Y-76321175D01*
X126624024Y-76277578D01*
X126624024Y-76277577D01*
X127075975Y-76277577D01*
X127181236Y-76321178D01*
X127181240Y-76321179D01*
X127326126Y-76349999D01*
X127326129Y-76350000D01*
X127473871Y-76350000D01*
X127473873Y-76349999D01*
X127618760Y-76321179D01*
X127618775Y-76321175D01*
X127724024Y-76277578D01*
X127724024Y-76277577D01*
X127400001Y-75953554D01*
X127400000Y-75953554D01*
X127075975Y-76277577D01*
X126624024Y-76277577D01*
X126300001Y-75953554D01*
X126300000Y-75953554D01*
X125975975Y-76277577D01*
X125524024Y-76277577D01*
X125200001Y-75953554D01*
X125200000Y-75953554D01*
X124875975Y-76277577D01*
X122254580Y-76277577D01*
X122200000Y-75800000D01*
X122199999Y-75800000D01*
X122199999Y-75799999D01*
X118700000Y-75899999D01*
X106363629Y-75899999D01*
X106238919Y-75848344D01*
X106238920Y-75848344D01*
X106238917Y-75848343D01*
X106238907Y-75848340D01*
X106238905Y-75848339D01*
X106238900Y-75848338D01*
X106093922Y-75819500D01*
X106093920Y-75819500D01*
X106093918Y-75819500D01*
X105946082Y-75819500D01*
X105946080Y-75819500D01*
X105946078Y-75819500D01*
X105801096Y-75848338D01*
X105801079Y-75848344D01*
X105664517Y-75904908D01*
X105664508Y-75904913D01*
X105664491Y-75904923D01*
X105541581Y-75987049D01*
X105541580Y-75987050D01*
X105541574Y-75987055D01*
X105437055Y-76091574D01*
X105437050Y-76091580D01*
X105437049Y-76091581D01*
X105354923Y-76214491D01*
X105354913Y-76214508D01*
X105354908Y-76214517D01*
X105298344Y-76351079D01*
X105298338Y-76351098D01*
X105269500Y-76496076D01*
X105269500Y-76567670D01*
X105264475Y-76602614D01*
X105260070Y-76617612D01*
X105222327Y-76676355D01*
X105220958Y-76677542D01*
X105166097Y-76705018D01*
X105158539Y-76706663D01*
X105132168Y-76709500D01*
X105086078Y-76709500D01*
X104941096Y-76738338D01*
X104941079Y-76738344D01*
X104804517Y-76794908D01*
X104804508Y-76794913D01*
X104804491Y-76794923D01*
X104681581Y-76877049D01*
X104681580Y-76877050D01*
X104681574Y-76877055D01*
X104577055Y-76981574D01*
X104577050Y-76981580D01*
X104577049Y-76981581D01*
X104494923Y-77104491D01*
X104494913Y-77104508D01*
X104494908Y-77104517D01*
X104438344Y-77241079D01*
X104438338Y-77241098D01*
X104409500Y-77386076D01*
X104409500Y-77489551D01*
X104404237Y-77507471D01*
X100830632Y-77507471D01*
X100820893Y-77483959D01*
X100820892Y-77483957D01*
X100820892Y-77483955D01*
X100804227Y-77443723D01*
X100804223Y-77443713D01*
X100804221Y-77443710D01*
X100735770Y-77341267D01*
X100735767Y-77341263D01*
X100735762Y-77341257D01*
X100648650Y-77254145D01*
X100546211Y-77185696D01*
X100546206Y-77185693D01*
X100546204Y-77185692D01*
X100546195Y-77185687D01*
X100546188Y-77185684D01*
X100546186Y-77185683D01*
X100523032Y-77176092D01*
X100507515Y-77163587D01*
X100432366Y-77138538D01*
X100432367Y-77138538D01*
X100432364Y-77138537D01*
X100432360Y-77138536D01*
X100432356Y-77138535D01*
X100432354Y-77138534D01*
X100432330Y-77138529D01*
X100311526Y-77114500D01*
X100311522Y-77114500D01*
X100311518Y-77114500D01*
X100188306Y-77114500D01*
X100188301Y-77114500D01*
X100188296Y-77114500D01*
X100067473Y-77138533D01*
X100067467Y-77138535D01*
X100067457Y-77138538D01*
X100067452Y-77138539D01*
X100067434Y-77138546D01*
X99953638Y-77185681D01*
X99953611Y-77185696D01*
X99851172Y-77254145D01*
X99764057Y-77341260D01*
X99695608Y-77443699D01*
X99695593Y-77443726D01*
X99648458Y-77557522D01*
X99648445Y-77557561D01*
X99624412Y-77678384D01*
X99624412Y-77801614D01*
X99648316Y-77921786D01*
X99648447Y-77922446D01*
X99648448Y-77922450D01*
X99648449Y-77922452D01*
X99655061Y-77938415D01*
X99695599Y-78036283D01*
X99695604Y-78036292D01*
X99735747Y-78096370D01*
X99739093Y-78102954D01*
X99739962Y-78107613D01*
X99746881Y-78122073D01*
X99751553Y-78136992D01*
X99752803Y-78206851D01*
X99752798Y-78206868D01*
X99751976Y-78209863D01*
X99723296Y-78261386D01*
X99719565Y-78265407D01*
X99701553Y-78281382D01*
X99633343Y-78330940D01*
X99633311Y-78330964D01*
X99510872Y-78453404D01*
X99409109Y-78593471D01*
X99330504Y-78747739D01*
X99276996Y-78912417D01*
X99275795Y-78919998D01*
X97944027Y-78919998D01*
X97942826Y-78912416D01*
X97933252Y-78882951D01*
X97889320Y-78747744D01*
X97889318Y-78747741D01*
X97889318Y-78747739D01*
X97847203Y-78665085D01*
X97810716Y-78593475D01*
X97803064Y-78582943D01*
X97708949Y-78453402D01*
X97586508Y-78330961D01*
X97446439Y-78229197D01*
X97446438Y-78229196D01*
X97446436Y-78229195D01*
X97292169Y-78150591D01*
X97227305Y-78129515D01*
X97127496Y-78097084D01*
X96956487Y-78070000D01*
X96956483Y-78070000D01*
X96819912Y-78070000D01*
X96819912Y-78646001D01*
X96800227Y-78713040D01*
X96747423Y-78758795D01*
X96695912Y-78770001D01*
X96443912Y-78770001D01*
X96376873Y-78750316D01*
X96331118Y-78697512D01*
X96319912Y-78646001D01*
X96319912Y-78070000D01*
X96183341Y-78070000D01*
X96183337Y-78070000D01*
X96012328Y-78097084D01*
X96012322Y-78097086D01*
X95904002Y-78132282D01*
X95847654Y-78150591D01*
X95713555Y-78218919D01*
X95693383Y-78229197D01*
X95553314Y-78330961D01*
X95430873Y-78453402D01*
X95329109Y-78593471D01*
X95250504Y-78747739D01*
X95196996Y-78912417D01*
X95195795Y-78919998D01*
X94240500Y-78919998D01*
X94240500Y-74523052D01*
X108642500Y-74523052D01*
X108642500Y-74711947D01*
X108655052Y-74791198D01*
X108672048Y-74898503D01*
X108730412Y-75078134D01*
X108730413Y-75078136D01*
X108812442Y-75239124D01*
X108816166Y-75246433D01*
X108834616Y-75271828D01*
X109269392Y-74837051D01*
X109330712Y-74803569D01*
X109400403Y-74808553D01*
X109456337Y-74850424D01*
X109464457Y-74862735D01*
X109482398Y-74893810D01*
X109482400Y-74893813D01*
X109482401Y-74893814D01*
X109566186Y-74977599D01*
X109597260Y-74995540D01*
X109645476Y-75046106D01*
X109658700Y-75114713D01*
X109632732Y-75179578D01*
X109622942Y-75190608D01*
X109188169Y-75625381D01*
X109188169Y-75625382D01*
X109188173Y-75625386D01*
X109213556Y-75643827D01*
X109213559Y-75643829D01*
X109381862Y-75729585D01*
X109381867Y-75729586D01*
X109381868Y-75729587D01*
X109404513Y-75736944D01*
X109561497Y-75787951D01*
X109748053Y-75817500D01*
X109936946Y-75817500D01*
X109936947Y-75817500D01*
X110123502Y-75787951D01*
X110303137Y-75729585D01*
X110471437Y-75643831D01*
X110496828Y-75625383D01*
X110496828Y-75625382D01*
X110287430Y-75415984D01*
X110062056Y-75190609D01*
X110028571Y-75129286D01*
X110033555Y-75059594D01*
X110075427Y-75003661D01*
X110087730Y-74995544D01*
X110118814Y-74977599D01*
X110202599Y-74893814D01*
X110220541Y-74862736D01*
X110271105Y-74814522D01*
X110339712Y-74801297D01*
X110404577Y-74827263D01*
X110415609Y-74837055D01*
X110785070Y-75206516D01*
X110797705Y-75221309D01*
X110810649Y-75239124D01*
X110815387Y-75246214D01*
X110910544Y-75377186D01*
X110910546Y-75377188D01*
X110913481Y-75381228D01*
X110913482Y-75381229D01*
X110913481Y-75381229D01*
X110926808Y-75399571D01*
X110926810Y-75399573D01*
X111060427Y-75533190D01*
X111213301Y-75644260D01*
X111271416Y-75673871D01*
X111271415Y-75673871D01*
X111299222Y-75688039D01*
X111381663Y-75730045D01*
X111381665Y-75730045D01*
X111381668Y-75730047D01*
X111381669Y-75730047D01*
X111382540Y-75730491D01*
X111386290Y-75731549D01*
X111405840Y-75737901D01*
X111443075Y-75749999D01*
X111443076Y-75750000D01*
X111482511Y-75762813D01*
X111561381Y-75788440D01*
X111748014Y-75818000D01*
X111748019Y-75818000D01*
X111936985Y-75818000D01*
X111936986Y-75818000D01*
X112123618Y-75788440D01*
X112125123Y-75787951D01*
X112303332Y-75730047D01*
X112413576Y-75673875D01*
X124449999Y-75673875D01*
X124478669Y-75818000D01*
X124478820Y-75818759D01*
X124478821Y-75818762D01*
X124478820Y-75818762D01*
X124522420Y-75924024D01*
X124522420Y-75924023D01*
X124522421Y-75924024D01*
X124846446Y-75600000D01*
X124846446Y-75599999D01*
X124816610Y-75570163D01*
X125050000Y-75570163D01*
X125050000Y-75629837D01*
X125072836Y-75684968D01*
X125115032Y-75727164D01*
X125170163Y-75750000D01*
X125229837Y-75750000D01*
X125284968Y-75727164D01*
X125327164Y-75684968D01*
X125350000Y-75629837D01*
X125350000Y-75600000D01*
X125553554Y-75600000D01*
X125750000Y-75796446D01*
X125946446Y-75600000D01*
X125916609Y-75570163D01*
X126150000Y-75570163D01*
X126150000Y-75629837D01*
X126172836Y-75684968D01*
X126215032Y-75727164D01*
X126270163Y-75750000D01*
X126329837Y-75750000D01*
X126384968Y-75727164D01*
X126427164Y-75684968D01*
X126450000Y-75629837D01*
X126450000Y-75600000D01*
X126653554Y-75600000D01*
X126850000Y-75796446D01*
X127046446Y-75600000D01*
X127016609Y-75570163D01*
X127250000Y-75570163D01*
X127250000Y-75629837D01*
X127272836Y-75684968D01*
X127315032Y-75727164D01*
X127370163Y-75750000D01*
X127429837Y-75750000D01*
X127484968Y-75727164D01*
X127527164Y-75684968D01*
X127550000Y-75629837D01*
X127550000Y-75599999D01*
X127753554Y-75599999D01*
X127753554Y-75600001D01*
X128077577Y-75924024D01*
X128077578Y-75924024D01*
X128121175Y-75818775D01*
X128121179Y-75818760D01*
X128149999Y-75673873D01*
X128150000Y-75673871D01*
X128150000Y-75526128D01*
X128149999Y-75526126D01*
X128121179Y-75381240D01*
X128121178Y-75381236D01*
X128077577Y-75275975D01*
X128077576Y-75275975D01*
X128077576Y-75275974D01*
X127821812Y-75531739D01*
X127821812Y-75531740D01*
X127753554Y-75599999D01*
X127550000Y-75599999D01*
X127550000Y-75570163D01*
X127527164Y-75515032D01*
X127484968Y-75472836D01*
X127465602Y-75464814D01*
X127465601Y-75464814D01*
X127429837Y-75450000D01*
X127370163Y-75450000D01*
X127315032Y-75472836D01*
X127305566Y-75482301D01*
X127305565Y-75482302D01*
X127272837Y-75515030D01*
X127272836Y-75515031D01*
X127272836Y-75515032D01*
X127250000Y-75570163D01*
X127016609Y-75570163D01*
X126850000Y-75403554D01*
X126837569Y-75415984D01*
X126685901Y-75567652D01*
X126685901Y-75567653D01*
X126653554Y-75600000D01*
X126450000Y-75600000D01*
X126450000Y-75570163D01*
X126427164Y-75515032D01*
X126384968Y-75472836D01*
X126365602Y-75464814D01*
X126365601Y-75464814D01*
X126329837Y-75450000D01*
X126270163Y-75450000D01*
X126215032Y-75472836D01*
X126205566Y-75482301D01*
X126205565Y-75482302D01*
X126172837Y-75515030D01*
X126172836Y-75515031D01*
X126172836Y-75515032D01*
X126150000Y-75570163D01*
X125916609Y-75570163D01*
X125750000Y-75403554D01*
X125737569Y-75415984D01*
X125585901Y-75567652D01*
X125585901Y-75567653D01*
X125553554Y-75600000D01*
X125350000Y-75600000D01*
X125350000Y-75570163D01*
X125327164Y-75515032D01*
X125284968Y-75472836D01*
X125229837Y-75450000D01*
X125170163Y-75450000D01*
X125115032Y-75472836D01*
X125115030Y-75472837D01*
X125072837Y-75515030D01*
X125072835Y-75515033D01*
X125062098Y-75540954D01*
X125062098Y-75540955D01*
X125050000Y-75570163D01*
X124816610Y-75570163D01*
X124522421Y-75275974D01*
X124522420Y-75275974D01*
X124519199Y-75283749D01*
X124478825Y-75381222D01*
X124478824Y-75381223D01*
X124478816Y-75381257D01*
X124450000Y-75526123D01*
X124450000Y-75673871D01*
X124449999Y-75673875D01*
X112413576Y-75673875D01*
X112471699Y-75644260D01*
X112624573Y-75533190D01*
X112758190Y-75399573D01*
X112869260Y-75246699D01*
X112955047Y-75078332D01*
X112964253Y-75049999D01*
X125003554Y-75049999D01*
X125003554Y-75050000D01*
X125200000Y-75246446D01*
X125396446Y-75050000D01*
X126103554Y-75050000D01*
X126300000Y-75246446D01*
X126496446Y-75050000D01*
X127203554Y-75050000D01*
X127400000Y-75246446D01*
X127596446Y-75050000D01*
X127400000Y-74853554D01*
X127203554Y-75050000D01*
X126496446Y-75050000D01*
X126300000Y-74853554D01*
X126103554Y-75050000D01*
X125396446Y-75050000D01*
X125200000Y-74853554D01*
X125167653Y-74885901D01*
X125167652Y-74885901D01*
X125003554Y-75049999D01*
X112964253Y-75049999D01*
X113013440Y-74898618D01*
X113014201Y-74893814D01*
X113019124Y-74862735D01*
X113043000Y-74711985D01*
X113043000Y-74573875D01*
X124449999Y-74573875D01*
X124478816Y-74718740D01*
X124478820Y-74718759D01*
X124478822Y-74718767D01*
X124522421Y-74824024D01*
X124846446Y-74500000D01*
X124846446Y-74499999D01*
X124816610Y-74470163D01*
X125050000Y-74470163D01*
X125050000Y-74529837D01*
X125072836Y-74584968D01*
X125115032Y-74627164D01*
X125170163Y-74650000D01*
X125229837Y-74650000D01*
X125284968Y-74627164D01*
X125327164Y-74584968D01*
X125350000Y-74529837D01*
X125350000Y-74500000D01*
X125553554Y-74500000D01*
X125750000Y-74696446D01*
X125946446Y-74500000D01*
X125945806Y-74499360D01*
X126123956Y-74499360D01*
X126137365Y-74509398D01*
X126152658Y-74536254D01*
X126172836Y-74584968D01*
X126215032Y-74627164D01*
X126270163Y-74650000D01*
X126329837Y-74650000D01*
X126384968Y-74627164D01*
X126427164Y-74584968D01*
X126450000Y-74529837D01*
X126450000Y-74500000D01*
X126653554Y-74500000D01*
X126850000Y-74696446D01*
X127046446Y-74500000D01*
X127045240Y-74498794D01*
X127224412Y-74498794D01*
X127234649Y-74505902D01*
X127236393Y-74508671D01*
X127237365Y-74509398D01*
X127242178Y-74517850D01*
X127249955Y-74530192D01*
X127251385Y-74533182D01*
X127272836Y-74584968D01*
X127315032Y-74627164D01*
X127370163Y-74650000D01*
X127429837Y-74650000D01*
X127484968Y-74627164D01*
X127527164Y-74584968D01*
X127550000Y-74529837D01*
X127550000Y-74499999D01*
X127753554Y-74499999D01*
X127753554Y-74500001D01*
X128077577Y-74824024D01*
X128077578Y-74824024D01*
X128121175Y-74718775D01*
X128121179Y-74718760D01*
X128149999Y-74573873D01*
X128150000Y-74573871D01*
X128150000Y-74426128D01*
X128149999Y-74426126D01*
X128121179Y-74281240D01*
X128121178Y-74281236D01*
X128077577Y-74175975D01*
X128077576Y-74175975D01*
X128077576Y-74175974D01*
X127821812Y-74431739D01*
X127821812Y-74431740D01*
X127753554Y-74499999D01*
X127550000Y-74499999D01*
X127550000Y-74470163D01*
X127527164Y-74415032D01*
X127484968Y-74372836D01*
X127483577Y-74372260D01*
X127465602Y-74364814D01*
X127465601Y-74364814D01*
X127429837Y-74350000D01*
X127370163Y-74350000D01*
X127315032Y-74372836D01*
X127305566Y-74382301D01*
X127305565Y-74382302D01*
X127272837Y-74415030D01*
X127272836Y-74415031D01*
X127272836Y-74415032D01*
X127262727Y-74439437D01*
X127252659Y-74463744D01*
X127224412Y-74498794D01*
X127045240Y-74498794D01*
X126850000Y-74303554D01*
X126717301Y-74436252D01*
X126653554Y-74500000D01*
X126450000Y-74500000D01*
X126450000Y-74470163D01*
X126427164Y-74415032D01*
X126384968Y-74372836D01*
X126383577Y-74372260D01*
X126365602Y-74364814D01*
X126365601Y-74364814D01*
X126329837Y-74350000D01*
X126270163Y-74350000D01*
X126215032Y-74372836D01*
X126205566Y-74382301D01*
X126205565Y-74382302D01*
X126172837Y-74415030D01*
X126172836Y-74415031D01*
X126172836Y-74415032D01*
X126162727Y-74439437D01*
X126152659Y-74463744D01*
X126123956Y-74499360D01*
X125945806Y-74499360D01*
X125750000Y-74303554D01*
X125617301Y-74436252D01*
X125553554Y-74500000D01*
X125350000Y-74500000D01*
X125350000Y-74470163D01*
X125327164Y-74415032D01*
X125284968Y-74372836D01*
X125229837Y-74350000D01*
X125170163Y-74350000D01*
X125116423Y-74372260D01*
X125115030Y-74372837D01*
X125072837Y-74415030D01*
X125072835Y-74415033D01*
X125062098Y-74440954D01*
X125062098Y-74440955D01*
X125050000Y-74470163D01*
X124816610Y-74470163D01*
X124522421Y-74175974D01*
X124522420Y-74175974D01*
X124519199Y-74183749D01*
X124478823Y-74281226D01*
X124478816Y-74281257D01*
X124450000Y-74426123D01*
X124450000Y-74426126D01*
X124450000Y-74573873D01*
X124450000Y-74573875D01*
X124449999Y-74573875D01*
X113043000Y-74573875D01*
X113043000Y-74523008D01*
X113029763Y-74439438D01*
X113029763Y-74439437D01*
X113025898Y-74415033D01*
X113013440Y-74336381D01*
X112961320Y-74175974D01*
X112955047Y-74156668D01*
X112955045Y-74156665D01*
X112955045Y-74156663D01*
X112952795Y-74152247D01*
X112952489Y-74151463D01*
X112951765Y-74150227D01*
X112869260Y-73988301D01*
X112869238Y-73988271D01*
X112854207Y-73967583D01*
X112854206Y-73967582D01*
X112851000Y-73963170D01*
X112851000Y-73963169D01*
X112841431Y-73949999D01*
X125003554Y-73949999D01*
X125003554Y-73950000D01*
X125200000Y-74146446D01*
X125396446Y-73950000D01*
X126103554Y-73950000D01*
X126300000Y-74146446D01*
X126496446Y-73950000D01*
X127203554Y-73950000D01*
X127400000Y-74146446D01*
X127596446Y-73950000D01*
X127400000Y-73753554D01*
X127203554Y-73950000D01*
X126496446Y-73950000D01*
X126300000Y-73753554D01*
X126103554Y-73950000D01*
X125396446Y-73950000D01*
X125200000Y-73753554D01*
X125167653Y-73785901D01*
X125167652Y-73785901D01*
X125003554Y-73949999D01*
X112841431Y-73949999D01*
X112758190Y-73835427D01*
X112624573Y-73701810D01*
X112471699Y-73590740D01*
X112303336Y-73504954D01*
X112207686Y-73473875D01*
X124449999Y-73473875D01*
X124477001Y-73609615D01*
X124478820Y-73618759D01*
X124478822Y-73618767D01*
X124522421Y-73724024D01*
X124846446Y-73400000D01*
X124846446Y-73399999D01*
X124816610Y-73370163D01*
X125050000Y-73370163D01*
X125050000Y-73429837D01*
X125072836Y-73484968D01*
X125115032Y-73527164D01*
X125170163Y-73550000D01*
X125229837Y-73550000D01*
X125284968Y-73527164D01*
X125327164Y-73484968D01*
X125350000Y-73429837D01*
X125350000Y-73400000D01*
X125553554Y-73400000D01*
X125750000Y-73596446D01*
X125946446Y-73400000D01*
X125945806Y-73399360D01*
X126123956Y-73399360D01*
X126137365Y-73409398D01*
X126152658Y-73436254D01*
X126172836Y-73484968D01*
X126215032Y-73527164D01*
X126270163Y-73550000D01*
X126329837Y-73550000D01*
X126384968Y-73527164D01*
X126427164Y-73484968D01*
X126450000Y-73429837D01*
X126450000Y-73400000D01*
X126653554Y-73400000D01*
X126850000Y-73596446D01*
X127046446Y-73400000D01*
X127045240Y-73398794D01*
X127224412Y-73398794D01*
X127234649Y-73405902D01*
X127236393Y-73408671D01*
X127237365Y-73409398D01*
X127242178Y-73417850D01*
X127249955Y-73430192D01*
X127251385Y-73433182D01*
X127272836Y-73484968D01*
X127315032Y-73527164D01*
X127370163Y-73550000D01*
X127429837Y-73550000D01*
X127484968Y-73527164D01*
X127527164Y-73484968D01*
X127550000Y-73429837D01*
X127550000Y-73399999D01*
X127753554Y-73399999D01*
X127753554Y-73400001D01*
X128077577Y-73724024D01*
X128077578Y-73724024D01*
X128121175Y-73618775D01*
X128121179Y-73618760D01*
X128149999Y-73473873D01*
X128150000Y-73473871D01*
X128150000Y-73326128D01*
X128149999Y-73326126D01*
X128121179Y-73181240D01*
X128121178Y-73181236D01*
X128077577Y-73075975D01*
X128077576Y-73075975D01*
X128077576Y-73075974D01*
X127821812Y-73331739D01*
X127821812Y-73331740D01*
X127753554Y-73399999D01*
X127550000Y-73399999D01*
X127550000Y-73370163D01*
X127527164Y-73315032D01*
X127484968Y-73272836D01*
X127429837Y-73250000D01*
X127370163Y-73250000D01*
X127315032Y-73272836D01*
X127315030Y-73272837D01*
X127272837Y-73315030D01*
X127272836Y-73315031D01*
X127272836Y-73315032D01*
X127262099Y-73340953D01*
X127252659Y-73363744D01*
X127224412Y-73398794D01*
X127045240Y-73398794D01*
X126850000Y-73203554D01*
X126717301Y-73336252D01*
X126653554Y-73400000D01*
X126450000Y-73400000D01*
X126450000Y-73370163D01*
X126427164Y-73315032D01*
X126384968Y-73272836D01*
X126384966Y-73272835D01*
X126359045Y-73262098D01*
X126359044Y-73262098D01*
X126329837Y-73250000D01*
X126270163Y-73250000D01*
X126215032Y-73272836D01*
X126215030Y-73272837D01*
X126172837Y-73315030D01*
X126172836Y-73315031D01*
X126172836Y-73315032D01*
X126162099Y-73340953D01*
X126152659Y-73363744D01*
X126123956Y-73399360D01*
X125945806Y-73399360D01*
X125750000Y-73203554D01*
X125617301Y-73336252D01*
X125553554Y-73400000D01*
X125350000Y-73400000D01*
X125350000Y-73370163D01*
X125327164Y-73315032D01*
X125284968Y-73272836D01*
X125284966Y-73272835D01*
X125259045Y-73262098D01*
X125259044Y-73262098D01*
X125229837Y-73250000D01*
X125170163Y-73250000D01*
X125115032Y-73272836D01*
X125115030Y-73272837D01*
X125072837Y-73315030D01*
X125072835Y-73315033D01*
X125064814Y-73334396D01*
X125064814Y-73334398D01*
X125050000Y-73370163D01*
X124816610Y-73370163D01*
X124522421Y-73075974D01*
X124522420Y-73075974D01*
X124478823Y-73181226D01*
X124478816Y-73181257D01*
X124450000Y-73326123D01*
X124450000Y-73326126D01*
X124450000Y-73473873D01*
X124450000Y-73473875D01*
X124449999Y-73473875D01*
X112207686Y-73473875D01*
X112123618Y-73446559D01*
X112123615Y-73446558D01*
X112123609Y-73446557D01*
X112098062Y-73442512D01*
X112098062Y-73442509D01*
X112098031Y-73442507D01*
X112097870Y-73442481D01*
X112097865Y-73442481D01*
X112097837Y-73442476D01*
X112097836Y-73442476D01*
X111985830Y-73424736D01*
X111936986Y-73417000D01*
X111936985Y-73417000D01*
X111748009Y-73417000D01*
X111561386Y-73446558D01*
X111561384Y-73446558D01*
X111561381Y-73446559D01*
X111381663Y-73504954D01*
X111297481Y-73547847D01*
X111213299Y-73590740D01*
X111170746Y-73621658D01*
X111131049Y-73650500D01*
X111131048Y-73650501D01*
X111072296Y-73693186D01*
X111064918Y-73697317D01*
X110922317Y-73839918D01*
X110918185Y-73847297D01*
X110871275Y-73911863D01*
X110871275Y-73911864D01*
X110815731Y-73988312D01*
X110814234Y-73990628D01*
X110810421Y-73996187D01*
X110797706Y-74013687D01*
X110785070Y-74028481D01*
X110415608Y-74397943D01*
X110354285Y-74431428D01*
X110284593Y-74426444D01*
X110228660Y-74384572D01*
X110220549Y-74372277D01*
X110202599Y-74341186D01*
X110118814Y-74257401D01*
X110118812Y-74257400D01*
X110118807Y-74257396D01*
X110087737Y-74239458D01*
X110039521Y-74188892D01*
X110026297Y-74120285D01*
X110052265Y-74055420D01*
X110062050Y-74044394D01*
X110496828Y-73609616D01*
X110471433Y-73591166D01*
X110366896Y-73537901D01*
X110303136Y-73505413D01*
X110303134Y-73505412D01*
X110123503Y-73447048D01*
X110030224Y-73432274D01*
X109936947Y-73417500D01*
X109936946Y-73417500D01*
X109748054Y-73417500D01*
X109748053Y-73417500D01*
X109685867Y-73427349D01*
X109561495Y-73447048D01*
X109381864Y-73505412D01*
X109381861Y-73505413D01*
X109213557Y-73591170D01*
X109213271Y-73591346D01*
X109213140Y-73591382D01*
X109209219Y-73593381D01*
X109208821Y-73592600D01*
X109193417Y-73596944D01*
X109188168Y-73609616D01*
X109622944Y-74044390D01*
X109656429Y-74105713D01*
X109651445Y-74175404D01*
X109609574Y-74231338D01*
X109597264Y-74239458D01*
X109566186Y-74257400D01*
X109482402Y-74341184D01*
X109482398Y-74341189D01*
X109464457Y-74372264D01*
X109413889Y-74420479D01*
X109345282Y-74433700D01*
X109280418Y-74407731D01*
X109269390Y-74397943D01*
X108834616Y-73963168D01*
X108821944Y-73968417D01*
X108817600Y-73983821D01*
X108818381Y-73984219D01*
X108816382Y-73988140D01*
X108816346Y-73988271D01*
X108816170Y-73988557D01*
X108730413Y-74156861D01*
X108730412Y-74156864D01*
X108672048Y-74336495D01*
X108646151Y-74499999D01*
X108642500Y-74523052D01*
X94240500Y-74523052D01*
X94240500Y-70259998D01*
X95195795Y-70259998D01*
X95195796Y-70259999D01*
X95195797Y-70260000D01*
X95761190Y-70260000D01*
X95828229Y-70279685D01*
X95873984Y-70332489D01*
X95883928Y-70401647D01*
X95880965Y-70416088D01*
X95880708Y-70417051D01*
X95869913Y-70457339D01*
X95869913Y-70562660D01*
X95880965Y-70603907D01*
X95879302Y-70673757D01*
X95840139Y-70731619D01*
X95775911Y-70759123D01*
X95761190Y-70760000D01*
X95195797Y-70760000D01*
X95196996Y-70767582D01*
X95250504Y-70932259D01*
X95279300Y-70988773D01*
X95322684Y-71073919D01*
X95329109Y-71086527D01*
X95430873Y-71226596D01*
X95553314Y-71349037D01*
X95684386Y-71444264D01*
X95693387Y-71450804D01*
X95847654Y-71529408D01*
X96012327Y-71582914D01*
X96183341Y-71610000D01*
X96319912Y-71610000D01*
X96319912Y-71033999D01*
X96339597Y-70966960D01*
X96392401Y-70921205D01*
X96443912Y-70909999D01*
X96695912Y-70909999D01*
X96762951Y-70929684D01*
X96808706Y-70982488D01*
X96819912Y-71033999D01*
X96819912Y-71610000D01*
X96956482Y-71610000D01*
X96956483Y-71610000D01*
X97127496Y-71582914D01*
X97292169Y-71529408D01*
X97446436Y-71450804D01*
X97525082Y-71393664D01*
X97586508Y-71349037D01*
X97586510Y-71349034D01*
X97586514Y-71349032D01*
X97708944Y-71226602D01*
X97708946Y-71226598D01*
X97708949Y-71226596D01*
X97753576Y-71165170D01*
X97810716Y-71086524D01*
X97889320Y-70932255D01*
X97942826Y-70767584D01*
X97944027Y-70760000D01*
X97378634Y-70760000D01*
X97311595Y-70740315D01*
X97265840Y-70687511D01*
X97255896Y-70618353D01*
X97258859Y-70603907D01*
X97269911Y-70562661D01*
X97269911Y-70457339D01*
X97258859Y-70416092D01*
X97260522Y-70346243D01*
X97299685Y-70288381D01*
X97363913Y-70260877D01*
X97378634Y-70260000D01*
X97944027Y-70260000D01*
X97944027Y-70259998D01*
X99275795Y-70259998D01*
X99275796Y-70259999D01*
X99275797Y-70260000D01*
X99841178Y-70260000D01*
X99908217Y-70279685D01*
X99953972Y-70332489D01*
X99963916Y-70401647D01*
X99960953Y-70416088D01*
X99960696Y-70417051D01*
X99949901Y-70457339D01*
X99949901Y-70562660D01*
X99960953Y-70603907D01*
X99959290Y-70673757D01*
X99920127Y-70731619D01*
X99855899Y-70759123D01*
X99841178Y-70760000D01*
X99275797Y-70760000D01*
X99276996Y-70767582D01*
X99330504Y-70932259D01*
X99359300Y-70988773D01*
X99402684Y-71073919D01*
X99409109Y-71086527D01*
X99510873Y-71226596D01*
X99510879Y-71226602D01*
X99633313Y-71349036D01*
X99696917Y-71395246D01*
X99722230Y-71419848D01*
X99731776Y-71432229D01*
X99757120Y-71497318D01*
X99757386Y-71500411D01*
X99748322Y-71558683D01*
X99746210Y-71563756D01*
X99734835Y-71584994D01*
X99695600Y-71643712D01*
X99695594Y-71643725D01*
X99648458Y-71757522D01*
X99648445Y-71757561D01*
X99624412Y-71878384D01*
X99624412Y-72001614D01*
X99648445Y-72122437D01*
X99648446Y-72122441D01*
X99648447Y-72122444D01*
X99648450Y-72122454D01*
X99648453Y-72122462D01*
X99648458Y-72122476D01*
X99695593Y-72236272D01*
X99695608Y-72236299D01*
X99764057Y-72338738D01*
X99851169Y-72425850D01*
X99851175Y-72425855D01*
X99851176Y-72425856D01*
X99953622Y-72494309D01*
X99953625Y-72494310D01*
X99953626Y-72494311D01*
X100067460Y-72541463D01*
X100135544Y-72555005D01*
X100172775Y-72562411D01*
X100172776Y-72562410D01*
X100188301Y-72565499D01*
X100188305Y-72565500D01*
X100188306Y-72565500D01*
X100311519Y-72565500D01*
X100311520Y-72565499D01*
X100351882Y-72557471D01*
X104404237Y-72557471D01*
X104438338Y-72728899D01*
X104438344Y-72728919D01*
X104494908Y-72865481D01*
X104494913Y-72865490D01*
X104494923Y-72865507D01*
X104577041Y-72988405D01*
X104577049Y-72988417D01*
X104577055Y-72988424D01*
X104681574Y-73092943D01*
X104681580Y-73092948D01*
X104681584Y-73092951D01*
X104804498Y-73175080D01*
X104804511Y-73175087D01*
X104941082Y-73231656D01*
X104941087Y-73231658D01*
X104941091Y-73231658D01*
X104941092Y-73231659D01*
X104941357Y-73231711D01*
X104941358Y-73231712D01*
X104941382Y-73231717D01*
X105086077Y-73260500D01*
X105086079Y-73260500D01*
X105086082Y-73260500D01*
X105233920Y-73260500D01*
X105331462Y-73241096D01*
X105378913Y-73231658D01*
X105515495Y-73175084D01*
X105638416Y-73092951D01*
X105742951Y-72988416D01*
X105825084Y-72865495D01*
X105881658Y-72728913D01*
X105882950Y-72722420D01*
X124875973Y-72722420D01*
X124875974Y-72722421D01*
X125200000Y-73046446D01*
X125200001Y-73046446D01*
X125524024Y-72722421D01*
X125524022Y-72722420D01*
X125975973Y-72722420D01*
X125975974Y-72722421D01*
X126300000Y-73046446D01*
X126300001Y-73046446D01*
X126624024Y-72722421D01*
X126624019Y-72722419D01*
X127075974Y-72722419D01*
X127075974Y-72722420D01*
X127075974Y-72722421D01*
X127400000Y-73046446D01*
X127400001Y-73046446D01*
X127498976Y-72947471D01*
X129144237Y-72947471D01*
X129178338Y-73118899D01*
X129178344Y-73118919D01*
X129234908Y-73255481D01*
X129234913Y-73255490D01*
X129234923Y-73255507D01*
X129317049Y-73378417D01*
X129317050Y-73378418D01*
X129317055Y-73378424D01*
X129421574Y-73482943D01*
X129421580Y-73482948D01*
X129421584Y-73482951D01*
X129544498Y-73565080D01*
X129544511Y-73565087D01*
X129544513Y-73565087D01*
X129544517Y-73565090D01*
X129674050Y-73618744D01*
X129675416Y-73619309D01*
X129679878Y-73621418D01*
X129826076Y-73650500D01*
X129826079Y-73650500D01*
X129826082Y-73650500D01*
X129973920Y-73650500D01*
X130071462Y-73631096D01*
X130118913Y-73621658D01*
X130255495Y-73565084D01*
X130378416Y-73482951D01*
X130482951Y-73378416D01*
X130565084Y-73255495D01*
X130621658Y-73118913D01*
X130641082Y-73021262D01*
X130647616Y-72988417D01*
X130647617Y-72988417D01*
X130647617Y-72988410D01*
X130650500Y-72973920D01*
X130650500Y-72826079D01*
X130650500Y-72826076D01*
X130621419Y-72679887D01*
X130619338Y-72675486D01*
X130565087Y-72544511D01*
X130565080Y-72544498D01*
X130482951Y-72421584D01*
X130482948Y-72421580D01*
X130482943Y-72421574D01*
X130378424Y-72317055D01*
X130378418Y-72317050D01*
X130378417Y-72317049D01*
X130255507Y-72234923D01*
X130255506Y-72234922D01*
X130255501Y-72234919D01*
X130255488Y-72234912D01*
X130255481Y-72234908D01*
X130118919Y-72178344D01*
X130118920Y-72178344D01*
X130118917Y-72178343D01*
X130118907Y-72178340D01*
X130118905Y-72178339D01*
X130118900Y-72178338D01*
X129973922Y-72149500D01*
X129973920Y-72149500D01*
X129973918Y-72149500D01*
X129826082Y-72149500D01*
X129826080Y-72149500D01*
X129826078Y-72149500D01*
X129681096Y-72178338D01*
X129681079Y-72178344D01*
X129544517Y-72234908D01*
X129544508Y-72234913D01*
X129544491Y-72234923D01*
X129421581Y-72317049D01*
X129421580Y-72317050D01*
X129421574Y-72317055D01*
X129317055Y-72421574D01*
X129317050Y-72421580D01*
X129234923Y-72544491D01*
X129234913Y-72544508D01*
X129234908Y-72544517D01*
X129178344Y-72681079D01*
X129178338Y-72681098D01*
X129149500Y-72826076D01*
X129149500Y-72929551D01*
X129144237Y-72947471D01*
X127498976Y-72947471D01*
X127714137Y-72732309D01*
X127724024Y-72722421D01*
X127724023Y-72722420D01*
X127662365Y-72696880D01*
X127618767Y-72678822D01*
X127618759Y-72678820D01*
X127618751Y-72678818D01*
X127618741Y-72678816D01*
X127473874Y-72650000D01*
X127473872Y-72650000D01*
X127326128Y-72650000D01*
X127326126Y-72650000D01*
X127181257Y-72678816D01*
X127181226Y-72678823D01*
X127075974Y-72722419D01*
X126624019Y-72722419D01*
X126518767Y-72678822D01*
X126518759Y-72678820D01*
X126518751Y-72678818D01*
X126518741Y-72678816D01*
X126373874Y-72650000D01*
X126373872Y-72650000D01*
X126226128Y-72650000D01*
X126226126Y-72650000D01*
X126081257Y-72678816D01*
X126081226Y-72678823D01*
X125975974Y-72722419D01*
X125975973Y-72722420D01*
X125524022Y-72722420D01*
X125418767Y-72678822D01*
X125418759Y-72678820D01*
X125418751Y-72678818D01*
X125418741Y-72678816D01*
X125273874Y-72650000D01*
X125273872Y-72650000D01*
X125126128Y-72650000D01*
X125126126Y-72650000D01*
X124981257Y-72678816D01*
X124981226Y-72678823D01*
X124875974Y-72722419D01*
X124875973Y-72722420D01*
X105882950Y-72722420D01*
X105910500Y-72583918D01*
X105910500Y-72436082D01*
X105910500Y-72436079D01*
X105910500Y-72436076D01*
X105881419Y-72289885D01*
X105879332Y-72285472D01*
X105858959Y-72236287D01*
X105858959Y-72236286D01*
X105825087Y-72154511D01*
X105825080Y-72154498D01*
X105742951Y-72031584D01*
X105742948Y-72031580D01*
X105742943Y-72031574D01*
X105638424Y-71927055D01*
X105638418Y-71927050D01*
X105638417Y-71927049D01*
X105515507Y-71844923D01*
X105515506Y-71844922D01*
X105515501Y-71844919D01*
X105515488Y-71844912D01*
X105515481Y-71844908D01*
X105378919Y-71788344D01*
X105378920Y-71788344D01*
X105378917Y-71788343D01*
X105378907Y-71788340D01*
X105378905Y-71788339D01*
X105378900Y-71788338D01*
X105233922Y-71759500D01*
X105233920Y-71759500D01*
X105233918Y-71759500D01*
X105086082Y-71759500D01*
X105086080Y-71759500D01*
X105086078Y-71759500D01*
X104941096Y-71788338D01*
X104941079Y-71788344D01*
X104804517Y-71844908D01*
X104804508Y-71844913D01*
X104804491Y-71844923D01*
X104681581Y-71927049D01*
X104681580Y-71927050D01*
X104681574Y-71927055D01*
X104577055Y-72031574D01*
X104577050Y-72031580D01*
X104577049Y-72031581D01*
X104494923Y-72154491D01*
X104494913Y-72154508D01*
X104494908Y-72154517D01*
X104438344Y-72291079D01*
X104438338Y-72291098D01*
X104409500Y-72436076D01*
X104409500Y-72539551D01*
X104404237Y-72557471D01*
X100351882Y-72557471D01*
X100432364Y-72541463D01*
X100546198Y-72494311D01*
X100648645Y-72425858D01*
X100652923Y-72421580D01*
X100732195Y-72342309D01*
X100735767Y-72338736D01*
X100735770Y-72338733D01*
X100804223Y-72236286D01*
X100851375Y-72122452D01*
X100875412Y-72001606D01*
X100875412Y-71878394D01*
X100868752Y-71844912D01*
X100854981Y-71775676D01*
X100853092Y-71740433D01*
X100854329Y-71726610D01*
X100879910Y-71661591D01*
X100936578Y-71620727D01*
X100946975Y-71617059D01*
X100988218Y-71610000D01*
X101236482Y-71610000D01*
X101236483Y-71610000D01*
X101407496Y-71582914D01*
X101572169Y-71529408D01*
X101726436Y-71450804D01*
X101805082Y-71393664D01*
X101866508Y-71349037D01*
X101866510Y-71349034D01*
X101866514Y-71349032D01*
X101988944Y-71226602D01*
X101988946Y-71226598D01*
X101988949Y-71226596D01*
X102033576Y-71165170D01*
X102090716Y-71086524D01*
X102110615Y-71047471D01*
X124144237Y-71047471D01*
X124178338Y-71218899D01*
X124178339Y-71218904D01*
X124178344Y-71218919D01*
X124234908Y-71355481D01*
X124234913Y-71355490D01*
X124234923Y-71355507D01*
X124317049Y-71478417D01*
X124317050Y-71478418D01*
X124317055Y-71478424D01*
X124421574Y-71582943D01*
X124421580Y-71582948D01*
X124421584Y-71582951D01*
X124544498Y-71665080D01*
X124544511Y-71665087D01*
X124601275Y-71688599D01*
X124675472Y-71719332D01*
X124679885Y-71721419D01*
X124826076Y-71750500D01*
X124826079Y-71750500D01*
X124826082Y-71750500D01*
X124973920Y-71750500D01*
X125071462Y-71731096D01*
X125118913Y-71721658D01*
X125255495Y-71665084D01*
X125378416Y-71582951D01*
X125482951Y-71478416D01*
X125565084Y-71355495D01*
X125621658Y-71218913D01*
X125627035Y-71191876D01*
X125631096Y-71171465D01*
X125631096Y-71171462D01*
X125650500Y-71073920D01*
X125650500Y-70926079D01*
X125650500Y-70926076D01*
X125621420Y-70779888D01*
X125619338Y-70775487D01*
X125616065Y-70767584D01*
X125573323Y-70664394D01*
X125565090Y-70644517D01*
X125565085Y-70644508D01*
X125565080Y-70644498D01*
X125482951Y-70521584D01*
X125482948Y-70521580D01*
X125482943Y-70521574D01*
X125378424Y-70417055D01*
X125378418Y-70417050D01*
X125378417Y-70417049D01*
X125255507Y-70334923D01*
X125255506Y-70334922D01*
X125255501Y-70334919D01*
X125255488Y-70334912D01*
X125255481Y-70334908D01*
X125118919Y-70278344D01*
X125118920Y-70278344D01*
X125118917Y-70278343D01*
X125118907Y-70278340D01*
X125118905Y-70278339D01*
X125118900Y-70278338D01*
X124973922Y-70249500D01*
X124973920Y-70249500D01*
X124973918Y-70249500D01*
X124826082Y-70249500D01*
X124826080Y-70249500D01*
X124826078Y-70249500D01*
X124681096Y-70278338D01*
X124681079Y-70278344D01*
X124544517Y-70334908D01*
X124544508Y-70334913D01*
X124544491Y-70334923D01*
X124421581Y-70417049D01*
X124421580Y-70417050D01*
X124421574Y-70417055D01*
X124317055Y-70521574D01*
X124317050Y-70521580D01*
X124317049Y-70521581D01*
X124234923Y-70644491D01*
X124234913Y-70644508D01*
X124234908Y-70644517D01*
X124178344Y-70781079D01*
X124178338Y-70781098D01*
X124149500Y-70926076D01*
X124149500Y-71029551D01*
X124144237Y-71047471D01*
X102110615Y-71047471D01*
X102169320Y-70932256D01*
X102185757Y-70881671D01*
X102185757Y-70881670D01*
X102222826Y-70767584D01*
X102224027Y-70760000D01*
X101658646Y-70760000D01*
X101591607Y-70740315D01*
X101545852Y-70687511D01*
X101535908Y-70618353D01*
X101538871Y-70603907D01*
X101549923Y-70562661D01*
X101549923Y-70457339D01*
X101538871Y-70416092D01*
X101540534Y-70346243D01*
X101579697Y-70288381D01*
X101643925Y-70260877D01*
X101658646Y-70260000D01*
X102224027Y-70260000D01*
X102224027Y-70259998D01*
X102222826Y-70252416D01*
X102176552Y-70110001D01*
X102169320Y-70087744D01*
X102169318Y-70087741D01*
X102169318Y-70087739D01*
X102117479Y-69986001D01*
X102090716Y-69933475D01*
X102084176Y-69924474D01*
X101988949Y-69793402D01*
X101866508Y-69670961D01*
X101726439Y-69569197D01*
X101726438Y-69569196D01*
X101726436Y-69569195D01*
X101572169Y-69490591D01*
X101507305Y-69469515D01*
X101407496Y-69437084D01*
X101236487Y-69410000D01*
X101236483Y-69410000D01*
X100999912Y-69410000D01*
X100999912Y-69986001D01*
X100980227Y-70053040D01*
X100927423Y-70098795D01*
X100875912Y-70110001D01*
X100623912Y-70110001D01*
X100556873Y-70090316D01*
X100511118Y-70037512D01*
X100499912Y-69986001D01*
X100499912Y-69410000D01*
X100263341Y-69410000D01*
X100263337Y-69410000D01*
X100092328Y-69437084D01*
X100092322Y-69437086D01*
X99984002Y-69472282D01*
X99927654Y-69490591D01*
X99784123Y-69563724D01*
X99773383Y-69569197D01*
X99633314Y-69670961D01*
X99510873Y-69793402D01*
X99409109Y-69933471D01*
X99330504Y-70087739D01*
X99276996Y-70252417D01*
X99275795Y-70259998D01*
X97944027Y-70259998D01*
X97942826Y-70252416D01*
X97896552Y-70110001D01*
X97889320Y-70087744D01*
X97889318Y-70087741D01*
X97889318Y-70087739D01*
X97837479Y-69986001D01*
X97810716Y-69933475D01*
X97804176Y-69924474D01*
X97708949Y-69793402D01*
X97586508Y-69670961D01*
X97446439Y-69569197D01*
X97446438Y-69569196D01*
X97446436Y-69569195D01*
X97292169Y-69490591D01*
X97227305Y-69469515D01*
X97127496Y-69437084D01*
X96956487Y-69410000D01*
X96956483Y-69410000D01*
X96819912Y-69410000D01*
X96819912Y-69986001D01*
X96800227Y-70053040D01*
X96747423Y-70098795D01*
X96695912Y-70110001D01*
X96443912Y-70110001D01*
X96376873Y-70090316D01*
X96331118Y-70037512D01*
X96319912Y-69986001D01*
X96319912Y-69410000D01*
X96183341Y-69410000D01*
X96183337Y-69410000D01*
X96012328Y-69437084D01*
X96012322Y-69437086D01*
X95904002Y-69472282D01*
X95847654Y-69490591D01*
X95704123Y-69563724D01*
X95693383Y-69569197D01*
X95553314Y-69670961D01*
X95430873Y-69793402D01*
X95329109Y-69933471D01*
X95250504Y-70087739D01*
X95196996Y-70252417D01*
X95195795Y-70259998D01*
X94240500Y-70259998D01*
X94240500Y-68702329D01*
X94245523Y-68667393D01*
X94249927Y-68652395D01*
X94287672Y-68593644D01*
X94289041Y-68592457D01*
X94343920Y-68564977D01*
X94351479Y-68563333D01*
X94377832Y-68560500D01*
X137477670Y-68560500D01*
X137512606Y-68565523D01*
G37*
%TD.AperFunction*%
%TA.AperFunction,Conductor*%
G36*
X136805980Y-95819685D02*
G01*
X136851735Y-95872489D01*
X136862841Y-95928954D01*
X136828756Y-96781118D01*
X136804762Y-97380956D01*
X136782414Y-97447155D01*
X136727823Y-97490763D01*
X136680861Y-97500000D01*
X134724000Y-97500000D01*
X134656961Y-97480315D01*
X134611206Y-97427511D01*
X134600000Y-97376000D01*
X134600000Y-97200003D01*
X134591088Y-96781118D01*
X134572907Y-95926636D01*
X134591161Y-95859195D01*
X134642980Y-95812327D01*
X134696879Y-95800000D01*
X136738941Y-95800000D01*
X136805980Y-95819685D01*
G37*
%TD.AperFunction*%
%TD*%
M02*
