M48
; DRILL file KiCad 10.0.0 date 2026-09-10T04:53:12
; FORMAT={-:-/ absolute / metric / decimal}
; #@! TF.CreationDate,2026-09-10T04:53:12-04:00
; #@! TF.GenerationSoftware,Kicad,Pcbnew,10.0.0
; #@! TF.FileFunction,MixedPlating,1,4
FMAT,2
METRIC
; #@! TA.AperFunction,Plated,PTH,ViaDrill
T1C0.200
; #@! TA.AperFunction,Plated,PTH,ComponentDrill
T2C0.200
; #@! TA.AperFunction,Plated,PTH,ViaDrill
T3C0.300
; #@! TA.AperFunction,Plated,PTH,ComponentDrill
T4C0.300
; #@! TA.AperFunction,Plated,PTH,ComponentDrill
T5C0.800
; #@! TA.AperFunction,Plated,PTH,ComponentDrill
T6C0.900
; #@! TA.AperFunction,NonPlated,NPTH,ComponentDrill
T7C0.750
%
G90
G05
T1
X108.99Y-87.81
T2
X105.54Y-86.56
X105.54Y-87.56
X105.54Y-88.56
X106.54Y-86.56
X106.54Y-87.56
X106.54Y-88.56
X107.54Y-86.56
X107.54Y-87.56
X107.54Y-88.56
X118.49Y-85.915
X118.49Y-87.115
X118.49Y-88.315
X118.49Y-89.515
X119.69Y-85.915
X119.69Y-87.115
X119.69Y-88.315
X119.69Y-89.515
X120.89Y-85.915
X120.89Y-87.115
X120.89Y-88.315
X120.89Y-89.515
X122.09Y-85.915
X122.09Y-87.115
X122.09Y-88.315
X122.09Y-89.515
T3
X95.55Y-88.55
X95.575Y-86.475
X95.625Y-81.5
X95.7Y-84.05
X95.775Y-93.175
X96.78Y-89.92
X98.025Y-81.375
X98.3Y-88.97
X99.71Y-86.74
X100.5Y-93.425
X101.3Y-88.23
X102.36Y-98.44
X102.4Y-83.04
X102.57Y-92.83
X102.695Y-88.56
X103.1Y-69.7
X103.2Y-87.81
X103.54Y-74.46
X103.56Y-75.48
X103.632Y-95.123
X103.65Y-91.18
X104.05Y-79.67
X104.32Y-100.43
X104.725Y-70.1
X104.89Y-91.8
X105.16Y-72.51
X105.16Y-77.46
X105.86Y-81.47
X105.97Y-96.423
X106.0Y-70.85
X106.02Y-76.57
X106.045Y-83.185
X106.66Y-79.6
X106.85Y-71.825
X106.925Y-73.475
X107.315Y-94.59
X107.8Y-81.35
X108.49Y-91.02
X108.63Y-93.87
X108.72Y-94.97
X108.99Y-85.5
X109.76Y-83.23
X109.85Y-76.81
X110.53Y-78.03
X110.54Y-85.63
X111.991Y-88.89
X112.05Y-84.52
X112.15Y-100.32
X112.715Y-93.58
X112.95Y-87.13
X113.0Y-92.125
X113.19Y-88.72
X114.15Y-91.17
X114.56Y-84.45
X114.6Y-91.72
X115.205Y-89.395
X115.57Y-95.81
X115.65Y-85.49
X115.8Y-70.7
X116.28Y-86.75
X116.71Y-84.86
X116.975Y-100.325
X117.175Y-93.35
X117.8Y-79.5
X118.2Y-70.7
X118.55Y-96.625
X118.96Y-82.17
X120.5Y-70.7
X121.39Y-92.36
X121.65Y-99.575
X121.725Y-98.2
X122.02Y-81.77
X122.4Y-70.2
X122.575Y-96.65
X122.6Y-74.3
X122.71Y-82.12
X122.8Y-76.6
X123.2Y-91.78
X123.21Y-84.85
X123.46Y-83.58
X123.86Y-82.6
X124.265Y-86.825
X124.5Y-79.6
X124.587Y-88.265
X124.587Y-89.62
X124.9Y-71.0
X124.92Y-86.76
X124.93Y-83.9
X125.075Y-93.05
X125.3Y-78.3
X125.71Y-86.75
X126.1Y-77.9
X126.1Y-88.63
X126.55Y-86.76
X126.9Y-90.375
X126.94Y-89.22
X127.0Y-69.7
X127.07Y-85.82
X127.31Y-86.75
X127.7Y-78.0
X127.7Y-78.65
X127.73Y-88.17
X127.73Y-89.53
X127.75Y-88.84
X128.03Y-85.852
X128.1Y-80.9
X128.1Y-92.325
X128.14Y-86.75
X128.5Y-71.1
X128.59Y-89.17
X129.11Y-91.3
X129.86Y-88.65
X129.9Y-72.9
X130.07Y-84.51
X130.18Y-86.52
X130.3Y-69.8
X130.63Y-87.74
X130.8Y-92.89
X130.88Y-86.51
X131.0Y-73.8
X131.225Y-96.95
X131.25Y-98.2
X131.325Y-94.425
X131.34Y-87.7
X131.4Y-101.025
X131.5Y-75.8
X131.5Y-81.4
X131.59Y-86.49
X131.93Y-92.45
X132.33Y-86.48
X132.65Y-88.375
X132.79Y-90.2
X132.88Y-91.06
X133.1Y-72.2
X133.18Y-86.49
X133.4Y-84.1
X133.42Y-88.19
X133.55Y-91.03
X133.6Y-69.7
X133.6Y-74.8
X133.9Y-100.925
X134.03Y-90.25
X134.1Y-81.1
X134.15Y-91.01
X134.17Y-88.19
X134.94Y-88.19
X135.15Y-90.3
X135.275Y-91.45
X135.3Y-90.875
X135.6Y-72.9
X135.6Y-76.0
X135.7Y-88.19
X135.8Y-79.0
X135.8Y-97.1
X136.1Y-82.0
X136.3Y-85.4
X136.4Y-69.8
X136.4Y-100.85
X136.5Y-88.26
X136.85Y-88.7
X137.025Y-90.175
X137.05Y-90.85
X137.05Y-91.525
X137.26Y-89.2
T4
X125.2Y-73.4
X125.2Y-74.5
X125.2Y-75.6
X126.3Y-73.4
X126.3Y-74.5
X126.3Y-75.6
X127.4Y-73.4
X127.4Y-74.5
X127.4Y-75.6
T6
X100.42Y-96.5
X100.42Y-98.5
X109.843Y-74.617
X111.843Y-74.617
T7
X100.25Y-71.94
X100.25Y-77.74
T5
G00X96.87Y-70.51
M15
G01X96.27Y-70.51
M16
G05
G00X96.87Y-79.17
M15
G01X96.27Y-79.17
M16
G05
G00X101.15Y-70.51
M15
G01X100.35Y-70.51
M16
G05
G00X101.15Y-79.17
M15
G01X100.35Y-79.17
M16
G05
M30
